<svg id="Layer_1" data-name="Layer 1" xmlns="http://www.w3.org/2000/svg" height="512px" width="512px" viewBox="0 0 508.67432 508.6748"><defs><style>.cls-1{fill:none;}.cls-11,.cls-2{fill:#adc1d4;}.cls-2{opacity:0.15;}.cls-3,.cls-4{fill:#42b290;}.cls-3,.cls-8{opacity:0.6;}.cls-4,.cls-7{opacity:0.8;}.cls-5{fill:#ae8bc0;}.cls-6{fill:#9671b1;}.cls-10,.cls-7,.cls-8{fill:#00a8cb;}.cls-9{fill:#f58b87;}</style></defs><title>disease-risk-detected</title><path class="cls-1" d="M249.68524,147.22223c-1.63025,0-2.69373,1.16571-3.00342,2.95087h5.928C252.3761,148.41132,251.34186,147.22223,249.68524,147.22223Z" transform="translate(-2.71924 -2.55859)"/><path class="cls-1" d="M270.94611,116.168c-1.63031,0-2.69379,1.16571-3.00348,2.95087h5.928C273.6369,117.35712,272.60266,116.168,270.94611,116.168Z" transform="translate(-2.71924 -2.55859)"/><path class="cls-1" d="M241.57477,124.68463c1.83771,0,3.07941-1.01093,3.07941-2.43372v-0.6983a6.067,6.067,0,0,0-2.5097-.52008c-1.68286,0-2.72.67493-2.72,1.91663v0.05261C239.42444,124.06232,240.30383,124.68463,241.57477,124.68463Z" transform="translate(-2.71924 -2.55859)"/><path class="cls-1" d="M226.77075,116.168c-1.63025,0-2.69373,1.16571-3.00342,2.95087h5.928C229.46161,117.35712,228.42737,116.168,226.77075,116.168Z" transform="translate(-2.71924 -2.55859)"/><path class="cls-1" d="M290.67889,147.22223c-1.63031,0-2.69379,1.16571-3.00348,2.95087h5.928C293.36975,148.41132,292.33545,147.22223,290.67889,147.22223Z" transform="translate(-2.71924 -2.55859)"/><path class="cls-1" d="M223.4693,147.22223c-1.63025,0-2.69373,1.16571-3.00342,2.95087h5.928C226.16016,148.41132,225.12592,147.22223,223.4693,147.22223Z" transform="translate(-2.71924 -2.55859)"/><path class="cls-1" d="M307.06055,147.40332a3.524,3.524,0,0,0-3.392,3.83032v0.05255a3.40548,3.40548,0,1,0,6.75775,0v-0.05255A3.52016,3.52016,0,0,0,307.06055,147.40332Z" transform="translate(-2.71924 -2.55859)"/><path class="cls-1" d="M257.05634,257.12555L383.63275,130.54907,257.05664,3.97266,130.48,130.54926Zm0-1.14917a2.74246,2.74246,0,1,1,2.74243-2.74249A2.74248,2.74248,0,0,1,257.05634,255.97638Zm0-8.77472a2.74246,2.74246,0,1,1,2.74243-2.74243A2.74246,2.74246,0,0,1,257.05634,247.20166Zm0-7.78326a2.74243,2.74243,0,1,1,2.74243-2.74243A2.74246,2.74246,0,0,1,257.05634,239.4184Zm0-8.77466a2.74246,2.74246,0,1,1,2.74243-2.74243A2.74246,2.74246,0,0,1,257.05634,230.64374Zm0-8.77472a2.74243,2.74243,0,1,1,2.74243-2.74243A2.74243,2.74243,0,0,1,257.05634,221.869Zm0-8.77466a2.74246,2.74246,0,1,1,2.74243-2.74243A2.74246,2.74246,0,0,1,257.05634,213.09436Zm0-8.77466a2.74246,2.74246,0,1,1,2.74243-2.74249A2.74248,2.74248,0,0,1,257.05634,204.3197Zm8.85577-45.81116a7.08415,7.08415,0,0,1-7.22235-7.16974v-0.05261a7.1238,7.1238,0,0,1,7.2749-7.22229,6.81522,6.81522,0,0,1,5.53656,2.32855l-2.40454,2.58856a4.05648,4.05648,0,0,0-3.15833-1.52509,3.543,3.543,0,0,0-3.36572,3.77771v0.05255a3.556,3.556,0,0,0,3.52057,3.83032,4.39767,4.39767,0,0,0,3.18463-1.47546l2.30225,2.32855A6.98742,6.98742,0,0,1,265.91211,158.50854Zm48.397-.31262h-3.93542v-1.99255a5.09687,5.09687,0,0,1-4.32111,2.25256c-3.23718,0-6.31659-2.536-6.31659-7.16974v-0.05255c0-4.63373,3.02679-7.16974,6.31659-7.16974a5.32775,5.32775,0,0,1,4.32111,2.07147v-6.83374h3.93542v18.89429Zm-14.9267-31.0542v-13.872h3.93549v13.872h-3.93549Zm20.624-18.89429h3.93542v10.068l4.60742-5.04572H333.259l-5.27942,5.46057,5.46057,8.41144h-4.50226l-3.62286-5.668-1.37317,1.4491v4.21887h-3.93542V108.24744Zm-9.23535,13.43372c-1.94-.5697-4.14-1.4754-4.14-4.16626v-0.05261c0-2.82227,2.27594-4.4,5.072-4.4a9.61911,9.61911,0,0,1,5.17712,1.604l-1.50171,2.7171a8.24564,8.24564,0,0,0-3.75433-1.29431c-0.95532,0-1.4491.41492-1.4491,0.95831V117.1c0,0.77716,1.32056,1.1394,2.82233,1.65656,1.93994,0.64569,4.19257,1.5777,4.19257,4.11371v0.05255c0,3.07941-2.30231,4.47888-5.30573,4.47888a9.72761,9.72761,0,0,1-5.95435-2.09772l1.68286-2.58856a7.84594,7.84594,0,0,0,4.37372,1.65656c1.13947,0,1.65656-.412,1.65656-1.03424v-0.05261C313.643,122.432,312.29907,122.14569,310.77106,121.68115Zm-11.49084-13.43372h4.14288v3.49426h-4.14288v-3.49426Zm-10.89484,5.02228h3.93549v2.79315c0.80347-1.9137,2.09772-3.1554,4.42627-3.05316v4.11664h-0.2074c-2.61487,0-4.21887,1.57764-4.21887,4.89081v5.12457h-3.93549v-13.872Zm-4.56653,38.01648a6.9079,6.9079,0,0,1,6.86-7.22229c4.63373,0,6.75482,3.59656,6.75482,7.532,0,0.30969-.02625.672-0.05255,1.0343H287.728a3.21716,3.21716,0,0,0,3.3891,2.72,4.54389,4.54389,0,0,0,3.36572-1.42578l2.25262,1.99548a7.32861,7.32861,0,0,1-12.91663-4.58112v-0.05261Zm-1.83478-6.96228v3.36285h-3.26056v5.928a1.13955,1.13955,0,0,0,1.268,1.34692,3.97642,3.97642,0,0,0,1.93994-.49377v3.15826a5.77607,5.77607,0,0,1-3.10571.80347c-2.40741,0-4.03772-.95831-4.03772-4.16626v-6.5766h-1.65656v-3.36285H274.788V140.777h3.93549v3.54688h3.26056Zm-17.898-24.09186a6.90792,6.90792,0,0,1,6.86-7.22235c4.63373,0,6.75482,3.59656,6.75482,7.532,0,0.30969-.02631.67194-0.05261,1.03424h-9.65308a3.21716,3.21716,0,0,0,3.3891,2.72,4.54414,4.54414,0,0,0,3.36572-1.42572l2.25262,1.99548a7.32865,7.32865,0,0,1-12.91663-4.58118v-0.05255Zm-8.56335,1.4491c-1.93994-.5697-4.14-1.4754-4.14-4.16626v-0.05261c0-2.82227,2.27594-4.4,5.072-4.4a9.61948,9.61948,0,0,1,5.17719,1.604l-1.50177,2.7171a8.24566,8.24566,0,0,0-3.75427-1.29431c-0.95538,0-1.44916.41492-1.44916,0.95831V117.1c0,0.77716,1.32056,1.1394,2.82233,1.65656,1.93994,0.64569,4.19257,1.5777,4.19257,4.11371v0.05255c0,3.07941-2.30231,4.47888-5.30573,4.47888a9.72774,9.72774,0,0,1-5.95435-2.09772l1.68286-2.58856a7.84594,7.84594,0,0,0,4.37372,1.65656c1.13947,0,1.65662-.412,1.65662-1.03424v-0.05261C258.39471,122.432,257.05072,122.14569,255.52271,121.68115Zm0.91742,29.91473c0,0.30969-.02631.672-0.05261,1.0343h-9.65314a3.21726,3.21726,0,0,0,3.38916,2.72,4.544,4.544,0,0,0,3.36572-1.42578l2.25256,1.99548a7.32857,7.32857,0,0,1-12.91656-4.58112v-0.05261a6.90786,6.90786,0,0,1,6.86-7.22229C254.319,144.0639,256.44012,147.66046,256.44012,151.59589ZM235.62042,123.104c0-3.02679,2.30231-4.42627,5.592-4.42627a9.86963,9.86963,0,0,1,3.38916.5697v-0.23376c0-1.63025-1.008-2.53595-2.97717-2.53595a10.22661,10.22661,0,0,0-3.83032.75085l-0.98456-3.00348a12.26345,12.26345,0,0,1,5.38458-1.1131,6.403,6.403,0,0,1,4.68634,1.55432,6.04963,6.04963,0,0,1,1.50171,4.42627v8.04913h-3.80688V125.64a5.32578,5.32578,0,0,1-4.19257,1.76172c-2.61487,0-4.76233-1.50171-4.76233-4.24512V123.104Zm-1.826,17.673h3.93542v3.54688h3.26056v3.36285h-3.26056v5.928a1.13955,1.13955,0,0,0,1.268,1.34692,3.97666,3.97666,0,0,0,1.94-.49377v3.15826a5.77638,5.77638,0,0,1-3.10571.80347c-2.40747,0-4.03772-.95831-4.03772-4.16626v-6.5766h-1.65662v-3.36285h1.65662V140.777Zm-13.88367-20.545a6.90791,6.90791,0,0,1,6.86-7.22235c4.63379,0,6.75488,3.59656,6.75488,7.532,0,0.30969-.02631.67194-0.05261,1.03424h-9.65308a3.21716,3.21716,0,0,0,3.3891,2.72,4.54414,4.54414,0,0,0,3.36572-1.42572l2.25256,1.99548a7.32861,7.32861,0,0,1-12.91656-4.58118v-0.05255Zm3.55853,23.83185c4.63373,0,6.75488,3.59656,6.75488,7.532,0,0.30969-.02631.672-0.05261,1.0343h-9.65314a3.21726,3.21726,0,0,0,3.38916,2.72,4.544,4.544,0,0,0,3.36572-1.42578l2.25256,1.99548a7.32857,7.32857,0,0,1-12.91656-4.58112v-0.05261A6.90786,6.90786,0,0,1,223.4693,144.0639Zm-12.12482-22.38275c-1.93994-.5697-4.14-1.4754-4.14-4.16626v-0.05261c0-2.82227,2.27594-4.4,5.072-4.4a9.61948,9.61948,0,0,1,5.17718,1.604l-1.50177,2.7171a8.24566,8.24566,0,0,0-3.75427-1.29431c-0.95538,0-1.44916.41492-1.44916,0.95831V117.1c0,0.77716,1.32056,1.1394,2.82233,1.65656,1.93994,0.64569,4.19257,1.5777,4.19257,4.11371v0.05255c0,3.07941-2.30231,4.47888-5.30573,4.47888a9.72761,9.72761,0,0,1-5.95435-2.09772l1.68286-2.58856a7.84594,7.84594,0,0,0,4.37372,1.65656c1.13947,0,1.65662-.412,1.65662-1.03424v-0.05261C214.21649,122.432,212.8725,122.14569,211.34448,121.68115Zm-11.49084-13.43372h4.14288v3.49426h-4.14288v-3.49426Zm4.03772,5.02228v13.872h-3.93542v-13.872h3.93542Zm-4.698,37.96393c0-4.63373,3.02679-7.16974,6.31366-7.16974a5.32935,5.32935,0,0,1,4.324,2.07147v-6.83374h3.93549v18.89429h-3.93549v-1.99255a5.09828,5.09828,0,0,1-4.324,2.25256c-3.23425,0-6.31366-2.536-6.31366-7.16974v-0.05255ZM188.00055,113.0097a5.32945,5.32945,0,0,1,4.324,2.07147v-6.83374H196.26v18.89429h-3.93542v-1.99255a5.09844,5.09844,0,0,1-4.324,2.25256c-3.23431,0-6.31372-2.53595-6.31372-7.16968v-0.05261C181.68683,115.54572,184.71368,113.0097,188.00055,113.0097Z" transform="translate(-2.71924 -2.55859)"/><path class="cls-1" d="M206.51794,155.11652a3.52013,3.52013,0,0,0,3.36572-3.83032v-0.05255a3.40548,3.40548,0,1,0-6.75775,0v0.05255A3.53938,3.53938,0,0,0,206.51794,155.11652Z" transform="translate(-2.71924 -2.55859)"/><path class="cls-1" d="M189.01141,124.06232a3.52011,3.52011,0,0,0,3.36572-3.83026v-0.05261a3.40548,3.40548,0,1,0-6.75775,0v0.05261A3.53936,3.53936,0,0,0,189.01141,124.06232Z" transform="translate(-2.71924 -2.55859)"/><path class="cls-2" d="M257.05664,509.81934L382.82031,384.05542H131.29272ZM187.64081,386.58478c0.08527,0,.11725,0,18.5097.02191l30.27686,0.03943c0.02136,0,.0451-0.01385.06665-0.01459h13.57727c0.00964,0.00037.02045,0.00653,0.03,0.00653l3.20233-.004V386.6004h7.50549v0.025c52.77692-.0564,52.85388-0.04871,52.92926-0.04871,6.15338,0.30933,9.96741,3.75836,9.96741,8.999,0.00018,5.20892-3.79779,8.658-9.91351,8.991-0.21625.01605-60.16455,0.02411-60.50586,0.00806-4.171-.14685-8.17749-5.16913-10.20953-11.783-0.18768.62817-.39789,1.23657-0.619,1.83331-2.10651,5.68518-5.65851,9.81787-9.43341,9.9577-0.248.00806-45.3515,0.00037-45.52222-.00763-6.10773-.33344-9.85217-3.78247-9.85236-8.991C177.64984,390.33545,181.49347,386.89447,187.64081,386.58478Z" transform="translate(-2.71924 -2.55859)"/><path class="cls-2" d="M257.05664,509.81934L382.82031,384.05542H131.29272ZM187.64081,386.58478c0.08527,0,.11725,0,18.5097.02191l30.27686,0.03943c0.02136,0,.0451-0.01385.06665-0.01459h13.57727c0.00964,0.00037.02045,0.00653,0.03,0.00653l3.20233-.004V386.6004h7.50549v0.025c52.77692-.0564,52.85388-0.04871,52.92926-0.04871,6.15338,0.30933,9.96741,3.75836,9.96741,8.999,0.00018,5.20892-3.79779,8.658-9.91351,8.991-0.21625.01605-60.16455,0.02411-60.50586,0.00806-4.171-.14685-8.17749-5.16913-10.20953-11.783-0.18768.62817-.39789,1.23657-0.619,1.83331-2.10651,5.68518-5.65851,9.81787-9.43341,9.9577-0.248.00806-45.3515,0.00037-45.52222-.00763-6.10773-.33344-9.85217-3.78247-9.85236-8.991C177.64984,390.33545,181.49347,386.89447,187.64081,386.58478Z" transform="translate(-2.71924 -2.55859)"/><path class="cls-2" d="M130.70959,383.47229l0.58313,0.58313H382.82031l0.58295-.58295L257.05634,257.12555Zm126.34674-106.6568a2.74246,2.74246,0,1,1-2.74249,2.74243A2.74245,2.74245,0,0,1,257.05634,276.81549Zm-2.74249-6.03223a2.74246,2.74246,0,1,1,2.74249,2.74243A2.74246,2.74246,0,0,1,254.31384,270.78326Zm2.74249,13.81549a2.74246,2.74246,0,1,1-2.74249,2.74243A2.74245,2.74245,0,0,1,257.05634,284.59875Zm0,8.77466a2.74246,2.74246,0,1,1-2.74249,2.74249A2.74246,2.74246,0,0,1,257.05634,293.37341Zm0,8.77472a2.74243,2.74243,0,1,1-2.74249,2.74243A2.74245,2.74245,0,0,1,257.05634,302.14813Zm0,8.77466a2.74246,2.74246,0,1,1-2.74249,2.74249A2.74246,2.74246,0,0,1,257.05634,310.92279Zm0,8.77472a2.74243,2.74243,0,1,1-2.74249,2.74243A2.74241,2.74241,0,0,1,257.05634,319.69751Zm0,7.7832a2.74246,2.74246,0,1,1-2.74249,2.74249A2.74246,2.74246,0,0,1,257.05634,327.48071Zm0,8.77472a2.74243,2.74243,0,1,1-2.74249,2.74243A2.74245,2.74245,0,0,1,257.05634,336.25543Zm0,8.77466a2.74246,2.74246,0,1,1-2.74249,2.74249A2.74246,2.74246,0,0,1,257.05634,345.03009Zm-35.22339-1.87982a2.74246,2.74246,0,1,1-2.74249-2.74243A2.74248,2.74248,0,0,1,221.83295,343.15027Zm-8.22736-20.81769a3.61505,3.61505,0,1,1-3.61505,3.61505A3.61507,3.61507,0,0,1,213.60559,322.33258Zm-11.19922,2.4057a2.74246,2.74246,0,1,1-2.74249,2.74243A2.74245,2.74245,0,0,1,202.40637,324.73828ZM192.43384,339.17a2.74243,2.74243,0,1,1-2.74249,2.74243A2.74245,2.74245,0,0,1,192.43384,339.17Zm130.34351-8.73468a2.74243,2.74243,0,1,1-2.74243,2.74243A2.74245,2.74245,0,0,1,322.77734,330.4353Zm-11.25159-8.98682a2.74246,2.74246,0,1,1-2.74249,2.74249A2.74246,2.74246,0,0,1,311.52576,321.44849Zm0,18.08673a3.61505,3.61505,0,1,1-3.61505,3.61505A3.61507,3.61507,0,0,1,311.52576,339.53522Zm-10.76508-16.33a2.74243,2.74243,0,1,1-2.74243,2.74243A2.74241,2.74241,0,0,1,300.76068,323.2052Zm13.05475,39.6441c6.09967,0.33344,9.89777,3.782,9.89777,8.99139,0.00018,5.24652-3.82147,8.68933-9.967,8.999-0.08307.00781-.16022,0.008-52.93713-0.04871v0.02673h-7.50549v-0.03534l-3.20233-.004c-0.01172,0-.02466.00763-0.03638,0.00763H236.471c-0.01147,0-.02429-0.00763-0.03577-0.00763l-30.2688.0376c-18.38666.0321-18.40857,0.02411-18.486,0.02411-6.14734-.30969-9.96936-3.75836-9.96936-8.999,0-5.209,3.79773-8.658,9.91351-8.99139,0.16266-.00806,45.36749-0.01569,45.62347-0.00806,3.56519,0.12964,7.01251,3.83252,9.20941,9.03632,0.29639,0.7019.57355,1.42761,0.82153,2.17957,2.08551-6.32428,5.97662-11.069,10.03058-11.21588C253.65082,362.82593,313.59119,362.83362,313.81543,362.8493Zm-54.01666-100.8407a2.74246,2.74246,0,1,1-2.74243-2.74249A2.74245,2.74245,0,0,1,259.79877,262.00861Z" transform="translate(-2.71924 -2.55859)"/><path class="cls-2" d="M130.70959,383.47229l0.58313,0.58313H382.82031l0.58295-.58295L257.05634,257.12555Zm126.34674-106.6568a2.74246,2.74246,0,1,1-2.74249,2.74243A2.74245,2.74245,0,0,1,257.05634,276.81549Zm-2.74249-6.03223a2.74246,2.74246,0,1,1,2.74249,2.74243A2.74246,2.74246,0,0,1,254.31384,270.78326Zm2.74249,13.81549a2.74246,2.74246,0,1,1-2.74249,2.74243A2.74245,2.74245,0,0,1,257.05634,284.59875Zm0,8.77466a2.74246,2.74246,0,1,1-2.74249,2.74249A2.74246,2.74246,0,0,1,257.05634,293.37341Zm0,8.77472a2.74243,2.74243,0,1,1-2.74249,2.74243A2.74245,2.74245,0,0,1,257.05634,302.14813Zm0,8.77466a2.74246,2.74246,0,1,1-2.74249,2.74249A2.74246,2.74246,0,0,1,257.05634,310.92279Zm0,8.77472a2.74243,2.74243,0,1,1-2.74249,2.74243A2.74241,2.74241,0,0,1,257.05634,319.69751Zm0,7.7832a2.74246,2.74246,0,1,1-2.74249,2.74249A2.74246,2.74246,0,0,1,257.05634,327.48071Zm0,8.77472a2.74243,2.74243,0,1,1-2.74249,2.74243A2.74245,2.74245,0,0,1,257.05634,336.25543Zm0,8.77466a2.74246,2.74246,0,1,1-2.74249,2.74249A2.74246,2.74246,0,0,1,257.05634,345.03009Zm-35.22339-1.87982a2.74246,2.74246,0,1,1-2.74249-2.74243A2.74248,2.74248,0,0,1,221.83295,343.15027Zm-8.22736-20.81769a3.61505,3.61505,0,1,1-3.61505,3.61505A3.61507,3.61507,0,0,1,213.60559,322.33258Zm-11.19922,2.4057a2.74246,2.74246,0,1,1-2.74249,2.74243A2.74245,2.74245,0,0,1,202.40637,324.73828ZM192.43384,339.17a2.74243,2.74243,0,1,1-2.74249,2.74243A2.74245,2.74245,0,0,1,192.43384,339.17Zm130.34351-8.73468a2.74243,2.74243,0,1,1-2.74243,2.74243A2.74245,2.74245,0,0,1,322.77734,330.4353Zm-11.25159-8.98682a2.74246,2.74246,0,1,1-2.74249,2.74249A2.74246,2.74246,0,0,1,311.52576,321.44849Zm0,18.08673a3.61505,3.61505,0,1,1-3.61505,3.61505A3.61507,3.61507,0,0,1,311.52576,339.53522Zm-10.76508-16.33a2.74243,2.74243,0,1,1-2.74243,2.74243A2.74241,2.74241,0,0,1,300.76068,323.2052Zm13.05475,39.6441c6.09967,0.33344,9.89777,3.782,9.89777,8.99139,0.00018,5.24652-3.82147,8.68933-9.967,8.999-0.08307.00781-.16022,0.008-52.93713-0.04871v0.02673h-7.50549v-0.03534l-3.20233-.004c-0.01172,0-.02466.00763-0.03638,0.00763H236.471c-0.01147,0-.02429-0.00763-0.03577-0.00763l-30.2688.0376c-18.38666.0321-18.40857,0.02411-18.486,0.02411-6.14734-.30969-9.96936-3.75836-9.96936-8.999,0-5.209,3.79773-8.658,9.91351-8.99139,0.16266-.00806,45.36749-0.01569,45.62347-0.00806,3.56519,0.12964,7.01251,3.83252,9.20941,9.03632,0.29639,0.7019.57355,1.42761,0.82153,2.17957,2.08551-6.32428,5.97662-11.069,10.03058-11.21588C253.65082,362.82593,313.59119,362.83362,313.81543,362.8493Zm-54.01666-100.8407a2.74246,2.74246,0,1,1-2.74243-2.74249A2.74245,2.74245,0,0,1,259.79877,262.00861Z" transform="translate(-2.71924 -2.55859)"/><path class="cls-2" d="M130.70959,383.47229l0.58313,0.58313H382.82031l0.58295-.58295L257.05634,257.12555Zm126.34674-106.6568a2.74246,2.74246,0,1,1-2.74249,2.74243A2.74245,2.74245,0,0,1,257.05634,276.81549Zm-2.74249-6.03223a2.74246,2.74246,0,1,1,2.74249,2.74243A2.74246,2.74246,0,0,1,254.31384,270.78326Zm2.74249,13.81549a2.74246,2.74246,0,1,1-2.74249,2.74243A2.74245,2.74245,0,0,1,257.05634,284.59875Zm0,8.77466a2.74246,2.74246,0,1,1-2.74249,2.74249A2.74246,2.74246,0,0,1,257.05634,293.37341Zm0,8.77472a2.74243,2.74243,0,1,1-2.74249,2.74243A2.74245,2.74245,0,0,1,257.05634,302.14813Zm0,8.77466a2.74246,2.74246,0,1,1-2.74249,2.74249A2.74246,2.74246,0,0,1,257.05634,310.92279Zm0,8.77472a2.74243,2.74243,0,1,1-2.74249,2.74243A2.74241,2.74241,0,0,1,257.05634,319.69751Zm0,7.7832a2.74246,2.74246,0,1,1-2.74249,2.74249A2.74246,2.74246,0,0,1,257.05634,327.48071Zm0,8.77472a2.74243,2.74243,0,1,1-2.74249,2.74243A2.74245,2.74245,0,0,1,257.05634,336.25543Zm0,8.77466a2.74246,2.74246,0,1,1-2.74249,2.74249A2.74246,2.74246,0,0,1,257.05634,345.03009Zm-35.22339-1.87982a2.74246,2.74246,0,1,1-2.74249-2.74243A2.74248,2.74248,0,0,1,221.83295,343.15027Zm-8.22736-20.81769a3.61505,3.61505,0,1,1-3.61505,3.61505A3.61507,3.61507,0,0,1,213.60559,322.33258Zm-11.19922,2.4057a2.74246,2.74246,0,1,1-2.74249,2.74243A2.74245,2.74245,0,0,1,202.40637,324.73828ZM192.43384,339.17a2.74243,2.74243,0,1,1-2.74249,2.74243A2.74245,2.74245,0,0,1,192.43384,339.17Zm130.34351-8.73468a2.74243,2.74243,0,1,1-2.74243,2.74243A2.74245,2.74245,0,0,1,322.77734,330.4353Zm-11.25159-8.98682a2.74246,2.74246,0,1,1-2.74249,2.74249A2.74246,2.74246,0,0,1,311.52576,321.44849Zm0,18.08673a3.61505,3.61505,0,1,1-3.61505,3.61505A3.61507,3.61507,0,0,1,311.52576,339.53522Zm-10.76508-16.33a2.74243,2.74243,0,1,1-2.74243,2.74243A2.74241,2.74241,0,0,1,300.76068,323.2052Zm13.05475,39.6441c6.09967,0.33344,9.89777,3.782,9.89777,8.99139,0.00018,5.24652-3.82147,8.68933-9.967,8.999-0.08307.00781-.16022,0.008-52.93713-0.04871v0.02673h-7.50549v-0.03534l-3.20233-.004c-0.01172,0-.02466.00763-0.03638,0.00763H236.471c-0.01147,0-.02429-0.00763-0.03577-0.00763l-30.2688.0376c-18.38666.0321-18.40857,0.02411-18.486,0.02411-6.14734-.30969-9.96936-3.75836-9.96936-8.999,0-5.209,3.79773-8.658,9.91351-8.99139,0.16266-.00806,45.36749-0.01569,45.62347-0.00806,3.56519,0.12964,7.01251,3.83252,9.20941,9.03632,0.29639,0.7019.57355,1.42761,0.82153,2.17957,2.08551-6.32428,5.97662-11.069,10.03058-11.21588C253.65082,362.82593,313.59119,362.83362,313.81543,362.8493Zm-54.01666-100.8407a2.74246,2.74246,0,1,1-2.74243-2.74249A2.74245,2.74245,0,0,1,259.79877,262.00861Z" transform="translate(-2.71924 -2.55859)"/><path class="cls-2" d="M243.279,374.0575c-0.248-.752-0.52515-1.47766-0.82153-2.17957l0.00018,8.90808h7.60724c0.01172,0,.02466-0.00763.03638-0.00763l3.20233,0.004V362.85864h7.50549V380.791c52.77692,0.0567,52.85406.05652,52.93713,0.04871,6.14551-.30969,9.96716-3.7525,9.967-8.999,0-5.20935-3.7981-8.658-9.89777-8.99139-0.22424-.01569-60.16461-0.02338-60.50586-0.00769C249.25562,362.98846,245.3645,367.73322,243.279,374.0575Z" transform="translate(-2.71924 -2.55859)"/><path class="cls-2" d="M243.279,374.0575c-0.248-.752-0.52515-1.47766-0.82153-2.17957l0.00018,8.90808h7.60724c0.01172,0,.02466-0.00763.03638-0.00763l3.20233,0.004V362.85864h7.50549V380.791c52.77692,0.0567,52.85406.05652,52.93713,0.04871,6.14551-.30969,9.96716-3.7525,9.967-8.999,0-5.20935-3.7981-8.658-9.89777-8.99139-0.22424-.01569-60.16461-0.02338-60.50586-0.00769C249.25562,362.98846,245.3645,367.73322,243.279,374.0575Z" transform="translate(-2.71924 -2.55859)"/><path class="cls-2" d="M243.279,374.0575c-0.248-.752-0.52515-1.47766-0.82153-2.17957l0.00018,8.90808h7.60724c0.01172,0,.02466-0.00763.03638-0.00763l3.20233,0.004V362.85864h7.50549V380.791c52.77692,0.0567,52.85406.05652,52.93713,0.04871,6.14551-.30969,9.96716-3.7525,9.967-8.999,0-5.20935-3.7981-8.658-9.89777-8.99139-0.22424-.01569-60.16461-0.02338-60.50586-0.00769C249.25562,362.98846,245.3645,367.73322,243.279,374.0575Z" transform="translate(-2.71924 -2.55859)"/><path class="cls-3" d="M243.279,374.0575c-0.248-.752-0.52515-1.47766-0.82153-2.17957l0.00018,8.90808h7.60724c0.01172,0,.02466-0.00763.03638-0.00763l3.20233,0.004V362.85864h7.50549V380.791c52.77692,0.0567,52.85406.05652,52.93713,0.04871,6.14551-.30969,9.96716-3.7525,9.967-8.999,0-5.20935-3.7981-8.658-9.89777-8.99139-0.22424-.01569-60.16461-0.02338-60.50586-0.00769C249.25562,362.98846,245.3645,367.73322,243.279,374.0575Z" transform="translate(-2.71924 -2.55859)"/><path class="cls-2" d="M243.07684,392.79181c2.032,6.61389,6.03851,11.63617,10.20953,11.783,0.34131,0.01605,60.28961.008,60.50586-.00806,6.11572-.33307,9.9137-3.7821,9.91351-8.991,0-5.24066-3.814-8.6897-9.96741-8.999-0.07538,0-.15234-0.00769-52.92926.04871v17.93408h-7.50549V386.634l-3.20233.004c-0.00952,0-.02032-0.00616-0.03-0.00653h-7.61365l0.00018,7.99359C242.679,394.02838,242.88916,393.42,243.07684,392.79181Z" transform="translate(-2.71924 -2.55859)"/><path class="cls-2" d="M243.07684,392.79181c2.032,6.61389,6.03851,11.63617,10.20953,11.783,0.34131,0.01605,60.28961.008,60.50586-.00806,6.11572-.33307,9.9137-3.7821,9.91351-8.991,0-5.24066-3.814-8.6897-9.96741-8.999-0.07538,0-.15234-0.00769-52.92926.04871v17.93408h-7.50549V386.634l-3.20233.004c-0.00952,0-.02032-0.00616-0.03-0.00653h-7.61365l0.00018,7.99359C242.679,394.02838,242.88916,393.42,243.07684,392.79181Z" transform="translate(-2.71924 -2.55859)"/><path class="cls-3" d="M243.07684,392.79181c2.032,6.61389,6.03851,11.63617,10.20953,11.783,0.34131,0.01605,60.28961.008,60.50586-.00806,6.11572-.33307,9.9137-3.7821,9.91351-8.991,0-5.24066-3.814-8.6897-9.96741-8.999-0.07538,0-.15234-0.00769-52.92926.04871v17.93408h-7.50549V386.634l-3.20233.004c-0.00952,0-.02032-0.00616-0.03-0.00653h-7.61365l0.00018,7.99359C242.679,394.02838,242.88916,393.42,243.07684,392.79181Z" transform="translate(-2.71924 -2.55859)"/><path class="cls-2" d="M233.248,362.84161c-0.256-.00763-45.46082,0-45.62347.00806-6.11578.33344-9.91351,3.78241-9.91351,8.99139,0,5.24066,3.822,8.68933,9.96936,8.999,0.07745,0,.09937.008,18.486-0.02411l30.2688-.0376c0.01147,0,.02429.00763,0.03577,0.00763h5.98663l-0.00018-8.90808C240.26056,366.67413,236.81323,362.97125,233.248,362.84161Z" transform="translate(-2.71924 -2.55859)"/><path class="cls-2" d="M233.248,362.84161c-0.256-.00763-45.46082,0-45.62347.00806-6.11578.33344-9.91351,3.78241-9.91351,8.99139,0,5.24066,3.822,8.68933,9.96936,8.999,0.07745,0,.09937.008,18.486-0.02411l30.2688-.0376c0.01147,0,.02429.00763,0.03577,0.00763h5.98663l-0.00018-8.90808C240.26056,366.67413,236.81323,362.97125,233.248,362.84161Z" transform="translate(-2.71924 -2.55859)"/><path class="cls-2" d="M233.248,362.84161c-0.256-.00763-45.46082,0-45.62347.00806-6.11578.33344-9.91351,3.78241-9.91351,8.99139,0,5.24066,3.822,8.68933,9.96936,8.999,0.07745,0,.09937.008,18.486-0.02411l30.2688-.0376c0.01147,0,.02429.00763,0.03577,0.00763h5.98663l-0.00018-8.90808C240.26056,366.67413,236.81323,362.97125,233.248,362.84161Z" transform="translate(-2.71924 -2.55859)"/><path class="cls-4" d="M233.248,362.84161c-0.256-.00763-45.46082,0-45.62347.00806-6.11578.33344-9.91351,3.78241-9.91351,8.99139,0,5.24066,3.822,8.68933,9.96936,8.999,0.07745,0,.09937.008,18.486-0.02411l30.2688-.0376c0.01147,0,.02429.00763,0.03577,0.00763h5.98663l-0.00018-8.90808C240.26056,366.67413,236.81323,362.97125,233.248,362.84161Z" transform="translate(-2.71924 -2.55859)"/><path class="cls-2" d="M187.5022,404.5752c0.17072,0.008,45.27423.01569,45.52222,0.00763,3.7749-.13983,7.3269-4.27252,9.43341-9.9577l-0.00018-7.99359H236.494c-0.02155.00073-.04529,0.01459-0.06665,0.01459l-30.27686-.03943c-18.39246-.02191-18.42444-0.02191-18.5097-0.02191-6.14734.30969-9.991,3.75067-9.991,8.99939C177.65,400.79272,181.39447,404.24176,187.5022,404.5752Z" transform="translate(-2.71924 -2.55859)"/><path class="cls-2" d="M187.5022,404.5752c0.17072,0.008,45.27423.01569,45.52222,0.00763,3.7749-.13983,7.3269-4.27252,9.43341-9.9577l-0.00018-7.99359H236.494c-0.02155.00073-.04529,0.01459-0.06665,0.01459l-30.27686-.03943c-18.39246-.02191-18.42444-0.02191-18.5097-0.02191-6.14734.30969-9.991,3.75067-9.991,8.99939C177.65,400.79272,181.39447,404.24176,187.5022,404.5752Z" transform="translate(-2.71924 -2.55859)"/><path class="cls-4" d="M187.5022,404.5752c0.17072,0.008,45.27423.01569,45.52222,0.00763,3.7749-.13983,7.3269-4.27252,9.43341-9.9577l-0.00018-7.99359H236.494c-0.02155.00073-.04529,0.01459-0.06665,0.01459l-30.27686-.03943c-18.39246-.02191-18.42444-0.02191-18.5097-0.02191-6.14734.30969-9.991,3.75067-9.991,8.99939C177.65,400.79272,181.39447,404.24176,187.5022,404.5752Z" transform="translate(-2.71924 -2.55859)"/><path class="cls-2" d="M383.98633,260.7287a21.489,21.489,0,1,0-21.48907-21.48883A21.51295,21.51295,0,0,0,383.98633,260.7287Z" transform="translate(-2.71924 -2.55859)"/><path class="cls-2" d="M383.40326,383.47247L509.97949,256.896,383.63275,130.54907,257.05634,257.12555ZM330.50085,315.621a3.61505,3.61505,0,1,1,3.61505-3.61505A3.61507,3.61507,0,0,1,330.50085,315.621Zm31.70465,3.61505a3.61505,3.61505,0,1,1,3.61505-3.61505A3.615,3.615,0,0,1,362.20551,319.23608ZM383.98633,201.882a37.325,37.325,0,0,1,11.03314,72.99213c-0.81982.25427-1.644,0.49988-2.48676,0.69812v10.37482h13.478v17.09277h-13.478v13.478H375.43994v-13.478h-13.478V285.94708h13.478V275.57251c-0.843-.19849-1.66718-0.44385-2.48743-0.69836A37.32508,37.32508,0,0,1,383.98633,201.882Zm-39.56244,69.37708a3.61505,3.61505,0,1,1-3.61505,3.61505A3.61507,3.61507,0,0,1,344.42389,271.25909Zm0,27.59924a3.61505,3.61505,0,1,1-3.61505,3.61505A3.61507,3.61507,0,0,1,344.42389,298.85834Zm-4.27576,27.08929a2.74246,2.74246,0,1,1-2.74243,2.74243A2.74246,2.74246,0,0,1,340.14813,325.94763Zm-6.03223-29.6615a2.74246,2.74246,0,1,1-2.74243-2.74243A2.74245,2.74245,0,0,1,334.11591,296.28613Zm-7.72351-21.33466a3.61505,3.61505,0,1,1-3.61505,3.61505A3.61507,3.61507,0,0,1,326.3924,274.95148Zm-11.25159,20.29181a3.61505,3.61505,0,1,1-3.61505,3.61505A3.61507,3.61507,0,0,1,315.14081,295.24329Z" transform="translate(-2.71924 -2.55859)"/><path class="cls-2" d="M106.56018,252.23364a21.71424,21.71424,0,0,0,.60883,30.38379,21.39492,21.39492,0,0,0,36.12183-18.00128,21.27855,21.27855,0,0,0-6.34692-12.99133A21.51294,21.51294,0,0,0,106.56018,252.23364Z" transform="translate(-2.71924 -2.55859)"/><path class="cls-2" d="M130.48,130.54926L4.1333,256.896,130.70959,383.47229,257.05634,257.12555Zm11.21838,189.58368a3.61505,3.61505,0,1,1,3.61505-3.61505A3.61507,3.61507,0,0,1,141.69843,320.13293Zm7.298-27.13031a37.35783,37.35783,0,1,1-7.93195-58.00287l8.77448-9.13336-9.521.08L126.27936,212.459l48.39-.47717,2.04462,48.93024L162.67511,247.425l-0.31439-9.92035-8.96991,9.33661A37.46054,37.46054,0,0,1,148.99646,293.00262Zm28.59009-10.821a3.61505,3.61505,0,1,1-3.61505-3.61505A3.61507,3.61507,0,0,1,177.58655,282.18158Zm-14.60584,31.36487a3.61505,3.61505,0,1,1,3.61505-3.61505A3.61507,3.61507,0,0,1,162.98071,313.54645ZM173.9715,327.806a3.61505,3.61505,0,1,1,3.61505-3.61505A3.61507,3.61507,0,0,1,173.9715,327.806Zm2.74243-26.20526a2.74243,2.74243,0,1,1,2.74249-2.74243A2.74245,2.74245,0,0,1,176.71393,301.60077Zm12.97742,9.64728a3.61505,3.61505,0,1,1,3.61505-3.61505A3.615,3.615,0,0,1,189.69135,311.248Zm15.45746-12.21948a2.74243,2.74243,0,1,1,2.74249-2.74243A2.74245,2.74245,0,0,1,205.1488,299.02856Z" transform="translate(-2.71924 -2.55859)"/><path class="cls-5" d="M375.43994,275.57251v10.37457h-13.478v17.09277h13.478v13.478h17.09277v-13.478h13.478V285.94708h-13.478V275.57227c0.84277-.19824,1.66693-0.44385,2.48676-0.69812h-22.067C373.77277,275.12866,374.597,275.374,375.43994,275.57251Z" transform="translate(-2.71924 -2.55859)"/><path class="cls-6" d="M372.95251,274.87415h22.067A37.35756,37.35756,0,1,0,372.95251,274.87415Zm11.03381-57.12335a21.489,21.489,0,1,1-21.48907,21.48907A21.513,21.513,0,0,1,383.98633,217.75079Z" transform="translate(-2.71924 -2.55859)"/><path class="cls-2" d="M106.56018,252.23364a21.51294,21.51294,0,0,1,30.38373-.60883,21.27855,21.27855,0,0,1,6.34692,12.99133h15.98749a37.369,37.369,0,0,0-5.88751-17.77484l8.96991-9.33661,0.31439,9.92035,14.03882,13.48706-2.04462-48.93024-48.39.47717,14.03864,13.4873,9.521-.08-8.77448,9.13336a37.28644,37.28644,0,0,0-56.25073,29.61639h15.98969A21.28064,21.28064,0,0,1,106.56018,252.23364Z" transform="translate(-2.71924 -2.55859)"/><path class="cls-7" d="M106.56018,252.23364a21.51294,21.51294,0,0,1,30.38373-.60883,21.27855,21.27855,0,0,1,6.34692,12.99133h15.98749a37.369,37.369,0,0,0-5.88751-17.77484l8.96991-9.33661,0.31439,9.92035,14.03882,13.48706-2.04462-48.93024-48.39.47717,14.03864,13.4873,9.521-.08-8.77448,9.13336a37.28644,37.28644,0,0,0-56.25073,29.61639h15.98969A21.28064,21.28064,0,0,1,106.56018,252.23364Z" transform="translate(-2.71924 -2.55859)"/><path class="cls-2" d="M143.29083,264.61615a21.4039,21.4039,0,1,1-42.48737,0H84.81378a37.32082,37.32082,0,1,0,74.46454,0H143.29083Z" transform="translate(-2.71924 -2.55859)"/><path class="cls-8" d="M143.29083,264.61615a21.4039,21.4039,0,1,1-42.48737,0H84.81378a37.32082,37.32082,0,1,0,74.46454,0H143.29083Z" transform="translate(-2.71924 -2.55859)"/><polygon class="cls-9" points="250.584 360.3 250.584 378.224 250.584 378.259 258.09 378.259 258.09 378.232 258.09 360.3 250.584 360.3"/><polygon class="cls-9" points="258.09 402.001 258.09 384.067 258.09 384.042 250.584 384.042 250.584 384.075 250.584 402.001 258.09 402.001"/><circle class="cls-10" cx="254.33708" cy="199.01863" r="2.74246"/><circle class="cls-11" cx="254.33708" cy="207.79332" r="2.74246"/><circle class="cls-6" cx="254.33708" cy="216.56799" r="2.74245"/><circle class="cls-10" cx="254.33708" cy="225.3427" r="2.74246"/><circle class="cls-11" cx="254.33708" cy="234.11737" r="2.74245"/><circle class="cls-10" cx="254.33708" cy="241.90062" r="2.74246"/><circle class="cls-11" cx="254.33708" cy="250.67531" r="2.74246"/><circle class="cls-6" cx="254.33708" cy="259.45" r="2.74246"/><circle class="cls-10" cx="254.33708" cy="268.22467" r="2.74245"/><circle class="cls-11" cx="254.33708" cy="276.99934" r="2.74246"/><circle class="cls-10" cx="254.33708" cy="284.78261" r="2.74246"/><circle class="cls-11" cx="254.33708" cy="293.5573" r="2.74246"/><circle class="cls-6" cx="254.33708" cy="302.33197" r="2.74245"/><circle class="cls-10" cx="254.33708" cy="311.10667" r="2.74246"/><circle class="cls-11" cx="254.33708" cy="319.88135" r="2.74245"/><circle class="cls-10" cx="254.33708" cy="327.6646" r="2.74246"/><circle class="cls-11" cx="254.33708" cy="336.43927" r="2.74245"/><circle class="cls-6" cx="254.33708" cy="345.21397" r="2.74246"/><circle class="cls-10" cx="173.99471" cy="296.29974" r="2.74245"/><path class="cls-9" d="M188.00055,127.40173a5.09844,5.09844,0,0,0,4.324-2.25256v1.99255H196.26V108.24744h-3.93542v6.83374a5.32945,5.32945,0,0,0-4.324-2.07147c-3.28687,0-6.31372,2.536-6.31372,7.16974v0.05261C181.68683,124.86578,184.76624,127.40173,188.00055,127.40173Zm-2.38116-7.22229a3.40548,3.40548,0,1,1,6.75775,0v0.05261a3.40548,3.40548,0,1,1-6.75775,0v-0.05261Z" transform="translate(-2.71924 -2.55859)"/><rect class="cls-9" x="197.23669" y="110.71112" width="3.93542" height="13.87201"/><rect class="cls-9" x="197.1344" y="105.68884" width="4.14288" height="3.49426"/><path class="cls-9" d="M212.55988,124.372a7.84594,7.84594,0,0,1-4.37372-1.65656L206.5033,125.304a9.72761,9.72761,0,0,0,5.95435,2.09772c3.00342,0,5.30573-1.39948,5.30573-4.47888V122.8703c0-2.536-2.25262-3.468-4.19257-4.11371-1.50177-.51715-2.82233-0.87939-2.82233-1.65656v-0.05261c0-.5434.49377-0.95831,1.44916-0.95831a8.24566,8.24566,0,0,1,3.75427,1.29431l1.50177-2.7171a9.61948,9.61948,0,0,0-5.17718-1.604c-2.796,0-5.072,1.5777-5.072,4.4v0.05261c0,2.69086,2.2,3.59656,4.14,4.16626,1.528,0.46454,2.872.75085,2.872,1.604v0.05261C214.21649,123.96,213.69934,124.372,212.55988,124.372Z" transform="translate(-2.71924 -2.55859)"/><path class="cls-9" d="M227.15936,127.45435a6.94173,6.94173,0,0,0,5.668-2.58856l-2.25256-1.99548A4.54414,4.54414,0,0,1,227.209,124.296a3.21716,3.21716,0,0,1-3.3891-2.72H233.473c0.02631-.3623.05261-0.72455,0.05261-1.03424,0-3.93549-2.12109-7.532-6.75488-7.532a6.90791,6.90791,0,0,0-6.86,7.22235v0.05255A6.9406,6.9406,0,0,0,227.15936,127.45435ZM226.77075,116.168c1.65662,0,2.69086,1.18909,2.92462,2.95087h-5.928C224.077,117.33374,225.1405,116.168,226.77075,116.168Z" transform="translate(-2.71924 -2.55859)"/><path class="cls-9" d="M240.38275,127.40173a5.32578,5.32578,0,0,0,4.19257-1.76172v1.50171h3.80688v-8.04913a6.04963,6.04963,0,0,0-1.50171-4.42627,6.403,6.403,0,0,0-4.68634-1.55432,12.26345,12.26345,0,0,0-5.38458,1.1131l0.98456,3.00348a10.22661,10.22661,0,0,1,3.83032-.75085c1.96918,0,2.97717.9057,2.97717,2.53595v0.23376a9.86963,9.86963,0,0,0-3.38916-.5697c-3.28973,0-5.592,1.39948-5.592,4.42627v0.05261C235.62042,125.9,237.76788,127.40173,240.38275,127.40173Zm-0.95831-4.45258c0-1.2417,1.03717-1.91663,2.72-1.91663a6.067,6.067,0,0,1,2.5097.52008v0.6983c0,1.42279-1.2417,2.43372-3.07941,2.43372-1.27094,0-2.15033-.62231-2.15033-1.68286v-0.05261Z" transform="translate(-2.71924 -2.55859)"/><path class="cls-9" d="M256.7381,124.372a7.84594,7.84594,0,0,1-4.37372-1.65656l-1.68286,2.58856a9.72774,9.72774,0,0,0,5.95435,2.09772c3.00342,0,5.30573-1.39948,5.30573-4.47888V122.8703c0-2.536-2.25262-3.468-4.19257-4.11371-1.50177-.51715-2.82233-0.87939-2.82233-1.65656v-0.05261c0-.5434.49377-0.95831,1.44916-0.95831a8.24566,8.24566,0,0,1,3.75427,1.29431l1.50177-2.7171a9.61948,9.61948,0,0,0-5.17719-1.604c-2.796,0-5.072,1.5777-5.072,4.4v0.05261c0,2.69086,2.2,3.59656,4.14,4.16626,1.528,0.46454,2.872.75085,2.872,1.604v0.05261C258.39471,123.96,257.87756,124.372,256.7381,124.372Z" transform="translate(-2.71924 -2.55859)"/><path class="cls-9" d="M271.33466,127.45435a6.94194,6.94194,0,0,0,5.668-2.58856l-2.25262-1.99548a4.54414,4.54414,0,0,1-3.36572,1.42572,3.21716,3.21716,0,0,1-3.3891-2.72h9.65308c0.02631-.3623.05261-0.72455,0.05261-1.03424,0-3.93549-2.12109-7.532-6.75482-7.532a6.90792,6.90792,0,0,0-6.86,7.22235v0.05255A6.9406,6.9406,0,0,0,271.33466,127.45435ZM270.94611,116.168c1.65656,0,2.6908,1.18909,2.92456,2.95087h-5.928C268.25232,117.33374,269.3158,116.168,270.94611,116.168Z" transform="translate(-2.71924 -2.55859)"/><path class="cls-9" d="M292.32086,122.01715c0-3.31317,1.604-4.89081,4.21887-4.89081h0.2074V113.0097c-2.32855-.10223-3.6228,1.13947-4.42627,3.05316v-2.79315h-3.93549v13.872h3.93549v-5.12457Z" transform="translate(-2.71924 -2.55859)"/><rect class="cls-9" x="296.66321" y="110.71112" width="3.93549" height="13.87201"/><rect class="cls-9" x="296.56097" y="105.68884" width="4.14288" height="3.49426"/><path class="cls-9" d="M311.98645,124.372a7.84594,7.84594,0,0,1-4.37372-1.65656l-1.68286,2.58856a9.72761,9.72761,0,0,0,5.95435,2.09772c3.00342,0,5.30573-1.39948,5.30573-4.47888V122.8703c0-2.536-2.25262-3.468-4.19257-4.11371-1.50177-.51715-2.82233-0.87939-2.82233-1.65656v-0.05261c0-.5434.49377-0.95831,1.4491-0.95831a8.24564,8.24564,0,0,1,3.75433,1.29431l1.50171-2.7171a9.61911,9.61911,0,0,0-5.17712-1.604c-2.796,0-5.072,1.5777-5.072,4.4v0.05261c0,2.69086,2.2,3.59656,4.14,4.16626,1.528,0.46454,2.87195.75085,2.87195,1.604v0.05261C313.643,123.96,313.12592,124.372,311.98645,124.372Z" transform="translate(-2.71924 -2.55859)"/><polygon class="cls-9" points="321.223 120.364 322.596 118.915 326.219 124.583 330.721 124.583 325.26 116.172 330.54 110.711 325.83 110.711 321.223 115.757 321.223 105.689 317.287 105.689 317.287 124.583 321.223 124.583 321.223 120.364"/><path class="cls-9" d="M205.507,158.45593a5.09828,5.09828,0,0,0,4.324-2.25256v1.99255h3.93549V139.30164h-3.93549v6.83374a5.32935,5.32935,0,0,0-4.324-2.07147c-3.28687,0-6.31366,2.536-6.31366,7.16974v0.05255C199.19336,155.91992,202.27277,158.45593,205.507,158.45593Zm-2.3811-7.22229a3.40548,3.40548,0,1,1,6.75775,0v0.05255a3.40548,3.40548,0,1,1-6.75775,0v-0.05255Z" transform="translate(-2.71924 -2.55859)"/><path class="cls-9" d="M216.60931,151.33881a7.32857,7.32857,0,0,0,12.91656,4.58112l-2.25256-1.99548a4.544,4.544,0,0,1-3.36572,1.42578,3.21726,3.21726,0,0,1-3.38916-2.72h9.65314c0.02631-.3623.05261-0.72461,0.05261-1.0343,0-3.93542-2.12115-7.532-6.75488-7.532a6.90786,6.90786,0,0,0-6.86,7.22229v0.05261Zm6.86-4.11658c1.65662,0,2.69086,1.18909,2.92456,2.95087h-5.928C220.77557,148.38794,221.83905,147.22223,223.4693,147.22223Z" transform="translate(-2.71924 -2.55859)"/><path class="cls-9" d="M232.13782,147.68677h1.65662v6.5766c0,3.20795,1.63025,4.16626,4.03772,4.16626a5.77638,5.77638,0,0,0,3.10571-.80347V154.4679a3.97666,3.97666,0,0,1-1.94.49377,1.13955,1.13955,0,0,1-1.268-1.34692v-5.928h3.26056v-3.36285h-3.26056V140.777h-3.93542v3.54688h-1.65662v3.36285Z" transform="translate(-2.71924 -2.55859)"/><path class="cls-9" d="M242.82526,151.28619v0.05261a7.32857,7.32857,0,0,0,12.91656,4.58112l-2.25256-1.99548a4.544,4.544,0,0,1-3.36572,1.42578,3.21726,3.21726,0,0,1-3.38916-2.72h9.65314c0.02631-.3623.05261-0.72461,0.05261-1.0343,0-3.93542-2.12115-7.532-6.75488-7.532A6.90786,6.90786,0,0,0,242.82526,151.28619Zm6.86-4.064c1.65662,0,2.69086,1.18909,2.92456,2.95087h-5.928C246.99152,148.38794,248.055,147.22223,249.68524,147.22223Z" transform="translate(-2.71924 -2.55859)"/><path class="cls-9" d="M266.0932,155.11652a3.556,3.556,0,0,1-3.52057-3.83032v-0.05255a3.543,3.543,0,0,1,3.36572-3.77771,4.05648,4.05648,0,0,1,3.15833,1.52509l2.40454-2.58856a6.81522,6.81522,0,0,0-5.53656-2.32855,7.1238,7.1238,0,0,0-7.2749,7.22229v0.05261a7.08415,7.08415,0,0,0,7.22235,7.16974,6.98742,6.98742,0,0,0,5.668-2.53894l-2.30225-2.32855A4.39767,4.39767,0,0,1,266.0932,155.11652Z" transform="translate(-2.71924 -2.55859)"/><path class="cls-9" d="M274.788,140.777v3.54688h-1.65656v3.36285H274.788v6.5766c0,3.20795,1.63031,4.16626,4.03772,4.16626a5.77607,5.77607,0,0,0,3.10571-.80347V154.4679a3.97642,3.97642,0,0,1-1.93994.49377,1.13955,1.13955,0,0,1-1.268-1.34692v-5.928h3.26056v-3.36285h-3.26056V140.777H274.788Z" transform="translate(-2.71924 -2.55859)"/><path class="cls-9" d="M291.06744,158.50854a6.94181,6.94181,0,0,0,5.668-2.58862l-2.25262-1.99548a4.54389,4.54389,0,0,1-3.36572,1.42578,3.21716,3.21716,0,0,1-3.3891-2.72h9.65314c0.02631-.3623.05255-0.72461,0.05255-1.0343,0-3.93542-2.12109-7.532-6.75482-7.532a6.9079,6.9079,0,0,0-6.86,7.22229v0.05261A6.9406,6.9406,0,0,0,291.06744,158.50854Zm-0.38855-11.28632c1.65656,0,2.69086,1.18909,2.92456,2.95087h-5.928C287.98511,148.38794,289.04858,147.22223,290.67889,147.22223Z" transform="translate(-2.71924 -2.55859)"/><path class="cls-9" d="M310.37372,146.13538a5.32775,5.32775,0,0,0-4.32111-2.07147c-3.28979,0-6.31659,2.536-6.31659,7.16974v0.05255c0,4.63373,3.07941,7.16974,6.31659,7.16974a5.09687,5.09687,0,0,0,4.32111-2.25256v1.99255h3.93542V139.30164h-3.93542v6.83374Zm0.05255,5.15082a3.40548,3.40548,0,1,1-6.75775,0v-0.05255a3.40548,3.40548,0,1,1,6.75775,0v0.05255Z" transform="translate(-2.71924 -2.55859)"/><circle class="cls-10" cx="138.97919" cy="313.95929" r="3.61505"/><circle class="cls-10" cx="210.88635" cy="323.38904" r="3.61505"/><circle class="cls-10" cx="186.97211" cy="305.0744" r="3.61505"/><circle class="cls-10" cx="171.25226" cy="321.63239" r="3.61505"/><circle class="cls-10" cx="171.25226" cy="279.62299" r="3.61505"/><circle class="cls-10" cx="202.42958" cy="293.72754" r="2.74245"/><circle class="cls-10" cx="199.68712" cy="324.92213" r="2.74246"/><circle class="cls-10" cx="189.71458" cy="339.35382" r="2.74245"/><circle class="cls-10" cx="216.37123" cy="340.59169" r="2.74246"/><circle class="cls-6" cx="328.65422" cy="293.72754" r="2.74245"/><circle class="cls-6" cx="323.67316" cy="276.00793" r="3.61505"/><circle class="cls-6" cx="308.80652" cy="340.59167" r="3.61505"/><circle class="cls-6" cx="327.78162" cy="309.44739" r="3.61505"/><circle class="cls-6" cx="312.42157" cy="296.29974" r="3.61505"/><circle class="cls-6" cx="359.48627" cy="313.06244" r="3.61505"/><circle class="cls-6" cx="337.42891" cy="326.13148" r="2.74246"/><circle class="cls-6" cx="308.8065" cy="321.63237" r="2.74246"/><circle class="cls-6" cx="298.04144" cy="323.38904" r="2.74243"/><circle class="cls-6" cx="320.05811" cy="330.61914" r="2.74243"/><circle class="cls-10" cx="160.26147" cy="307.3728" r="3.61505"/><circle class="cls-6" cx="341.70465" cy="299.91479" r="3.61505"/><circle class="cls-6" cx="341.70465" cy="272.31555" r="3.61505"/><path class="cls-11" d="M257.05664,2.55859L2.71924,256.896l254.3374,254.3374L511.04,257.25l0.35352-.354ZM383.63275,130.54907L509.97949,256.896,383.40326,383.47247l-0.58295.58295L257.05664,509.81934,131.29272,384.05542l-0.58313-.58313L4.1333,256.896,130.48,130.54926,257.05664,3.97266Z" transform="translate(-2.71924 -2.55859)"/></svg>