<svg id="Layer_1" data-name="Layer 1" xmlns="http://www.w3.org/2000/svg" viewBox="0 0 914.65 303.45"><defs><style>.cls-1,.cls-33{fill:#a66edb;}.cls-1,.cls-10,.cls-11,.cls-12,.cls-13,.cls-14,.cls-15,.cls-16,.cls-17,.cls-18,.cls-19,.cls-2,.cls-20,.cls-21,.cls-22,.cls-3,.cls-4,.cls-5,.cls-6,.cls-7,.cls-8,.cls-9{opacity:0.5;}.cls-2,.cls-25{fill:#27c6e0;}.cls-26,.cls-3{fill:#12aacd;}.cls-24,.cls-4{fill:#505bd8;}.cls-5{fill:#5177d6;}.cls-6{fill:#487cd8;}.cls-7{fill:#2786cc;}.cls-27,.cls-8{fill:#16cad3;}.cls-28,.cls-9{fill:#14c1c1;}.cls-10{fill:#4fc7a1;}.cls-11{fill:#00aa9e;}.cls-12{fill:#00858d;}.cls-13{fill:#44b592;}.cls-14,.cls-34{fill:#75ead4;}.cls-15{fill:#75d3b4;}.cls-16,.cls-29{fill:#55d8c2;}.cls-17,.cls-30{fill:#1598cc;}.cls-18{fill:#4694e0;}.cls-19,.cls-31{fill:#5c93e5;}.cls-20,.cls-32{fill:#667aed;}.cls-21{fill:#8f96f9;}.cls-23{fill:#12a3b2;}</style></defs><title>GenePeeks_DNA-2</title><circle class="cls-1" cx="297.18" cy="237.76" r="3.87"/><circle class="cls-2" cx="297.75" cy="243.45" r="5.15"/><circle class="cls-1" cx="302.93" cy="249.91" r="4.87"/><circle class="cls-3" cx="309.32" cy="249.38" r="4.88"/><circle class="cls-2" cx="309.92" cy="257.47" r="4.51"/><circle class="cls-4" cx="313.6" cy="254.49" r="5.57"/><circle class="cls-1" cx="320.39" cy="259.25" r="4.87"/><circle class="cls-3" cx="317.01" cy="262.06" r="5.51"/><circle class="cls-2" cx="322.52" cy="267.43" r="6.44"/><circle class="cls-2" cx="332.84" cy="268.43" r="5.98"/><circle class="cls-5" cx="338.33" cy="275.1" r="7.52"/><circle class="cls-2" cx="346.18" cy="280.85" r="6.43"/><circle class="cls-6" cx="347.55" cy="274.81" r="7.22"/><circle class="cls-2" cx="356.35" cy="281.89" r="7.35"/><circle class="cls-7" cx="364.81" cy="278.22" r="8.38"/><circle class="cls-2" cx="376.05" cy="279.64" r="9.36"/><circle class="cls-2" cx="394.4" cy="279.08" r="9.93"/><circle class="cls-3" cx="393.73" cy="271.63" r="7.81"/><circle class="cls-7" cx="406.88" cy="275.67" r="9.09"/><circle class="cls-3" cx="414.42" cy="262.89" r="9.09"/><circle class="cls-8" cx="426" cy="263.36" r="11.04"/><circle class="cls-9" cx="420.49" cy="254.15" r="9.25"/><circle class="cls-10" cx="453.27" cy="235.96" r="12.26"/><circle class="cls-11" cx="435.95" cy="243.44" r="12.41"/><circle class="cls-12" cx="449.53" cy="229.72" r="11.1"/><circle class="cls-12" cx="482.47" cy="200.2" r="9.14"/><circle class="cls-11" cx="463.07" cy="206.19" r="12.26"/><circle class="cls-10" cx="472.06" cy="205.86" r="10.68"/><circle class="cls-13" cx="471.9" cy="188.85" r="11.7"/><circle class="cls-13" cx="458.98" cy="227.64" r="11.7"/><circle class="cls-10" cx="452.78" cy="214.81" r="5.31"/><circle class="cls-14" cx="453.09" cy="236.2" r="8.41"/><circle class="cls-15" cx="470.36" cy="217.63" r="9.18"/><circle class="cls-9" cx="445.93" cy="251" r="6.88"/><circle class="cls-16" cx="431.67" cy="254.15" r="10.38"/><circle class="cls-14" cx="440.88" cy="259.56" r="5.31"/><circle class="cls-17" cx="415.56" cy="274.64" r="7.07"/><circle class="cls-8" cx="402.35" cy="265.58" r="5.16"/><circle class="cls-17" cx="384.09" cy="284.64" r="5.93"/><circle class="cls-7" cx="383.17" cy="274.04" r="6.68"/><circle class="cls-8" cx="390.24" cy="284.94" r="3.5"/><circle class="cls-17" cx="366" cy="284.78" r="6.14"/><circle class="cls-18" cx="355.9" cy="273.5" r="5.16"/><circle class="cls-19" cx="341.14" cy="268.91" r="3.99"/><circle class="cls-19" cx="329.86" cy="274.15" r="5.33"/><circle class="cls-4" cx="327.17" cy="262.68" r="3.91"/><circle class="cls-20" cx="320.49" cy="261.53" r="3.32"/><circle class="cls-20" cx="306.13" cy="253.31" r="3.11"/><circle class="cls-20" cx="304.51" cy="243.58" r="4.29"/><circle class="cls-4" cx="299.08" cy="240.61" r="3.3"/><circle class="cls-3" cx="289.26" cy="235.18" r="3.48"/><circle class="cls-20" cx="289.75" cy="230.05" r="3.32"/><circle class="cls-2" cx="282.37" cy="230.05" r="2.25"/><circle class="cls-1" cx="283.36" cy="222.68" r="3.01"/><circle class="cls-4" cx="279.67" cy="221.94" r="1.9"/><circle class="cls-3" cx="279.16" cy="216.01" r="2.27"/><circle class="cls-2" cx="273.86" cy="218.18" r="1.47"/><circle class="cls-20" cx="273.64" cy="212.12" r="2.14"/><circle class="cls-1" cx="270.09" cy="210.86" r="2.11"/><circle class="cls-2" cx="271.35" cy="204.38" r="1.47"/><circle class="cls-21" cx="266.74" cy="202.6" r="1.04"/><circle class="cls-4" cx="263.2" cy="196.09" r="1.5"/><circle class="cls-20" cx="262.21" cy="191.15" r="1.04"/><circle class="cls-1" cx="443.66" cy="80.76" r="3.87"/><circle class="cls-2" cx="443.09" cy="75.07" r="5.15"/><circle class="cls-1" cx="437.9" cy="68.61" r="4.87"/><circle class="cls-3" cx="431.52" cy="69.15" r="4.88"/><circle class="cls-2" cx="430.92" cy="61.05" r="4.51"/><circle class="cls-4" cx="427.24" cy="64.04" r="5.57"/><circle class="cls-1" cx="420.45" cy="59.27" r="4.87"/><circle class="cls-3" cx="423.82" cy="56.47" r="5.51"/><circle class="cls-2" cx="418.32" cy="51.09" r="6.44"/><circle class="cls-2" cx="407.99" cy="50.09" r="5.98"/><circle class="cls-5" cx="402.51" cy="43.42" r="7.52"/><circle class="cls-2" cx="394.66" cy="37.67" r="6.43"/><circle class="cls-6" cx="393.29" cy="43.71" r="7.22"/><circle class="cls-2" cx="384.49" cy="36.63" r="7.35"/><circle class="cls-7" cx="376.02" cy="40.3" r="8.38"/><circle class="cls-2" cx="364.79" cy="38.89" r="9.36"/><circle class="cls-2" cx="346.43" cy="39.44" r="9.93"/><circle class="cls-3" cx="347.11" cy="46.89" r="7.81"/><circle class="cls-7" cx="333.96" cy="42.85" r="9.09"/><circle class="cls-3" cx="326.42" cy="55.64" r="9.09"/><circle class="cls-8" cx="314.84" cy="55.16" r="11.04"/><circle class="cls-9" cx="320.35" cy="64.37" r="9.25"/><circle class="cls-10" cx="287.57" cy="82.57" r="12.26"/><circle class="cls-11" cx="304.89" cy="75.08" r="12.41"/><circle class="cls-12" cx="291.3" cy="88.8" r="11.1"/><circle class="cls-12" cx="258.36" cy="118.32" r="9.14"/><circle class="cls-11" cx="277.77" cy="112.33" r="12.26"/><circle class="cls-10" cx="259.93" cy="147.05" r="10.1"/><circle class="cls-11" cx="254.58" cy="131.05" r="9.14"/><circle class="cls-10" cx="268.78" cy="112.66" r="10.68"/><circle class="cls-13" cx="268.93" cy="129.67" r="11.7"/><circle class="cls-15" cx="259.88" cy="139.01" r="5.47"/><circle class="cls-13" cx="281.85" cy="90.88" r="11.7"/><circle class="cls-10" cx="288.06" cy="103.71" r="5.31"/><circle class="cls-14" cx="287.75" cy="82.32" r="8.41"/><circle class="cls-15" cx="270.48" cy="100.89" r="9.18"/><circle class="cls-9" cx="294.91" cy="67.53" r="6.88"/><circle class="cls-16" cx="309.17" cy="64.37" r="10.38"/><circle class="cls-14" cx="299.96" cy="58.96" r="5.31"/><circle class="cls-17" cx="325.28" cy="43.88" r="7.07"/><circle class="cls-8" cx="338.49" cy="52.95" r="5.16"/><circle class="cls-17" cx="356.74" cy="33.88" r="5.93"/><circle class="cls-7" cx="357.66" cy="44.48" r="6.68"/><circle class="cls-8" cx="350.6" cy="33.58" r="3.5"/><circle class="cls-17" cx="374.84" cy="33.75" r="6.14"/><circle class="cls-18" cx="384.94" cy="45.03" r="5.16"/><circle class="cls-19" cx="399.69" cy="49.62" r="3.99"/><circle class="cls-19" cx="410.98" cy="44.37" r="5.33"/><circle class="cls-4" cx="413.67" cy="55.85" r="3.91"/><circle class="cls-20" cx="420.35" cy="56.99" r="3.32"/><circle class="cls-20" cx="434.71" cy="65.21" r="3.11"/><circle class="cls-20" cx="436.33" cy="74.94" r="4.29"/><circle class="cls-4" cx="441.76" cy="77.91" r="3.3"/><circle class="cls-3" cx="451.58" cy="83.34" r="3.48"/><circle class="cls-20" cx="451.09" cy="88.47" r="3.32"/><circle class="cls-2" cx="458.46" cy="88.47" r="2.25"/><circle class="cls-1" cx="457.48" cy="95.85" r="3.01"/><circle class="cls-4" cx="461.17" cy="96.58" r="1.9"/><circle class="cls-3" cx="461.68" cy="102.52" r="2.27"/><circle class="cls-2" cx="466.98" cy="100.35" r="1.47"/><circle class="cls-20" cx="467.19" cy="106.41" r="2.14"/><circle class="cls-1" cx="470.75" cy="107.66" r="2.11"/><circle class="cls-2" cx="469.49" cy="114.14" r="1.47"/><circle class="cls-21" cx="474.1" cy="115.92" r="1.04"/><circle class="cls-4" cx="477.64" cy="122.43" r="1.5"/><circle class="cls-20" cx="478.63" cy="127.38" r="1.04"/><circle class="cls-4" cx="372.28" cy="266.18" r="1.71"/><circle class="cls-2" cx="372.53" cy="245.18" r="2.46"/><circle class="cls-2" cx="372.86" cy="235.44" r="3.01"/><circle class="cls-5" cx="367.48" cy="234.08" r="3.79"/><circle class="cls-2" cx="367.05" cy="225.78" r="3.71"/><circle class="cls-7" cx="372.59" cy="222.87" r="3.6"/><circle class="cls-3" cx="367.53" cy="211.24" r="3.94"/><circle class="cls-8" cx="369.78" cy="194.46" r="5.25"/><circle class="cls-10" cx="364.96" cy="168.6" r="5.76"/><circle class="cls-13" cx="375.53" cy="162.93" r="2.76"/><circle class="cls-16" cx="363.85" cy="191.75" r="4.47"/><circle class="cls-17" cx="373.53" cy="200.68" r="3.56"/><circle class="cls-8" cx="364.03" cy="203.18" r="2.6"/><circle class="cls-8" cx="373.78" cy="214.18" r="2.27"/><circle class="cls-19" cx="367.53" cy="238.93" r="3.25"/><circle class="cls-20" cx="367.85" cy="261.3" r="1.18"/><circle class="cls-3" cx="372.4" cy="254.65" r="1.94"/><circle class="cls-4" cx="370.4" cy="256.15" r="1.22"/><circle class="cls-1" cx="368.28" cy="250.43" r="1.92"/><circle class="cls-14" cx="362.11" cy="181.14" r="2.74"/><circle class="cls-15" cx="374.78" cy="179.18" r="5.12"/><circle class="cls-7" cx="365.28" cy="218.68" r="1.56"/><circle class="cls-4" cx="372.28" cy="53.51" r="1.71"/><circle class="cls-2" cx="372.53" cy="74.51" r="2.46"/><circle class="cls-2" cx="372.86" cy="84.24" r="3.01"/><circle class="cls-5" cx="367.48" cy="85.61" r="3.79"/><circle class="cls-2" cx="367.05" cy="93.9" r="3.71"/><circle class="cls-7" cx="372.59" cy="96.81" r="3.6"/><circle class="cls-3" cx="367.53" cy="108.45" r="3.94"/><circle class="cls-8" cx="369.78" cy="125.23" r="5.25"/><circle class="cls-10" cx="372.71" cy="148.78" r="5.76"/><circle class="cls-13" cx="362.03" cy="142.43" r="2.76"/><circle class="cls-16" cx="363.85" cy="127.94" r="4.47"/><circle class="cls-17" cx="373.53" cy="119.01" r="3.56"/><circle class="cls-8" cx="364.03" cy="116.51" r="2.6"/><circle class="cls-8" cx="373.78" cy="105.51" r="2.27"/><circle class="cls-19" cx="367.53" cy="80.76" r="3.25"/><circle class="cls-20" cx="367.85" cy="58.38" r="1.18"/><circle class="cls-3" cx="372.4" cy="65.04" r="1.94"/><circle class="cls-4" cx="370.4" cy="63.53" r="1.22"/><circle class="cls-1" cx="368.28" cy="69.26" r="1.92"/><circle class="cls-14" cx="374.11" cy="136.3" r="4.24"/><circle class="cls-15" cx="367.57" cy="154.89" r="4.81"/><circle class="cls-7" cx="365.28" cy="101.01" r="1.56"/><circle class="cls-16" cx="418.53" cy="149.93" r="2.62"/><circle class="cls-4" cx="418.71" cy="74.13" r="1.35"/><circle class="cls-2" cx="418.13" cy="86.62" r="1.94"/><circle class="cls-2" cx="418.65" cy="97.27" r="2.38"/><circle class="cls-2" cx="414.05" cy="104.91" r="2.93"/><circle class="cls-3" cx="412.17" cy="116.78" r="3.11"/><circle class="cls-8" cx="417.99" cy="127.13" r="4.15"/><circle class="cls-9" cx="411.61" cy="146.1" r="3.22"/><circle class="cls-15" cx="410.23" cy="157.15" r="4.52"/><circle class="cls-16" cx="411.49" cy="132.6" r="3.27"/><circle class="cls-17" cx="417.53" cy="123.68" r="2.82"/><circle class="cls-8" cx="411.03" cy="122.84" r="2.06"/><circle class="cls-17" cx="418.36" cy="112.34" r="2.36"/><circle class="cls-17" cx="413.19" cy="108.21" r="3.1"/><circle class="cls-19" cx="419.15" cy="102.35" r="1.59"/><circle class="cls-19" cx="415.17" cy="95.41" r="2.57"/><circle class="cls-20" cx="417.67" cy="92.33" r="1.32"/><circle class="cls-3" cx="418.29" cy="80.49" r="1.54"/><circle class="cls-4" cx="416.7" cy="79.3" r="0.96"/><circle class="cls-1" cx="415.02" cy="83.22" r="1.52"/><circle class="cls-14" cx="418.45" cy="139.64" r="3.35"/><circle class="cls-10" cx="419.53" cy="158.18" r="2.81"/><g class="cls-22"><circle class="cls-23" cx="417.45" cy="164.5" r="1.54"/><circle class="cls-24" cx="418.71" cy="240.32" r="1.35"/><circle class="cls-25" cx="418.13" cy="227.82" r="1.94"/><circle class="cls-25" cx="418.65" cy="217.18" r="2.38"/><circle class="cls-25" cx="414.05" cy="209.53" r="2.93"/><circle class="cls-26" cx="412.17" cy="197.66" r="3.11"/><circle class="cls-27" cx="417.99" cy="187.32" r="4.15"/><circle class="cls-28" cx="411.61" cy="168.34" r="3.22"/><circle class="cls-29" cx="411.49" cy="181.84" r="3.27"/><circle class="cls-30" cx="417.53" cy="190.77" r="2.82"/><circle class="cls-27" cx="411.03" cy="191.6" r="2.06"/><circle class="cls-30" cx="418.36" cy="202.1" r="2.36"/><circle class="cls-30" cx="413.19" cy="206.24" r="3.1"/><circle class="cls-31" cx="419.15" cy="212.09" r="1.59"/><circle class="cls-31" cx="415.17" cy="219.04" r="2.57"/><circle class="cls-32" cx="417.67" cy="222.12" r="1.32"/><circle class="cls-26" cx="418.29" cy="233.95" r="1.54"/><circle class="cls-24" cx="416.7" cy="235.15" r="0.96"/><circle class="cls-33" cx="415.02" cy="231.23" r="1.52"/><circle class="cls-34" cx="418.45" cy="174.8" r="3.35"/></g><circle class="cls-16" cx="321.52" cy="156.93" r="2.62"/><circle class="cls-4" cx="321.34" cy="81.13" r="1.35"/><circle class="cls-2" cx="321.92" cy="93.62" r="1.94"/><circle class="cls-2" cx="321.4" cy="104.27" r="2.38"/><circle class="cls-2" cx="325.99" cy="111.91" r="2.93"/><circle class="cls-3" cx="327.88" cy="123.78" r="3.11"/><circle class="cls-8" cx="322.05" cy="134.13" r="4.15"/><circle class="cls-9" cx="328.44" cy="153.1" r="3.22"/><circle class="cls-15" cx="329.82" cy="164.15" r="4.52"/><circle class="cls-16" cx="328.56" cy="139.6" r="3.27"/><circle class="cls-17" cx="322.52" cy="130.68" r="2.82"/><circle class="cls-8" cx="329.02" cy="129.84" r="2.06"/><circle class="cls-17" cx="321.69" cy="119.34" r="2.36"/><circle class="cls-17" cx="326.86" cy="115.21" r="3.1"/><circle class="cls-19" cx="320.9" cy="109.35" r="1.59"/><circle class="cls-19" cx="324.87" cy="102.41" r="2.57"/><circle class="cls-20" cx="322.38" cy="99.33" r="1.32"/><circle class="cls-3" cx="321.76" cy="87.49" r="1.54"/><circle class="cls-4" cx="323.34" cy="86.3" r="0.96"/><circle class="cls-1" cx="325.03" cy="90.22" r="1.52"/><circle class="cls-14" cx="321.59" cy="146.64" r="3.35"/><circle class="cls-10" cx="320.52" cy="165.18" r="2.81"/><g class="cls-22"><circle class="cls-23" cx="322.59" cy="171.5" r="1.54"/><circle class="cls-24" cx="321.34" cy="247.32" r="1.35"/><circle class="cls-25" cx="321.92" cy="234.82" r="1.94"/><circle class="cls-25" cx="321.4" cy="224.18" r="2.38"/><circle class="cls-25" cx="325.99" cy="216.53" r="2.93"/><circle class="cls-26" cx="327.88" cy="204.66" r="3.11"/><circle class="cls-27" cx="322.05" cy="194.32" r="4.15"/><circle class="cls-28" cx="328.44" cy="175.34" r="3.22"/><circle class="cls-29" cx="328.56" cy="188.84" r="3.27"/><circle class="cls-30" cx="322.52" cy="197.77" r="2.82"/><circle class="cls-27" cx="329.02" cy="198.6" r="2.06"/><circle class="cls-30" cx="321.69" cy="209.1" r="2.36"/><circle class="cls-30" cx="326.86" cy="213.24" r="3.1"/><circle class="cls-31" cx="320.9" cy="219.09" r="1.59"/><circle class="cls-31" cx="324.87" cy="226.04" r="2.57"/><circle class="cls-32" cx="322.38" cy="229.12" r="1.32"/><circle class="cls-26" cx="321.76" cy="240.95" r="1.54"/><circle class="cls-24" cx="323.34" cy="242.15" r="0.96"/><circle class="cls-33" cx="325.03" cy="238.23" r="1.52"/><circle class="cls-34" cx="321.59" cy="181.8" r="3.35"/></g><circle class="cls-4" cx="126.28" cy="266.18" r="1.71"/><circle class="cls-2" cx="126.53" cy="245.18" r="2.46"/><circle class="cls-2" cx="126.86" cy="235.44" r="3.01"/><circle class="cls-5" cx="121.48" cy="234.08" r="3.79"/><circle class="cls-2" cx="121.05" cy="225.78" r="3.71"/><circle class="cls-7" cx="126.59" cy="222.87" r="3.6"/><circle class="cls-3" cx="121.53" cy="211.24" r="3.94"/><circle class="cls-8" cx="123.78" cy="194.46" r="5.25"/><circle class="cls-10" cx="118.96" cy="168.6" r="5.76"/><circle class="cls-13" cx="129.53" cy="162.93" r="2.76"/><circle class="cls-16" cx="117.85" cy="191.75" r="4.47"/><circle class="cls-17" cx="127.53" cy="200.68" r="3.56"/><circle class="cls-8" cx="118.03" cy="203.18" r="2.6"/><circle class="cls-8" cx="127.78" cy="214.18" r="2.27"/><circle class="cls-19" cx="121.53" cy="238.93" r="3.25"/><circle class="cls-20" cx="121.85" cy="261.3" r="1.18"/><circle class="cls-3" cx="126.4" cy="254.65" r="1.94"/><circle class="cls-4" cx="124.4" cy="256.15" r="1.22"/><circle class="cls-1" cx="122.28" cy="250.43" r="1.92"/><circle class="cls-14" cx="116.11" cy="181.14" r="2.74"/><circle class="cls-15" cx="128.78" cy="179.18" r="5.12"/><circle class="cls-7" cx="119.28" cy="218.68" r="1.56"/><circle class="cls-4" cx="126.28" cy="53.51" r="1.71"/><circle class="cls-2" cx="126.53" cy="74.51" r="2.46"/><circle class="cls-2" cx="126.86" cy="84.24" r="3.01"/><circle class="cls-5" cx="121.48" cy="85.61" r="3.79"/><circle class="cls-2" cx="121.05" cy="93.9" r="3.71"/><circle class="cls-7" cx="126.59" cy="96.81" r="3.6"/><circle class="cls-3" cx="121.53" cy="108.45" r="3.94"/><circle class="cls-8" cx="123.78" cy="125.23" r="5.25"/><circle class="cls-10" cx="126.71" cy="148.78" r="5.76"/><circle class="cls-13" cx="116.03" cy="142.43" r="2.76"/><circle class="cls-16" cx="117.85" cy="127.94" r="4.47"/><circle class="cls-17" cx="127.53" cy="119.01" r="3.56"/><circle class="cls-8" cx="118.03" cy="116.51" r="2.6"/><circle class="cls-8" cx="127.78" cy="105.51" r="2.27"/><circle class="cls-19" cx="121.53" cy="80.76" r="3.25"/><circle class="cls-20" cx="121.85" cy="58.38" r="1.18"/><circle class="cls-3" cx="126.4" cy="65.04" r="1.94"/><circle class="cls-4" cx="124.4" cy="63.53" r="1.22"/><circle class="cls-1" cx="122.28" cy="69.26" r="1.92"/><circle class="cls-14" cx="128.11" cy="136.3" r="4.24"/><circle class="cls-15" cx="121.57" cy="154.89" r="4.81"/><circle class="cls-7" cx="119.28" cy="101.01" r="1.56"/><circle class="cls-16" cx="172.53" cy="149.93" r="2.62"/><circle class="cls-4" cx="172.71" cy="74.13" r="1.35"/><circle class="cls-2" cx="172.13" cy="86.62" r="1.94"/><circle class="cls-2" cx="172.65" cy="97.27" r="2.38"/><circle class="cls-2" cx="168.05" cy="104.91" r="2.93"/><circle class="cls-3" cx="166.17" cy="116.78" r="3.11"/><circle class="cls-8" cx="171.99" cy="127.13" r="4.15"/><circle class="cls-9" cx="165.61" cy="146.1" r="3.22"/><circle class="cls-15" cx="164.23" cy="157.15" r="4.52"/><circle class="cls-16" cx="165.49" cy="132.6" r="3.27"/><circle class="cls-17" cx="171.53" cy="123.68" r="2.82"/><circle class="cls-8" cx="165.03" cy="122.84" r="2.06"/><circle class="cls-17" cx="172.36" cy="112.34" r="2.36"/><circle class="cls-17" cx="167.19" cy="108.21" r="3.1"/><circle class="cls-19" cx="173.15" cy="102.35" r="1.59"/><circle class="cls-19" cx="169.17" cy="95.41" r="2.57"/><circle class="cls-20" cx="171.67" cy="92.33" r="1.32"/><circle class="cls-3" cx="172.29" cy="80.49" r="1.54"/><circle class="cls-4" cx="170.7" cy="79.3" r="0.96"/><circle class="cls-1" cx="169.02" cy="83.22" r="1.52"/><circle class="cls-14" cx="172.45" cy="139.64" r="3.35"/><circle class="cls-10" cx="173.53" cy="158.18" r="2.81"/><g class="cls-22"><circle class="cls-23" cx="171.45" cy="164.5" r="1.54"/><circle class="cls-24" cx="172.71" cy="240.32" r="1.35"/><circle class="cls-25" cx="172.13" cy="227.82" r="1.94"/><circle class="cls-25" cx="172.65" cy="217.18" r="2.38"/><circle class="cls-25" cx="168.05" cy="209.53" r="2.93"/><circle class="cls-26" cx="166.17" cy="197.66" r="3.11"/><circle class="cls-27" cx="171.99" cy="187.32" r="4.15"/><circle class="cls-28" cx="165.61" cy="168.34" r="3.22"/><circle class="cls-29" cx="165.49" cy="181.84" r="3.27"/><circle class="cls-30" cx="171.53" cy="190.77" r="2.82"/><circle class="cls-27" cx="165.03" cy="191.6" r="2.06"/><circle class="cls-30" cx="172.36" cy="202.1" r="2.36"/><circle class="cls-30" cx="167.19" cy="206.24" r="3.1"/><circle class="cls-31" cx="173.15" cy="212.09" r="1.59"/><circle class="cls-31" cx="169.17" cy="219.04" r="2.57"/><circle class="cls-32" cx="171.67" cy="222.12" r="1.32"/><circle class="cls-26" cx="172.29" cy="233.95" r="1.54"/><circle class="cls-24" cx="170.7" cy="235.15" r="0.96"/><circle class="cls-33" cx="169.02" cy="231.23" r="1.52"/><circle class="cls-34" cx="172.45" cy="174.8" r="3.35"/></g><circle class="cls-16" cx="75.52" cy="156.93" r="2.62"/><circle class="cls-4" cx="75.34" cy="81.13" r="1.35"/><circle class="cls-2" cx="75.92" cy="93.62" r="1.94"/><circle class="cls-2" cx="75.4" cy="104.27" r="2.38"/><circle class="cls-2" cx="79.99" cy="111.91" r="2.93"/><circle class="cls-3" cx="81.88" cy="123.78" r="3.11"/><circle class="cls-8" cx="76.05" cy="134.13" r="4.15"/><circle class="cls-9" cx="82.44" cy="153.1" r="3.22"/><circle class="cls-15" cx="83.82" cy="164.15" r="4.52"/><circle class="cls-16" cx="82.56" cy="139.6" r="3.27"/><circle class="cls-17" cx="76.52" cy="130.68" r="2.82"/><circle class="cls-8" cx="83.02" cy="129.84" r="2.06"/><circle class="cls-17" cx="75.69" cy="119.34" r="2.36"/><circle class="cls-17" cx="80.86" cy="115.21" r="3.1"/><circle class="cls-19" cx="74.9" cy="109.35" r="1.59"/><circle class="cls-19" cx="78.87" cy="102.41" r="2.57"/><circle class="cls-20" cx="76.38" cy="99.33" r="1.32"/><circle class="cls-3" cx="75.76" cy="87.49" r="1.54"/><circle class="cls-4" cx="77.34" cy="86.3" r="0.96"/><circle class="cls-1" cx="79.03" cy="90.22" r="1.52"/><circle class="cls-14" cx="75.59" cy="146.64" r="3.35"/><circle class="cls-10" cx="74.52" cy="165.18" r="2.81"/><g class="cls-22"><circle class="cls-23" cx="76.59" cy="171.5" r="1.54"/><circle class="cls-24" cx="75.34" cy="247.32" r="1.35"/><circle class="cls-25" cx="75.92" cy="234.82" r="1.94"/><circle class="cls-25" cx="75.4" cy="224.18" r="2.38"/><circle class="cls-25" cx="79.99" cy="216.53" r="2.93"/><circle class="cls-26" cx="81.88" cy="204.66" r="3.11"/><circle class="cls-27" cx="76.05" cy="194.32" r="4.15"/><circle class="cls-28" cx="82.44" cy="175.34" r="3.22"/><circle class="cls-29" cx="82.56" cy="188.84" r="3.27"/><circle class="cls-30" cx="76.52" cy="197.77" r="2.82"/><circle class="cls-27" cx="83.02" cy="198.6" r="2.06"/><circle class="cls-30" cx="75.69" cy="209.1" r="2.36"/><circle class="cls-30" cx="80.86" cy="213.24" r="3.1"/><circle class="cls-31" cx="74.9" cy="219.09" r="1.59"/><circle class="cls-31" cx="78.87" cy="226.04" r="2.57"/><circle class="cls-32" cx="76.38" cy="229.12" r="1.32"/><circle class="cls-26" cx="75.76" cy="240.95" r="1.54"/><circle class="cls-24" cx="77.34" cy="242.15" r="0.96"/><circle class="cls-33" cx="79.03" cy="238.23" r="1.52"/><circle class="cls-34" cx="75.59" cy="181.8" r="3.35"/></g><circle class="cls-1" cx="53.25" cy="237.76" r="3.87"/><circle class="cls-2" cx="53.82" cy="243.45" r="5.15"/><circle class="cls-1" cx="59" cy="249.91" r="4.87"/><circle class="cls-3" cx="65.39" cy="249.38" r="4.88"/><circle class="cls-2" cx="65.99" cy="257.47" r="4.51"/><circle class="cls-4" cx="69.67" cy="254.49" r="5.57"/><circle class="cls-1" cx="76.46" cy="259.25" r="4.87"/><circle class="cls-3" cx="73.08" cy="262.06" r="5.51"/><circle class="cls-2" cx="78.59" cy="267.43" r="6.44"/><circle class="cls-2" cx="88.91" cy="268.43" r="5.98"/><circle class="cls-5" cx="94.4" cy="275.1" r="7.52"/><circle class="cls-2" cx="102.25" cy="280.85" r="6.43"/><circle class="cls-6" cx="103.62" cy="274.81" r="7.22"/><circle class="cls-2" cx="112.42" cy="281.89" r="7.35"/><circle class="cls-7" cx="120.88" cy="278.22" r="8.38"/><circle class="cls-2" cx="132.12" cy="279.64" r="9.36"/><circle class="cls-2" cx="150.48" cy="279.08" r="9.93"/><circle class="cls-3" cx="149.8" cy="271.63" r="7.81"/><circle class="cls-7" cx="162.95" cy="275.67" r="9.09"/><circle class="cls-3" cx="170.49" cy="262.89" r="9.09"/><circle class="cls-8" cx="182.07" cy="263.36" r="11.04"/><circle class="cls-9" cx="176.56" cy="254.15" r="9.25"/><circle class="cls-10" cx="209.34" cy="235.96" r="12.26"/><circle class="cls-11" cx="192.02" cy="243.44" r="12.41"/><circle class="cls-12" cx="205.6" cy="229.72" r="11.1"/><circle class="cls-12" cx="238.54" cy="200.2" r="9.14"/><circle class="cls-11" cx="219.14" cy="206.19" r="12.26"/><circle class="cls-10" cx="228.13" cy="205.86" r="10.68"/><circle class="cls-13" cx="227.98" cy="188.85" r="11.7"/><circle class="cls-13" cx="215.05" cy="227.64" r="11.7"/><circle class="cls-10" cx="208.85" cy="214.81" r="5.31"/><circle class="cls-14" cx="209.16" cy="236.2" r="8.41"/><circle class="cls-15" cx="226.43" cy="217.63" r="9.18"/><circle class="cls-9" cx="202" cy="251" r="6.88"/><circle class="cls-16" cx="187.74" cy="254.15" r="10.38"/><circle class="cls-14" cx="196.95" cy="259.56" r="5.31"/><circle class="cls-17" cx="171.63" cy="274.64" r="7.07"/><circle class="cls-8" cx="158.42" cy="265.58" r="5.16"/><circle class="cls-17" cx="140.17" cy="284.64" r="5.93"/><circle class="cls-7" cx="139.24" cy="274.04" r="6.68"/><circle class="cls-8" cx="146.31" cy="284.94" r="3.5"/><circle class="cls-17" cx="122.07" cy="284.78" r="6.14"/><circle class="cls-18" cx="111.97" cy="273.5" r="5.16"/><circle class="cls-19" cx="97.22" cy="268.91" r="3.99"/><circle class="cls-19" cx="85.93" cy="274.15" r="5.33"/><circle class="cls-4" cx="83.24" cy="262.68" r="3.91"/><circle class="cls-20" cx="76.56" cy="261.53" r="3.32"/><circle class="cls-20" cx="62.2" cy="253.31" r="3.11"/><circle class="cls-20" cx="60.58" cy="243.58" r="4.29"/><circle class="cls-4" cx="55.15" cy="240.61" r="3.3"/><circle class="cls-3" cx="45.33" cy="235.18" r="3.48"/><circle class="cls-20" cx="45.82" cy="230.05" r="3.32"/><circle class="cls-2" cx="38.45" cy="230.05" r="2.25"/><circle class="cls-1" cx="39.43" cy="222.68" r="3.01"/><circle class="cls-4" cx="35.74" cy="221.94" r="1.9"/><circle class="cls-3" cx="35.23" cy="216.01" r="2.27"/><circle class="cls-2" cx="29.93" cy="218.18" r="1.47"/><circle class="cls-20" cx="29.72" cy="212.12" r="2.14"/><circle class="cls-1" cx="26.16" cy="210.86" r="2.11"/><circle class="cls-2" cx="27.42" cy="204.38" r="1.47"/><circle class="cls-21" cx="22.81" cy="202.6" r="1.04"/><circle class="cls-4" cx="19.27" cy="196.09" r="1.5"/><circle class="cls-20" cx="18.28" cy="191.15" r="1.04"/><circle class="cls-1" cx="199.73" cy="80.76" r="3.87"/><circle class="cls-2" cx="199.16" cy="75.07" r="5.15"/><circle class="cls-1" cx="193.98" cy="68.61" r="4.87"/><circle class="cls-3" cx="187.59" cy="69.15" r="4.88"/><circle class="cls-2" cx="186.99" cy="61.05" r="4.51"/><circle class="cls-4" cx="183.31" cy="64.04" r="5.57"/><circle class="cls-1" cx="176.52" cy="59.27" r="4.87"/><circle class="cls-3" cx="179.89" cy="56.47" r="5.51"/><circle class="cls-2" cx="174.39" cy="51.09" r="6.44"/><circle class="cls-2" cx="164.07" cy="50.09" r="5.98"/><circle class="cls-5" cx="158.58" cy="43.42" r="7.52"/><circle class="cls-2" cx="150.73" cy="37.67" r="6.43"/><circle class="cls-6" cx="149.36" cy="43.71" r="7.22"/><circle class="cls-2" cx="140.56" cy="36.63" r="7.35"/><circle class="cls-7" cx="132.1" cy="40.3" r="8.38"/><circle class="cls-2" cx="120.86" cy="38.89" r="9.36"/><circle class="cls-2" cx="102.5" cy="39.44" r="9.93"/><circle class="cls-3" cx="103.18" cy="46.89" r="7.81"/><circle class="cls-7" cx="90.03" cy="42.85" r="9.09"/><circle class="cls-3" cx="82.49" cy="55.64" r="9.09"/><circle class="cls-8" cx="70.91" cy="55.16" r="11.04"/><circle class="cls-9" cx="76.42" cy="64.37" r="9.25"/><circle class="cls-10" cx="43.64" cy="82.57" r="12.26"/><circle class="cls-11" cx="60.96" cy="75.08" r="12.41"/><circle class="cls-12" cx="47.37" cy="88.8" r="11.1"/><circle class="cls-12" cx="14.44" cy="118.32" r="9.14"/><circle class="cls-11" cx="33.84" cy="112.33" r="12.26"/><circle class="cls-10" cx="16" cy="147.05" r="10.1"/><circle class="cls-11" cx="10.65" cy="131.05" r="9.14"/><circle class="cls-10" cx="24.85" cy="112.66" r="10.68"/><circle class="cls-13" cx="25" cy="129.67" r="11.7"/><circle class="cls-15" cx="15.95" cy="139.01" r="5.47"/><circle class="cls-13" cx="37.92" cy="90.88" r="11.7"/><circle class="cls-10" cx="44.13" cy="103.71" r="5.31"/><circle class="cls-14" cx="43.82" cy="82.32" r="8.41"/><circle class="cls-15" cx="26.55" cy="100.89" r="9.18"/><circle class="cls-9" cx="50.98" cy="67.53" r="6.88"/><circle class="cls-16" cx="65.24" cy="64.37" r="10.38"/><circle class="cls-14" cx="56.03" cy="58.96" r="5.31"/><circle class="cls-17" cx="81.35" cy="43.88" r="7.07"/><circle class="cls-8" cx="94.56" cy="52.95" r="5.16"/><circle class="cls-17" cx="112.81" cy="33.88" r="5.93"/><circle class="cls-7" cx="113.73" cy="44.48" r="6.68"/><circle class="cls-8" cx="106.67" cy="33.58" r="3.5"/><circle class="cls-17" cx="130.91" cy="33.75" r="6.14"/><circle class="cls-18" cx="141.01" cy="45.03" r="5.16"/><circle class="cls-19" cx="155.76" cy="49.62" r="3.99"/><circle class="cls-19" cx="167.05" cy="44.37" r="5.33"/><circle class="cls-4" cx="169.74" cy="55.85" r="3.91"/><circle class="cls-20" cx="176.42" cy="56.99" r="3.32"/><circle class="cls-20" cx="190.78" cy="65.21" r="3.11"/><circle class="cls-20" cx="192.4" cy="74.94" r="4.29"/><circle class="cls-4" cx="197.83" cy="77.91" r="3.3"/><circle class="cls-3" cx="207.65" cy="83.34" r="3.48"/><circle class="cls-20" cx="207.16" cy="88.47" r="3.32"/><circle class="cls-2" cx="214.53" cy="88.47" r="2.25"/><circle class="cls-1" cx="213.55" cy="95.85" r="3.01"/><circle class="cls-4" cx="217.24" cy="96.58" r="1.9"/><circle class="cls-3" cx="217.75" cy="102.52" r="2.27"/><circle class="cls-2" cx="223.05" cy="100.35" r="1.47"/><circle class="cls-20" cx="223.26" cy="106.41" r="2.14"/><circle class="cls-1" cx="226.82" cy="107.66" r="2.11"/><circle class="cls-2" cx="225.56" cy="114.14" r="1.47"/><circle class="cls-21" cx="230.17" cy="115.92" r="1.04"/><circle class="cls-4" cx="233.71" cy="122.43" r="1.5"/><circle class="cls-20" cx="234.7" cy="127.38" r="1.04"/><circle class="cls-11" cx="239.96" cy="162.83" r="12.28"/><circle class="cls-13" cx="245.86" cy="172.34" r="12.28"/><circle class="cls-13" cx="244.63" cy="146.49" r="10.61"/><circle class="cls-15" cx="254.59" cy="160.71" r="10.82"/><circle class="cls-10" cx="236.98" cy="171.48" r="10.1"/><circle class="cls-11" cx="242.33" cy="187.47" r="9.14"/><circle class="cls-15" cx="241.52" cy="178.95" r="3.92"/><circle class="cls-15" cx="244.05" cy="159.29" r="5.67"/><circle class="cls-1" cx="547.01" cy="237.76" r="3.87"/><circle class="cls-2" cx="547.58" cy="243.45" r="5.15"/><circle class="cls-1" cx="572.61" cy="215.14" r="4.87"/><circle class="cls-3" cx="558.19" cy="257.47" r="4.88"/><circle class="cls-2" cx="592.29" cy="230.8" r="4.51"/><circle class="cls-4" cx="579.5" cy="251.2" r="5.57"/><circle class="cls-1" cx="570.22" cy="259.25" r="4.87"/><circle class="cls-3" cx="582.64" cy="277.61" r="5.51"/><circle class="cls-2" cx="572.35" cy="267.43" r="6.44"/><circle class="cls-2" cx="582.67" cy="268.43" r="5.98"/><circle class="cls-5" cx="590.97" cy="260.38" r="7.52"/><circle class="cls-2" cx="596.01" cy="280.85" r="6.43"/><circle class="cls-6" cx="610.49" cy="240.06" r="7.22"/><circle class="cls-2" cx="646.06" cy="229.56" r="9.93"/><circle class="cls-3" cx="644.54" cy="286.46" r="2.33"/><circle class="cls-7" cx="660.52" cy="271.86" r="5.27"/><circle class="cls-8" cx="653.92" cy="257.76" r="5.16"/><circle class="cls-17" cx="704.41" cy="146.31" r="5.93"/><circle class="cls-7" cx="630.38" cy="264.21" r="6.68"/><circle class="cls-8" cx="597.31" cy="142.35" r="3.5"/><circle class="cls-17" cx="615.83" cy="284.78" r="6.14"/><circle class="cls-18" cx="605.73" cy="273.5" r="5.16"/><circle class="cls-19" cx="591.99" cy="247.74" r="3.99"/><circle class="cls-19" cx="607.23" cy="261.04" r="5.33"/><circle class="cls-4" cx="594.23" cy="223.66" r="3.91"/><circle class="cls-20" cx="576.55" cy="232.14" r="3.32"/><circle class="cls-20" cx="568.85" cy="238.09" r="3.11"/><circle class="cls-20" cx="554.34" cy="243.58" r="4.29"/><circle class="cls-4" cx="543.76" cy="214.48" r="3.3"/><circle class="cls-3" cx="539.09" cy="235.18" r="3.48"/><circle class="cls-20" cx="552.94" cy="226.28" r="3.32"/><circle class="cls-2" cx="532.21" cy="230.05" r="2.25"/><circle class="cls-1" cx="543.37" cy="223.01" r="3.01"/><circle class="cls-4" cx="529.5" cy="221.94" r="1.9"/><circle class="cls-3" cx="528.99" cy="216.01" r="2.27"/><circle class="cls-2" cx="523.69" cy="218.18" r="1.47"/><circle class="cls-20" cx="523.48" cy="212.12" r="2.14"/><circle class="cls-1" cx="519.92" cy="210.86" r="2.11"/><circle class="cls-2" cx="521.18" cy="204.38" r="1.47"/><circle class="cls-21" cx="516.57" cy="202.6" r="1.04"/><circle class="cls-4" cx="513.03" cy="196.09" r="1.5"/><circle class="cls-20" cx="512.04" cy="191.15" r="1.04"/><circle class="cls-1" cx="881.46" cy="201.37" r="3.87"/><circle class="cls-1" cx="786.38" cy="160.71" r="4.87"/><circle class="cls-1" cx="859.54" cy="112.19" r="2.6"/><circle class="cls-2" cx="840.16" cy="83.33" r="3.82"/><circle class="cls-2" cx="794.92" cy="77.6" r="5.98"/><circle class="cls-2" cx="779.28" cy="43.88" r="5.01"/><circle class="cls-7" cx="735.82" cy="48.37" r="2.89"/><circle class="cls-2" cx="736.37" cy="103.01" r="4.77"/><circle class="cls-2" cx="694.58" cy="52.61" r="7.87"/><circle class="cls-3" cx="716.29" cy="31.6" r="3.83"/><circle class="cls-7" cx="642.85" cy="91.99" r="9.09"/><circle class="cls-3" cx="654.28" cy="45.8" r="9.09"/><circle class="cls-8" cx="575.92" cy="64.89" r="8.52"/><circle class="cls-9" cx="587.58" cy="33.25" r="6.98"/><circle class="cls-10" cx="533.47" cy="82.57" r="12.26"/><circle class="cls-11" cx="558.84" cy="59.73" r="12.41"/><circle class="cls-12" cx="610.36" cy="114" r="8.85"/><circle class="cls-11" cx="524.04" cy="116.64" r="11.32"/><circle class="cls-10" cx="505.83" cy="147.05" r="10.1"/><circle class="cls-14" cx="547.04" cy="125.96" r="9.14"/><circle class="cls-10" cx="588.11" cy="165.78" r="10.68"/><circle class="cls-13" cx="537.78" cy="140.16" r="11.7"/><circle class="cls-15" cx="505.78" cy="139.01" r="5.47"/><circle class="cls-13" cx="555.29" cy="104.65" r="11.7"/><circle class="cls-10" cx="533.95" cy="103.71" r="5.31"/><circle class="cls-14" cx="576.92" cy="89.53" r="8.41"/><circle class="cls-15" cx="585.61" cy="134.19" r="6.4"/><circle class="cls-9" cx="518.51" cy="103.98" r="6.88"/><circle class="cls-16" cx="625.39" cy="22.24" r="8.25"/><circle class="cls-14" cx="623.83" cy="137.11" r="5.31"/><circle class="cls-17" cx="670.63" cy="20.87" r="5.24"/><circle class="cls-8" cx="683.43" cy="97.19" r="5.16"/><circle class="cls-17" cx="719.5" cy="77.44" r="5.93"/><circle class="cls-7" cx="578.52" cy="190.22" r="6.68"/><circle class="cls-8" cx="651.96" cy="129.24" r="3.5"/><circle class="cls-18" cx="762.12" cy="76.12" r="5.16"/><circle class="cls-19" cx="763.43" cy="145.63" r="3.99"/><circle class="cls-19" cx="788.35" cy="110.22" r="5.33"/><circle class="cls-4" cx="817.22" cy="70.22" r="3.91"/><circle class="cls-20" cx="818.34" cy="120.5" r="3.32"/><circle class="cls-20" cx="818.34" cy="120.71" r="3.11"/><circle class="cls-4" cx="824.41" cy="153.5" r="3.3"/><circle class="cls-2" cx="777.86" cy="261.8" r="6.43"/><circle class="cls-2" cx="767.05" cy="203.09" r="6.35"/><circle class="cls-7" cx="737.68" cy="260.58" r="4.74"/><circle class="cls-2" cx="709.63" cy="229.03" r="3.34"/><circle class="cls-2" cx="693.07" cy="260.12" r="6.36"/><circle class="cls-3" cx="719.64" cy="279.65" r="6.64"/><circle class="cls-17" cx="681.55" cy="286.7" r="4.53"/><circle class="cls-8" cx="683.43" cy="209.91" r="5.16"/><circle class="cls-17" cx="734.58" cy="246.72" r="5.93"/><circle class="cls-7" cx="667.16" cy="187.6" r="6.68"/><circle class="cls-17" cx="740.48" cy="182.69" r="6.14"/><circle class="cls-18" cx="762.12" cy="230.98" r="5.16"/><circle class="cls-19" cx="808.02" cy="248.58" r="3.99"/><circle class="cls-20" cx="818.34" cy="186.6" r="3.32"/><circle class="cls-20" cx="834.9" cy="198.09" r="4.29"/><circle class="cls-3" cx="854.12" cy="153.5" r="3.48"/><circle class="cls-2" cx="873.88" cy="132.52" r="2.25"/><circle class="cls-4" cx="878.12" cy="178.42" r="1.9"/><circle class="cls-2" cx="905.72" cy="182.85" r="1.47"/><circle class="cls-20" cx="912.5" cy="153.08" r="2.14"/><circle class="cls-1" cx="848.02" cy="228.1" r="2.11"/><circle class="cls-21" cx="897.08" cy="167.25" r="1.04"/><circle class="cls-11" cx="488.48" cy="156.28" r="12.28"/><circle class="cls-13" cx="498.31" cy="174.96" r="12.28"/><circle class="cls-13" cx="501.14" cy="122.02" r="10.61"/><circle class="cls-15" cx="514.91" cy="155.47" r="10.82"/><circle class="cls-10" cx="482.87" cy="171.48" r="10.1"/><circle class="cls-11" cx="488.23" cy="187.47" r="9.14"/><circle class="cls-15" cx="487.42" cy="178.95" r="3.92"/><circle class="cls-15" cx="533.27" cy="167.27" r="5.67"/><circle class="cls-16" cx="623.89" cy="66.97" r="3.85"/><circle class="cls-16" cx="608.15" cy="82.7" r="3.85"/><circle class="cls-15" cx="609.99" cy="55.8" r="3.76"/><circle class="cls-15" cx="580.48" cy="112.84" r="3.76"/><circle class="cls-7" cx="679.84" cy="135.65" r="6.08"/><circle class="cls-8" cx="648.02" cy="153.5" r="11.04"/><circle class="cls-10" cx="628.11" cy="206.43" r="10.68"/><circle class="cls-14" cx="549.62" cy="195.41" r="4.34"/><circle class="cls-15" cx="622.84" cy="172.08" r="9.18"/><circle class="cls-14" cx="597.46" cy="203.99" r="5.31"/><circle class="cls-8" cx="691.96" cy="169.89" r="3.5"/><circle class="cls-16" cx="722.69" cy="156.78" r="3.85"/><circle class="cls-15" cx="620.48" cy="153.5" r="3.76"/><circle class="cls-7" cx="552.41" cy="169.24" r="6.68"/><circle class="cls-15" cx="657.2" cy="68.55" r="4.3"/><circle class="cls-15" cx="519.5" cy="184.32" r="4.3"/><circle class="cls-15" cx="673.6" cy="235.46" r="4.3"/><circle class="cls-15" cx="663.76" cy="104.32" r="4.3"/><circle class="cls-15" cx="672.94" cy="68.06" r="2.16"/><circle class="cls-15" cx="716.02" cy="118.75" r="2.16"/><circle class="cls-15" cx="561.93" cy="142.35" r="2.16"/><circle class="cls-3" cx="724.09" cy="198.09" r="4.19"/><circle class="cls-10" cx="606.01" cy="107.55" r="5.4"/><circle class="cls-8" cx="627.69" cy="59.08" r="6.66"/><circle class="cls-8" cx="644.09" cy="102.25" r="6.66"/><circle class="cls-8" cx="556.22" cy="161.37" r="6.66"/><circle class="cls-10" cx="524.09" cy="168.48" r="6.66"/><circle class="cls-21" cx="889.98" cy="125.96" r="1.47"/><circle class="cls-15" cx="459.53" cy="252.33" r="2.16"/><circle class="cls-14" cx="454.53" cy="190.33" r="2.16"/><circle class="cls-14" cx="502.03" cy="197.68" r="3.92"/><circle class="cls-13" cx="495.53" cy="206.18" r="1.9"/><circle class="cls-3" cx="404.62" cy="289.68" r="1.9"/><circle class="cls-8" cx="403.03" cy="256.02" r="2.16"/><circle class="cls-3" cx="398.03" cy="258.68" r="1.04"/><circle class="cls-15" cx="464.53" cy="246.68" r="1.04"/><circle class="cls-20" cx="331.69" cy="284.18" r="2.16"/><circle class="cls-4" cx="287.57" cy="245.18" r="1.04"/><circle class="cls-20" cx="289.03" cy="217.68" r="1.9"/><circle class="cls-20" cx="260.53" cy="183.68" r="1.04"/><circle class="cls-15" cx="282.9" cy="65.88" r="2.16"/><circle class="cls-14" cx="287.9" cy="127.88" r="2.16"/><circle class="cls-13" cx="246.9" cy="112.04" r="1.9"/><circle class="cls-3" cx="337.81" cy="28.54" r="1.9"/><circle class="cls-8" cx="339.4" cy="62.2" r="2.16"/><circle class="cls-3" cx="344.4" cy="59.54" r="1.04"/><circle class="cls-15" cx="277.9" cy="71.54" r="1.04"/><circle class="cls-20" cx="410.74" cy="34.04" r="2.16"/><circle class="cls-4" cx="454.86" cy="73.04" r="1.04"/><circle class="cls-20" cx="453.4" cy="100.54" r="1.9"/><circle class="cls-20" cx="481.9" cy="134.54" r="1.04"/><circle class="cls-15" cx="37.9" cy="65.88" r="2.16"/><circle class="cls-14" cx="42.9" cy="127.88" r="2.16"/><circle class="cls-13" cx="1.9" cy="112.04" r="1.9"/><circle class="cls-3" cx="92.81" cy="28.54" r="1.9"/><circle class="cls-8" cx="94.4" cy="62.2" r="2.16"/><circle class="cls-3" cx="99.4" cy="59.54" r="1.04"/><circle class="cls-15" cx="32.9" cy="71.54" r="1.04"/><circle class="cls-20" cx="165.74" cy="34.04" r="2.16"/><circle class="cls-4" cx="209.86" cy="73.04" r="1.04"/><circle class="cls-20" cx="208.4" cy="100.54" r="1.9"/><circle class="cls-20" cx="236.9" cy="134.54" r="1.04"/><circle class="cls-15" cx="213.53" cy="252.33" r="2.16"/><circle class="cls-14" cx="208.53" cy="190.33" r="2.16"/><circle class="cls-13" cx="249.53" cy="206.18" r="1.9"/><circle class="cls-3" cx="158.62" cy="289.68" r="1.9"/><circle class="cls-8" cx="157.03" cy="256.02" r="2.16"/><circle class="cls-3" cx="152.03" cy="258.68" r="1.04"/><circle class="cls-15" cx="218.53" cy="246.68" r="1.04"/><circle class="cls-20" cx="85.69" cy="284.18" r="2.16"/><circle class="cls-4" cx="41.57" cy="245.18" r="1.04"/><circle class="cls-20" cx="43.03" cy="217.68" r="1.9"/><circle class="cls-20" cx="14.53" cy="183.68" r="1.04"/><circle class="cls-1" cx="539.94" cy="203.25" r="2.48"/><circle class="cls-2" cx="524.43" cy="196.05" r="3.3"/><circle class="cls-1" cx="556.35" cy="188.76" r="3.12"/><circle class="cls-3" cx="547.1" cy="215.89" r="3.12"/><circle class="cls-2" cx="588.81" cy="177.53" r="2.89"/><circle class="cls-4" cx="562.08" cy="156.79" r="3.57"/><circle class="cls-1" cx="542.21" cy="237.53" r="3.12"/><circle class="cls-3" cx="562.77" cy="228.79" r="3.53"/><circle class="cls-2" cx="559.67" cy="245.68" r="4.13"/><circle class="cls-2" cx="562.8" cy="222.91" r="3.83"/><circle class="cls-5" cx="544.07" cy="227.16" r="4.82"/><circle class="cls-2" cx="594.8" cy="242.39" r="4.12"/><circle class="cls-6" cx="580.62" cy="204.73" r="4.63"/><circle class="cls-2" cx="603.41" cy="198" r="6.36"/><circle class="cls-3" cx="611.85" cy="298.27" r="1.49"/><circle class="cls-7" cx="612.69" cy="225.11" r="3.38"/><circle class="cls-8" cx="608.46" cy="216.07" r="3.31"/><circle class="cls-17" cx="640.81" cy="104.65" r="3.8"/><circle class="cls-7" cx="593.37" cy="220.2" r="4.28"/><circle class="cls-8" cx="575.17" cy="132.11" r="2.25"/><circle class="cls-17" cx="593.32" cy="276.28" r="3.93"/><circle class="cls-18" cx="589.23" cy="255.3" r="3.31"/><circle class="cls-19" cx="568.77" cy="209.65" r="2.56"/><circle class="cls-19" cx="578.53" cy="218.17" r="3.42"/><circle class="cls-4" cx="570.2" cy="194.22" r="2.51"/><circle class="cls-20" cx="511.1" cy="210.86" r="2.13"/><circle class="cls-20" cx="553.94" cy="203.46" r="1.99"/><circle class="cls-20" cx="544.64" cy="206.98" r="2.75"/><circle class="cls-4" cx="537.86" cy="188.34" r="2.11"/><circle class="cls-3" cx="533.32" cy="216.04" r="2.23"/><circle class="cls-20" cx="543.74" cy="195.9" r="2.13"/><circle class="cls-2" cx="530.45" cy="198.32" r="1.44"/><circle class="cls-1" cx="527.4" cy="185.23" r="1.93"/><circle class="cls-4" cx="524.17" cy="204.93" r="1.22"/><circle class="cls-3" cx="517.03" cy="223.45" r="1.45"/><circle class="cls-1" cx="754.27" cy="179.93" r="2.48"/><circle class="cls-1" cx="693.34" cy="113.88" r="3.12"/><circle class="cls-1" cx="750.23" cy="72.78" r="1.67"/><circle class="cls-2" cx="737.81" cy="54.28" r="2.45"/><circle class="cls-2" cx="698.82" cy="60.61" r="3.83"/><circle class="cls-2" cx="688.79" cy="39.01" r="3.21"/><circle class="cls-7" cx="709.25" cy="15.3" r="1.85"/><circle class="cls-2" cx="661.29" cy="76.9" r="3.06"/><circle class="cls-2" cx="634.51" cy="63.6" r="5.05"/><circle class="cls-3" cx="648.42" cy="31.14" r="2.46"/><circle class="cls-7" cx="604.36" cy="99.84" r="5.82"/><circle class="cls-3" cx="608.68" cy="59.23" r="5.82"/><circle class="cls-8" cx="568.47" cy="80.47" r="5.46"/><circle class="cls-9" cx="575.94" cy="60.19" r="4.47"/><circle class="cls-10" cx="541.26" cy="91.8" r="7.86"/><circle class="cls-11" cx="557.52" cy="77.16" r="7.95"/><circle class="cls-12" cx="593.54" cy="101.94" r="5.67"/><circle class="cls-10" cx="513.55" cy="145.12" r="6.47"/><circle class="cls-10" cx="569.28" cy="147.12" r="6.84"/><circle class="cls-15" cx="513.52" cy="139.97" r="3.5"/><circle class="cls-10" cx="541.57" cy="105.35" r="3.4"/><circle class="cls-14" cx="569.11" cy="96.26" r="5.39"/><circle class="cls-15" cx="564.68" cy="136.88" r="4.1"/><circle class="cls-9" cx="545.97" cy="82.16" r="4.41"/><circle class="cls-16" cx="600.17" cy="53.14" r="5.29"/><circle class="cls-14" cx="592.17" cy="128.75" r="3.4"/><circle class="cls-17" cx="619.16" cy="43.26" r="3.36"/><circle class="cls-8" cx="627.37" cy="113.17" r="3.31"/><circle class="cls-17" cx="650.48" cy="60.51" r="3.8"/><circle class="cls-7" cx="553.32" cy="175.47" r="4.28"/><circle class="cls-8" cx="610.2" cy="123.71" r="2.25"/><circle class="cls-18" cx="677.79" cy="59.67" r="3.31"/><circle class="cls-19" cx="678.63" cy="104.21" r="2.56"/><circle class="cls-19" cx="694.6" cy="81.52" r="3.42"/><circle class="cls-4" cx="713.11" cy="55.89" r="2.51"/><circle class="cls-20" cx="713.82" cy="88.11" r="2.13"/><circle class="cls-20" cx="713.82" cy="88.24" r="1.99"/><circle class="cls-4" cx="717.72" cy="109.25" r="2.11"/><circle class="cls-2" cx="687.88" cy="248.66" r="4.12"/><circle class="cls-2" cx="688.14" cy="191.6" r="4.07"/><circle class="cls-7" cx="662.13" cy="247.88" r="3.04"/><circle class="cls-2" cx="644.15" cy="197.66" r="2.14"/><circle class="cls-2" cx="633.54" cy="217.58" r="4.08"/><circle class="cls-3" cx="650.57" cy="260.1" r="4.26"/><circle class="cls-17" cx="626.16" cy="234.62" r="2.9"/><circle class="cls-8" cx="627.37" cy="185.41" r="3.31"/><circle class="cls-17" cx="660.14" cy="238.99" r="3.8"/><circle class="cls-7" cx="616.94" cy="171.11" r="4.28"/><circle class="cls-17" cx="663.93" cy="197.96" r="3.93"/><circle class="cls-18" cx="677.79" cy="228.91" r="3.31"/><circle class="cls-19" cx="707.21" cy="260.19" r="2.56"/><circle class="cls-20" cx="713.82" cy="220.47" r="2.13"/><circle class="cls-20" cx="732.58" cy="225.68" r="2.75"/><circle class="cls-3" cx="736.75" cy="109.25" r="2.23"/><circle class="cls-2" cx="745.88" cy="136.05" r="1.44"/><circle class="cls-4" cx="835.07" cy="261.97" r="1.22"/><circle class="cls-2" cx="816.08" cy="224.19" r="0.94"/><circle class="cls-20" cx="877.77" cy="90.23" r="1.37"/><circle class="cls-1" cx="757.03" cy="280.62" r="1.36"/><circle class="cls-11" cx="502.43" cy="151.03" r="7.87"/><circle class="cls-15" cx="519.37" cy="150.52" r="6.93"/><circle class="cls-10" cx="498.84" cy="160.77" r="6.47"/><circle class="cls-11" cx="502.27" cy="171.03" r="5.86"/><circle class="cls-15" cx="566.66" cy="27.45" r="2.51"/><circle class="cls-15" cx="531.14" cy="158.08" r="3.63"/><circle class="cls-16" cx="639.99" cy="2.47" r="2.47"/><circle class="cls-16" cx="592.12" cy="81.88" r="2.47"/><circle class="cls-15" cx="590.3" cy="74.64" r="2.41"/><circle class="cls-15" cx="572.95" cy="76.09" r="2.41"/><circle class="cls-7" cx="625.07" cy="137.82" r="3.9"/><circle class="cls-8" cx="607.67" cy="139.25" r="7.08"/><circle class="cls-10" cx="591.91" cy="183.18" r="6.84"/><circle class="cls-14" cx="539.12" cy="176.08" r="5.39"/><circle class="cls-15" cx="591.54" cy="151.16" r="5.88"/><circle class="cls-14" cx="572.27" cy="181.61" r="3.4"/><circle class="cls-8" cx="632.83" cy="159.76" r="2.25"/><circle class="cls-16" cx="652.53" cy="111.36" r="2.47"/><circle class="cls-15" cx="543.5" cy="50.86" r="2.41"/><circle class="cls-7" cx="543.4" cy="159.34" r="4.28"/><circle class="cls-15" cx="610.56" cy="73.81" r="2.75"/><circle class="cls-15" cx="621.06" cy="201.78" r="2.75"/><circle class="cls-15" cx="617.76" cy="107.74" r="2.75"/><circle class="cls-15" cx="513.32" cy="95.3" r="1.38"/><circle class="cls-15" cx="648.25" cy="86.98" r="1.38"/><circle class="cls-15" cx="549.5" cy="142.11" r="1.38"/><circle class="cls-3" cx="653.42" cy="207.83" r="2.68"/><circle class="cls-10" cx="590.75" cy="97.81" r="3.46"/><circle class="cls-10" cx="514.8" cy="170.86" r="5.53"/><circle class="cls-8" cx="601.65" cy="76.74" r="4.27"/><circle class="cls-8" cx="623.13" cy="80.49" r="4.27"/><circle class="cls-8" cx="545.84" cy="154.3" r="4.27"/><circle class="cls-10" cx="525.25" cy="158.85" r="4.27"/><circle class="cls-21" cx="779.74" cy="110.61" r="0.94"/><circle class="cls-2" cx="657.41" cy="177" r="6.36"/><circle class="cls-2" cx="698.15" cy="176.66" r="2.14"/><circle class="cls-8" cx="681.37" cy="164.41" r="3.31"/><circle class="cls-7" cx="670.94" cy="150.11" r="4.28"/><circle class="cls-17" cx="717.93" cy="176.96" r="3.93"/><circle class="cls-10" cx="645.91" cy="162.18" r="6.84"/><circle class="cls-15" cx="675.06" cy="180.78" r="2.75"/><circle class="cls-8" cx="656.29" cy="3.51" r="1.42"/><circle class="cls-7" cx="572.49" cy="121.84" r="2.47"/><circle class="cls-8" cx="561.46" cy="122.75" r="4.49"/><circle class="cls-2" cx="775.55" cy="22.79" r="2.14"/><circle class="cls-2" cx="677.03" cy="301.31" r="2.14"/></svg>