<?xml version="1.0" encoding="UTF-8" standalone="no"?>
<!--?xml version="1.0" encoding="UTF-8" standalone="no"?-->

<svg
   xmlns:dc="http://purl.org/dc/elements/1.1/"
   xmlns:cc="http://creativecommons.org/ns#"
   xmlns:rdf="http://www.w3.org/1999/02/22-rdf-syntax-ns#"
   xmlns:svg="http://www.w3.org/2000/svg"
   xmlns="http://www.w3.org/2000/svg"
   xmlns:sodipodi="http://sodipodi.sourceforge.net/DTD/sodipodi-0.dtd"
   xmlns:inkscape="http://www.inkscape.org/namespaces/inkscape"
   viewBox="0 0 17 17"
   version="1.1"
   class="si-glyph si-glyph-person-woman"
   id="svg3442"
   inkscape:version="0.91 r13725"
   sodipodi:docname="gp-glyph-couple.svg">
  <metadata
     id="metadata3470">
    <rdf:RDF>
      <cc:Work
         rdf:about="">
        <dc:format>image/svg+xml</dc:format>
        <dc:type
           rdf:resource="http://purl.org/dc/dcmitype/StillImage" />
      </cc:Work>
    </rdf:RDF>
  </metadata>
  <sodipodi:namedview
     pagecolor="#ffffff"
     bordercolor="#666666"
     borderopacity="1"
     objecttolerance="10"
     gridtolerance="10"
     guidetolerance="10"
     inkscape:pageopacity="0"
     inkscape:pageshadow="2"
     inkscape:window-width="1764"
     inkscape:window-height="1078"
     id="namedview3468"
     showgrid="false"
     inkscape:zoom="55.823529"
     inkscape:cx="6.2033849"
     inkscape:cy="7.7814979"
     inkscape:window-x="0"
     inkscape:window-y="0"
     inkscape:window-maximized="0"
     inkscape:current-layer="g3448" />
  <!-- Generator: Sketch 3.0.3 (7891) - http://www.bohemiancoding.com/sketch -->
  <title
     id="title3444">738</title>
  <defs
     id="defs3446" />
  <g
     stroke="none"
     stroke-width="1"
     fill="none"
     fill-rule="evenodd"
     id="g3448">
    <g
       transform="translate(0.15806105,3.0927292)"
       id="g3450"
       style="fill:#ffffff">
      <g
         id="g3484"
         transform="matrix(0.62117182,0,0,0.64895254,3.2186888,4.8578425)">
        <g
           id="g3496"
           transform="matrix(0.89865819,0,0,0.93008197,-0.06178435,1.0779506)">
          <g
             id="g3502"
             transform="matrix(1,0,0,0.99604347,0,-0.00460692)">
            <path
               inkscape:connector-curvature="0"
               id="path3452"
               class="si-glyph-fill"
               d="m 20.168043,8.9283456 c -2.843,2.1470004 -0.724,3.4240004 -3.653,3.4240004 -2.932,0 -0.604,-1.191 -3.76,-3.3980004 C 7.8470432,10.335346 8.528641,13.838136 8.528641,13.838136 l 15.875,0 c -0.001,0 0.651402,-3.9207904 -4.235598,-4.9097904 l 0,0 z" />
            <path
               inkscape:connector-curvature="0"
               id="path3454"
               class="si-glyph-fill"
               d="m 19.975475,5.1950495 -0.575,1.88 1.884,0.122 c 0,0 -1.153,-0.85 -1.309,-2.002 l 0,0 z" />
            <path
               inkscape:connector-curvature="0"
               id="path3456"
               class="si-glyph-fill"
               d="m 12.795475,5.2200495 0.538,1.893 -1.887,0.084 c 0,0 1.169,-0.826 1.349,-1.977 l 0,0 z" />
            <path
               inkscape:connector-curvature="0"
               id="path3458"
               class="si-glyph-fill"
               d="m 19.599179,1.8816164 c 0,1.68 -1.323,4.895 -2.954,4.895 -1.632,0 -2.954,-3.215 -2.954,-4.895 0,-1.68299996 1.322,-3.046 2.954,-3.046 1.63,0.001 2.954,1.36400004 2.954,3.046 l 0,0 z" />
          </g>
        </g>
      </g>
      <g
         id="g3472"
         transform="matrix(0.65650924,0,0,0.64697072,2.6038699,4.9044657)">
        <g
           id="g3478">
          <g
             id="g3490"
             transform="matrix(0.91492556,0,0,0.91175714,0.64491625,1.2259155)">
            <path
               inkscape:connector-curvature="0"
               id="path3460"
               class="si-glyph-fill"
               d="m 2.2370612,11.427803 -0.943,1.62 -0.94200001,-1.62 0.488,-3.2959998 0.90800001,0 0.489,3.2959998 z" />
            <path
               inkscape:connector-curvature="0"
               id="path3462"
               class="si-glyph-fill"
               d="m 0.28531718,13.892518 c -1.70099998,-2.254 -1.156,-5.7759996 -1.32399998,-5.9999996 -4.087,-0.001 -4.21,5.9999996 -4.21,5.9999996 l 5.53399998,0 z" />
            <path
               inkscape:connector-curvature="0"
               id="path3464"
               class="si-glyph-fill"
               d="m 2.1625202,13.874605 5.418091,0 c -10e-4,0 0,-6.0314943 -3.680542,-6.0314943 -0.163,0.22 -0.034549,3.7594943 -1.737549,6.0314943 z" />
            <path
               inkscape:connector-curvature="0"
               id="path3466"
               class="si-glyph-fill"
               d="m 1.3799661,6.4006543 c -1.61799999,0 -3.0079956,-3.2092233 -3.0079956,-4.8772233 0,-1.67000002 1.38899561,-3.0058946 3.0079956,-3.0058946 1.62,0 2.9935913,1.33689465 2.9935913,3.0058946 0,1.668 -1.3735913,4.8772233 -2.9935913,4.8772233 z" />
          </g>
        </g>
      </g>
    </g>
  </g>
</svg>
