<svg id="Layer_1" data-name="Layer 1" xmlns="http://www.w3.org/2000/svg"  height="512px" width="512px"  viewBox="0 0 508.73083 506.47803"><defs><style>.cls-1{fill:none;}.cls-2,.cls-8{fill:#adc1d4;}.cls-2{opacity:0.15;}.cls-3{fill:#ae8bc0;}.cls-4{fill:#9671b1;}.cls-5,.cls-6,.cls-7{fill:#00a8cb;}.cls-5,.cls-9{opacity:0.8;}.cls-11,.cls-6{opacity:0.6;}.cls-10,.cls-11,.cls-9{fill:#42b290;}</style></defs><title>no-risk-detected</title><path class="cls-1" d="M221.48395,145.58917c-1.62323,0-2.68213,1.15778-2.99048,2.938h5.90234C224.16309,146.77313,223.1333,145.58917,221.48395,145.58917Z" transform="translate(-2.1637 -1.51611)"/><path class="cls-1" d="M204.6059,145.76953a3.50858,3.50858,0,0,0-3.37732,3.81366v0.0495a3.39107,3.39107,0,1,0,6.72852,0v-0.0495A3.50318,3.50318,0,0,0,204.6059,145.76953Z" transform="translate(-2.1637 -1.51611)"/><path class="cls-1" d="M288.40259,145.58917c-1.62323,0-2.68213,1.15778-2.99048,2.938h5.90234C291.08173,146.77313,290.05194,145.58917,288.40259,145.58917Z" transform="translate(-2.1637 -1.51611)"/><path class="cls-1" d="M247.58636,145.58917c-1.62323,0-2.68207,1.15778-2.99042,2.938h5.90234C250.26556,146.77313,249.23578,145.58917,247.58636,145.58917Z" transform="translate(-2.1637 -1.51611)"/><path class="cls-1" d="M262.97791,91.60974a3.5409,3.5409,0,0,0,3.58386-3.76422V87.79315a3.6675,3.6675,0,0,0-3.63623-3.81079,3.53792,3.53792,0,0,0-3.581,3.76135v0.04944A3.67193,3.67193,0,0,0,262.97791,91.60974Z" transform="translate(-2.1637 -1.51611)"/><path class="cls-1" d="M239.511,123.14911c1.82977,0,3.0661-1.00647,3.0661-2.42609V120.0307a6.04055,6.04055,0,0,0-2.49884-.51782c-1.6756,0-2.70825.66907-2.70825,1.90833v0.05237C237.37,122.52661,238.24561,123.14911,239.511,123.14911Z" transform="translate(-2.1637 -1.51611)"/><path class="cls-1" d="M265.76471,117.60455h5.9024c-0.23273-1.75122-1.26251-2.938-2.91193-2.938C267.132,114.6665,266.07306,115.83008,265.76471,117.60455Z" transform="translate(-2.1637 -1.51611)"/><path class="cls-1" d="M187.17517,114.84686a3.50954,3.50954,0,0,0-3.37732,3.81659v0.05237a3.39042,3.39042,0,1,0,6.72852,0v-0.05237A3.50755,3.50755,0,0,0,187.17517,114.84686Z" transform="translate(-2.1637 -1.51611)"/><path class="cls-1" d="M224.77112,114.6665c-1.62323,0-2.68213,1.16357-2.99048,2.938H227.683C227.45026,115.85333,226.42047,114.6665,224.77112,114.6665Z" transform="translate(-2.1637 -1.51611)"/><path class="cls-1" d="M304.71332,145.76953a3.50858,3.50858,0,0,0-3.37732,3.81366v0.0495a3.39107,3.39107,0,1,0,6.72852,0v-0.0495A3.50318,3.50318,0,0,0,304.71332,145.76953Z" transform="translate(-2.1637 -1.51611)"/><path class="cls-1" d="M509.48047,254.75537L257.65527,2.93018,130.37744,130.208,254.92462,254.75525,381.30505,128.37476,507.68555,254.75525,381.30505,381.13568,256.758,505.6828l0.89728,0.89728ZM286.119,111.78076h3.9184v2.78394c0.8-1.9054,2.08868-3.14465,4.40717-3.03992v4.09589H294.238c-2.60358,0-4.20062,1.57373-4.20062,4.87256v5.10236H286.119V111.78076Zm-10.63824,7.24341c0,0.30835-.02618.66907-0.05237,1.02979h-9.61133a3.20091,3.20091,0,0,0,3.37445,2.70538,4.53229,4.53229,0,0,0,3.3512-1.41669l2.2428,1.98682a7.29687,7.29687,0,0,1-12.86066-4.56128v-0.05237a6.87794,6.87794,0,0,1,6.83032-7.191C273.36884,111.52478,275.48077,115.10577,275.48077,119.02417Zm-20.00226-31.231a7.48147,7.48147,0,0,1,14.94934-.04944v0.04944a7.48141,7.48141,0,0,1-14.94934.05237V87.79315Zm4.00275,25.381-1.49518,2.70532a8.176,8.176,0,0,0-3.7381-1.28864c-0.95123,0-1.44287.413-1.44287,0.9541v0.05237c0,0.7738,1.31488,1.13452,2.81012,1.64648,1.93158,0.64581,4.17438,1.57379,4.17438,4.09882V121.395c0,3.066-2.29224,4.45947-5.28271,4.45947a9.68563,9.68563,0,0,1-5.92853-2.08868l1.67554-2.57733a7.81183,7.81183,0,0,0,4.3548,1.64941c1.13452,0,1.64941-.41022,1.64941-1.03271v-0.04944c0-.85236-1.33813-1.13452-2.85956-1.597-1.93158-.56726-4.12207-1.472-4.12207-4.14825v-0.05237c0-2.81006,2.26611-4.38092,5.05-4.38092A9.57772,9.57772,0,0,1,259.48126,113.17419ZM240.0957,80.86389h3.91846v1.95483a4.8905,4.8905,0,0,1,4.04639-2.21375c2.96429,0,4.68933,1.95776,4.68933,5.1286v8.94226h-3.91553V86.96991c0-1.856-.87561-2.80719-2.37085-2.80719s-2.44934.95123-2.44934,2.80719v7.70593H240.0957v-13.812Zm-6.51324,40.71149c0-3.01666,2.2923-4.40717,5.56781-4.40717a9.82683,9.82683,0,0,1,3.37445.56726v-0.23273c0-1.62323-1.0036-2.525-2.96429-2.525a10.12627,10.12627,0,0,0-3.81366.74762l-0.98035-2.99042a12.21,12.21,0,0,1,5.36127-1.10834,6.37528,6.37528,0,0,1,4.66608,1.54761,6.02334,6.02334,0,0,1,1.49518,4.4071v8.01428h-3.79041V124.1004a5.3123,5.3123,0,0,1-4.17444,1.75409c-2.60352,0-4.74164-1.49524-4.74164-4.22968v-0.04944Zm-15.64172-2.85956a6.878,6.878,0,0,1,6.83038-7.191c4.61365,0,6.72559,3.581,6.72559,7.49939,0,0.30835-.02618.66907-0.05237,1.02979H221.833a3.20091,3.20091,0,0,0,3.37445,2.70538,4.53216,4.53216,0,0,0,3.35114-1.41669l2.24286,1.98682a7.29691,7.29691,0,0,1-12.86072-4.56128v-0.05237Zm-8.52917,1.44287c-1.93158-.56726-4.122-1.472-4.122-4.14825v-0.05237c0-2.81006,2.26611-4.38092,5.05-4.38092a9.57808,9.57808,0,0,1,5.15479,1.597l-1.49524,2.70532a8.176,8.176,0,0,0-3.7381-1.28864c-0.95123,0-1.44287.413-1.44287,0.9541v0.05237c0,0.7738,1.31488,1.13452,2.81012,1.64648,1.93158,0.64581,4.17444,1.57379,4.17444,4.09882V121.395c0,3.066-2.2923,4.45947-5.28278,4.45947a9.68563,9.68563,0,0,1-5.92853-2.08868l1.6756-2.57733a7.8115,7.8115,0,0,0,4.35474,1.64941c1.13452,0,1.64941-.41022,1.64941-1.03271v-0.04944C212.27112,120.90338,210.933,120.62122,209.41156,120.15869Zm-11.4411-13.37561h4.125v3.47919h-4.125v-3.47919Zm4.02026,4.99768v13.81482h-3.91846V111.78076h3.91846Zm-7.59833,13.81482H190.474v-1.98395a5.07628,5.07628,0,0,1-4.30536,2.24286c-3.22021,0-6.28632-2.525-6.28632-7.13867v-0.05237c0-4.61365,3.01373-7.13867,6.28632-7.13867a5.3128,5.3128,0,0,1,4.30536,2.05957v-6.80127h3.9184v18.8125Zm17.43073,30.9198h-3.9184v-1.98395a5.07408,5.07408,0,0,1-4.30536,2.23993c-3.22021,0-6.28632-2.525-6.28632-7.13867v-0.0495c0-4.61365,3.01373-7.13867,6.28632-7.13867a5.29824,5.29824,0,0,1,4.30536,2.0625V137.7h3.9184v18.81543Zm16.334-5.54169h-9.61133a3.20571,3.20571,0,0,0,3.37445,2.70831,4.5243,4.5243,0,0,0,3.35114-1.41962l2.24286,1.98395a7.29691,7.29691,0,0,1-12.86072-4.56134v-0.05231a6.87726,6.87726,0,0,1,6.83038-7.18817c4.61365,0,6.72559,3.581,6.72559,7.49939C228.20953,150.25226,228.18335,150.613,228.15717,150.97369Zm10.772-4.922h-3.24646V151.954a1.13252,1.13252,0,0,0,1.26251,1.33813,3.9898,3.9898,0,0,0,1.93158-.48871v3.14465a5.75181,5.75181,0,0,1-3.09229.8c-2.397,0-4.0202-.95416-4.0202-4.14825V146.0517h-1.64941v-3.34827h1.64941v-3.53156h3.9184v3.53156h3.24646v3.34827Zm1.82684,3.6333v-0.05231a6.87724,6.87724,0,0,1,6.83032-7.18817c4.61371,0,6.72565,3.581,6.72565,7.49939,0,0.30835-.02618.66907-0.05237,1.02979h-9.61133a3.20569,3.20569,0,0,0,3.37439,2.70831,4.52443,4.52443,0,0,0,3.3512-1.41962l2.24286,1.98395A7.29691,7.29691,0,0,1,240.756,149.685Zm14.16858,103.926a2.73056,2.73056,0,1,1,2.73059-2.73059A2.7306,2.7306,0,0,1,254.92462,253.611Zm0-8.73669a2.73059,2.73059,0,1,1,2.73059-2.73059A2.7306,2.7306,0,0,1,254.92462,244.87433Zm0-7.74957a2.73056,2.73056,0,1,1,2.73059-2.73053A2.73055,2.73055,0,0,1,254.92462,237.12476Zm0-8.73669a2.73056,2.73056,0,1,1,2.73059-2.73059A2.7306,2.7306,0,0,1,254.92462,228.38806Zm0-8.73669a2.73059,2.73059,0,1,1,2.73059-2.73059A2.7306,2.7306,0,0,1,254.92462,219.65137Zm0-8.73669a2.73059,2.73059,0,1,1,2.73059-2.73059A2.7306,2.7306,0,0,1,254.92462,210.91467Zm0-8.73669a2.73059,2.73059,0,1,1,2.73059-2.73059A2.7306,2.7306,0,0,1,254.92462,202.178Zm8.81836-45.35425a7.05165,7.05165,0,0,1-7.191-7.13873v-0.05231a7.09229,7.09229,0,0,1,7.24341-7.18817,6.78553,6.78553,0,0,1,5.51251,2.31848l-2.3941,2.57739a4.03874,4.03874,0,0,0-3.14459-1.51849,3.52763,3.52763,0,0,0-3.3512,3.76129v0.0495a3.54151,3.54151,0,0,0,3.50537,3.81659,4.37834,4.37834,0,0,0,3.17078-1.46906l2.2923,2.31848A6.95555,6.95555,0,0,1,263.743,156.82373Zm16.00238-10.772H276.499V151.954a1.13248,1.13248,0,0,0,1.26245,1.33813,3.9898,3.9898,0,0,0,1.93158-.48871v3.14465a5.75174,5.75174,0,0,1-3.09222.8c-2.397,0-4.02026-.95416-4.02026-4.14825V146.0517h-1.64941v-3.34827h1.64941v-3.53156H276.499v3.53156h3.2464v3.34827Zm15.33044,4.922h-9.61133a3.20571,3.20571,0,0,0,3.37445,2.70831,4.5243,4.5243,0,0,0,3.35114-1.41962l2.24286,1.98395A7.29691,7.29691,0,0,1,281.5722,149.685v-0.05231a6.87726,6.87726,0,0,1,6.83038-7.18817c4.61365,0,6.72559,3.581,6.72559,7.49939C295.12817,150.25226,295.102,150.613,295.07581,150.97369Zm1.89087-44.19061h4.12494v3.47919h-4.12494v-3.47919Zm0.10181,4.99768h3.9184v13.81482h-3.9184V111.78076Zm14.86206,44.73462h-3.9184v-1.98395a5.07258,5.07258,0,0,1-4.30243,2.23993c-3.22314,0-6.28925-2.525-6.28925-7.13867v-0.0495c0-4.61365,3.01373-7.13867,6.28925-7.13867a5.29655,5.29655,0,0,1,4.30243,2.0625V137.7h3.9184v18.81543Zm2.86829-35.12036c0,3.066-2.2923,4.45947-5.28271,4.45947a9.6858,9.6858,0,0,1-5.92859-2.08868l1.6756-2.57733a7.81183,7.81183,0,0,0,4.3548,1.64941c1.13446,0,1.64935-.41022,1.64935-1.03271v-0.04944c0-.85236-1.33813-1.13452-2.8595-1.597-1.93158-.56726-4.12207-1.472-4.12207-4.14825v-0.05237c0-2.81006,2.26611-4.38092,5.05-4.38092a9.57788,9.57788,0,0,1,5.15472,1.597l-1.49524,2.70532a8.176,8.176,0,0,0-3.738-1.28864c-0.95123,0-1.44287.413-1.44287,0.9541v0.05237c0,0.7738,1.31488,1.13452,2.81006,1.64648,1.93158,0.64581,4.17444,1.57379,4.17444,4.09882V121.395Zm11.69708,4.20056-3.60718-5.64343-1.36719,1.44287v4.20056h-3.91846v-18.8125h3.91846V116.8075l4.58746-5.02673h4.68933l-5.25659,5.43982,5.437,8.375h-4.48279Z" transform="translate(-2.1637 -1.51611)"/><path class="cls-2" d="M507.68555,254.75525L381.30505,128.37476,254.92462,254.75525,381.30505,381.13568ZM312.75769,299.9068a3.5994,3.5994,0,1,1,3.59937-3.59943A3.59942,3.59942,0,0,1,312.75769,299.9068Zm7.60345-23.80341a3.5994,3.5994,0,1,1,3.59943,3.59943A3.5994,3.5994,0,0,1,320.36115,276.10339Zm7.69012,36.89416a3.59943,3.59943,0,1,1,3.59937-3.59943A3.59942,3.59942,0,0,1,328.05127,312.99756ZM328.92,296.47693a2.73059,2.73059,0,1,1,2.73059-2.73059A2.73055,2.73055,0,0,1,328.92,296.47693Zm8.73669,32.26367a2.73059,2.73059,0,1,1,2.73059-2.73059A2.73055,2.73055,0,0,1,337.65674,328.7406Zm4.25726-25.23437a3.59943,3.59943,0,1,1,3.59937-3.59943A3.59942,3.59942,0,0,1,341.914,303.50623Zm0-27.4798a3.5994,3.5994,0,1,1,3.59937-3.59937A3.5994,3.5994,0,0,1,341.914,276.02643Zm17.70465,40.5705a3.5994,3.5994,0,1,1,3.59937-3.59937A3.5994,3.5994,0,0,1,359.61865,316.59692Zm-0.24249-16.1261V283.45209h13.41968V273.12238c-0.83936-.19763-1.66-0.442-2.47668-0.69531a37.19627,37.19627,0,1,1,21.97144,0c-0.81628.25311-1.6369,0.49768-2.476,0.69507v10.33h13.41968v17.01874H389.81458V313.8905H372.79584V300.47083H359.37616Z" transform="translate(-2.1637 -1.51611)"/><path class="cls-2" d="M402.701,236.947a21.39594,21.39594,0,1,0-21.39581,21.39581A21.41993,21.41993,0,0,0,402.701,236.947Z" transform="translate(-2.1637 -1.51611)"/><polygon class="cls-2" points="2.252 253.239 127.507 127.985 126.38 126.859 0 253.239 126.38 379.62 127.507 378.493 2.252 253.239"/><path class="cls-2" d="M130.37744,130.208L5.83008,254.75537l124.5473,124.54706L254.92462,254.75525Zm9.68866,187.28186a3.5994,3.5994,0,1,1,3.59937-3.59937A3.5994,3.5994,0,0,1,140.0661,317.48987Zm7.26642-27.01288a37.19608,37.19608,0,1,1-7.89758-57.75177l8.73651-9.09381-9.47986.07965-13.97784-13.429,48.18048-.4751,2.03583,48.71844L160.952,245.09674l-0.313-9.87738-8.93109,9.29614A37.29843,37.29843,0,0,1,147.33252,290.477Zm28.46631-10.77417a3.5994,3.5994,0,1,1-3.59937-3.59943A3.59937,3.59937,0,0,1,175.79883,279.70282Zm-14.5426,31.22906a3.5994,3.5994,0,1,1,3.59943-3.59937A3.59939,3.59939,0,0,1,161.25623,310.93188Zm10.94324,14.19788a3.5994,3.5994,0,1,1,3.59937-3.59937A3.5994,3.5994,0,0,1,172.19946,325.12976Zm2.73059-26.0918a2.73056,2.73056,0,1,1,2.73059-2.73059A2.73056,2.73056,0,0,1,174.93005,299.038Zm12.9212,9.60553a3.5994,3.5994,0,1,1,3.59943-3.59937A3.5994,3.5994,0,0,1,187.85126,308.64349Zm15.39056-12.16657a2.73059,2.73059,0,1,1,2.73059-2.73059A2.7306,2.7306,0,0,1,203.24182,296.47693Z" transform="translate(-2.1637 -1.51611)"/><path class="cls-2" d="M105.0799,249.88458a21.62025,21.62025,0,0,0,.6062,30.2522,21.30226,21.30226,0,0,0,35.96545-17.92334,21.18584,21.18584,0,0,0-6.3194-12.93506A21.41981,21.41981,0,0,0,105.0799,249.88458Z" transform="translate(-2.1637 -1.51611)"/><path class="cls-3" d="M389.81458,313.8905V300.47083h13.41968V283.45209H389.81458v-10.33c0.83911-.19739,1.65973-0.442,2.476-0.69507H370.31915c0.81671,0.25336,1.63733.49768,2.47668,0.69531v10.32971H359.37616v17.01874h13.41968V313.8905h17.01874Z" transform="translate(-2.1637 -1.51611)"/><path class="cls-4" d="M418.5011,236.947a37.19609,37.19609,0,1,0-48.18195,35.48h21.97144A37.21239,37.21239,0,0,0,418.5011,236.947Zm-58.592,0a21.39594,21.39594,0,1,1,21.39606,21.39581A21.42,21.42,0,0,1,359.90912,236.947Z" transform="translate(-2.1637 -1.51611)"/><path class="cls-2" d="M105.0799,249.88458a21.41981,21.41981,0,0,1,30.25226-.6062,21.18584,21.18584,0,0,1,6.3194,12.93506h15.91834a37.20791,37.20791,0,0,0-5.862-17.69794l8.93109-9.29614,0.313,9.87738,13.97809,13.42871L172.89423,209.807l-48.18048.4751,13.97784,13.429,9.47986-.07965-8.73651,9.09381a37.12511,37.12511,0,0,0-56.00726,29.48822H99.34814A21.18851,21.18851,0,0,1,105.0799,249.88458Z" transform="translate(-2.1637 -1.51611)"/><path class="cls-5" d="M105.0799,249.88458a21.41981,21.41981,0,0,1,30.25226-.6062,21.18584,21.18584,0,0,1,6.3194,12.93506h15.91834a37.20791,37.20791,0,0,0-5.862-17.69794l8.93109-9.29614,0.313,9.87738,13.97809,13.42871L172.89423,209.807l-48.18048.4751,13.97784,13.429,9.47986-.07965-8.73651,9.09381a37.12511,37.12511,0,0,0-56.00726,29.48822H99.34814A21.18851,21.18851,0,0,1,105.0799,249.88458Z" transform="translate(-2.1637 -1.51611)"/><path class="cls-2" d="M141.65155,262.21344a21.31123,21.31123,0,1,1-42.30341,0H83.42767a37.15927,37.15927,0,1,0,74.14221,0H141.65155Z" transform="translate(-2.1637 -1.51611)"/><path class="cls-6" d="M141.65155,262.21344a21.31123,21.31123,0,1,1-42.30341,0H83.42767a37.15927,37.15927,0,1,0,74.14221,0H141.65155Z" transform="translate(-2.1637 -1.51611)"/><polygon class="cls-2" points="126.38 379.62 252.761 506 253.887 504.874 128.633 379.62 126.38 379.62"/><polygon class="cls-2" points="126.38 379.62 252.761 506 253.887 504.874 128.633 379.62 126.38 379.62"/><path class="cls-2" d="M132.21063,381.13568L256.758,505.6828,381.30505,381.13568H132.21063Zm179.2052,20.7655c-0.21527.016-59.90411,0.024-60.2439,0.008-4.153-.14618-8.14215-5.14673-10.16534-11.732-0.18689.62543-.39618,1.23126-0.61633,1.82544-2.09741,5.66052-5.634,9.77533-9.39264,9.91455-0.24689.00806-45.15515,0.00037-45.32513-.00763-6.08124-.332-9.80951-3.76605-9.80969-8.95209,0-5.226,3.827-8.652,9.94769-8.96045,0.0849,0,.11676,0,18.42963.02185l30.14575,0.03925c0.0213,0,.04492-0.01379.06641-0.01453h13.51849c0.00958,0.00037.02032,0.00653,0.02979,0.00653l5.20837-.00653h0.05054l1.10687-.00146c56.84967-.0611,56.91876-0.0531,56.99585-0.0531,6.12677,0.308,9.92426,3.74207,9.92426,8.96008C321.28662,398.1355,317.50513,401.56958,311.41583,401.90118Z" transform="translate(-2.1637 -1.51611)"/><path class="cls-2" d="M132.21063,381.13568L256.758,505.6828,381.30505,381.13568H132.21063Zm179.2052,20.7655c-0.21527.016-59.90411,0.024-60.2439,0.008-4.153-.14618-8.14215-5.14673-10.16534-11.732-0.18689.62543-.39618,1.23126-0.61633,1.82544-2.09741,5.66052-5.634,9.77533-9.39264,9.91455-0.24689.00806-45.15515,0.00037-45.32513-.00763-6.08124-.332-9.80951-3.76605-9.80969-8.95209,0-5.226,3.827-8.652,9.94769-8.96045,0.0849,0,.11676,0,18.42963.02185l30.14575,0.03925c0.0213,0,.04492-0.01379.06641-0.01453h13.51849c0.00958,0.00037.02032,0.00653,0.02979,0.00653l5.20837-.00653h0.05054l1.10687-.00146c56.84967-.0611,56.91876-0.0531,56.99585-0.0531,6.12677,0.308,9.92426,3.74207,9.92426,8.96008C321.28662,398.1355,317.50513,401.56958,311.41583,401.90118Z" transform="translate(-2.1637 -1.51611)"/><polygon class="cls-2" points="127.507 378.493 126.38 379.62 128.633 379.62 127.507 378.493"/><polygon class="cls-2" points="127.507 378.493 126.38 379.62 128.633 379.62 127.507 378.493"/><polygon class="cls-2" points="127.507 378.493 126.38 379.62 128.633 379.62 127.507 378.493"/><path class="cls-2" d="M254.92462,254.75525L130.37738,379.30243l1.83325,1.83325H381.30505Zm54.23364,64.04456a2.73056,2.73056,0,1,1-2.73059,2.73059A2.73056,2.73056,0,0,1,309.15826,318.7998Zm0,18.00842a3.5994,3.5994,0,1,1-3.59943,3.59943A3.59942,3.59942,0,0,1,309.15826,336.80823Zm-10.71844-16.2594a2.73059,2.73059,0,1,1-2.73059,2.73059A2.7306,2.7306,0,0,1,298.43982,320.54883Zm-43.5152-63.66223a2.73056,2.73056,0,1,1-2.73059,2.73059A2.7306,2.7306,0,0,1,254.92462,256.8866Zm0,8.73669a2.73056,2.73056,0,1,1-2.73059,2.73059A2.7306,2.7306,0,0,1,254.92462,265.62329Zm0,8.73669a2.73059,2.73059,0,1,1-2.73059,2.73059A2.7306,2.7306,0,0,1,254.92462,274.36Zm0,7.74957a2.73056,2.73056,0,1,1-2.73059,2.73059A2.7306,2.7306,0,0,1,254.92462,282.10956Zm0,8.73669a2.73056,2.73056,0,1,1-2.73059,2.73059A2.7306,2.7306,0,0,1,254.92462,290.84625Zm0,8.73669a2.73059,2.73059,0,1,1-2.73059,2.73059A2.7306,2.7306,0,0,1,254.92462,299.58295Zm0,8.73669a2.73059,2.73059,0,1,1-2.73059,2.73059A2.7306,2.7306,0,0,1,254.92462,308.31964Zm0,8.73669a2.73059,2.73059,0,1,1-2.73059,2.73059A2.7306,2.7306,0,0,1,254.92462,317.05634Zm0,7.74957a2.73059,2.73059,0,1,1-2.73059,2.73059A2.7306,2.7306,0,0,1,254.92462,324.80591Zm0,8.73669a2.73059,2.73059,0,1,1-2.73059,2.73059A2.7306,2.7306,0,0,1,254.92462,333.5426Zm0,8.73669a2.73059,2.73059,0,1,1-2.73059,2.73059A2.7306,2.7306,0,0,1,254.92462,342.2793Zm-35.07092-1.87164a2.73059,2.73059,0,1,1-2.73059-2.73059A2.73055,2.73055,0,0,1,219.8537,340.40765Zm-8.19177-20.7276a3.5994,3.5994,0,1,1-3.59937,3.59937A3.5994,3.5994,0,0,1,211.66193,319.68005Zm-11.1507,2.39526a2.73059,2.73059,0,1,1-2.73059,2.73059A2.7306,2.7306,0,0,1,200.51123,322.07532Zm-9.92938,14.3692a2.73059,2.73059,0,1,1-2.73059,2.73059A2.7306,2.7306,0,0,1,190.58185,336.44452Zm120.78821,41.83234c-0.085.008-.15405,0.008-57.00391-0.0531l-6.3656-.008c-0.01166,0-.02454.00763-0.03619,0.00763h-13.535c-0.01141,0-.02417-0.00763-0.03564-0.00763l-30.13776.03748c-18.30707.032-18.32886,0.024-18.40594,0.024-6.12073-.30835-9.92627-3.74207-9.92627-8.96008,0-5.1864,3.78137-8.62048,9.87061-8.95245,0.162-.008,45.17114-0.01562,45.426-0.008,3.54974,0.12909,6.98218,3.81586,9.16956,8.99719,0.295,0.69885.571,1.42139,0.81793,2.1701,2.07654-6.29694,5.95074-11.02112,9.98718-11.1673,0.33978-.01562,60.02069-0.008,60.2439.00763,6.0733,0.332,9.855,3.76569,9.855,8.95245C321.29407,374.54059,317.489,377.96851,311.37006,378.27686Zm8.99109-45.06805a2.73056,2.73056,0,1,1,2.73059-2.73059A2.7306,2.7306,0,0,1,320.36115,333.2088Z" transform="translate(-2.1637 -1.51611)"/><path class="cls-2" d="M254.92462,254.75525L130.37738,379.30243l1.83325,1.83325H381.30505Zm54.23364,64.04456a2.73056,2.73056,0,1,1-2.73059,2.73059A2.73056,2.73056,0,0,1,309.15826,318.7998Zm0,18.00842a3.5994,3.5994,0,1,1-3.59943,3.59943A3.59942,3.59942,0,0,1,309.15826,336.80823Zm-10.71844-16.2594a2.73059,2.73059,0,1,1-2.73059,2.73059A2.7306,2.7306,0,0,1,298.43982,320.54883Zm-43.5152-63.66223a2.73056,2.73056,0,1,1-2.73059,2.73059A2.7306,2.7306,0,0,1,254.92462,256.8866Zm0,8.73669a2.73056,2.73056,0,1,1-2.73059,2.73059A2.7306,2.7306,0,0,1,254.92462,265.62329Zm0,8.73669a2.73059,2.73059,0,1,1-2.73059,2.73059A2.7306,2.7306,0,0,1,254.92462,274.36Zm0,7.74957a2.73056,2.73056,0,1,1-2.73059,2.73059A2.7306,2.7306,0,0,1,254.92462,282.10956Zm0,8.73669a2.73056,2.73056,0,1,1-2.73059,2.73059A2.7306,2.7306,0,0,1,254.92462,290.84625Zm0,8.73669a2.73059,2.73059,0,1,1-2.73059,2.73059A2.7306,2.7306,0,0,1,254.92462,299.58295Zm0,8.73669a2.73059,2.73059,0,1,1-2.73059,2.73059A2.7306,2.7306,0,0,1,254.92462,308.31964Zm0,8.73669a2.73059,2.73059,0,1,1-2.73059,2.73059A2.7306,2.7306,0,0,1,254.92462,317.05634Zm0,7.74957a2.73059,2.73059,0,1,1-2.73059,2.73059A2.7306,2.7306,0,0,1,254.92462,324.80591Zm0,8.73669a2.73059,2.73059,0,1,1-2.73059,2.73059A2.7306,2.7306,0,0,1,254.92462,333.5426Zm0,8.73669a2.73059,2.73059,0,1,1-2.73059,2.73059A2.7306,2.7306,0,0,1,254.92462,342.2793Zm-35.07092-1.87164a2.73059,2.73059,0,1,1-2.73059-2.73059A2.73055,2.73055,0,0,1,219.8537,340.40765Zm-8.19177-20.7276a3.5994,3.5994,0,1,1-3.59937,3.59937A3.5994,3.5994,0,0,1,211.66193,319.68005Zm-11.1507,2.39526a2.73059,2.73059,0,1,1-2.73059,2.73059A2.7306,2.7306,0,0,1,200.51123,322.07532Zm-9.92938,14.3692a2.73059,2.73059,0,1,1-2.73059,2.73059A2.7306,2.7306,0,0,1,190.58185,336.44452Zm120.78821,41.83234c-0.085.008-.15405,0.008-57.00391-0.0531l-6.3656-.008c-0.01166,0-.02454.00763-0.03619,0.00763h-13.535c-0.01141,0-.02417-0.00763-0.03564-0.00763l-30.13776.03748c-18.30707.032-18.32886,0.024-18.40594,0.024-6.12073-.30835-9.92627-3.74207-9.92627-8.96008,0-5.1864,3.78137-8.62048,9.87061-8.95245,0.162-.008,45.17114-0.01562,45.426-0.008,3.54974,0.12909,6.98218,3.81586,9.16956,8.99719,0.295,0.69885.571,1.42139,0.81793,2.1701,2.07654-6.29694,5.95074-11.02112,9.98718-11.1673,0.33978-.01562,60.02069-0.008,60.2439.00763,6.0733,0.332,9.855,3.76569,9.855,8.95245C321.29407,374.54059,317.489,377.96851,311.37006,378.27686Zm8.99109-45.06805a2.73056,2.73056,0,1,1,2.73059-2.73059A2.7306,2.7306,0,0,1,320.36115,333.2088Z" transform="translate(-2.1637 -1.51611)"/><path class="cls-2" d="M254.92462,254.75525L130.37738,379.30243l1.83325,1.83325H381.30505Zm54.23364,64.04456a2.73056,2.73056,0,1,1-2.73059,2.73059A2.73056,2.73056,0,0,1,309.15826,318.7998Zm0,18.00842a3.5994,3.5994,0,1,1-3.59943,3.59943A3.59942,3.59942,0,0,1,309.15826,336.80823Zm-10.71844-16.2594a2.73059,2.73059,0,1,1-2.73059,2.73059A2.7306,2.7306,0,0,1,298.43982,320.54883Zm-43.5152-63.66223a2.73056,2.73056,0,1,1-2.73059,2.73059A2.7306,2.7306,0,0,1,254.92462,256.8866Zm0,8.73669a2.73056,2.73056,0,1,1-2.73059,2.73059A2.7306,2.7306,0,0,1,254.92462,265.62329Zm0,8.73669a2.73059,2.73059,0,1,1-2.73059,2.73059A2.7306,2.7306,0,0,1,254.92462,274.36Zm0,7.74957a2.73056,2.73056,0,1,1-2.73059,2.73059A2.7306,2.7306,0,0,1,254.92462,282.10956Zm0,8.73669a2.73056,2.73056,0,1,1-2.73059,2.73059A2.7306,2.7306,0,0,1,254.92462,290.84625Zm0,8.73669a2.73059,2.73059,0,1,1-2.73059,2.73059A2.7306,2.7306,0,0,1,254.92462,299.58295Zm0,8.73669a2.73059,2.73059,0,1,1-2.73059,2.73059A2.7306,2.7306,0,0,1,254.92462,308.31964Zm0,8.73669a2.73059,2.73059,0,1,1-2.73059,2.73059A2.7306,2.7306,0,0,1,254.92462,317.05634Zm0,7.74957a2.73059,2.73059,0,1,1-2.73059,2.73059A2.7306,2.7306,0,0,1,254.92462,324.80591Zm0,8.73669a2.73059,2.73059,0,1,1-2.73059,2.73059A2.7306,2.7306,0,0,1,254.92462,333.5426Zm0,8.73669a2.73059,2.73059,0,1,1-2.73059,2.73059A2.7306,2.7306,0,0,1,254.92462,342.2793Zm-35.07092-1.87164a2.73059,2.73059,0,1,1-2.73059-2.73059A2.73055,2.73055,0,0,1,219.8537,340.40765Zm-8.19177-20.7276a3.5994,3.5994,0,1,1-3.59937,3.59937A3.5994,3.5994,0,0,1,211.66193,319.68005Zm-11.1507,2.39526a2.73059,2.73059,0,1,1-2.73059,2.73059A2.7306,2.7306,0,0,1,200.51123,322.07532Zm-9.92938,14.3692a2.73059,2.73059,0,1,1-2.73059,2.73059A2.7306,2.7306,0,0,1,190.58185,336.44452Zm120.78821,41.83234c-0.085.008-.15405,0.008-57.00391-0.0531l-6.3656-.008c-0.01166,0-.02454.00763-0.03619,0.00763h-13.535c-0.01141,0-.02417-0.00763-0.03564-0.00763l-30.13776.03748c-18.30707.032-18.32886,0.024-18.40594,0.024-6.12073-.30835-9.92627-3.74207-9.92627-8.96008,0-5.1864,3.78137-8.62048,9.87061-8.95245,0.162-.008,45.17114-0.01562,45.426-0.008,3.54974,0.12909,6.98218,3.81586,9.16956,8.99719,0.295,0.69885.571,1.42139,0.81793,2.1701,2.07654-6.29694,5.95074-11.02112,9.98718-11.1673,0.33978-.01562,60.02069-0.008,60.2439.00763,6.0733,0.332,9.855,3.76569,9.855,8.95245C321.29407,374.54059,317.489,377.96851,311.37006,378.27686Zm8.99109-45.06805a2.73056,2.73056,0,1,1,2.73059-2.73059A2.7306,2.7306,0,0,1,320.36115,333.2088Z" transform="translate(-2.1637 -1.51611)"/><circle class="cls-7" cx="252.76093" cy="197.93127" r="2.73059"/><circle class="cls-8" cx="252.76093" cy="206.66797" r="2.73059"/><circle class="cls-4" cx="252.76093" cy="215.40466" r="2.73059"/><circle class="cls-7" cx="252.76093" cy="224.14137" r="2.73058"/><circle class="cls-8" cx="252.76093" cy="232.8781" r="2.73058"/><circle class="cls-7" cx="252.76093" cy="240.62762" r="2.73059"/><circle class="cls-8" cx="252.76093" cy="249.36433" r="2.73058"/><circle class="cls-4" cx="252.76093" cy="258.10106" r="2.73058"/><circle class="cls-7" cx="252.76093" cy="266.83775" r="2.73058"/><circle class="cls-8" cx="252.76093" cy="275.57446" r="2.73059"/><circle class="cls-7" cx="252.76093" cy="283.32402" r="2.73058"/><circle class="cls-8" cx="252.76093" cy="292.06071" r="2.73058"/><circle class="cls-4" cx="252.76093" cy="300.79742" r="2.73059"/><circle class="cls-7" cx="252.76093" cy="309.53412" r="2.73059"/><circle class="cls-8" cx="252.76093" cy="318.27081" r="2.73059"/><circle class="cls-7" cx="252.76093" cy="326.02039" r="2.73059"/><circle class="cls-8" cx="252.76093" cy="334.75708" r="2.73059"/><circle class="cls-4" cx="252.76093" cy="343.49377" r="2.73059"/><circle class="cls-7" cx="172.76636" cy="294.79128" r="2.73058"/><circle class="cls-7" cx="137.90239" cy="312.37437" r="3.5994"/><circle class="cls-7" cx="209.49825" cy="321.76332" r="3.5994"/><circle class="cls-7" cx="185.68756" cy="303.528" r="3.59941"/><circle class="cls-7" cx="170.03575" cy="320.01427" r="3.5994"/><circle class="cls-7" cx="170.03575" cy="278.18671" r="3.59941"/><circle class="cls-7" cx="201.07813" cy="292.23022" r="2.73059"/><circle class="cls-7" cx="198.34753" cy="323.28979" r="2.73059"/><circle class="cls-7" cx="188.41815" cy="337.659" r="2.73059"/><circle class="cls-7" cx="214.95941" cy="338.89153" r="2.73058"/><circle class="cls-4" cx="326.75636" cy="292.23022" r="2.73058"/><circle class="cls-4" cx="321.79686" cy="274.5873" r="3.5994"/><circle class="cls-4" cx="306.99457" cy="338.89153" r="3.59941"/><circle class="cls-4" cx="325.88756" cy="307.88202" r="3.59941"/><circle class="cls-4" cx="310.59398" cy="294.79128" r="3.5994"/><circle class="cls-4" cx="357.45494" cy="311.48143" r="3.5994"/><circle class="cls-2" cx="335.49306" cy="324.4939" r="2.73058"/><circle class="cls-9" cx="335.49306" cy="324.4939" r="2.73058"/><circle class="cls-4" cx="306.99457" cy="320.01427" r="2.73058"/><circle class="cls-4" cx="296.27612" cy="321.76331" r="2.73059"/><circle class="cls-4" cx="318.19745" cy="328.96211" r="2.73058"/><circle class="cls-7" cx="159.09254" cy="305.81639" r="3.5994"/><circle class="cls-4" cx="339.75029" cy="298.39069" r="3.59941"/><circle class="cls-4" cx="339.75029" cy="270.91093" r="3.5994"/><path class="cls-8" d="M510.89453,254.75537L257.65527,1.51611,129.67041,129.501,4.416,254.75537,129.67035,380.00946l1.12622,1.12622L256.051,506.38983l1.60431,1.60431ZM132.21063,381.13568l-1.83325-1.83325L5.83008,254.75537,130.37744,130.208,257.65527,2.93018l251.8252,251.8252L257.65527,506.58008l-0.89728-.89728Z" transform="translate(-2.1637 -1.51611)"/><path class="cls-10" d="M244.01416,86.96991c0-1.856.9541-2.80719,2.44934-2.80719s2.37085,0.95123,2.37085,2.80719v7.70593h3.91553V85.73358c0-3.17084-1.725-5.1286-4.68933-5.1286a4.8905,4.8905,0,0,0-4.04639,2.21375V80.86389H240.0957v13.812h3.91846V86.96991Z" transform="translate(-2.1637 -1.51611)"/><path class="cls-10" d="M262.92554,94.98419a7.25127,7.25127,0,0,0,7.50232-7.191V87.74371a7.48147,7.48147,0,0,0-14.94934.04944v0.05237A7.18061,7.18061,0,0,0,262.92554,94.98419Zm-3.581-7.24048a3.53792,3.53792,0,0,1,3.581-3.76135,3.6675,3.6675,0,0,1,3.63623,3.81079v0.05237a3.5409,3.5409,0,0,1-3.58386,3.76422,3.67193,3.67193,0,0,1-3.63336-3.81659V87.74371Z" transform="translate(-2.1637 -1.51611)"/><path class="cls-10" d="M190.474,113.58435a5.3128,5.3128,0,0,0-4.30536-2.05957c-3.27258,0-6.28632,2.525-6.28632,7.13867v0.05237c0,4.61365,3.0661,7.13867,6.28632,7.13867a5.07628,5.07628,0,0,0,4.30536-2.24286v1.98395h3.9184v-18.8125H190.474v6.80127Zm0.05237,5.13147a3.39042,3.39042,0,1,1-6.72852,0v-0.05237a3.39107,3.39107,0,1,1,6.72852,0v0.05237Z" transform="translate(-2.1637 -1.51611)"/><rect class="cls-10" x="195.80676" y="105.26697" width="4.125" height="3.47919"/><rect class="cls-10" x="195.90857" y="110.26465" width="3.91846" height="13.81482"/><path class="cls-10" d="M210.6217,122.83789a7.8115,7.8115,0,0,1-4.35474-1.64941l-1.6756,2.57733a9.68563,9.68563,0,0,0,5.92853,2.08868c2.99048,0,5.28278-1.39343,5.28278-4.45947v-0.05237c0-2.525-2.24286-3.453-4.17444-4.09882-1.49524-.512-2.81012-0.87268-2.81012-1.64648V115.545c0-.54108.49164-0.9541,1.44287-0.9541a8.176,8.176,0,0,1,3.7381,1.28864l1.49524-2.70532a9.57808,9.57808,0,0,0-5.15479-1.597c-2.78387,0-5.05,1.57086-5.05,4.38092v0.05237c0,2.67627,2.19043,3.581,4.122,4.14825,1.52142,0.46252,2.85956.74469,2.85956,1.597v0.04944C212.27112,122.42767,211.75623,122.83789,210.6217,122.83789Z" transform="translate(-2.1637 -1.51611)"/><path class="cls-10" d="M225.158,125.90686a6.91989,6.91989,0,0,0,5.64343-2.57739l-2.24286-1.98682a4.53216,4.53216,0,0,1-3.35114,1.41669A3.20091,3.20091,0,0,1,221.833,120.054h9.61133c0.02618-.36072.05237-0.72144,0.05237-1.02979,0-3.9184-2.11194-7.49939-6.72559-7.49939a6.878,6.878,0,0,0-6.83038,7.191v0.05237A6.91056,6.91056,0,0,0,225.158,125.90686Zm-0.3869-11.24036c1.64935,0,2.67914,1.18683,2.91187,2.938h-5.90234C222.089,115.83008,223.14789,114.6665,224.77112,114.6665Z" transform="translate(-2.1637 -1.51611)"/><path class="cls-10" d="M238.3241,125.85449a5.3123,5.3123,0,0,0,4.17444-1.75409v1.49518h3.79041V117.5813a6.02334,6.02334,0,0,0-1.49518-4.4071,6.37528,6.37528,0,0,0-4.66608-1.54761,12.21,12.21,0,0,0-5.36127,1.10834l0.98035,2.99042a10.12627,10.12627,0,0,1,3.81366-.74762c1.96069,0,2.96429.90179,2.96429,2.525v0.23273a9.82683,9.82683,0,0,0-3.37445-.56726c-3.27551,0-5.56781,1.3905-5.56781,4.40717v0.04944C233.58246,124.35925,235.72058,125.85449,238.3241,125.85449ZM237.37,121.4212c0-1.23926,1.03265-1.90833,2.70825-1.90833a6.04055,6.04055,0,0,1,2.49884.51782V120.723c0,1.41962-1.23633,2.42609-3.0661,2.42609-1.26538,0-2.141-.6225-2.141-1.67554V121.4212Z" transform="translate(-2.1637 -1.51611)"/><path class="cls-10" d="M249.27649,115.95807v0.05237c0,2.67627,2.19049,3.581,4.12207,4.14825,1.52142,0.46252,2.85956.74469,2.85956,1.597v0.04944c0,0.6225-.51489,1.03271-1.64941,1.03271a7.81183,7.81183,0,0,1-4.3548-1.64941l-1.67554,2.57733a9.68563,9.68563,0,0,0,5.92853,2.08868c2.99048,0,5.28271-1.39343,5.28271-4.45947v-0.05237c0-2.525-2.2428-3.453-4.17438-4.09882-1.49524-.512-2.81012-0.87268-2.81012-1.64648V115.545c0-.54108.49164-0.9541,1.44287-0.9541a8.176,8.176,0,0,1,3.7381,1.28864l1.49518-2.70532a9.57772,9.57772,0,0,0-5.15472-1.597C251.5426,111.57715,249.27649,113.148,249.27649,115.95807Z" transform="translate(-2.1637 -1.51611)"/><path class="cls-10" d="M261.92487,118.71582v0.05237a7.29687,7.29687,0,0,0,12.86066,4.56128l-2.2428-1.98682a4.53229,4.53229,0,0,1-3.3512,1.41669,3.20091,3.20091,0,0,1-3.37445-2.70538h9.61133c0.02618-.36072.05237-0.72144,0.05237-1.02979,0-3.9184-2.11194-7.49939-6.72559-7.49939A6.87794,6.87794,0,0,0,261.92487,118.71582Zm9.74225-1.11127h-5.9024c0.30835-1.77448,1.36725-2.938,2.99048-2.938C270.4046,114.6665,271.43439,115.85333,271.66711,117.60455Z" transform="translate(-2.1637 -1.51611)"/><path class="cls-10" d="M290.03741,120.49323c0-3.29883,1.597-4.87256,4.20062-4.87256h0.20654v-4.09589c-2.31848-.10474-3.60718,1.13452-4.40717,3.03992v-2.78394H286.119v13.81482h3.9184v-5.10236Z" transform="translate(-2.1637 -1.51611)"/><rect class="cls-10" x="294.90479" y="110.26465" width="3.9184" height="13.81482"/><rect class="cls-10" x="294.80298" y="105.26697" width="4.12494" height="3.47919"/><path class="cls-10" d="M310.62439,117.24384c-1.49518-.512-2.81006-0.87268-2.81006-1.64648V115.545c0-.54108.49164-0.9541,1.44287-0.9541a8.176,8.176,0,0,1,3.738,1.28864l1.49524-2.70532a9.57788,9.57788,0,0,0-5.15472-1.597c-2.78394,0-5.05,1.57086-5.05,4.38092v0.05237c0,2.67627,2.19049,3.581,4.12207,4.14825,1.52136,0.46252,2.8595.74469,2.8595,1.597v0.04944c0,0.6225-.51489,1.03271-1.64935,1.03271a7.81183,7.81183,0,0,1-4.3548-1.64941l-1.6756,2.57733a9.6858,9.6858,0,0,0,5.92859,2.08868c2.99042,0,5.28271-1.39343,5.28271-4.45947v-0.05237C314.79883,118.81763,312.556,117.88965,310.62439,117.24384Z" transform="translate(-2.1637 -1.51611)"/><polygon class="cls-10" points="328.635 110.265 323.945 110.265 319.358 115.291 319.358 105.267 315.439 105.267 315.439 124.079 319.358 124.079 319.358 119.879 320.725 118.436 324.332 124.079 328.815 124.079 323.378 115.704 328.635 110.265"/><path class="cls-10" d="M207.90472,144.507a5.29824,5.29824,0,0,0-4.30536-2.0625c-3.27258,0-6.28632,2.525-6.28632,7.13867v0.0495c0,4.61365,3.0661,7.13867,6.28632,7.13867a5.07408,5.07408,0,0,0,4.30536-2.23993v1.98395h3.9184V137.7h-3.9184V144.507Zm0.05237,5.12567a3.39107,3.39107,0,1,1-6.72852,0v-0.0495a3.39074,3.39074,0,1,1,6.72852,0v0.0495Z" transform="translate(-2.1637 -1.51611)"/><path class="cls-10" d="M221.48395,142.44452a6.87726,6.87726,0,0,0-6.83038,7.18817V149.685a7.29691,7.29691,0,0,0,12.86072,4.56134l-2.24286-1.98395a4.5243,4.5243,0,0,1-3.35114,1.41962,3.20571,3.20571,0,0,1-3.37445-2.70831h9.61133c0.02618-.36072.05237-0.72144,0.05237-1.02979C228.20953,146.02551,226.0976,142.44452,221.48395,142.44452Zm-2.99048,6.0827c0.30835-1.78027,1.36725-2.938,2.99048-2.938,1.64935,0,2.67914,1.184,2.91187,2.938h-5.90234Z" transform="translate(-2.1637 -1.51611)"/><path class="cls-10" d="M235.68274,139.17188h-3.9184v3.53156h-1.64941v3.34827h1.64941v6.54816c0,3.19409,1.62323,4.14825,4.0202,4.14825a5.75181,5.75181,0,0,0,3.09229-.8v-3.14465a3.9898,3.9898,0,0,1-1.93158.48871,1.13252,1.13252,0,0,1-1.26251-1.33813V146.0517h3.24646v-3.34827h-3.24646v-3.53156Z" transform="translate(-2.1637 -1.51611)"/><path class="cls-10" d="M253.61676,154.24634l-2.24286-1.98395a4.52443,4.52443,0,0,1-3.3512,1.41962,3.20569,3.20569,0,0,1-3.37439-2.70831h9.61133c0.02618-.36072.05237-0.72144,0.05237-1.02979,0-3.9184-2.11194-7.49939-6.72565-7.49939a6.87724,6.87724,0,0,0-6.83032,7.18817V149.685A7.29691,7.29691,0,0,0,253.61676,154.24634Zm-6.0304-8.65717c1.64941,0,2.6792,1.184,2.91193,2.938h-5.90234C244.9043,146.74695,245.96313,145.58917,247.58636,145.58917Z" transform="translate(-2.1637 -1.51611)"/><path class="cls-10" d="M263.92334,153.44928a3.54151,3.54151,0,0,1-3.50537-3.81659v-0.0495a3.52763,3.52763,0,0,1,3.3512-3.76129,4.03874,4.03874,0,0,1,3.14459,1.51849l2.3941-2.57739a6.78553,6.78553,0,0,0-5.51251-2.31848,7.09229,7.09229,0,0,0-7.24341,7.18817V149.685a7.05165,7.05165,0,0,0,7.191,7.13873,6.95555,6.95555,0,0,0,5.64343-2.525l-2.2923-2.31848A4.37834,4.37834,0,0,1,263.92334,153.44928Z" transform="translate(-2.1637 -1.51611)"/><path class="cls-10" d="M276.499,139.17188h-3.91846v3.53156h-1.64941v3.34827h1.64941v6.54816c0,3.19409,1.62323,4.14825,4.02026,4.14825a5.75174,5.75174,0,0,0,3.09222-.8v-3.14465a3.9898,3.9898,0,0,1-1.93158.48871A1.13248,1.13248,0,0,1,276.499,151.954V146.0517h3.2464v-3.34827H276.499v-3.53156Z" transform="translate(-2.1637 -1.51611)"/><path class="cls-10" d="M288.40259,142.44452a6.87726,6.87726,0,0,0-6.83038,7.18817V149.685a7.29691,7.29691,0,0,0,12.86072,4.56134l-2.24286-1.98395a4.5243,4.5243,0,0,1-3.35114,1.41962,3.20571,3.20571,0,0,1-3.37445-2.70831h9.61133c0.02618-.36072.05237-0.72144,0.05237-1.02979C295.12817,146.02551,293.01624,142.44452,288.40259,142.44452Zm-2.99048,6.0827c0.30835-1.78027,1.36725-2.938,2.99048-2.938,1.64935,0,2.67914,1.184,2.91187,2.938h-5.90234Z" transform="translate(-2.1637 -1.51611)"/><path class="cls-10" d="M308.01215,144.507a5.29655,5.29655,0,0,0-4.30243-2.0625c-3.27551,0-6.28925,2.525-6.28925,7.13867v0.0495c0,4.61365,3.0661,7.13867,6.28925,7.13867a5.07258,5.07258,0,0,0,4.30243-2.23993v1.98395h3.9184V137.7h-3.9184V144.507Zm0.05237,5.12567a3.39107,3.39107,0,1,1-6.72852,0v-0.0495a3.39074,3.39074,0,1,1,6.72852,0v0.0495Z" transform="translate(-2.1637 -1.51611)"/><path class="cls-2" d="M311.4389,360.36432c-0.22321-.01562-59.90411-0.02325-60.2439-0.00763-4.03644.14618-7.91064,4.87036-9.98718,11.1673-0.24689-.74872-0.52289-1.47125-0.81793-2.1701l0.00018,8.86951h7.57428c0.01166,0,.02454-0.00763.03619-0.00763l6.3656,0.008c56.84985,0.0611,56.91895.0611,57.00391,0.0531,6.1189-.30835,9.924-3.73627,9.92383-8.96008C321.29388,364.13,317.51221,360.69629,311.4389,360.36432Z" transform="translate(-2.1637 -1.51611)"/><path class="cls-2" d="M311.4389,360.36432c-0.22321-.01562-59.90411-0.02325-60.2439-0.00763-4.03644.14618-7.91064,4.87036-9.98718,11.1673-0.24689-.74872-0.52289-1.47125-0.81793-2.1701l0.00018,8.86951h7.57428c0.01166,0,.02454-0.00763.03619-0.00763l6.3656,0.008c56.84985,0.0611,56.91895.0611,57.00391,0.0531,6.1189-.30835,9.924-3.73627,9.92383-8.96008C321.29388,364.13,317.51221,360.69629,311.4389,360.36432Z" transform="translate(-2.1637 -1.51611)"/><path class="cls-2" d="M311.4389,360.36432c-0.22321-.01562-59.90411-0.02325-60.2439-0.00763-4.03644.14618-7.91064,4.87036-9.98718,11.1673-0.24689-.74872-0.52289-1.47125-0.81793-2.1701l0.00018,8.86951h7.57428c0.01166,0,.02454-0.00763.03619-0.00763l6.3656,0.008c56.84985,0.0611,56.91895.0611,57.00391,0.0531,6.1189-.30835,9.924-3.73627,9.92383-8.96008C321.29388,364.13,317.51221,360.69629,311.4389,360.36432Z" transform="translate(-2.1637 -1.51611)"/><path class="cls-11" d="M311.4389,360.36432c-0.22321-.01562-59.90411-0.02325-60.2439-0.00763-4.03644.14618-7.91064,4.87036-9.98718,11.1673-0.24689-.74872-0.52289-1.47125-0.81793-2.1701l0.00018,8.86951h7.57428c0.01166,0,.02454-0.00763.03619-0.00763l6.3656,0.008c56.84985,0.0611,56.91895.0611,57.00391,0.0531,6.1189-.30835,9.924-3.73627,9.92383-8.96008C321.29388,364.13,317.51221,360.69629,311.4389,360.36432Z" transform="translate(-2.1637 -1.51611)"/><path class="cls-2" d="M311.36218,383.989c-0.07709,0-.14618-0.008-56.99585.0531l-1.10687.00146h-0.05054l-5.20837.00653c-0.00946,0-.0202-0.00616-0.02979-0.00653h-7.58069l0.00018,7.959c0.22015-.59418.42944-1.2,0.61633-1.82544,2.02319,6.58527,6.01233,11.58582,10.16534,11.732,0.33978,0.01605,60.02863.008,60.2439-.008,6.08929-.3316,9.87079-3.76569,9.87061-8.95209C321.28644,387.73108,317.489,384.29706,311.36218,383.989Z" transform="translate(-2.1637 -1.51611)"/><path class="cls-2" d="M311.36218,383.989c-0.07709,0-.14618-0.008-56.99585.0531l-1.10687.00146h-0.05054l-5.20837.00653c-0.00946,0-.0202-0.00616-0.02979-0.00653h-7.58069l0.00018,7.959c0.22015-.59418.42944-1.2,0.61633-1.82544,2.02319,6.58527,6.01233,11.58582,10.16534,11.732,0.33978,0.01605,60.02863.008,60.2439-.008,6.08929-.3316,9.87079-3.76569,9.87061-8.95209C321.28644,387.73108,317.489,384.29706,311.36218,383.989Z" transform="translate(-2.1637 -1.51611)"/><path class="cls-11" d="M311.36218,383.989c-0.07709,0-.14618-0.008-56.99585.0531l-1.10687.00146h-0.05054l-5.20837.00653c-0.00946,0-.0202-0.00616-0.02979-0.00653h-7.58069l0.00018,7.959c0.22015-.59418.42944-1.2,0.61633-1.82544,2.02319,6.58527,6.01233,11.58582,10.16534,11.732,0.33978,0.01605,60.02863.008,60.2439-.008,6.08929-.3316,9.87079-3.76569,9.87061-8.95209C321.28644,387.73108,317.489,384.29706,311.36218,383.989Z" transform="translate(-2.1637 -1.51611)"/><path class="cls-2" d="M231.22034,360.35669c-0.25488-.00763-45.264,0-45.426.008-6.08923.332-9.87061,3.76605-9.87061,8.95245,0,5.218,3.80554,8.65173,9.92627,8.96008,0.07709,0,.09888.008,18.40594-0.024l30.13776-.03748c0.01147,0,.02423.00763,0.03564,0.00763h5.96075l-0.00018-8.86951C238.20251,364.17255,234.77008,360.48578,231.22034,360.35669Z" transform="translate(-2.1637 -1.51611)"/><path class="cls-2" d="M231.22034,360.35669c-0.25488-.00763-45.264,0-45.426.008-6.08923.332-9.87061,3.76605-9.87061,8.95245,0,5.218,3.80554,8.65173,9.92627,8.96008,0.07709,0,.09888.008,18.40594-0.024l30.13776-.03748c0.01147,0,.02423.00763,0.03564,0.00763h5.96075l-0.00018-8.86951C238.20251,364.17255,234.77008,360.48578,231.22034,360.35669Z" transform="translate(-2.1637 -1.51611)"/><path class="cls-2" d="M231.22034,360.35669c-0.25488-.00763-45.264,0-45.426.008-6.08923.332-9.87061,3.76605-9.87061,8.95245,0,5.218,3.80554,8.65173,9.92627,8.96008,0.07709,0,.09888.008,18.40594-0.024l30.13776-.03748c0.01147,0,.02423.00763,0.03564,0.00763h5.96075l-0.00018-8.86951C238.20251,364.17255,234.77008,360.48578,231.22034,360.35669Z" transform="translate(-2.1637 -1.51611)"/><path class="cls-9" d="M231.22034,360.35669c-0.25488-.00763-45.264,0-45.426.008-6.08923.332-9.87061,3.76605-9.87061,8.95245,0,5.218,3.80554,8.65173,9.92627,8.96008,0.07709,0,.09888.008,18.40594-0.024l30.13776-.03748c0.01147,0,.02423.00763,0.03564,0.00763h5.96075l-0.00018-8.86951C238.20251,364.17255,234.77008,360.48578,231.22034,360.35669Z" transform="translate(-2.1637 -1.51611)"/><path class="cls-2" d="M234.45227,384.04358c-0.02148.00073-.04511,0.01453-0.06641,0.01453l-30.14575-.03925c-18.31287-.02185-18.34473-0.02185-18.42963-0.02185-6.12073.30841-9.94769,3.73444-9.94769,8.96045,0.00018,5.186,3.72845,8.62012,9.80969,8.95209,0.17,0.008,45.07825.01569,45.32513,0.00763,3.75861-.13922,7.29523-4.254,9.39264-9.91455l-0.00018-7.959h-5.93781Z" transform="translate(-2.1637 -1.51611)"/><path class="cls-2" d="M234.45227,384.04358c-0.02148.00073-.04511,0.01453-0.06641,0.01453l-30.14575-.03925c-18.31287-.02185-18.34473-0.02185-18.42963-0.02185-6.12073.30841-9.94769,3.73444-9.94769,8.96045,0.00018,5.186,3.72845,8.62012,9.80969,8.95209,0.17,0.008,45.07825.01569,45.32513,0.00763,3.75861-.13922,7.29523-4.254,9.39264-9.91455l-0.00018-7.959h-5.93781Z" transform="translate(-2.1637 -1.51611)"/><path class="cls-9" d="M234.45227,384.04358c-0.02148.00073-.04511,0.01453-0.06641,0.01453l-30.14575-.03925c-18.31287-.02185-18.34473-0.02185-18.42963-0.02185-6.12073.30841-9.94769,3.73444-9.94769,8.96045,0.00018,5.186,3.72845,8.62012,9.80969,8.95209,0.17,0.008,45.07825.01569,45.32513,0.00763,3.75861-.13922,7.29523-4.254,9.39264-9.91455l-0.00018-7.959h-5.93781Z" transform="translate(-2.1637 -1.51611)"/></svg>