<svg id="Layer_1" data-name="Layer 1" xmlns="http://www.w3.org/2000/svg" viewBox="0 0 461.50238 446.07099"><defs><style>.cls-1,.cls-6{fill:#adc1d4;}.cls-1,.cls-7{opacity:0.15;}.cls-2{fill:#ad8abf;}.cls-3{fill:#9570b1;}.cls-12,.cls-14,.cls-18,.cls-19,.cls-4{fill:none;stroke-linecap:round;stroke-miterlimit:10;stroke-width:2.5px;}.cls-4{stroke:#7cc9b0;}.cls-12,.cls-18,.cls-4{stroke-dasharray:0.25 4;}.cls-5{opacity:0.36;}.cls-8{fill:#98a9ba;}.cls-11,.cls-9{opacity:0.5;}.cls-10,.cls-11{fill:#7cc9b0;}.cls-11{fill-rule:evenodd;}.cls-12,.cls-14{stroke:#9570b1;}.cls-13{fill:#9470b0;}.cls-14,.cls-19{stroke-dasharray:0.24633 3.94136;}.cls-15,.cls-16{fill:#06a9cd;}.cls-16{opacity:0.8;}.cls-17{fill:#35c2dc;opacity:0.6;}.cls-18,.cls-19{stroke:#06a9cd;}.cls-20{fill:#7c8fa2;}</style></defs><title>GenePeeks_Infographic FINAL</title><rect class="cls-1" x="209.67673" y="380.73873" width="49.09063" height="49.09063" transform="translate(109.19224 846.92894) rotate(-135)"/><rect class="cls-1" x="406.31546" y="20.7212" width="49.09063" height="49.09063" transform="translate(699.44638 371.38514) rotate(-135)"/><path class="cls-2" d="M428.64289,53.56349h-3.70841v4.703h3.70841v3.70841h4.703V58.26648h3.70841v-4.703h-3.70841V50.70891c.23188-.05455.45865-.12213.68423-.19209h-6.07162c.2257.07.45246.13754.68441.19215Z" transform="translate(-4.07071 -10.5542)"/><path class="cls-3" d="M441.27317,40.71222a10.27882,10.27882,0,1,0-13.31468,9.8046h6.07162A10.28333,10.28333,0,0,0,441.27317,40.71222Zm-16.19139,0a5.91258,5.91258,0,1,1,5.91261,5.91255A5.91923,5.91923,0,0,1,425.08177,40.71222Z" transform="translate(-4.07071 -10.5542)"/><line class="cls-4" x1="226.46293" y1="337.25087" x2="226.46293" y2="348.91753"/><line class="cls-4" x1="233.51791" y1="337.25087" x2="233.51791" y2="348.91753"/><g class="cls-5"><path class="cls-6" d="M130.79019,196.79226H337.65391V318.42279H130.79019ZM345.102,326.4128v-137.606H123.34209v137.606H223.694v10.52584H192.11418v7.52344h84.21573v-7.52344H244.75013V326.4128Z" transform="translate(-4.07071 -10.5542)"/></g><g class="cls-7"><circle class="cls-8" cx="140.16969" cy="220.26577" r="3.80871"/><path class="cls-8" d="M140.43169,244.359v-.00953l-2.33378,2.33285a1.90394,1.90394,0,0,0,0,2.69276l2.85653,2.85653A1.428,1.428,0,0,0,142.974,250.212l-1.51015-1.51015,1.69583-1.6949h-.0057Z" transform="translate(-4.07071 -10.5542)"/><path class="cls-8" d="M145.32682,247.007h-.0057l1.69583,1.6949-1.51015,1.51015a1.428,1.428,0,1,0,2.01954,2.01954l2.85653-2.85653a1.90394,1.90394,0,0,0,0-2.69276l-2.33378-2.33285v.00953Z" transform="translate(-4.07071 -10.5542)"/><path class="cls-8" d="M152.86712,240.7607l-4.76089-4.76089a1.4278,1.4278,0,0,0-1.00931-.419h-5.71306a1.42378,1.42378,0,0,0-1.00931.419l-4.76089,4.76089a1.4277,1.4277,0,1,0,2.01861,2.01954l2.7994-2.79847v2.26433h7.61742v-2.26526l2.7994,2.79847a1.42737,1.42737,0,0,0,2.01861-2.01861Z" transform="translate(-4.07071 -10.5542)"/></g><g class="cls-9"><circle class="cls-10" cx="162.6651" cy="220.26577" r="3.80871"/><path class="cls-10" d="M162.9271,244.359v-.00953l-2.33378,2.33285a1.90394,1.90394,0,0,0,0,2.69276l2.85653,2.85653a1.428,1.428,0,1,0,2.01954-2.01954l-1.51015-1.51015,1.69583-1.6949h-.0057Z" transform="translate(-4.07071 -10.5542)"/><path class="cls-10" d="M167.82223,247.007h-.0057l1.69583,1.6949-1.51015,1.51015a1.428,1.428,0,1,0,2.01954,2.01954l2.85653-2.85653a1.90394,1.90394,0,0,0,0-2.69276l-2.33378-2.33285v.00953Z" transform="translate(-4.07071 -10.5542)"/><path class="cls-10" d="M175.36253,240.7607l-4.76089-4.76089a1.4278,1.4278,0,0,0-1.00931-.419h-5.71306a1.42378,1.42378,0,0,0-1.00931.419l-4.76089,4.76089a1.4277,1.4277,0,1,0,2.01861,2.01954l2.7994-2.79847v2.26433h7.61742v-2.26526l2.7994,2.79847a1.42737,1.42737,0,0,0,2.01861-2.01861Z" transform="translate(-4.07071 -10.5542)"/></g><g class="cls-7"><circle class="cls-8" cx="185.16051" cy="220.26577" r="3.80871"/><path class="cls-8" d="M185.42251,244.359v-.00953l-2.33378,2.33285a1.90394,1.90394,0,0,0,0,2.69276l2.85653,2.85653a1.428,1.428,0,1,0,2.01954-2.01954l-1.51015-1.51015,1.69583-1.6949h-.0057Z" transform="translate(-4.07071 -10.5542)"/><path class="cls-8" d="M190.31765,247.007h-.0057l1.69583,1.6949-1.51015,1.51015a1.428,1.428,0,1,0,2.01954,2.01954l2.85653-2.85653a1.90394,1.90394,0,0,0,0-2.69276l-2.33378-2.33285v.00953Z" transform="translate(-4.07071 -10.5542)"/><path class="cls-8" d="M197.85794,240.7607l-4.76089-4.76089a1.4278,1.4278,0,0,0-1.00931-.419h-5.71306a1.42378,1.42378,0,0,0-1.00931.419l-4.76089,4.76089a1.4277,1.4277,0,1,0,2.01861,2.01954l2.7994-2.79847v2.26433h7.61742v-2.26526l2.7994,2.79847a1.42737,1.42737,0,0,0,2.01861-2.01861Z" transform="translate(-4.07071 -10.5542)"/></g><g class="cls-7"><circle class="cls-8" cx="207.65592" cy="220.26577" r="3.80871"/><path class="cls-8" d="M207.91792,244.359v-.00953l-2.33378,2.33285a1.90394,1.90394,0,0,0,0,2.69276l2.85653,2.85653a1.428,1.428,0,1,0,2.01954-2.01954l-1.51015-1.51015,1.69583-1.6949h-.0057Z" transform="translate(-4.07071 -10.5542)"/><path class="cls-8" d="M212.81306,247.007h-.0057l1.69583,1.6949L212.993,250.212a1.428,1.428,0,1,0,2.01954,2.01954l2.85653-2.85653a1.90394,1.90394,0,0,0,0-2.69276l-2.33378-2.33285v.00953Z" transform="translate(-4.07071 -10.5542)"/><path class="cls-8" d="M220.35336,240.7607l-4.76089-4.76089a1.4278,1.4278,0,0,0-1.00931-.419H208.8701a1.42378,1.42378,0,0,0-1.00931.419l-4.76089,4.76089a1.4277,1.4277,0,1,0,2.01861,2.01954l2.7994-2.79847v2.26433h7.61742v-2.26526l2.7994,2.79847a1.42737,1.42737,0,1,0,2.01861-2.01861Z" transform="translate(-4.07071 -10.5542)"/></g><g class="cls-7"><circle class="cls-8" cx="230.15134" cy="220.26577" r="3.80871"/><path class="cls-8" d="M230.41334,244.359v-.00953l-2.33378,2.33285a1.90394,1.90394,0,0,0,0,2.69276l2.85653,2.85653a1.428,1.428,0,1,0,2.01954-2.01954l-1.51015-1.51015,1.69583-1.6949h-.0057Z" transform="translate(-4.07071 -10.5542)"/><path class="cls-8" d="M235.30847,247.007h-.0057l1.69583,1.6949-1.51015,1.51015a1.428,1.428,0,1,0,2.01954,2.01954l2.85653-2.85653a1.90394,1.90394,0,0,0,0-2.69276l-2.33378-2.33285v.00953Z" transform="translate(-4.07071 -10.5542)"/><path class="cls-8" d="M242.84877,240.7607l-4.76089-4.76089a1.4278,1.4278,0,0,0-1.00931-.419h-5.71306a1.42378,1.42378,0,0,0-1.00931.419l-4.76089,4.76089a1.4277,1.4277,0,1,0,2.01861,2.01954l2.7994-2.79847v2.26433h7.61742v-2.26526l2.7994,2.79847a1.42737,1.42737,0,0,0,2.01861-2.01861Z" transform="translate(-4.07071 -10.5542)"/></g><g class="cls-7"><circle class="cls-8" cx="252.64675" cy="220.26577" r="3.80871"/><path class="cls-8" d="M252.90875,244.359v-.00953l-2.33378,2.33285a1.90394,1.90394,0,0,0,0,2.69276l2.85653,2.85653A1.428,1.428,0,1,0,255.451,250.212l-1.51015-1.51015,1.69583-1.6949h-.0057Z" transform="translate(-4.07071 -10.5542)"/><path class="cls-8" d="M257.80388,247.007h-.0057l1.69583,1.6949-1.51015,1.51015a1.428,1.428,0,1,0,2.01954,2.01954l2.85653-2.85653a1.90394,1.90394,0,0,0,0-2.69276l-2.33378-2.33285v.00953Z" transform="translate(-4.07071 -10.5542)"/><path class="cls-8" d="M265.34418,240.7607l-4.76089-4.76089a1.4278,1.4278,0,0,0-1.00931-.419h-5.71306a1.42378,1.42378,0,0,0-1.00931.419l-4.76089,4.76089a1.4277,1.4277,0,1,0,2.01861,2.01954l2.7994-2.79847v2.26433h7.61742v-2.26526l2.7994,2.79847a1.42737,1.42737,0,0,0,2.01861-2.01861Z" transform="translate(-4.07071 -10.5542)"/></g><g class="cls-7"><circle class="cls-8" cx="275.14216" cy="220.26577" r="3.80871"/><path class="cls-8" d="M275.40416,244.359v-.00953l-2.33378,2.33285a1.90394,1.90394,0,0,0,0,2.69276l2.85653,2.85653a1.428,1.428,0,1,0,2.01954-2.01954l-1.51015-1.51015,1.69583-1.6949h-.0057Z" transform="translate(-4.07071 -10.5542)"/><path class="cls-8" d="M280.2993,247.007h-.0057l1.69583,1.6949-1.51015,1.51015a1.428,1.428,0,0,0,2.01954,2.01954l2.85653-2.85653a1.90394,1.90394,0,0,0,0-2.69276l-2.33378-2.33285v.00953Z" transform="translate(-4.07071 -10.5542)"/><path class="cls-8" d="M287.8396,240.7607l-4.76089-4.76089a1.4278,1.4278,0,0,0-1.00931-.419h-5.71306a1.42378,1.42378,0,0,0-1.00931.419l-4.76089,4.76089a1.4277,1.4277,0,1,0,2.01861,2.01954l2.7994-2.79847v2.26433h7.61742v-2.26526l2.7994,2.79847a1.42737,1.42737,0,0,0,2.01861-2.01861Z" transform="translate(-4.07071 -10.5542)"/></g><g class="cls-9"><circle class="cls-10" cx="297.63758" cy="220.26577" r="3.80871"/><path class="cls-10" d="M297.89958,244.359v-.00953l-2.33378,2.33285a1.90394,1.90394,0,0,0,0,2.69276l2.85653,2.85653a1.428,1.428,0,1,0,2.01954-2.01954l-1.51015-1.51015,1.69583-1.6949h-.0057Z" transform="translate(-4.07071 -10.5542)"/><path class="cls-10" d="M302.79471,247.007h-.0057l1.69583,1.6949L302.9747,250.212a1.428,1.428,0,0,0,2.01954,2.01954l2.85653-2.85653a1.90394,1.90394,0,0,0,0-2.69276l-2.33378-2.33285v.00953Z" transform="translate(-4.07071 -10.5542)"/><path class="cls-10" d="M310.335,240.7607l-4.76089-4.76089a1.4278,1.4278,0,0,0-1.00931-.419h-5.71306a1.42378,1.42378,0,0,0-1.00931.419l-4.76089,4.76089a1.4277,1.4277,0,1,0,2.01861,2.01954l2.7994-2.79847v2.26433H305.517v-2.26526l2.7994,2.79847a1.42737,1.42737,0,0,0,2.01861-2.01861Z" transform="translate(-4.07071 -10.5542)"/></g><g class="cls-7"><circle class="cls-8" cx="320.13299" cy="220.26577" r="3.80871"/><path class="cls-8" d="M320.395,244.359v-.00953l-2.33378,2.33285a1.90394,1.90394,0,0,0,0,2.69276l2.85653,2.85653a1.428,1.428,0,1,0,2.01954-2.01954l-1.51015-1.51015,1.69583-1.6949h-.0057Z" transform="translate(-4.07071 -10.5542)"/><path class="cls-8" d="M325.29012,247.007h-.0057l1.69583,1.6949-1.51015,1.51015a1.428,1.428,0,1,0,2.01954,2.01954l2.85653-2.85653a1.90394,1.90394,0,0,0,0-2.69276l-2.33378-2.33285v.00953Z" transform="translate(-4.07071 -10.5542)"/><path class="cls-8" d="M332.83042,240.7607l-4.76089-4.76089a1.4278,1.4278,0,0,0-1.00931-.419h-5.71306a1.42378,1.42378,0,0,0-1.00931.419L315.577,240.7607a1.4277,1.4277,0,1,0,2.01861,2.01954l2.7994-2.79847v2.26433h7.61742v-2.26526l2.7994,2.79847a1.42737,1.42737,0,0,0,2.01861-2.01861Z" transform="translate(-4.07071 -10.5542)"/></g><g class="cls-7"><circle class="cls-8" cx="140.16969" cy="281.55187" r="3.80871"/><path class="cls-8" d="M140.43169,305.64507v-.00953l-2.33378,2.33285a1.90394,1.90394,0,0,0,0,2.69276l2.85653,2.85653a1.428,1.428,0,0,0,2.01954-2.01954l-1.51015-1.51015,1.69583-1.6949h-.0057Z" transform="translate(-4.07071 -10.5542)"/><path class="cls-8" d="M145.32682,308.29308h-.0057l1.69583,1.6949-1.51015,1.51015a1.428,1.428,0,0,0,2.01954,2.01954l2.85653-2.85653a1.90394,1.90394,0,0,0,0-2.69276l-2.33378-2.33285v.00953Z" transform="translate(-4.07071 -10.5542)"/><path class="cls-8" d="M152.86712,302.0468l-4.76089-4.76089a1.4278,1.4278,0,0,0-1.00931-.419h-5.71306a1.42378,1.42378,0,0,0-1.00931.419l-4.76089,4.76089a1.4277,1.4277,0,1,0,2.01861,2.01954l2.7994-2.79847v2.26433h7.61742v-2.26526l2.7994,2.79847a1.42737,1.42737,0,0,0,2.01861-2.01861Z" transform="translate(-4.07071 -10.5542)"/></g><g class="cls-7"><circle class="cls-8" cx="162.6651" cy="281.55187" r="3.80871"/><path class="cls-8" d="M162.9271,305.64507v-.00953l-2.33378,2.33285a1.90394,1.90394,0,0,0,0,2.69276l2.85653,2.85653a1.428,1.428,0,0,0,2.01954-2.01954l-1.51015-1.51015,1.69583-1.6949h-.0057Z" transform="translate(-4.07071 -10.5542)"/><path class="cls-8" d="M167.82223,308.29308h-.0057l1.69583,1.6949-1.51015,1.51015a1.428,1.428,0,0,0,2.01954,2.01954l2.85653-2.85653a1.90394,1.90394,0,0,0,0-2.69276l-2.33378-2.33285v.00953Z" transform="translate(-4.07071 -10.5542)"/><path class="cls-8" d="M175.36253,302.0468l-4.76089-4.76089a1.4278,1.4278,0,0,0-1.00931-.419h-5.71306a1.42378,1.42378,0,0,0-1.00931.419l-4.76089,4.76089a1.4277,1.4277,0,1,0,2.01861,2.01954l2.7994-2.79847v2.26433h7.61742v-2.26526l2.7994,2.79847a1.42737,1.42737,0,0,0,2.01861-2.01861Z" transform="translate(-4.07071 -10.5542)"/></g><g class="cls-9"><circle class="cls-10" cx="185.16051" cy="281.55187" r="3.80871"/><path class="cls-10" d="M185.42251,305.64507v-.00953l-2.33378,2.33285a1.90394,1.90394,0,0,0,0,2.69276l2.85653,2.85653a1.428,1.428,0,0,0,2.01954-2.01954l-1.51015-1.51015,1.69583-1.6949h-.0057Z" transform="translate(-4.07071 -10.5542)"/><path class="cls-10" d="M190.31765,308.29308h-.0057l1.69583,1.6949-1.51015,1.51015a1.428,1.428,0,0,0,2.01954,2.01954l2.85653-2.85653a1.90394,1.90394,0,0,0,0-2.69276l-2.33378-2.33285v.00953Z" transform="translate(-4.07071 -10.5542)"/><path class="cls-10" d="M197.85794,302.0468l-4.76089-4.76089a1.4278,1.4278,0,0,0-1.00931-.419h-5.71306a1.42378,1.42378,0,0,0-1.00931.419l-4.76089,4.76089a1.4277,1.4277,0,1,0,2.01861,2.01954l2.7994-2.79847v2.26433h7.61742v-2.26526l2.7994,2.79847a1.42737,1.42737,0,0,0,2.01861-2.01861Z" transform="translate(-4.07071 -10.5542)"/></g><g class="cls-7"><circle class="cls-8" cx="207.65592" cy="281.55187" r="3.80871"/><path class="cls-8" d="M207.91792,305.64507v-.00953l-2.33378,2.33285a1.90394,1.90394,0,0,0,0,2.69276l2.85653,2.85653a1.428,1.428,0,0,0,2.01954-2.01954l-1.51015-1.51015,1.69583-1.6949h-.0057Z" transform="translate(-4.07071 -10.5542)"/><path class="cls-8" d="M212.81306,308.29308h-.0057l1.69583,1.6949-1.51015,1.51015a1.428,1.428,0,0,0,2.01954,2.01954l2.85653-2.85653a1.90394,1.90394,0,0,0,0-2.69276l-2.33378-2.33285v.00953Z" transform="translate(-4.07071 -10.5542)"/><path class="cls-8" d="M220.35336,302.0468l-4.76089-4.76089a1.4278,1.4278,0,0,0-1.00931-.419H208.8701a1.42378,1.42378,0,0,0-1.00931.419l-4.76089,4.76089a1.4277,1.4277,0,1,0,2.01861,2.01954l2.7994-2.79847v2.26433h7.61742v-2.26526l2.7994,2.79847a1.42737,1.42737,0,0,0,2.01861-2.01861Z" transform="translate(-4.07071 -10.5542)"/></g><g class="cls-7"><circle class="cls-8" cx="230.15134" cy="281.55187" r="3.80871"/><path class="cls-8" d="M230.41334,305.64507v-.00953l-2.33378,2.33285a1.90394,1.90394,0,0,0,0,2.69276l2.85653,2.85653a1.428,1.428,0,0,0,2.01954-2.01954l-1.51015-1.51015,1.69583-1.6949h-.0057Z" transform="translate(-4.07071 -10.5542)"/><path class="cls-8" d="M235.30847,308.29308h-.0057l1.69583,1.6949-1.51015,1.51015a1.428,1.428,0,0,0,2.01954,2.01954l2.85653-2.85653a1.90394,1.90394,0,0,0,0-2.69276l-2.33378-2.33285v.00953Z" transform="translate(-4.07071 -10.5542)"/><path class="cls-8" d="M242.84877,302.0468l-4.76089-4.76089a1.4278,1.4278,0,0,0-1.00931-.419h-5.71306a1.42378,1.42378,0,0,0-1.00931.419l-4.76089,4.76089a1.4277,1.4277,0,1,0,2.01861,2.01954l2.7994-2.79847v2.26433h7.61742v-2.26526l2.7994,2.79847a1.42737,1.42737,0,0,0,2.01861-2.01861Z" transform="translate(-4.07071 -10.5542)"/></g><g class="cls-7"><circle class="cls-8" cx="252.64675" cy="281.55187" r="3.80871"/><path class="cls-8" d="M252.90875,305.64507v-.00953l-2.33378,2.33285a1.90394,1.90394,0,0,0,0,2.69276l2.85653,2.85653a1.428,1.428,0,0,0,2.01954-2.01954L253.9409,309.988l1.69583-1.6949h-.0057Z" transform="translate(-4.07071 -10.5542)"/><path class="cls-8" d="M257.80388,308.29308h-.0057l1.69583,1.6949-1.51015,1.51015a1.428,1.428,0,0,0,2.01954,2.01954l2.85653-2.85653a1.90394,1.90394,0,0,0,0-2.69276l-2.33378-2.33285v.00953Z" transform="translate(-4.07071 -10.5542)"/><path class="cls-8" d="M265.34418,302.0468l-4.76089-4.76089a1.4278,1.4278,0,0,0-1.00931-.419h-5.71306a1.42378,1.42378,0,0,0-1.00931.419l-4.76089,4.76089a1.4277,1.4277,0,1,0,2.01861,2.01954l2.7994-2.79847v2.26433h7.61742v-2.26526l2.7994,2.79847a1.42737,1.42737,0,0,0,2.01861-2.01861Z" transform="translate(-4.07071 -10.5542)"/></g><g class="cls-9"><circle class="cls-10" cx="275.14216" cy="281.55187" r="3.80871"/><path class="cls-10" d="M275.40416,305.64507v-.00953l-2.33378,2.33285a1.90394,1.90394,0,0,0,0,2.69276l2.85653,2.85653a1.428,1.428,0,0,0,2.01954-2.01954l-1.51015-1.51015,1.69583-1.6949h-.0057Z" transform="translate(-4.07071 -10.5542)"/><path class="cls-10" d="M280.2993,308.29308h-.0057l1.69583,1.6949-1.51015,1.51015a1.428,1.428,0,0,0,2.01954,2.01954l2.85653-2.85653a1.90394,1.90394,0,0,0,0-2.69276l-2.33378-2.33285v.00953Z" transform="translate(-4.07071 -10.5542)"/><path class="cls-10" d="M287.8396,302.0468l-4.76089-4.76089a1.4278,1.4278,0,0,0-1.00931-.419h-5.71306a1.42378,1.42378,0,0,0-1.00931.419l-4.76089,4.76089a1.4277,1.4277,0,1,0,2.01861,2.01954l2.7994-2.79847v2.26433h7.61742v-2.26526l2.7994,2.79847a1.42737,1.42737,0,0,0,2.01861-2.01861Z" transform="translate(-4.07071 -10.5542)"/></g><g class="cls-7"><circle class="cls-8" cx="297.63758" cy="281.55187" r="3.80871"/><path class="cls-8" d="M297.89958,305.64507v-.00953l-2.33378,2.33285a1.90394,1.90394,0,0,0,0,2.69276l2.85653,2.85653a1.428,1.428,0,0,0,2.01954-2.01954l-1.51015-1.51015,1.69583-1.6949h-.0057Z" transform="translate(-4.07071 -10.5542)"/><path class="cls-8" d="M302.79471,308.29308h-.0057l1.69583,1.6949-1.51015,1.51015a1.428,1.428,0,0,0,2.01954,2.01954l2.85653-2.85653a1.90394,1.90394,0,0,0,0-2.69276l-2.33378-2.33285v.00953Z" transform="translate(-4.07071 -10.5542)"/><path class="cls-8" d="M310.335,302.0468l-4.76089-4.76089a1.4278,1.4278,0,0,0-1.00931-.419h-5.71306a1.42378,1.42378,0,0,0-1.00931.419l-4.76089,4.76089a1.4277,1.4277,0,1,0,2.01861,2.01954l2.7994-2.79847v2.26433H305.517v-2.26526l2.7994,2.79847a1.42737,1.42737,0,0,0,2.01861-2.01861Z" transform="translate(-4.07071 -10.5542)"/></g><g class="cls-7"><circle class="cls-8" cx="320.13299" cy="281.55187" r="3.80871"/><path class="cls-8" d="M320.395,305.64507v-.00953l-2.33378,2.33285a1.90394,1.90394,0,0,0,0,2.69276l2.85653,2.85653a1.428,1.428,0,0,0,2.01954-2.01954l-1.51015-1.51015,1.69583-1.6949h-.0057Z" transform="translate(-4.07071 -10.5542)"/><path class="cls-8" d="M325.29012,308.29308h-.0057l1.69583,1.6949-1.51015,1.51015a1.428,1.428,0,0,0,2.01954,2.01954l2.85653-2.85653a1.90394,1.90394,0,0,0,0-2.69276l-2.33378-2.33285v.00953Z" transform="translate(-4.07071 -10.5542)"/><path class="cls-8" d="M332.83042,302.0468l-4.76089-4.76089a1.4278,1.4278,0,0,0-1.00931-.419h-5.71306a1.42378,1.42378,0,0,0-1.00931.419L315.577,302.0468a1.4277,1.4277,0,1,0,2.01861,2.01954l2.7994-2.79847v2.26433h7.61742v-2.26526l2.7994,2.79847a1.42737,1.42737,0,0,0,2.01861-2.01861Z" transform="translate(-4.07071 -10.5542)"/></g><g class="cls-7"><circle class="cls-8" cx="140.16969" cy="250.90882" r="3.80871"/><path class="cls-8" d="M140.43169,275.002v-.00953l-2.33378,2.33285a1.90394,1.90394,0,0,0,0,2.69276l2.85653,2.85653a1.428,1.428,0,1,0,2.01954-2.01954l-1.51015-1.51015,1.69583-1.6949h-.0057Z" transform="translate(-4.07071 -10.5542)"/><path class="cls-8" d="M145.32682,277.65h-.0057l1.69583,1.6949-1.51015,1.51015a1.428,1.428,0,1,0,2.01954,2.01954l2.85653-2.85653a1.90394,1.90394,0,0,0,0-2.69276l-2.33378-2.33285v.00953Z" transform="translate(-4.07071 -10.5542)"/><path class="cls-8" d="M152.86712,271.40375l-4.76089-4.76089a1.4278,1.4278,0,0,0-1.00931-.419h-5.71306a1.42378,1.42378,0,0,0-1.00931.419l-4.76089,4.76089a1.4277,1.4277,0,1,0,2.01861,2.01954l2.7994-2.79847v2.26433h7.61742v-2.26526l2.7994,2.79847a1.42737,1.42737,0,0,0,2.01861-2.01861Z" transform="translate(-4.07071 -10.5542)"/></g><g class="cls-7"><circle class="cls-8" cx="162.6651" cy="250.90882" r="3.80871"/><path class="cls-8" d="M162.9271,275.002v-.00953l-2.33378,2.33285a1.90394,1.90394,0,0,0,0,2.69276l2.85653,2.85653a1.428,1.428,0,1,0,2.01954-2.01954l-1.51015-1.51015,1.69583-1.6949h-.0057Z" transform="translate(-4.07071 -10.5542)"/><path class="cls-8" d="M167.82223,277.65h-.0057l1.69583,1.6949-1.51015,1.51015a1.428,1.428,0,1,0,2.01954,2.01954l2.85653-2.85653a1.90394,1.90394,0,0,0,0-2.69276l-2.33378-2.33285v.00953Z" transform="translate(-4.07071 -10.5542)"/><path class="cls-8" d="M175.36253,271.40375l-4.76089-4.76089a1.4278,1.4278,0,0,0-1.00931-.419h-5.71306a1.42378,1.42378,0,0,0-1.00931.419l-4.76089,4.76089a1.4277,1.4277,0,1,0,2.01861,2.01954l2.7994-2.79847v2.26433h7.61742v-2.26526l2.7994,2.79847a1.42737,1.42737,0,0,0,2.01861-2.01861Z" transform="translate(-4.07071 -10.5542)"/></g><g class="cls-7"><circle class="cls-8" cx="185.16051" cy="250.90882" r="3.80871"/><path class="cls-8" d="M185.42251,275.002v-.00953l-2.33378,2.33285a1.90394,1.90394,0,0,0,0,2.69276l2.85653,2.85653a1.428,1.428,0,1,0,2.01954-2.01954l-1.51015-1.51015,1.69583-1.6949h-.0057Z" transform="translate(-4.07071 -10.5542)"/><path class="cls-8" d="M190.31765,277.65h-.0057l1.69583,1.6949-1.51015,1.51015a1.428,1.428,0,1,0,2.01954,2.01954l2.85653-2.85653a1.90394,1.90394,0,0,0,0-2.69276l-2.33378-2.33285v.00953Z" transform="translate(-4.07071 -10.5542)"/><path class="cls-8" d="M197.85794,271.40375l-4.76089-4.76089a1.4278,1.4278,0,0,0-1.00931-.419h-5.71306a1.42378,1.42378,0,0,0-1.00931.419l-4.76089,4.76089a1.4277,1.4277,0,1,0,2.01861,2.01954l2.7994-2.79847v2.26433h7.61742v-2.26526l2.7994,2.79847a1.42737,1.42737,0,0,0,2.01861-2.01861Z" transform="translate(-4.07071 -10.5542)"/></g><g class="cls-7"><circle class="cls-8" cx="207.65592" cy="250.90882" r="3.80871"/><path class="cls-8" d="M207.91792,275.002v-.00953l-2.33378,2.33285a1.90394,1.90394,0,0,0,0,2.69276l2.85653,2.85653a1.428,1.428,0,1,0,2.01954-2.01954l-1.51015-1.51015,1.69583-1.6949h-.0057Z" transform="translate(-4.07071 -10.5542)"/><path class="cls-8" d="M212.81306,277.65h-.0057l1.69583,1.6949-1.51015,1.51015a1.428,1.428,0,1,0,2.01954,2.01954l2.85653-2.85653a1.90394,1.90394,0,0,0,0-2.69276l-2.33378-2.33285v.00953Z" transform="translate(-4.07071 -10.5542)"/><path class="cls-8" d="M220.35336,271.40375l-4.76089-4.76089a1.4278,1.4278,0,0,0-1.00931-.419H208.8701a1.42378,1.42378,0,0,0-1.00931.419l-4.76089,4.76089a1.4277,1.4277,0,1,0,2.01861,2.01954l2.7994-2.79847v2.26433h7.61742v-2.26526l2.7994,2.79847a1.42737,1.42737,0,0,0,2.01861-2.01861Z" transform="translate(-4.07071 -10.5542)"/></g><g class="cls-7"><circle class="cls-8" cx="252.64675" cy="250.90882" r="3.80871"/><path class="cls-8" d="M252.90875,275.002v-.00953l-2.33378,2.33285a1.90394,1.90394,0,0,0,0,2.69276l2.85653,2.85653a1.428,1.428,0,1,0,2.01954-2.01954l-1.51015-1.51015,1.69583-1.6949h-.0057Z" transform="translate(-4.07071 -10.5542)"/><path class="cls-8" d="M257.80388,277.65h-.0057l1.69583,1.6949-1.51015,1.51015a1.428,1.428,0,1,0,2.01954,2.01954l2.85653-2.85653a1.90394,1.90394,0,0,0,0-2.69276l-2.33378-2.33285v.00953Z" transform="translate(-4.07071 -10.5542)"/><path class="cls-8" d="M265.34418,271.40375l-4.76089-4.76089a1.4278,1.4278,0,0,0-1.00931-.419h-5.71306a1.42378,1.42378,0,0,0-1.00931.419l-4.76089,4.76089a1.4277,1.4277,0,1,0,2.01861,2.01954l2.7994-2.79847v2.26433h7.61742v-2.26526l2.7994,2.79847a1.42737,1.42737,0,0,0,2.01861-2.01861Z" transform="translate(-4.07071 -10.5542)"/></g><g class="cls-7"><circle class="cls-8" cx="275.14216" cy="250.90882" r="3.80871"/><path class="cls-8" d="M275.40416,275.002v-.00953l-2.33378,2.33285a1.90394,1.90394,0,0,0,0,2.69276l2.85653,2.85653a1.428,1.428,0,1,0,2.01954-2.01954l-1.51015-1.51015,1.69583-1.6949h-.0057Z" transform="translate(-4.07071 -10.5542)"/><path class="cls-8" d="M280.2993,277.65h-.0057l1.69583,1.6949-1.51015,1.51015a1.428,1.428,0,0,0,2.01954,2.01954l2.85653-2.85653a1.90394,1.90394,0,0,0,0-2.69276l-2.33378-2.33285v.00953Z" transform="translate(-4.07071 -10.5542)"/><path class="cls-8" d="M287.8396,271.40375l-4.76089-4.76089a1.4278,1.4278,0,0,0-1.00931-.419h-5.71306a1.42378,1.42378,0,0,0-1.00931.419l-4.76089,4.76089a1.4277,1.4277,0,1,0,2.01861,2.01954l2.7994-2.79847v2.26433h7.61742v-2.26526l2.7994,2.79847a1.42737,1.42737,0,0,0,2.01861-2.01861Z" transform="translate(-4.07071 -10.5542)"/></g><g class="cls-7"><circle class="cls-8" cx="297.63758" cy="250.90882" r="3.80871"/><path class="cls-8" d="M297.89958,275.002v-.00953l-2.33378,2.33285a1.90394,1.90394,0,0,0,0,2.69276l2.85653,2.85653a1.428,1.428,0,1,0,2.01954-2.01954l-1.51015-1.51015,1.69583-1.6949h-.0057Z" transform="translate(-4.07071 -10.5542)"/><path class="cls-8" d="M302.79471,277.65h-.0057l1.69583,1.6949-1.51015,1.51015a1.428,1.428,0,0,0,2.01954,2.01954l2.85653-2.85653a1.90394,1.90394,0,0,0,0-2.69276l-2.33378-2.33285v.00953Z" transform="translate(-4.07071 -10.5542)"/><path class="cls-8" d="M310.335,271.40375l-4.76089-4.76089a1.4278,1.4278,0,0,0-1.00931-.419h-5.71306a1.42378,1.42378,0,0,0-1.00931.419l-4.76089,4.76089a1.4277,1.4277,0,1,0,2.01861,2.01954l2.7994-2.79847v2.26433H305.517v-2.26526l2.7994,2.79847a1.42737,1.42737,0,0,0,2.01861-2.01861Z" transform="translate(-4.07071 -10.5542)"/></g><g class="cls-7"><circle class="cls-8" cx="320.13299" cy="250.90882" r="3.80871"/><path class="cls-8" d="M320.395,275.002v-.00953l-2.33378,2.33285a1.90394,1.90394,0,0,0,0,2.69276l2.85653,2.85653a1.428,1.428,0,1,0,2.01954-2.01954l-1.51015-1.51015L323.123,277.65h-.0057Z" transform="translate(-4.07071 -10.5542)"/><path class="cls-8" d="M325.29012,277.65h-.0057l1.69583,1.6949-1.51015,1.51015a1.428,1.428,0,1,0,2.01954,2.01954l2.85653-2.85653a1.90394,1.90394,0,0,0,0-2.69276l-2.33378-2.33285v.00953Z" transform="translate(-4.07071 -10.5542)"/><path class="cls-8" d="M332.83042,271.40375l-4.76089-4.76089a1.4278,1.4278,0,0,0-1.00931-.419h-5.71306a1.42378,1.42378,0,0,0-1.00931.419l-4.76089,4.76089a1.4277,1.4277,0,1,0,2.01861,2.01954l2.7994-2.79847v2.26433h7.61742v-2.26526l2.7994,2.79847a1.42737,1.42737,0,0,0,2.01861-2.01861Z" transform="translate(-4.07071 -10.5542)"/></g><g class="cls-9"><circle class="cls-10" cx="230.63299" cy="250.90882" r="3.80871"/><path class="cls-10" d="M230.895,275.002v-.00953l-2.33378,2.33285a1.90394,1.90394,0,0,0,0,2.69276l2.85653,2.85653a1.428,1.428,0,1,0,2.01954-2.01954l-1.51015-1.51015L233.623,277.65h-.0057Z" transform="translate(-4.07071 -10.5542)"/><path class="cls-10" d="M235.79012,277.65h-.0057l1.69583,1.6949-1.51015,1.51015a1.428,1.428,0,1,0,2.01954,2.01954l2.85653-2.85653a1.90394,1.90394,0,0,0,0-2.69276l-2.33378-2.33285v.00953Z" transform="translate(-4.07071 -10.5542)"/><path class="cls-10" d="M243.33042,271.40375l-4.76089-4.76089a1.4278,1.4278,0,0,0-1.00931-.419h-5.71306a1.42378,1.42378,0,0,0-1.00931.419l-4.76089,4.76089a1.4277,1.4277,0,1,0,2.01861,2.01954l2.7994-2.79847v2.26433h7.61742v-2.26526l2.7994,2.79847a1.42737,1.42737,0,0,0,2.01861-2.01861Z" transform="translate(-4.07071 -10.5542)"/></g><polygon class="cls-10" points="224.357 349.167 225.991 349.167 230.154 353.324 234.311 349.167 235.946 349.167 230.154 354.958 224.357 349.167"/><path class="cls-10" d="M224.7856,397.90316h18.87289v12.58193H224.7856ZM246.804,413.6309V394.758H221.64012V413.6309h11.009v1.57257h-4.71805V416.776H240.513v-1.57257H235.795V413.6309Z" transform="translate(-4.07071 -10.5542)"/><path class="cls-11" d="M238.3245,399.31677l1.67059,1.40119a.15539.15539,0,0,1,.01869.22l-6.808,8.11427a.15918.15918,0,0,1-.22328.01869l-4.533-3.80352a.15639.15639,0,0,1-.01952-.22079l1.40119-1.66975a.15632.15632,0,0,1,.22079-.01869l2.74484,2.30347,5.30774-6.32529A.15547.15547,0,0,1,238.3245,399.31677Z" transform="translate(-4.07071 -10.5542)"/><path class="cls-12" d="M272.25358,110.05781H242.99292c-2.97236,0-5.4043,2.70593-5.4043,6.01317v69.16866" transform="translate(-4.07071 -10.5542)"/><path class="cls-3" d="M357.873,39.4762a2.921,2.921,0,0,1-3.03447-2.52916V33.98526l6.06747.04174v2.83619A2.98357,2.98357,0,0,1,357.873,39.4762Zm6.12509-7.27727H351.748v1.79926h1.68253V56.59106c0,1.82548,1.99245,3.31151,4.44255,3.31151,2.44863,0,4.44145-1.486,4.44145-3.31151V33.99819h1.68217V32.19893Z" transform="translate(-4.07071 -10.5542)"/><path class="cls-3" d="M339.58794,82.67206l.84473-1.30029a3.94528,3.94528,0,0,0,2.19727.832c.57227,0,.832-.208.832-.52V81.6579c0-.4292-.67578-.57227-1.44238-.80615-.97559-.28613-2.08008-.74121-2.08008-2.09277v-.02637a2.277,2.277,0,0,1,2.54785-2.21,4.81894,4.81894,0,0,1,2.59961.80615l-.75391,1.36475a4.12786,4.12786,0,0,0-1.88477-.6499c-.48145,0-.72852.208-.72852.481V78.551c0,.38965.66309.57178,1.417.832.97559.32471,2.10645.793,2.10645,2.06689v.02588c0,1.54688-1.15723,2.249-2.665,2.249A4.88168,4.88168,0,0,1,339.58794,82.67206Z" transform="translate(-4.07071 -10.5542)"/><path class="cls-3" d="M346.24419,81.593v-.02637c0-1.521,1.15723-2.22266,2.80859-2.22266a4.95391,4.95391,0,0,1,1.70313.28564v-.1167c0-.81934-.50781-1.27441-1.49512-1.27441a5.12572,5.12572,0,0,0-1.9248.37744l-.49316-1.5083a6.14658,6.14658,0,0,1,2.7041-.55908,3.21523,3.21523,0,0,1,2.35254.78027,3.03511,3.03511,0,0,1,.75391,2.22314v4.043h-1.91113V82.841a2.6781,2.6781,0,0,1-2.10547.88379A2.15563,2.15563,0,0,1,346.24419,81.593Zm4.53711-.45508V80.7868a3.06443,3.06443,0,0,0-1.26074-.26025c-.84473,0-1.36523.33838-1.36523.9624v.02588c0,.5332.44238.84521,1.0791.84521C350.15728,82.36,350.7813,81.85272,350.7813,81.13788Z" transform="translate(-4.07071 -10.5542)"/><path class="cls-3" d="M354.44732,74.10468h1.97656v9.49023h-1.97656Z" transform="translate(-4.07071 -10.5542)"/><path class="cls-3" d="M358.32134,74.10468h2.08008v1.75488h-2.08008Zm.05176,2.522h1.97656v6.96826H358.3731Z" transform="translate(-4.07071 -10.5542)"/><path class="cls-3" d="M361.584,76.62665h2.09375l1.55957,4.667,1.57324-4.667h2.05371l-2.74316,7.02H364.3272Z" transform="translate(-4.07071 -10.5542)"/><path class="cls-3" d="M369.26665,81.593v-.02637c0-1.521,1.15723-2.22266,2.80859-2.22266a4.95391,4.95391,0,0,1,1.70313.28564v-.1167c0-.81934-.50684-1.27441-1.49512-1.27441a5.11679,5.11679,0,0,0-1.92383.37744l-.49414-1.5083a6.14658,6.14658,0,0,1,2.7041-.55908,3.21523,3.21523,0,0,1,2.35254.78027,3.03511,3.03511,0,0,1,.75391,2.22314v4.043H373.7647V82.841a2.6781,2.6781,0,0,1-2.10547.88379A2.15563,2.15563,0,0,1,369.26665,81.593Zm4.53711-.45508V80.7868a3.06443,3.06443,0,0,0-1.26074-.26025c-.84473,0-1.36523.33838-1.36523.9624v.02588c0,.5332.44238.84521,1.0791.84521C373.17974,82.36,373.80376,81.85272,373.80376,81.13788Z" transform="translate(-4.07071 -10.5542)"/><path class="cls-3" d="M334.5899,96.67206l.84473-1.30029a3.94528,3.94528,0,0,0,2.19727.832c.57227,0,.832-.208.832-.52V95.6579c0-.4292-.67578-.57227-1.44238-.80615-.97559-.28613-2.08008-.74121-2.08008-2.09277v-.02637a2.277,2.277,0,0,1,2.54785-2.21,4.81894,4.81894,0,0,1,2.59961.80615l-.75391,1.36475a4.12786,4.12786,0,0,0-1.88477-.6499c-.48145,0-.72852.208-.72852.481V92.551c0,.38965.66309.57178,1.417.832.97559.32471,2.10645.793,2.10645,2.06689v.02588c0,1.54688-1.15723,2.249-2.665,2.249A4.88168,4.88168,0,0,1,334.5899,96.67206Z" transform="translate(-4.07071 -10.5542)"/><path class="cls-3" d="M341.24615,95.593v-.02637c0-1.521,1.15723-2.22266,2.80859-2.22266a4.95391,4.95391,0,0,1,1.70313.28564v-.1167c0-.81934-.50781-1.27441-1.49512-1.27441a5.12572,5.12572,0,0,0-1.9248.37744l-.49316-1.5083a6.14658,6.14658,0,0,1,2.7041-.55908,3.21523,3.21523,0,0,1,2.35254.78027,3.03511,3.03511,0,0,1,.75391,2.22314v4.043h-1.91113V96.841a2.6781,2.6781,0,0,1-2.10547.88379A2.15563,2.15563,0,0,1,341.24615,95.593Zm4.53711-.45508V94.7868a3.06443,3.06443,0,0,0-1.26074-.26025c-.84473,0-1.36523.33838-1.36523.9624v.02588c0,.5332.44238.84521,1.0791.84521C345.15923,96.36,345.78326,95.85272,345.78326,95.13788Z" transform="translate(-4.07071 -10.5542)"/><path class="cls-3" d="M349.35845,90.62665H351.335v.98779a2.48885,2.48885,0,0,1,2.05371-1.11768,2.08355,2.08355,0,0,1,1.96289,1.105,2.87156,2.87156,0,0,1,2.28809-1.105c1.46973,0,2.35352.88379,2.35352,2.561v4.53711h-1.97656V93.7077c0-.936-.416-1.417-1.15625-1.417-.74121,0-1.19629.481-1.19629,1.417v3.88721h-1.97656V93.7077c0-.936-.416-1.417-1.15625-1.417-.74121,0-1.19629.481-1.19629,1.417v3.88721h-1.97656Z" transform="translate(-4.07071 -10.5542)"/><path class="cls-3" d="M361.70806,90.62665h1.97656v1.001a2.55773,2.55773,0,0,1,2.1709-1.13086,3.27967,3.27967,0,0,1,3.17188,3.60107v.02588c0,2.32715-1.52051,3.60107-3.17187,3.60107a2.67552,2.67552,0,0,1-2.1709-1.04V99.675h-1.97656Zm5.34375,3.49707v-.02588a1.71023,1.71023,0,1,0-3.39355,0v.02588a1.71023,1.71023,0,1,0,3.39355,0Z" transform="translate(-4.07071 -10.5542)"/><path class="cls-3" d="M370.57329,88.10468h1.97656v9.49023h-1.97656Z" transform="translate(-4.07071 -10.5542)"/><path class="cls-3" d="M374.07036,94.1496v-.02588a3.46936,3.46936,0,0,1,3.44531-3.627c2.32715,0,3.39258,1.80713,3.39258,3.7832,0,.15576-.0127.33789-.02539.52h-4.84961a1.61636,1.61636,0,0,0,1.70313,1.36475,2.28452,2.28452,0,0,0,1.69043-.71484l1.13086,1.001a3.68065,3.68065,0,0,1-6.4873-2.30127Zm4.91406-.585a1.49434,1.49434,0,0,0-1.46875-1.48193,1.55229,1.55229,0,0,0-1.50781,1.48193Z" transform="translate(-4.07071 -10.5542)"/><path class="cls-3" d="M409.71,92.26483h-.81836v-1.625H409.71v-.44189a2.29754,2.29754,0,0,1,.55957-1.68994,2.16535,2.16535,0,0,1,1.59863-.54639,4.37016,4.37016,0,0,1,1.4043.19531v1.6377a2.51269,2.51269,0,0,0-.89746-.16895c-.4541,0-.71484.23438-.71484.75439V90.653h1.59961v1.61182h-1.57324v5.27832H409.71Z" transform="translate(-4.07071 -10.5542)"/><path class="cls-3" d="M413.87017,94.09784V94.072a3.46908,3.46908,0,0,1,3.44531-3.627c2.32715,0,3.39258,1.80713,3.39258,3.7832,0,.15576-.0127.33789-.02539.52h-4.84961a1.61636,1.61636,0,0,0,1.70313,1.36475,2.28452,2.28452,0,0,0,1.69043-.71484l1.13086,1.001a3.68094,3.68094,0,0,1-6.4873-2.30127Zm4.91406-.585a1.49434,1.49434,0,0,0-1.46875-1.48193,1.55229,1.55229,0,0,0-1.50781,1.48193Z" transform="translate(-4.07071 -10.5542)"/><path class="cls-3" d="M422.17681,90.57489h1.97656v.98828a2.488,2.488,0,0,1,2.05371-1.11816A2.08355,2.08355,0,0,1,428.17,91.55a2.86875,2.86875,0,0,1,2.28809-1.105c1.46973,0,2.35352.88379,2.35352,2.561v4.53711H430.835V93.65595c0-.936-.416-1.417-1.15625-1.417-.74121,0-1.19629.481-1.19629,1.417v3.88721h-1.97656V93.65595c0-.936-.416-1.417-1.15723-1.417-.74023,0-1.19531.481-1.19531,1.417v3.88721h-1.97656Z" transform="translate(-4.07071 -10.5542)"/><path class="cls-3" d="M434.1104,95.5412v-.02588c0-1.52148,1.15723-2.22314,2.80859-2.22314a4.95391,4.95391,0,0,1,1.70313.28564v-.1167c0-.81934-.50781-1.27393-1.49512-1.27393a5.12556,5.12556,0,0,0-1.9248.377l-.49316-1.5083a6.14658,6.14658,0,0,1,2.7041-.55908,3.21523,3.21523,0,0,1,2.35254.78027,3.03511,3.03511,0,0,1,.75391,2.22314v4.043h-1.91113v-.75391a2.6781,2.6781,0,0,1-2.10547.88379A2.15563,2.15563,0,0,1,434.1104,95.5412Zm4.53711-.45508V94.735a3.05676,3.05676,0,0,0-1.26074-.25977c-.84473,0-1.36523.33789-1.36523.96191v.02588c0,.5332.44238.84521,1.0791.84521C438.02349,96.30829,438.64751,95.801,438.64751,95.08612Z" transform="translate(-4.07071 -10.5542)"/><path class="cls-3" d="M442.31353,88.05292h1.97656v9.49023h-1.97656Z" transform="translate(-4.07071 -10.5542)"/><path class="cls-3" d="M445.8106,94.09784V94.072a3.46908,3.46908,0,0,1,3.44531-3.627c2.32715,0,3.39355,1.80713,3.39355,3.7832,0,.15576-.01367.33789-.02637.52h-4.84961a1.61636,1.61636,0,0,0,1.70313,1.36475,2.28452,2.28452,0,0,0,1.69043-.71484l1.13086,1.001a3.68094,3.68094,0,0,1-6.4873-2.30127Zm4.91406-.585a1.49434,1.49434,0,0,0-1.46875-1.48193,1.55229,1.55229,0,0,0-1.50781,1.48193Z" transform="translate(-4.07071 -10.5542)"/><path class="cls-3" d="M276.81353,141.35858h2.09375l1.55957,4.667,1.57324-4.667h2.05371l-2.74316,7.02h-1.79395Z" transform="translate(-4.07071 -10.5542)"/><path class="cls-3" d="M285.27642,138.83661h2.08008v1.75488h-2.08008Zm.05176,2.522h1.97656v6.96826h-1.97656Z" transform="translate(-4.07071 -10.5542)"/><path class="cls-3" d="M289.16314,141.35858h1.97656v1.40381a2.15091,2.15091,0,0,1,2.22266-1.53369v2.06689h-.10352c-1.31348,0-2.11914.793-2.11914,2.457v2.57422h-1.97656Z" transform="translate(-4.07071 -10.5542)"/><path class="cls-3" d="M294.92193,146.35077v-3.30225h-.832v-1.68994h.832v-1.78125h1.97656v1.78125h1.6377v1.68994h-1.6377v2.97705c0,.45508.19434.67627.63672.67627a2.00506,2.00506,0,0,0,.97461-.24707v1.58594a2.91072,2.91072,0,0,1-1.55957.40332C295.74126,148.444,294.92193,147.96259,294.92193,146.35077Z" transform="translate(-4.07071 -10.5542)"/><path class="cls-3" d="M299.93951,145.86981v-4.51123h1.97656v3.88721c0,.936.44141,1.417,1.19531,1.417s1.23535-.481,1.23535-1.417v-3.88721h1.97559v6.96826h-1.97559v-.98828a2.46441,2.46441,0,0,1-2.041,1.11816A2.28482,2.28482,0,0,1,299.93951,145.86981Z" transform="translate(-4.07071 -10.5542)"/><path class="cls-3" d="M307.67388,146.32489v-.02637c0-1.521,1.15723-2.22266,2.80859-2.22266a4.95391,4.95391,0,0,1,1.70313.28564v-.1167c0-.81934-.50781-1.27441-1.49512-1.27441a5.12572,5.12572,0,0,0-1.9248.37744l-.49316-1.5083a6.14658,6.14658,0,0,1,2.7041-.55908,3.21523,3.21523,0,0,1,2.35254.78027,3.03511,3.03511,0,0,1,.75391,2.22314v4.043h-1.91113v-.75391a2.6781,2.6781,0,0,1-2.10547.88379A2.15563,2.15563,0,0,1,307.67388,146.32489Zm4.53711-.45508v-.35107a3.06443,3.06443,0,0,0-1.26074-.26025c-.84473,0-1.36523.33838-1.36523.9624v.02588c0,.5332.44238.84521,1.0791.84521C311.587,147.092,312.211,146.58466,312.211,145.86981Z" transform="translate(-4.07071 -10.5542)"/><path class="cls-3" d="M315.877,138.83661h1.97656v9.49023H315.877Z" transform="translate(-4.07071 -10.5542)"/><path class="cls-3" d="M285.47759,158.88153v-.02588a3.46936,3.46936,0,0,1,3.44531-3.627c2.32715,0,3.39355,1.80713,3.39355,3.7832,0,.15576-.01367.33789-.02637.52h-4.84961a1.61636,1.61636,0,0,0,1.70313,1.36475,2.28452,2.28452,0,0,0,1.69043-.71484l1.13086,1.001a3.68065,3.68065,0,0,1-6.4873-2.30127Zm4.91406-.585a1.49434,1.49434,0,0,0-1.46875-1.48193,1.55229,1.55229,0,0,0-1.50781,1.48193Z" transform="translate(-4.07071 -10.5542)"/><path class="cls-3" d="M293.82329,163.70477l.67578-1.48193a4.55337,4.55337,0,0,0,2.35352.63721c1.35254,0,1.98926-.65039,1.98926-1.89844v-.33789a2.726,2.726,0,0,1-2.27539,1.13086,3.05984,3.05984,0,0,1-3.09375-3.25v-.02588a3.06709,3.06709,0,0,1,3.09375-3.25,2.8213,2.8213,0,0,1,2.249,1.04v-.91016H300.792v5.395a3.7386,3.7386,0,0,1-.88477,2.74316,4.08065,4.08065,0,0,1-3.00293.936A6.60845,6.60845,0,0,1,293.82329,163.70477Zm5.01855-5.2002v-.02588a1.699,1.699,0,0,0-3.39355,0v.02588a1.59244,1.59244,0,0,0,1.69043,1.6123A1.61048,1.61048,0,0,0,298.84185,158.50458Z" transform="translate(-4.07071 -10.5542)"/><path class="cls-3" d="M302.59771,163.70477l.67578-1.48193a4.55337,4.55337,0,0,0,2.35352.63721c1.35156,0,1.98926-.65039,1.98926-1.89844v-.33789a2.726,2.726,0,0,1-2.27539,1.13086,3.05984,3.05984,0,0,1-3.09375-3.25v-.02588a3.06709,3.06709,0,0,1,3.09375-3.25,2.8213,2.8213,0,0,1,2.249,1.04v-.91016h1.97656v5.395a3.73446,3.73446,0,0,1-.88477,2.74316,4.08065,4.08065,0,0,1-3.00293.936A6.60845,6.60845,0,0,1,302.59771,163.70477Zm5.01855-5.2002v-.02588a1.699,1.699,0,0,0-3.39355,0v.02588a1.59245,1.59245,0,0,0,1.69043,1.6123A1.61048,1.61048,0,0,0,307.61626,158.50458Z" transform="translate(-4.07071 -10.5542)"/><path class="cls-2" d="M300.816,114.77751a8.83465,8.83465,0,0,0,1.06749-.91093,6.35413,6.35413,0,0,0,1.98313-4.508H291.01066v0a6.352,6.352,0,0,0,1.98285,4.50905,9.55513,9.55513,0,0,0,4.12872,2.39231,7.28134,7.28134,0,0,1,3.10468,1.789,4.426,4.426,0,0,1,1.22631,2.13284H293.427a3.87813,3.87813,0,0,1,.496-1.21314h6.32836l-1.685-1.4613h-3.29626a7.36132,7.36132,0,0,1,1.31166-.80253,10.43082,10.43082,0,0,1-2.51757-1.21458,8.77733,8.77733,0,0,0-1.06776.91093,6.35,6.35,0,0,0-1.98327,4.50762v.7241h-.00251v1.4116h2.33794v-1.14019c.00028-.00978.00293-.01889.00293-.02874v-.23394h8.1827v.23394l.00035.00346v1.16548h2.33794v-2.1357a6.35016,6.35016,0,0,0-1.9832-4.50762,9.55576,9.55576,0,0,0-4.12844-2.39231,7.27987,7.27987,0,0,1-3.105-1.789,4.42479,4.42479,0,0,1-1.22624-2.13574h8.02654a3.84873,3.84873,0,0,1-.49638,1.21311h-6.33235l1.68211,1.4613h3.30317a7.4174,7.4174,0,0,1-1.31459.80439A10.38191,10.38191,0,0,1,300.816,114.77751Z" transform="translate(-4.07071 -10.5542)"/><path class="cls-13" d="M303.86672,109.35714a6.355,6.355,0,0,0-1.98327-4.50905,9.5535,9.5535,0,0,0-4.12837-2.39231,7.27874,7.27874,0,0,1-3.105-1.789,4.42052,4.42052,0,0,1-1.22589-2.13281h8.02612a3.90728,3.90728,0,0,1-.496,1.21311h-6.32836l1.685,1.4613h3.29744a7.40184,7.40184,0,0,1-1.31166.80253,10.441,10.441,0,0,1,2.52072,1.21751,8.77207,8.77207,0,0,0,1.06756-.91093,6.35272,6.35272,0,0,0,1.98313-4.508V97.0843h.0044V95.67267h-2.33794v1.14023c-.00021.00978-.00286.01889-.00286.02874v.23394H293.3486V95.67267h-2.33794v2.13574a6.3494,6.3494,0,0,0,1.98285,4.50758,9.55513,9.55513,0,0,0,4.12872,2.39231,7.27748,7.27748,0,0,1,3.10468,1.789,4.42576,4.42576,0,0,1,1.22631,2.13427H293.427a3.921,3.921,0,0,1,.49456-1.21314h6.3313l-1.68253-1.46126h-3.30282a7.211,7.211,0,0,1,1.31424-.804,10.419,10.419,0,0,1-2.51757-1.215,8.80808,8.80808,0,0,0-1.06776.91132,6.34584,6.34584,0,0,0-1.98579,4.509h12.85592Z" transform="translate(-4.07071 -10.5542)"/><polygon class="cls-3" points="287.46 67.41 289.095 67.41 293.258 71.567 297.415 67.41 299.049 67.41 293.258 73.201 287.46 67.41"/><circle class="cls-14" cx="353.80239" cy="34.56046" r="22"/><circle class="cls-14" cx="293.41079" cy="99.29245" r="22"/><rect class="cls-1" x="14.16232" y="20.9022" width="48.72663" height="48.72663" transform="translate(29.68912 93.96061) rotate(-135)"/><path class="cls-15" d="M23.43853,90.22968h1.97656V91.218a2.488,2.488,0,0,1,2.05371-1.11816,2.08355,2.08355,0,0,1,1.96289,1.105,2.87013,2.87013,0,0,1,2.28809-1.105c1.46973,0,2.35352.88379,2.35352,2.561v4.53711H32.09673V93.31073c0-.936-.416-1.417-1.15625-1.417-.74121,0-1.19629.481-1.19629,1.417v3.88721H27.76763V93.31073c0-.936-.416-1.417-1.15625-1.417-.74121,0-1.19629.481-1.19629,1.417v3.88721H23.43853Z" transform="translate(-4.07071 -10.5542)"/><path class="cls-15" d="M35.37212,95.196v-.02588c0-1.52148,1.15723-2.22314,2.80859-2.22314a4.95391,4.95391,0,0,1,1.70313.28564v-.1167c0-.81934-.50684-1.27393-1.49512-1.27393a5.11663,5.11663,0,0,0-1.92383.377l-.49414-1.5083a6.14658,6.14658,0,0,1,2.7041-.55908,3.21523,3.21523,0,0,1,2.35254.78027A3.03511,3.03511,0,0,1,41.7813,93.155v4.043H39.87017V96.444a2.6781,2.6781,0,0,1-2.10547.88379A2.15563,2.15563,0,0,1,35.37212,95.196Zm4.53711-.45508v-.35107a3.05676,3.05676,0,0,0-1.26074-.25977c-.84473,0-1.36523.33789-1.36523.96191v.02588c0,.5332.44238.84521,1.0791.84521C39.28521,95.96307,39.90923,95.45575,39.90923,94.74091Z" transform="translate(-4.07071 -10.5542)"/><path class="cls-15" d="M43.57525,87.7077h1.97656v9.49023H43.57525Z" transform="translate(-4.07071 -10.5542)"/><path class="cls-15" d="M47.07232,93.75263v-.02588a3.46908,3.46908,0,0,1,3.44531-3.627c2.32715,0,3.39258,1.80713,3.39258,3.7832,0,.15576-.0127.33789-.02539.52H49.03521a1.61636,1.61636,0,0,0,1.70313,1.36475,2.28452,2.28452,0,0,0,1.69043-.71484l1.13086,1.001a3.68094,3.68094,0,0,1-6.4873-2.30127Zm4.91406-.585a1.49434,1.49434,0,0,0-1.46875-1.48193,1.55229,1.55229,0,0,0-1.50781,1.48193Z" transform="translate(-4.07071 -10.5542)"/><path class="cls-16" d="M31.7543,44.29366a5.87529,5.87529,0,0,1,8.298-.16628,5.81119,5.81119,0,0,1,1.73338,3.548H46.1519A10.20563,10.20563,0,0,0,44.544,42.821l2.44973-2.54987.08585,2.7093,3.83408,3.68339-.5584-13.3631L37.13972,33.431l3.834,3.68345,2.60024-.02185L41.17763,39.587a10.18312,10.18312,0,0,0-15.36236,8.0884h4.36686A5.81181,5.81181,0,0,1,31.7543,44.29366Z" transform="translate(-4.07071 -10.5542)"/><path class="cls-17" d="M28.91805,55.7169A10.18935,10.18935,0,0,0,46.1519,47.67538H41.78563a5.84551,5.84551,0,1,1-11.60351,0H25.81526A10.18145,10.18145,0,0,0,28.91805,55.7169Z" transform="translate(-4.07071 -10.5542)"/><path class="cls-18" d="M195.89759,110.05781h29.26066c2.97236,0,5.4043,2.70593,5.4043,6.01317v69.16866" transform="translate(-4.07071 -10.5542)"/><path class="cls-15" d="M107.005,36.86319V34.027l6.06747-.04174V36.947A2.921,2.921,0,0,1,110.038,39.4762,2.98357,2.98357,0,0,1,107.005,36.86319Zm-3.09062-4.66426v1.79926h1.68216V56.59106c0,1.82548,1.99281,3.31151,4.44145,3.31151,2.45011,0,4.44255-1.486,4.44255-3.31151V33.99819H116.163V32.19893h-12.2487Z" transform="translate(-4.07071 -10.5542)"/><path class="cls-15" d="M91.75493,82.67206l.84473-1.30029a3.94528,3.94528,0,0,0,2.19727.832c.57227,0,.832-.208.832-.52V81.6579c0-.4292-.67578-.57227-1.44238-.80615-.97559-.28613-2.08008-.74121-2.08008-2.09277v-.02637a2.277,2.277,0,0,1,2.54785-2.21,4.81894,4.81894,0,0,1,2.59961.80615l-.75391,1.36475a4.12786,4.12786,0,0,0-1.88477-.6499c-.48145,0-.72852.208-.72852.481V78.551c0,.38965.66309.57178,1.417.832.97559.32471,2.10645.793,2.10645,2.06689v.02588c0,1.54688-1.15723,2.249-2.665,2.249A4.88168,4.88168,0,0,1,91.75493,82.67206Z" transform="translate(-4.07071 -10.5542)"/><path class="cls-15" d="M98.41118,81.593v-.02637c0-1.521,1.15723-2.22266,2.80859-2.22266a4.95391,4.95391,0,0,1,1.70313.28564v-.1167c0-.81934-.50684-1.27441-1.49512-1.27441a5.11679,5.11679,0,0,0-1.92383.37744l-.49414-1.5083a6.14658,6.14658,0,0,1,2.7041-.55908,3.21523,3.21523,0,0,1,2.35254.78027,3.03511,3.03511,0,0,1,.75391,2.22314v4.043h-1.91113V82.841a2.6781,2.6781,0,0,1-2.10547.88379A2.15563,2.15563,0,0,1,98.41118,81.593Zm4.53711-.45508V80.7868a3.06443,3.06443,0,0,0-1.26074-.26025c-.84473,0-1.36523.33838-1.36523.9624v.02588c0,.5332.44238.84521,1.0791.84521C102.32427,82.36,102.94829,81.85272,102.94829,81.13788Z" transform="translate(-4.07071 -10.5542)"/><path class="cls-15" d="M106.61431,74.10468h1.97656v9.49023h-1.97656Z" transform="translate(-4.07071 -10.5542)"/><path class="cls-15" d="M110.48833,74.10468h2.08008v1.75488h-2.08008Zm.05176,2.522h1.97656v6.96826h-1.97656Z" transform="translate(-4.07071 -10.5542)"/><path class="cls-15" d="M113.751,76.62665h2.09375l1.55957,4.667,1.57324-4.667h2.05371l-2.74316,7.02h-1.79395Z" transform="translate(-4.07071 -10.5542)"/><path class="cls-15" d="M121.43365,81.593v-.02637c0-1.521,1.15723-2.22266,2.80859-2.22266a4.95391,4.95391,0,0,1,1.70313.28564v-.1167c0-.81934-.50781-1.27441-1.49512-1.27441a5.12572,5.12572,0,0,0-1.9248.37744l-.49316-1.5083a6.14658,6.14658,0,0,1,2.7041-.55908,3.21523,3.21523,0,0,1,2.35254.78027,3.03511,3.03511,0,0,1,.75391,2.22314v4.043h-1.91113V82.841a2.6781,2.6781,0,0,1-2.10547.88379A2.15563,2.15563,0,0,1,121.43365,81.593Zm4.53711-.45508V80.7868a3.06443,3.06443,0,0,0-1.26074-.26025c-.84473,0-1.36523.33838-1.36523.9624v.02588c0,.5332.44238.84521,1.0791.84521C125.34673,82.36,125.97076,81.85272,125.97076,81.13788Z" transform="translate(-4.07071 -10.5542)"/><path class="cls-15" d="M86.75591,96.67206l.84473-1.30029a3.94528,3.94528,0,0,0,2.19727.832c.57227,0,.832-.208.832-.52V95.6579c0-.4292-.67578-.57227-1.44238-.80615-.97559-.28613-2.08008-.74121-2.08008-2.09277v-.02637a2.277,2.277,0,0,1,2.54785-2.21,4.81894,4.81894,0,0,1,2.59961.80615L91.501,92.69354a4.12786,4.12786,0,0,0-1.88477-.6499c-.48145,0-.72852.208-.72852.481V92.551c0,.38965.66309.57178,1.417.832.97559.32471,2.10645.793,2.10645,2.06689v.02588c0,1.54688-1.15723,2.249-2.665,2.249A4.88168,4.88168,0,0,1,86.75591,96.67206Z" transform="translate(-4.07071 -10.5542)"/><path class="cls-15" d="M93.41216,95.593v-.02637c0-1.521,1.15723-2.22266,2.80859-2.22266a4.95391,4.95391,0,0,1,1.70313.28564v-.1167c0-.81934-.50781-1.27441-1.49512-1.27441a5.12572,5.12572,0,0,0-1.9248.37744l-.49316-1.5083a6.14658,6.14658,0,0,1,2.7041-.55908,3.21523,3.21523,0,0,1,2.35254.78027,3.03511,3.03511,0,0,1,.75391,2.22314v4.043H97.91021V96.841a2.6781,2.6781,0,0,1-2.10547.88379A2.15563,2.15563,0,0,1,93.41216,95.593Zm4.53711-.45508V94.7868a3.06443,3.06443,0,0,0-1.26074-.26025c-.84473,0-1.36523.33838-1.36523.9624v.02588c0,.5332.44238.84521,1.0791.84521C97.32525,96.36,97.94927,95.85272,97.94927,95.13788Z" transform="translate(-4.07071 -10.5542)"/><path class="cls-15" d="M101.52447,90.62665H103.501v.98779a2.48885,2.48885,0,0,1,2.05371-1.11768,2.08355,2.08355,0,0,1,1.96289,1.105,2.87156,2.87156,0,0,1,2.28809-1.105c1.46973,0,2.35352.88379,2.35352,2.561v4.53711h-1.97656V93.7077c0-.936-.416-1.417-1.15625-1.417-.74121,0-1.19629.481-1.19629,1.417v3.88721h-1.97656V93.7077c0-.936-.416-1.417-1.15625-1.417-.74121,0-1.19629.481-1.19629,1.417v3.88721h-1.97656Z" transform="translate(-4.07071 -10.5542)"/><path class="cls-15" d="M113.87408,90.62665h1.97656v1.001a2.55773,2.55773,0,0,1,2.1709-1.13086,3.27967,3.27967,0,0,1,3.17188,3.60107v.02588c0,2.32715-1.52051,3.60107-3.17187,3.60107a2.67552,2.67552,0,0,1-2.1709-1.04V99.675h-1.97656Zm5.34375,3.49707v-.02588a1.71023,1.71023,0,1,0-3.39355,0v.02588a1.71023,1.71023,0,1,0,3.39355,0Z" transform="translate(-4.07071 -10.5542)"/><path class="cls-15" d="M122.73931,88.10468h1.97656v9.49023h-1.97656Z" transform="translate(-4.07071 -10.5542)"/><path class="cls-15" d="M126.23638,94.1496v-.02588a3.46936,3.46936,0,0,1,3.44531-3.627c2.32715,0,3.39258,1.80713,3.39258,3.7832,0,.15576-.0127.33789-.02539.52h-4.84961a1.61636,1.61636,0,0,0,1.70313,1.36475,2.28452,2.28452,0,0,0,1.69043-.71484l1.13086,1.001a3.68065,3.68065,0,0,1-6.4873-2.30127Zm4.91406-.585a1.49434,1.49434,0,0,0-1.46875-1.48193,1.55229,1.55229,0,0,0-1.50781,1.48193Z" transform="translate(-4.07071 -10.5542)"/><path class="cls-15" d="M149.58208,141.35858h2.09375l1.55957,4.667,1.57324-4.667h2.05371l-2.74316,7.02h-1.79395Z" transform="translate(-4.07071 -10.5542)"/><path class="cls-15" d="M158.045,138.83661h2.08008v1.75488H158.045Zm.05176,2.522h1.97656v6.96826h-1.97656Z" transform="translate(-4.07071 -10.5542)"/><path class="cls-15" d="M161.93169,141.35858h1.97656v1.40381a2.15091,2.15091,0,0,1,2.22266-1.53369v2.06689h-.10352c-1.31348,0-2.11914.793-2.11914,2.457v2.57422h-1.97656Z" transform="translate(-4.07071 -10.5542)"/><path class="cls-15" d="M167.69048,146.35077v-3.30225h-.832v-1.68994h.832v-1.78125H169.667v1.78125h1.6377v1.68994H169.667v2.97705c0,.45508.19434.67627.63672.67627a2.00506,2.00506,0,0,0,.97461-.24707v1.58594a2.91072,2.91072,0,0,1-1.55957.40332C168.50982,148.444,167.69048,147.96259,167.69048,146.35077Z" transform="translate(-4.07071 -10.5542)"/><path class="cls-15" d="M172.70806,145.86981v-4.51123h1.97656v3.88721c0,.936.44141,1.417,1.19531,1.417s1.23535-.481,1.23535-1.417v-3.88721h1.97559v6.96826h-1.97559v-.98828a2.46441,2.46441,0,0,1-2.041,1.11816A2.28482,2.28482,0,0,1,172.70806,145.86981Z" transform="translate(-4.07071 -10.5542)"/><path class="cls-15" d="M180.44243,146.32489v-.02637c0-1.521,1.15723-2.22266,2.80859-2.22266a4.95391,4.95391,0,0,1,1.70313.28564v-.1167c0-.81934-.50781-1.27441-1.49512-1.27441a5.12572,5.12572,0,0,0-1.9248.37744l-.49316-1.5083a6.14658,6.14658,0,0,1,2.7041-.55908,3.21523,3.21523,0,0,1,2.35254.78027,3.03511,3.03511,0,0,1,.75391,2.22314v4.043h-1.91113v-.75391a2.6781,2.6781,0,0,1-2.10547.88379A2.15563,2.15563,0,0,1,180.44243,146.32489Zm4.53711-.45508v-.35107a3.06443,3.06443,0,0,0-1.26074-.26025c-.84473,0-1.36523.33838-1.36523.9624v.02588c0,.5332.44238.84521,1.0791.84521C184.35552,147.092,184.97954,146.58466,184.97954,145.86981Z" transform="translate(-4.07071 -10.5542)"/><path class="cls-15" d="M188.64556,138.83661h1.97656v9.49023h-1.97656Z" transform="translate(-4.07071 -10.5542)"/><path class="cls-15" d="M150.27154,161.404l.84473-1.30029a3.94528,3.94528,0,0,0,2.19727.832c.57227,0,.832-.208.832-.52v-.02588c0-.4292-.67578-.57227-1.44238-.80615-.97559-.28613-2.08008-.74121-2.08008-2.09277v-.02637a2.277,2.277,0,0,1,2.54785-2.21,4.81894,4.81894,0,0,1,2.59961.80615l-.75391,1.36475a4.12786,4.12786,0,0,0-1.88477-.6499c-.48145,0-.72852.208-.72852.481v.02637c0,.38965.66309.57178,1.417.832.97559.32471,2.10645.793,2.10645,2.06689v.02588c0,1.54688-1.15723,2.249-2.665,2.249A4.88168,4.88168,0,0,1,150.27154,161.404Z" transform="translate(-4.07071 -10.5542)"/><path class="cls-15" d="M157.3438,155.35858h1.97656v1.001a2.55773,2.55773,0,0,1,2.1709-1.13086,3.27967,3.27967,0,0,1,3.17188,3.60107v.02588c0,2.32715-1.52051,3.60107-3.17187,3.60107a2.67552,2.67552,0,0,1-2.1709-1.04v2.99023H157.3438Zm5.34375,3.49707v-.02588a1.71023,1.71023,0,1,0-3.39355,0v.02588a1.71023,1.71023,0,1,0,3.39355,0Z" transform="translate(-4.07071 -10.5542)"/><path class="cls-15" d="M165.78033,158.88153v-.02588a3.46936,3.46936,0,0,1,3.44531-3.627c2.32715,0,3.39258,1.80713,3.39258,3.7832,0,.15576-.0127.33789-.02539.52h-4.84961a1.61636,1.61636,0,0,0,1.70313,1.36475,2.28452,2.28452,0,0,0,1.69043-.71484l1.13086,1.001a3.68065,3.68065,0,0,1-6.4873-2.30127Zm4.91406-.585a1.49434,1.49434,0,0,0-1.46875-1.48193,1.55229,1.55229,0,0,0-1.50781,1.48193Z" transform="translate(-4.07071 -10.5542)"/><path class="cls-15" d="M174.087,155.35858h1.97656v1.40381a2.15091,2.15091,0,0,1,2.22266-1.53369v2.06689h-.10352c-1.31348,0-2.11914.793-2.11914,2.457v2.57422H174.087Z" transform="translate(-4.07071 -10.5542)"/><path class="cls-15" d="M179.52056,155.35858h1.97656v.98779a2.48885,2.48885,0,0,1,2.05371-1.11768,2.08355,2.08355,0,0,1,1.96289,1.105,2.87018,2.87018,0,0,1,2.28809-1.105c1.46973,0,2.35352.88379,2.35352,2.561v4.53711h-1.97656v-3.88721c0-.936-.416-1.417-1.15625-1.417-.74121,0-1.19629.481-1.19629,1.417v3.88721h-1.97656v-3.88721c0-.936-.416-1.417-1.15723-1.417-.74023,0-1.19531.481-1.19531,1.417v3.88721h-1.97656Z" transform="translate(-4.07071 -10.5542)"/><path class="cls-17" d="M167.3352,114.77751a8.83466,8.83466,0,0,1-1.06749-.91093,6.35413,6.35413,0,0,1-1.98313-4.508h12.85592v0a6.352,6.352,0,0,1-1.98285,4.50905,9.55513,9.55513,0,0,1-4.12872,2.39231,7.28134,7.28134,0,0,0-3.10468,1.789,4.426,4.426,0,0,0-1.22631,2.13284h8.02619a3.87813,3.87813,0,0,0-.496-1.21314h-6.32836l1.685-1.4613H172.881a7.36132,7.36132,0,0,0-1.31166-.80253,10.43082,10.43082,0,0,0,2.51757-1.21458,8.77733,8.77733,0,0,1,1.06776.91093,6.35,6.35,0,0,1,1.98327,4.50762v.7241h.00251v1.4116h-2.33794v-1.14019c-.00028-.00978-.00293-.01889-.00293-.02874v-.23394h-8.1827v.23394l-.00035.00346v1.16548h-2.33794v-2.1357a6.35016,6.35016,0,0,1,1.9832-4.50762,9.55576,9.55576,0,0,1,4.12844-2.39231,7.27987,7.27987,0,0,0,3.105-1.789,4.42479,4.42479,0,0,0,1.22624-2.13574H166.695a3.84873,3.84873,0,0,0,.49638,1.21311h6.33235l-1.68211,1.4613h-3.30317a7.41741,7.41741,0,0,0,1.31459.80439A10.38191,10.38191,0,0,0,167.3352,114.77751Z" transform="translate(-4.07071 -10.5542)"/><path class="cls-16" d="M164.28445,109.35714a6.355,6.355,0,0,1,1.98327-4.50905,9.5535,9.5535,0,0,1,4.12837-2.39231,7.27874,7.27874,0,0,0,3.105-1.789,4.42052,4.42052,0,0,0,1.22589-2.13281h-8.02612a3.90728,3.90728,0,0,0,.496,1.21311h6.32836l-1.685,1.4613H168.5428a7.40184,7.40184,0,0,0,1.31166.80253,10.441,10.441,0,0,0-2.52072,1.21751,8.77206,8.77206,0,0,1-1.06756-.91093,6.35272,6.35272,0,0,1-1.98313-4.508V97.0843h-.0044V95.67267h2.33794v1.14023c.00021.00978.00286.01889.00286.02874v.23394h8.18312V95.67267h2.33794v2.13574a6.3494,6.3494,0,0,1-1.98285,4.50758,9.55513,9.55513,0,0,1-4.12872,2.39231,7.27748,7.27748,0,0,0-3.10468,1.789,4.42576,4.42576,0,0,0-1.22631,2.13427h8.02619a3.921,3.921,0,0,0-.49456-1.21314h-6.3313l1.68253-1.46126h3.30282a7.211,7.211,0,0,0-1.31424-.804,10.419,10.419,0,0,0,2.51757-1.215,8.80808,8.80808,0,0,1,1.06776.91132,6.34584,6.34584,0,0,1,1.98579,4.509H164.28459Z" transform="translate(-4.07071 -10.5542)"/><polygon class="cls-15" points="172.433 67.906 170.799 67.906 166.636 72.063 162.479 67.906 160.844 67.906 166.636 73.697 172.433 67.906"/><circle class="cls-19" cx="105.96718" cy="34.56046" r="22"/><circle class="cls-19" cx="166.59878" cy="99.29245" r="22"/><path class="cls-20" d="M152.586,208.509h2.09375l1.55957,4.667,1.57324-4.667h2.05371l-2.74316,7.02h-1.79395Z" transform="translate(-4.07071 -10.5542)"/><path class="cls-20" d="M161.04888,205.987H163.129v1.75488h-2.08008Zm.05176,2.522h1.97656v6.96826h-1.97656Z" transform="translate(-4.07071 -10.5542)"/><path class="cls-20" d="M164.9356,208.509h1.97656v1.40381a2.15091,2.15091,0,0,1,2.22266-1.53369V210.446h-.10352c-1.31348,0-2.11914.793-2.11914,2.457v2.57422H164.9356Z" transform="translate(-4.07071 -10.5542)"/><path class="cls-20" d="M170.69439,213.50116v-3.30225h-.832V208.509h.832v-1.78125H172.671V208.509h1.6377v1.68994H172.671V213.176c0,.45508.19434.67627.63672.67627a2.00506,2.00506,0,0,0,.97461-.24707v1.58594a2.91072,2.91072,0,0,1-1.55957.40332C171.51372,215.59442,170.69439,215.113,170.69439,213.50116Z" transform="translate(-4.07071 -10.5542)"/><path class="cls-20" d="M175.712,213.0202V208.509h1.97559v3.88721c0,.936.44238,1.417,1.19629,1.417s1.23535-.481,1.23535-1.417V208.509h1.97559v6.96826h-1.97559V214.489a2.46441,2.46441,0,0,1-2.041,1.11816A2.28482,2.28482,0,0,1,175.712,213.0202Z" transform="translate(-4.07071 -10.5542)"/><path class="cls-20" d="M183.44634,213.47528v-.02637c0-1.521,1.15723-2.22266,2.80859-2.22266a4.95391,4.95391,0,0,1,1.70313.28564v-.1167c0-.81934-.50684-1.27441-1.49512-1.27441a5.11679,5.11679,0,0,0-1.92383.37744l-.49414-1.5083a6.14658,6.14658,0,0,1,2.7041-.55908,3.21523,3.21523,0,0,1,2.35254.78027,3.03511,3.03511,0,0,1,.75391,2.22314v4.043h-1.91113v-.75391a2.6781,2.6781,0,0,1-2.10547.88379A2.15563,2.15563,0,0,1,183.44634,213.47528Zm4.53711-.45508v-.35107a3.06443,3.06443,0,0,0-1.26074-.26025c-.84473,0-1.36523.33838-1.36523.9624v.02588c0,.5332.44238.84521,1.0791.84521C187.35943,214.24237,187.98345,213.735,187.98345,213.0202Z" transform="translate(-4.07071 -10.5542)"/><path class="cls-20" d="M191.64947,205.987H193.626v9.49023h-1.97656Z" transform="translate(-4.07071 -10.5542)"/><path class="cls-20" d="M199.38384,208.509h1.97656v1.001a2.55773,2.55773,0,0,1,2.1709-1.13086,3.27967,3.27967,0,0,1,3.17188,3.60107v.02588c0,2.32715-1.52051,3.60107-3.17187,3.60107a2.67552,2.67552,0,0,1-2.1709-1.04v2.99023h-1.97656Zm5.34375,3.49707v-.02588a1.71023,1.71023,0,1,0-3.39355,0v.02588a1.71023,1.71023,0,1,0,3.39355,0Z" transform="translate(-4.07071 -10.5542)"/><path class="cls-20" d="M208.15826,208.509h1.97656v1.40381a2.15091,2.15091,0,0,1,2.22266-1.53369V210.446H212.254c-1.31348,0-2.11914.793-2.11914,2.457v2.57422h-1.97656Z" transform="translate(-4.07071 -10.5542)"/><path class="cls-20" d="M213.05865,212.03192V212.006a3.77341,3.77341,0,0,1,7.54-.02588v.02588a3.77339,3.77339,0,0,1-7.54.02588Zm5.58984,0V212.006a1.85079,1.85079,0,0,0-1.833-1.92383,1.78471,1.78471,0,0,0-1.80664,1.89795v.02588a1.85182,1.85182,0,0,0,1.833,1.92432A1.78511,1.78511,0,0,0,218.64849,212.03192Z" transform="translate(-4.07071 -10.5542)"/><path class="cls-20" d="M222.06743,216.85516l.67578-1.48193a4.55337,4.55337,0,0,0,2.35352.63721c1.35254,0,1.98926-.65039,1.98926-1.89844v-.33789a2.726,2.726,0,0,1-2.27539,1.13086,3.05984,3.05984,0,0,1-3.09375-3.25v-.02588a3.06709,3.06709,0,0,1,3.09375-3.25,2.8213,2.8213,0,0,1,2.249,1.04V208.509h1.97656v5.395a3.7386,3.7386,0,0,1-.88477,2.74316,4.08065,4.08065,0,0,1-3.00293.936A6.60845,6.60845,0,0,1,222.06743,216.85516Zm5.01855-5.2002v-.02588a1.699,1.699,0,0,0-3.39355,0v.02588a1.59245,1.59245,0,0,0,1.69043,1.6123A1.61048,1.61048,0,0,0,227.086,211.655Z" transform="translate(-4.07071 -10.5542)"/><path class="cls-20" d="M230.4649,212.03192V212.006a3.46936,3.46936,0,0,1,3.44531-3.627c2.32715,0,3.39258,1.80713,3.39258,3.7832,0,.15576-.0127.33789-.02539.52h-4.84961a1.61636,1.61636,0,0,0,1.70313,1.36475,2.28452,2.28452,0,0,0,1.69043-.71484l1.13086,1.001a3.68065,3.68065,0,0,1-6.4873-2.30127Zm4.91406-.585a1.49434,1.49434,0,0,0-1.46875-1.48193,1.55229,1.55229,0,0,0-1.50781,1.48193Z" transform="translate(-4.07071 -10.5542)"/><path class="cls-20" d="M238.77154,208.509h1.97656v.98779a2.46521,2.46521,0,0,1,2.041-1.11768,2.28482,2.28482,0,0,1,2.36621,2.58691v4.51123h-1.97656V211.59c0-.936-.44141-1.417-1.19629-1.417-.75391,0-1.23437.481-1.23437,1.417v3.88721h-1.97656Z" transform="translate(-4.07071 -10.5542)"/><path class="cls-20" d="M246.585,217.11542l.66309-1.43018a1.79185,1.79185,0,0,0,.84473.27295.66057.66057,0,0,0,.68945-.45508l-2.73047-6.99414h2.09375l1.58594,4.74512L251.252,208.509h2.05469l-2.67871,7.13721c-.5332,1.417-1.10449,1.9502-2.28809,1.9502A3.27251,3.27251,0,0,1,246.585,217.11542Z" transform="translate(-4.07071 -10.5542)"/><path class="cls-20" d="M258.41411,216.85516l.67578-1.48193a4.55337,4.55337,0,0,0,2.35352.63721c1.35156,0,1.98926-.65039,1.98926-1.89844v-.33789a2.726,2.726,0,0,1-2.27539,1.13086,3.05984,3.05984,0,0,1-3.09375-3.25v-.02588a3.06709,3.06709,0,0,1,3.09375-3.25,2.8213,2.8213,0,0,1,2.249,1.04V208.509h1.97656v5.395a3.73446,3.73446,0,0,1-.88477,2.74316,4.08065,4.08065,0,0,1-3.00293.936A6.60845,6.60845,0,0,1,258.41411,216.85516Zm5.01855-5.2002v-.02588a1.699,1.699,0,0,0-3.39355,0v.02588a1.59245,1.59245,0,0,0,1.69043,1.6123A1.61048,1.61048,0,0,0,263.43267,211.655Z" transform="translate(-4.07071 -10.5542)"/><path class="cls-20" d="M266.81158,212.03192V212.006a3.46936,3.46936,0,0,1,3.44531-3.627c2.32715,0,3.39355,1.80713,3.39355,3.7832,0,.15576-.01367.33789-.02637.52h-4.84961a1.61636,1.61636,0,0,0,1.70313,1.36475,2.28452,2.28452,0,0,0,1.69043-.71484l1.13086,1.001a3.68065,3.68065,0,0,1-6.4873-2.30127Zm4.91406-.585a1.49434,1.49434,0,0,0-1.46875-1.48193,1.55229,1.55229,0,0,0-1.50781,1.48193Z" transform="translate(-4.07071 -10.5542)"/><path class="cls-20" d="M275.11822,208.509h1.97656v.98779a2.46521,2.46521,0,0,1,2.041-1.11768A2.28482,2.28482,0,0,1,281.502,210.966v4.51123h-1.97656V211.59c0-.936-.44141-1.417-1.19629-1.417-.75391,0-1.23437.481-1.23437,1.417v3.88721h-1.97656Z" transform="translate(-4.07071 -10.5542)"/><path class="cls-20" d="M282.879,212.03192V212.006a3.77341,3.77341,0,0,1,7.54-.02588v.02588a3.77339,3.77339,0,0,1-7.54.02588Zm5.58984,0V212.006a1.85079,1.85079,0,0,0-1.833-1.92383,1.78471,1.78471,0,0,0-1.80664,1.89795v.02588a1.85182,1.85182,0,0,0,1.833,1.92432A1.78511,1.78511,0,0,0,288.4688,212.03192Z" transform="translate(-4.07071 -10.5542)"/><path class="cls-20" d="M291.84868,208.509h1.97656v.98779a2.48885,2.48885,0,0,1,2.05371-1.11768,2.08355,2.08355,0,0,1,1.96289,1.105,2.87156,2.87156,0,0,1,2.28809-1.105c1.46973,0,2.35352.88379,2.35352,2.561v4.53711h-1.97656V211.59c0-.936-.416-1.417-1.15625-1.417-.74121,0-1.19629.481-1.19629,1.417v3.88721h-1.97656V211.59c0-.936-.416-1.417-1.15625-1.417-.74121,0-1.19629.481-1.19629,1.417v3.88721h-1.97656Z" transform="translate(-4.07071 -10.5542)"/><path class="cls-20" d="M303.8604,212.03192V212.006a3.46936,3.46936,0,0,1,3.44531-3.627c2.32715,0,3.39355,1.80713,3.39355,3.7832,0,.15576-.01367.33789-.02637.52h-4.84961a1.61636,1.61636,0,0,0,1.70313,1.36475,2.28452,2.28452,0,0,0,1.69043-.71484l1.13086,1.001a3.68065,3.68065,0,0,1-6.4873-2.30127Zm4.91406-.585a1.49434,1.49434,0,0,0-1.46875-1.48193,1.55229,1.55229,0,0,0-1.50781,1.48193Z" transform="translate(-4.07071 -10.5542)"/><path class="cls-20" d="M311.62115,214.55438l.84473-1.30029a3.94528,3.94528,0,0,0,2.19727.832c.57227,0,.832-.208.832-.52v-.02588c0-.4292-.67578-.57227-1.44238-.80615-.97559-.28613-2.08008-.74121-2.08008-2.09277v-.02637a2.277,2.277,0,0,1,2.54785-2.21,4.81894,4.81894,0,0,1,2.59961.80615l-.75391,1.36475a4.12786,4.12786,0,0,0-1.88477-.6499c-.48145,0-.72852.208-.72852.481v.02637c0,.38965.66309.57178,1.417.832.97559.32471,2.10645.793,2.10645,2.06689v.02588c0,1.54688-1.15723,2.249-2.665,2.249A4.88168,4.88168,0,0,1,311.62115,214.55438Z" transform="translate(-4.07071 -10.5542)"/><path class="cls-20" d="M155.421,447.57636h1.97656v1.4043a2.15,2.15,0,0,1,2.22266-1.5332v2.06641h-.10352c-1.31348,0-2.11914.793-2.11914,2.457v2.57422H155.421Z" transform="translate(-4.07071 -10.5542)"/><path class="cls-20" d="M160.32134,451.09979v-.02539a3.46908,3.46908,0,0,1,3.44531-3.627c2.32715,0,3.39258,1.80664,3.39258,3.7832,0,.15527-.0127.33789-.02539.51953h-4.84961a1.61716,1.61716,0,0,0,1.70313,1.36523,2.28822,2.28822,0,0,0,1.69043-.71484l1.13086,1a3.68036,3.68036,0,0,1-6.4873-2.30078Zm4.91406-.585a1.4939,1.4939,0,0,0-1.46875-1.48145,1.55146,1.55146,0,0,0-1.50781,1.48145Z" transform="translate(-4.07071 -10.5542)"/><path class="cls-20" d="M168.628,447.57636h1.97656v1.002a2.55658,2.55658,0,0,1,2.1709-1.13086,3.27922,3.27922,0,0,1,3.17188,3.60059v.02637c0,2.32617-1.52051,3.60059-3.17187,3.60059a2.67688,2.67688,0,0,1-2.1709-1.04v2.99023H168.628Zm5.34375,3.498V451.048a1.71029,1.71029,0,1,0-3.39355,0v.02637a1.71018,1.71018,0,1,0,3.39355,0Z" transform="translate(-4.07071 -10.5542)"/><path class="cls-20" d="M177.4024,447.57636H179.379v1.4043a2.15,2.15,0,0,1,2.22266-1.5332v2.06641h-.10352c-1.31348,0-2.11914.793-2.11914,2.457v2.57422H177.4024Z" transform="translate(-4.07071 -10.5542)"/><path class="cls-20" d="M182.30376,451.09979v-.02539a3.77342,3.77342,0,0,1,7.54-.02637v.02637a3.7734,3.7734,0,0,1-7.54.02539Zm5.58984,0v-.02539a1.85051,1.85051,0,0,0-1.833-1.92383A1.78431,1.78431,0,0,0,184.254,451.048v.02637a1.85169,1.85169,0,0,0,1.833,1.92383A1.78511,1.78511,0,0,0,187.89361,451.09979Z" transform="translate(-4.07071 -10.5542)"/><path class="cls-20" d="M190.962,451.0744V451.048c0-2.32715,1.52051-3.60059,3.17188-3.60059a2.67629,2.67629,0,0,1,2.1709,1.03906v-3.43164h1.97656v9.49023h-1.97656v-1.001a2.55889,2.55889,0,0,1-2.1709,1.13086A3.27979,3.27979,0,0,1,190.962,451.0744Zm5.36914,0V451.048a1.71029,1.71029,0,1,0-3.39355,0v.02637a1.71018,1.71018,0,1,0,3.39355,0Z" transform="translate(-4.07071 -10.5542)"/><path class="cls-20" d="M199.99615,452.08807v-4.51172h1.97559v3.8877c0,.93652.44238,1.417,1.19629,1.417s1.23535-.48047,1.23535-1.417v-3.8877H206.379v6.96875h-1.97559v-.98828a2.46324,2.46324,0,0,1-2.041,1.11816A2.28459,2.28459,0,0,1,199.99615,452.08807Z" transform="translate(-4.07071 -10.5542)"/><path class="cls-20" d="M207.80865,451.09979v-.02539a3.57762,3.57762,0,0,1,3.65332-3.627,3.42588,3.42588,0,0,1,2.78223,1.16992l-1.209,1.2998a2.036,2.036,0,0,0-1.58594-.7666,1.77993,1.77993,0,0,0-1.69043,1.89746v.02637a1.78576,1.78576,0,0,0,1.76758,1.92383,2.209,2.209,0,0,0,1.59961-.74121l1.15723,1.16992a3.51014,3.51014,0,0,1-2.84766,1.27441A3.55824,3.55824,0,0,1,207.80865,451.09979Z" transform="translate(-4.07071 -10.5542)"/><path class="cls-20" d="M215.89458,452.56854v-3.30176h-.832v-1.69043h.832v-1.78125h1.97656v1.78125h1.6377v1.69043h-1.6377v2.97754c0,.45508.19434.67578.63672.67578a2.00506,2.00506,0,0,0,.97461-.24707V454.259a2.91072,2.91072,0,0,1-1.55957.40332C216.71392,454.66229,215.89458,454.18085,215.89458,452.56854Z" transform="translate(-4.07071 -10.5542)"/><path class="cls-20" d="M221.003,445.05487h2.08008v1.75488H221.003Zm.05176,2.52148h1.97656v6.96875h-1.97656Z" transform="translate(-4.07071 -10.5542)"/><path class="cls-20" d="M224.26568,447.57636h2.09375l1.55957,4.668,1.57324-4.668H231.546l-2.74316,7.02051h-1.79395Z" transform="translate(-4.07071 -10.5542)"/><path class="cls-20" d="M231.961,451.09979v-.02539a3.46908,3.46908,0,0,1,3.44531-3.627c2.32715,0,3.39355,1.80664,3.39355,3.7832,0,.15527-.01367.33789-.02637.51953h-4.84961a1.61716,1.61716,0,0,0,1.70313,1.36523,2.28822,2.28822,0,0,0,1.69043-.71484l1.13086,1a3.68036,3.68036,0,0,1-6.4873-2.30078Zm4.91406-.585a1.4939,1.4939,0,0,0-1.46875-1.48145,1.55146,1.55146,0,0,0-1.50781,1.48145Z" transform="translate(-4.07071 -10.5542)"/><path class="cls-20" d="M244.167,447.57636h1.97656v1.4043a2.15,2.15,0,0,1,2.22266-1.5332v2.06641h-.10352c-1.31348,0-2.11914.793-2.11914,2.457v2.57422H244.167Z" transform="translate(-4.07071 -10.5542)"/><path class="cls-20" d="M249.6397,445.05487h2.08008v1.75488H249.6397Zm.05176,2.52148H251.668v6.96875h-1.97656Z" transform="translate(-4.07071 -10.5542)"/><path class="cls-20" d="M252.98052,453.62225l.84473-1.2998a3.95264,3.95264,0,0,0,2.19727.832c.57227,0,.832-.209.832-.52051v-.02637c0-.42871-.67578-.57227-1.44238-.80566-.97559-.28613-2.08008-.74121-2.08008-2.09277v-.02637a2.277,2.277,0,0,1,2.54785-2.21,4.81536,4.81536,0,0,1,2.59961.80664l-.75391,1.36426a4.12056,4.12056,0,0,0-1.88477-.64941c-.48145,0-.72852.207-.72852.48047v.02637c0,.38965.66309.57129,1.417.832.97559.3252,2.10645.793,2.10645,2.06738v.02539c0,1.54688-1.15723,2.249-2.665,2.249A4.88472,4.88472,0,0,1,252.98052,453.62225Z" transform="translate(-4.07071 -10.5542)"/><path class="cls-20" d="M260.05279,445.05487h1.97656v5.05664l2.31348-2.53516H266.709l-2.65137,2.74414,2.74219,4.22461h-2.26172l-1.82031-2.84766-.68848.72852v2.11914h-1.97656Z" transform="translate(-4.07071 -10.5542)"/><path class="cls-20" d="M271.64849,447.57636h1.97656v1.4043a2.15,2.15,0,0,1,2.22266-1.5332v2.06641h-.10352c-1.31348,0-2.11914.793-2.11914,2.457v2.57422h-1.97656Z" transform="translate(-4.07071 -10.5542)"/><path class="cls-20" d="M276.54986,451.09979v-.02539a3.46908,3.46908,0,0,1,3.44531-3.627c2.32715,0,3.39258,1.80664,3.39258,3.7832,0,.15527-.0127.33789-.02539.51953h-4.84961a1.61716,1.61716,0,0,0,1.70313,1.36523,2.28822,2.28822,0,0,0,1.69043-.71484l1.13086,1a3.68036,3.68036,0,0,1-6.4873-2.30078Zm4.91406-.585a1.4939,1.4939,0,0,0-1.46875-1.48145,1.55146,1.55146,0,0,0-1.50781,1.48145Z" transform="translate(-4.07071 -10.5542)"/><path class="cls-20" d="M284.8565,447.57636h1.97656v1.002a2.55658,2.55658,0,0,1,2.1709-1.13086,3.27922,3.27922,0,0,1,3.17188,3.60059v.02637c0,2.32617-1.52051,3.60059-3.17187,3.60059a2.67688,2.67688,0,0,1-2.1709-1.04v2.99023H284.8565Zm5.34375,3.498V451.048a1.71029,1.71029,0,1,0-3.39355,0v.02637a1.71018,1.71018,0,1,0,3.39355,0Z" transform="translate(-4.07071 -10.5542)"/><path class="cls-20" d="M293.293,451.09979v-.02539a3.77342,3.77342,0,0,1,7.54-.02637v.02637a3.7734,3.7734,0,0,1-7.54.02539Zm5.59082,0v-.02539a1.8513,1.8513,0,0,0-1.834-1.92383,1.78431,1.78431,0,0,0-1.80664,1.89746v.02637a1.85169,1.85169,0,0,0,1.833,1.92383A1.78589,1.78589,0,0,0,298.88384,451.09979Z" transform="translate(-4.07071 -10.5542)"/><path class="cls-20" d="M302.26275,447.57636h1.97656v1.4043a2.15,2.15,0,0,1,2.22266-1.5332v2.06641h-.10352c-1.31348,0-2.11914.793-2.11914,2.457v2.57422h-1.97656Z" transform="translate(-4.07071 -10.5542)"/><path class="cls-20" d="M308.02154,452.56854v-3.30176h-.832v-1.69043h.832v-1.78125h1.97656v1.78125h1.6377v1.69043h-1.6377v2.97754c0,.45508.19434.67578.63672.67578a2.00506,2.00506,0,0,0,.97461-.24707V454.259a2.91072,2.91072,0,0,1-1.55957.40332C308.84087,454.66229,308.02154,454.18085,308.02154,452.56854Z" transform="translate(-4.07071 -10.5542)"/><path class="cls-12" d="M332.03186,45.30626H302.7712c-2.97236,0-5.4043,1.15286-5.4043,2.56191V77.33745" transform="translate(-4.07071 -10.5542)"/><path class="cls-18" d="M135.95312,45.30626h29.26066c2.97236,0,5.4043,1.15286,5.4043,2.56191V77.33745" transform="translate(-4.07071 -10.5542)"/><line class="cls-18" x1="79.96725" y1="34.56045" x2="67.30229" y2="34.56045"/><line class="cls-12" x1="379.62889" y1="34.56045" x2="388.46655" y2="34.56045"/></svg>