<svg id="Layer_1" data-name="Layer 1" xmlns="http://www.w3.org/2000/svg" viewBox="0 0 72 72"><defs><style>.cls-1{fill:#6bbec3;}.cls-2{fill:#36969f;}</style></defs><title>GenePeeks_Iconography_secondary</title><path class="cls-1" d="M22.8448,46.48385h2.2263a1.9342,1.9342,0,0,1,1.65949.89062,2.17105,2.17105,0,0,0,1.74083.93053H36.486a2.26655,2.26655,0,0,0,2.2662-1.86156l1.94289-9.99787a2.207,2.207,0,0,0,.03222-0.5121H22.8448V46.48385Z"/><path class="cls-1" d="M16.97571,48.305h2.87393a1.304,1.304,0,0,0,1.29526-1.29526V35.93347H16.97571V48.305Z"/><path class="cls-1" d="M52.15037,36.89062h2.87393V35.93347H50.903A1.27183,1.27183,0,0,0,52.15037,36.89062Z"/><path class="cls-1" d="M42.51673,36l-0.40464,2.02423-0.76938,4.25a1.24132,1.24132,0,0,0,1.05278,1.53825H42.4359a1.52946,1.52946,0,0,0,1.29526-1.01186l0.5668-1.417a12.04033,12.04033,0,0,1,3.68321-4.37126,1.78632,1.78632,0,0,0,.83329-1.0789h-6.2886C42.522,35.95573,42.52109,35.97771,42.51673,36Z"/><path class="cls-2" d="M38.59052,33.89545H31.264l1.45742-7.89282a1.39215,1.39215,0,0,0-1.37609-1.70041H31.30493A1.71482,1.71482,0,0,0,29.72626,25.355l-0.68855,1.61908a10.749,10.749,0,0,1-4.61425,5.14013l-0.12124.08133a2.84214,2.84214,0,0,0-1.45742,2.46878v1.26914H40.7273A2.14468,2.14468,0,0,0,38.59052,33.89545Z"/><path class="cls-2" d="M19.84963,32.31679H16.97571v3.61668H21.1449V33.57164A1.27042,1.27042,0,0,0,19.84963,32.31679Z"/><path class="cls-2" d="M52.15037,23.695a1.30436,1.30436,0,0,0-1.29526,1.29526V35.59536a1.33136,1.33136,0,0,0,.04794.33811h4.12125V23.695H52.15037Z"/><path class="cls-2" d="M48.95262,25.23326H47.61695V25.19284a1.65138,1.65138,0,0,1-1.25485-.44506,1.90058,1.90058,0,0,0-1.45692-.72846H37.69991a1.80782,1.80782,0,0,0-1.86156,1.37609L34.5835,31.70957a0.56786,0.56786,0,0,0,.5663.688H39.562a3.0147,3.0147,0,0,1,2.96389,3.53585h6.2886a3.32686,3.32686,0,0,0,.13816-0.98574V25.23326Z"/></svg>