<svg id="Layer_1" data-name="Layer 1" xmlns="http://www.w3.org/2000/svg" viewBox="0 0 68.56565 68.56565"><defs><style>.cls-1{fill:#fff;}.cls-2{fill:#9470b0;}.cls-3,.cls-4,.cls-5{fill:#ad8abf;}.cls-4{opacity:0.75;}.cls-5{opacity:0.5;}</style></defs><title>GenePeeks_Iconography_primary</title><rect class="cls-1" x="11.04124" y="11.04118" width="46.48329" height="46.48329" transform="translate(-14.20039 34.28323) rotate(-45.00043)"/><path class="cls-2" d="M34.28283,2.12133l32.1615,32.1615-32.1615,32.1615L2.12133,34.28283l32.1615-32.1615m0-1.41418L0.70711,34.28283,34.28283,67.85851,67.85854,34.28283,34.28283,0.70714h0Z"/><path class="cls-3" d="M34.225,20.61071A13.625,13.625,0,1,0,47.54766,37.08086L34.225,34.23571v-13.625Z"/><path class="cls-4" d="M43.61852,24.28826l-9.45605,9.85425,13.5249,2.88831A13.67077,13.67077,0,0,0,43.61852,24.28826Z"/><path class="cls-5" d="M43.61852,24.28826a13.61989,13.61989,0,0,0-9.33569-3.699c-0.04065,0-.07983.00574-0.12036,0.0061V34.14251Z"/></svg>