<svg id="Layer_1" data-name="Layer 1" xmlns="http://www.w3.org/2000/svg" viewBox="0 0 72 72"><defs><style>.cls-1{fill:#0fa8cc;}.cls-2{fill:#35c1dc;}</style></defs><title>GenePeeks_Iconography_secondary</title><path class="cls-1" d="M25.19345,29.16185a3.6611,3.6611,0,0,0,1.33667-.26086l3.559,3.55933a7.31067,7.31067,0,0,0-1.22058,4.05176c0,0.16272.02533,0.31848,0.03577,0.47852H43.53421c0.01044-.16.03583-0.3158,0.03583-0.47852a7.311,7.311,0,0,0-1.22095-4.05176L45.90842,28.901a3.70622,3.70622,0,1,0-2.07758-2.07861L40.27152,30.3828a7.333,7.333,0,0,0-8.10327,0l-3.55933-3.55933A3.67041,3.67041,0,1,0,25.19345,29.16185Z"/><path class="cls-2" d="M47.24631,43.86217a3.66666,3.66666,0,0,0-1.33673.26074l-3.56049-3.55933a7.31122,7.31122,0,0,0,1.18512-3.573H28.90427a7.30967,7.30967,0,0,0,1.18481,3.573l-3.559,3.55933a3.70866,3.70866,0,1,0,2.07721,2.07886l3.55933-3.559a7.33486,7.33486,0,0,0,8.10327,0l3.55933,3.559A3.66918,3.66918,0,1,0,47.24631,43.86217Z"/></svg>