<svg id="Layer_1" data-name="Layer 1" xmlns="http://www.w3.org/2000/svg" viewBox="0 0 72 72"><defs><style>.cls-1{fill:#7cc9b0;}.cls-2{fill:#43b391;}.cls-3{fill:#35c1dc;}</style></defs><title>GenePeeks_Iconography_secondary</title><path class="cls-1" d="M40.10153,41.011a5.70275,5.70275,0,0,1-5.08368,1.66693l-0.01282-.002a5.70592,5.70592,0,0,1-.996-0.27295c-0.03528-.01318-0.07111-0.025-0.106-0.03888a5.65993,5.65993,0,0,1-.85168-0.426c-0.05786-.0351-0.11688-0.06836-0.17334-0.10547a5.86872,5.86872,0,0,1-1.842-1.96783c-0.02826-.05048-0.05719-0.10052-0.08374-0.15167-0.05511-.10461-0.10565-0.21179-0.15436-0.32007-0.04529-.1026-0.08789-0.20593-0.12677-0.31061-0.0257-.06763-0.05164-0.13513-0.07477-0.20392a5.80765,5.80765,0,0,1-.2876-1.8172H26.08286l-0.00012.00171c0,0.05792.006,0.1134,0.007,0.17023,0.00262,0.15259.00928,0.30444,0.01886,0.45673,0.01093,0.17426.02808,0.34637,0.048,0.51807,0.01648,0.14294.03064,0.28564,0.05328,0.4278,0.03479,0.2168.08032,0.42975,0.129,0.64166,0.05292,0.23267.11694,0.46222,0.18677,0.69116,0.03619,0.11737.07031,0.23541,0.11072,0.35083,0.06726,0.19434.14264,0.38556,0.22229,0.57617,0.02649,0.06268.05432,0.12451,0.082,0.18652a9.77922,9.77922,0,0,0,6.67438,5.5943c0.03912,0.01.07684,0.02332,0.11621,0.03259v2.75415h-3.578v4.53754h3.578v3.578h4.53754v-3.578h3.578V49.46326h-3.578V46.709c0.20416-.048.4035-0.10791,0.60229-0.16907,0.19159-.05786.37958-0.12744,0.56793-0.19708,0.096-.03564.1933-0.06848,0.28784-0.107,0.17023-.06909.3371-0.14642,0.504-0.22528,0.09125-.04321.18213-0.08673,0.27191-0.13263,0.16541-.08447.32867-0.17279,0.49-0.26709,0.08643-.05054.17041-0.10455,0.25519-0.15759,0.15851-.0993.317-0.19763,0.47076-0.30664,0.10828-.07654.21033-0.16077,0.31531-0.24146,0.19873-.15326.39325-0.31317,0.58228-0.48352,0.14063-.126.27905-0.254,0.41223-0.38782,0.036-.03632.07532-0.06726,0.1109-0.10431,0.03967-.04126.072-0.08667,0.11078-0.12848q0.27173-.291.51971-0.60284c0.03058-.03876.06378-0.07593,0.09369-0.11505A9.82769,9.82769,0,0,0,45.91727,37.064l-0.00018-.00262H41.66257A5.62863,5.62863,0,0,1,40.10153,41.011Z"/><path class="cls-2" d="M46.68723,21.19666l0.08344,2.63354,3.72687,3.58038L49.95474,14.4212l-12.84595.12665L40.8356,18.1283l2.52753-.02124-2.32935,2.42462c-0.012-.00714-0.02472-0.01263-0.0368-0.01971-0.21094-.12372-0.42688-0.23846-0.64734-0.34668-0.03723-.01825-0.07434-0.03625-0.11176-0.054-0.22437-.10669-0.45233-0.20557-0.68561-0.29553-0.02057-.00793-0.04132-0.015-0.062-0.02277a9.83673,9.83673,0,0,0-2.9729-.62012c-0.09113-.00494-0.182-0.01135-0.27313-0.01379-0.082-.002-0.1618-0.01239-0.24426-0.01239-0.10242,0-.20166.01227-0.30334,0.01538-0.136.00378-.27167,0.01123-0.40747,0.02063-0.15735.01123-.31427,0.02246-0.46954,0.041-0.18884.022-.37628,0.05347-0.56378,0.0863-0.10065.01794-.20288,0.03058-0.30243,0.05157A9.846,9.846,0,0,0,26.297,27.01984c-0.00824.03925-.01532,0.0788-0.02313,0.11816q-0.07938.406-.12488,0.8161c-0.00641.057-.01324,0.11359-0.01862,0.1709-0.00842.08972-.02332,0.179-0.0293,0.26886-0.00928.14008-.00226,0.28046-0.00568,0.42072-0.00208.08282-.01227,0.16357-0.01251,0.24677h4.22589a5.693,5.693,0,0,1,.48346-2.3147c0.037-.08282.07709-0.16382,0.11792-0.24457,0.06635-.13495.14337-0.26556,0.22131-0.39587A5.72641,5.72641,0,0,1,31.51,25.55731c0.04987-.06427.10071-0.12793,0.15387-0.19049a5.69354,5.69354,0,0,1,.88971-0.838q0.1994-.15189.41144-0.2865a5.64515,5.64515,0,0,1,.58051-0.32007c0.1131-.0542.22687-0.10663,0.34387-0.15344A5.697,5.697,0,0,1,34.646,23.5285c0.06653-.0163.13129-0.03729,0.19867-0.05121a5.73923,5.73923,0,0,1,.91016-0.10553c0.06018-.00256.11945-0.00842,0.18011-0.00909a5.74857,5.74857,0,0,1,.93976.07092c0.04968,0.00769.09979,0.01379,0.149,0.02277a5.70137,5.70137,0,0,1,.92987.25488c0.04266,0.01563.08569,0.03027,0.12787,0.04688a5.65558,5.65558,0,0,1,.88678.4436c0.03394,0.02081.06854,0.04059,0.10205,0.06207a5.7,5.7,0,0,1,.84314.66058c0.01306,0.01239.027,0.0238,0.04,0.03632a5.65006,5.65006,0,0,1,1.67139,3.43317,5.9362,5.9362,0,0,1,.03778.66748h4.25452a9.85058,9.85058,0,0,0-1.60632-5.39105Z"/><polygon class="cls-3" points="25.899 33.947 26.69 33.156 26.595 33.061 25.014 33.061 25.899 33.947"/><polygon class="cls-3" points="21.199 33.14 21.99 33.932 22.86 33.061 21.278 33.061 21.199 33.14"/><rect class="cls-1" x="23.38272" y="33.06134" width="1.12433" height="2.65802"/><polygon class="cls-1" points="29.353 33.624 31.449 33.624 31.449 35.719 32.573 35.719 32.573 33.624 34.669 33.624 34.669 33.061 29.353 33.061 29.353 33.624"/><rect class="cls-1" x="39.51492" y="33.06134" width="1.12433" height="2.65802"/><polygon class="cls-3" points="37.331 33.14 38.122 33.932 38.992 33.061 37.41 33.061 37.331 33.14"/><polygon class="cls-3" points="42.031 33.947 42.822 33.156 42.728 33.061 41.146 33.061 42.031 33.947"/><polygon class="cls-1" points="45.485 33.624 47.581 33.624 47.581 35.719 48.705 35.719 48.705 33.624 50.801 33.624 50.801 33.061 45.485 33.061 45.485 33.624"/><polygon class="cls-2" points="21.278 33.061 22.86 33.061 23.383 32.538 23.383 33.061 24.507 33.061 24.507 32.554 25.014 33.061 26.595 33.061 23.937 30.403 21.278 33.061"/><polygon class="cls-2" points="32.573 32.499 32.573 30.403 31.449 30.403 31.449 32.499 29.353 32.499 29.353 33.061 34.669 33.061 34.669 32.499 32.573 32.499"/><polygon class="cls-2" points="37.41 33.061 38.992 33.061 39.515 32.538 39.515 33.061 40.639 33.061 40.639 32.554 41.146 33.061 42.728 33.061 40.069 30.403 37.41 33.061"/><polygon class="cls-2" points="48.705 32.499 48.705 30.403 47.581 30.403 47.581 32.499 45.485 32.499 45.485 33.061 50.801 33.061 50.801 32.499 48.705 32.499"/></svg>