<svg id="Layer_1" data-name="Layer 1" xmlns="http://www.w3.org/2000/svg" xmlns:xlink="http://www.w3.org/1999/xlink" viewBox="0 0 168.62 38.57"><defs><style>.cls-1{fill:#36959e;}.cls-2{fill:none;}.cls-3{fill:url(#linear-gradient);}.cls-4{fill:url(#linear-gradient-2);}.cls-5{fill:url(#linear-gradient-4);}.cls-6{fill:url(#linear-gradient-6);}.cls-7{fill:url(#linear-gradient-7);}.cls-8{fill:url(#linear-gradient-10);}.cls-9{fill:url(#linear-gradient-11);}</style><linearGradient id="linear-gradient" x1="77.63" y1="28.99" x2="170.65" y2="28.99" gradientUnits="userSpaceOnUse"><stop offset="0" stop-color="#35c1dc"/><stop offset="0.33" stop-color="#7cc9af"/><stop offset="0.66" stop-color="#ffd255"/><stop offset="1" stop-color="#f48a85"/></linearGradient><linearGradient id="linear-gradient-2" x1="77.63" y1="24.67" x2="170.65" y2="24.67" xlink:href="#linear-gradient"/><linearGradient id="linear-gradient-4" x1="77.63" y1="24.42" x2="170.65" y2="24.42" xlink:href="#linear-gradient"/><linearGradient id="linear-gradient-6" x1="77.63" y1="24.67" x2="170.65" y2="24.67" xlink:href="#linear-gradient"/><linearGradient id="linear-gradient-7" x1="76.3" y1="15.03" x2="171.97" y2="15.03" gradientUnits="userSpaceOnUse"><stop offset="0" stop-color="#0ca9cc"/><stop offset="0.33" stop-color="#43b391"/><stop offset="0.67" stop-color="#d6a828"/><stop offset="1" stop-color="#e94a72"/></linearGradient><linearGradient id="linear-gradient-10" x1="76.3" y1="10.1" x2="171.97" y2="10.1" xlink:href="#linear-gradient-7"/><linearGradient id="linear-gradient-11" x1="76.3" y1="14.97" x2="171.97" y2="14.97" xlink:href="#linear-gradient-7"/></defs><title>Genepeeks_logo_rev2 RGB</title><path class="cls-1" d="M13.51,13.32A6.38,6.38,0,0,1,14.57,17a6.94,6.94,0,0,1-6.91,6.72c-0.24,0-.59,0-1.1-0.08-0.12,0-.31,0-0.59,0C4.32,25,3.65,25.77,3.65,26.28s0.39,0.63,1.49.63h6.64c3.3,0,4.79,1.3,4.79,4.16,0,4.16-4.28,7.5-9.62,7.5-3.73,0-7-2-7-4.28a4.37,4.37,0,0,1,.55-1.85,12.5,12.5,0,0,1,2.36-3.06c-1.81-.51-2.55-1.1-2.55-2.12s1.1-2.47,3.5-4.44A6.15,6.15,0,0,1,.43,17.17c0-4,2.95-6.8,7.11-6.8a10,10,0,0,1,3.77.75H14l3.22-.27v2.47H13.51Zm-1.73,16.3H5.15l-0.59.9C3.42,32.29,3.06,33,3.06,33.66c0,1.34,1.77,2.28,4.16,2.28,3.61,0,6.87-2.12,6.87-4.52,0-1.22-.75-1.81-2.32-1.81m-4.44-17A4.22,4.22,0,0,0,3.42,17a4.23,4.23,0,0,0,4,4.44,4.15,4.15,0,0,0,4-4.44,4.21,4.21,0,0,0-4-4.44"/><path class="cls-1" d="M22.78,19.48c0,4.32,2.2,7,5.81,7,1.57,0,2.71-.43,4.64-1.77L34.41,27c-2.63,1.65-4.13,2.16-6.44,2.16-4.95,0-8.29-3.77-8.29-9.39s3.34-9.39,8.41-9.39c4.16,0,6.87,2.95,6.87,7.38v1.73H22.78ZM27.89,13c-2.47,0-4.2,1.49-4.87,4.24h8.72c0-2.75-1.41-4.24-3.85-4.24"/><path class="cls-1" d="M51.65,28.64V16a5,5,0,0,0-.27-2.08A1.92,1.92,0,0,0,49.57,13c-1.81,0-3.73,1.34-6.83,4.75V28.64H39.79V10.84h2.95v3.73a17.41,17.41,0,0,1,2.43-2.44,7.5,7.5,0,0,1,4.75-1.77c3.14,0,4.67,1.61,4.67,4.95V28.64H51.65Z"/><path class="cls-1" d="M62.61,19.48c0,4.32,2.2,7,5.81,7,1.57,0,2.71-.43,4.63-1.77L74.24,27c-2.63,1.65-4.12,2.16-6.44,2.16-4.95,0-8.29-3.77-8.29-9.39s3.34-9.39,8.41-9.39c4.16,0,6.87,2.95,6.87,7.38v1.73H62.61ZM67.71,13c-2.47,0-4.2,1.49-4.87,4.24h8.72c0-2.75-1.41-4.24-3.85-4.24"/><path class="cls-2" d="M83.35,22.63c0,1.3.24,1.77,1,2.2a5.6,5.6,0,0,0,2.32.55c2.29,0,4.11-2.21,4.42-5.18H83.35v2.43Z"/><path class="cls-3" d="M86.69,25.37a5.6,5.6,0,0,1-2.32-.55c-0.78-.43-1-0.9-1-2.2V20.2H78.63V37.79h4.71v-9.9a4,4,0,0,0,2.4,1.18,9,9,0,0,0,1.45.12c4.63,0,8.3-3.82,8.81-9h-4.9C90.8,23.17,89,25.37,86.69,25.37Z"/><path class="cls-4" d="M107.11,29.15a14.37,14.37,0,0,0,6-1.3c0.43-.2,1.1-0.51,2-1l-1.73-3.57a12.14,12.14,0,0,1-3.5,1.73,7,7,0,0,1-2.16.31,4.72,4.72,0,0,1-4.09-2.2,5.7,5.7,0,0,1-.63-2.91h12.1v0H98.28C98.37,25.66,101.76,29.15,107.11,29.15Z"/><path class="cls-4" d="M125.49,29.15a14.37,14.37,0,0,0,6-1.3c0.43-.2,1.1-0.51,2-1l-1.73-3.57a12.14,12.14,0,0,1-3.5,1.73,7,7,0,0,1-2.16.31,4.72,4.72,0,0,1-4.09-2.2,5.7,5.7,0,0,1-.63-2.91h12.1v0h-16.8C116.75,25.66,120.14,29.15,125.49,29.15Z"/><rect class="cls-5" x="136.61" y="20.2" width="4.67" height="8.44"/><polygon class="cls-5" points="146.98 28.64 152.32 28.64 146.64 20.2 141.86 20.2 146.98 28.64"/><path class="cls-6" d="M158.88,20.86L162,22.08c1.26,0.47,1.85,1.1,1.85,1.92,0,1-1.06,1.57-2.87,1.57a6.4,6.4,0,0,1-2-.35A15.4,15.4,0,0,1,155,23.29l-1.49,3.81a15,15,0,0,0,4.52,1.69,14.3,14.3,0,0,0,3,.35c4.4,0,7.31-2.2,7.31-5.54a5.39,5.39,0,0,0-1.21-3.41h-9.68A13.56,13.56,0,0,0,158.88,20.86Z"/><path class="cls-7" d="M88.49,9.86a5.67,5.67,0,0,0-3.14.9,8.45,8.45,0,0,0-2,2.08V10.37H78.63V20.2h4.71V16.54c1.14-1.92,2.47-2.87,4-2.87,2.2,0,3.77,2.32,3.77,5.62a8.6,8.6,0,0,1-.05.91H96c0-.4.07-0.81,0.07-1.23C96.07,13.71,92.89,9.86,88.49,9.86Z"/><path class="cls-7" d="M107.42,9.86c-5.22,0-9.15,4.36-9.15,10.13,0,0.07,0,.14,0,0.2h16.8v-2C115.08,13.28,111.94,9.86,107.42,9.86Zm-4.2,7.42c0.39-2.47,1.81-3.89,3.89-3.89s3.14,1.1,3.26,3.89h-7.15Z"/><path class="cls-7" d="M125.81,9.86c-5.22,0-9.15,4.36-9.15,10.13,0,0.07,0,.14,0,0.2h16.8v-2C133.47,13.28,130.32,9.86,125.81,9.86Zm-4.2,7.42c0.39-2.47,1.81-3.89,3.89-3.89s3.14,1.1,3.26,3.89H121.6Z"/><polygon class="cls-8" points="152.24 10.37 146.98 10.37 141.28 18.27 141.28 0 136.61 0 136.61 20.2 141.28 20.2 141.28 19.25 141.86 20.2 146.64 20.2 145.68 18.78 152.24 10.37"/><path class="cls-9" d="M166.46,19.56A30,30,0,0,0,161,17c-1.65-.59-2.28-1.1-2.28-1.93,0-1,1.18-1.73,3-1.73a8.53,8.53,0,0,1,4.2,1.26c0.35,0.2.78,0.47,1.26,0.79l1.49-3.81a10.7,10.7,0,0,0-4-1.53,15.26,15.26,0,0,0-3-.35c-4.44,0-7.42,2.32-7.42,5.73,0,2,1.06,3.54,3.28,4.72h9.68A3.87,3.87,0,0,0,166.46,19.56Z"/></svg>