<svg id="Layer_1" data-name="Layer 1" xmlns="http://www.w3.org/2000/svg" viewBox="0 0 72 72"><defs><style>.cls-1{fill:#f48a84;}.cls-2{fill:#ef6e62;}</style></defs><title>GenePeeks_Iconography_secondary</title><path class="cls-1" d="M51.55543,35.951v9.34836l-9.06036-9.27439,0.07346-.074H39.01185l-1.80134,1.81345a1.63008,1.63008,0,0,1-1.1429.42737H36.06a1.61054,1.61054,0,0,1-1.1476-.44147L33.13483,35.951h-3.5462l0.00523,0.0053-9.14929,9.34417V35.951H17.922V49.63481H54.078V35.951h-2.5226ZM22.20032,47.11221L31.3666,37.75l1.74815,1.76982a4.14044,4.14044,0,0,0,2.93406,1.1946l0.0188,0.00108a4.15142,4.15142,0,0,0,2.93044-1.17l1.71958-1.73079,9.0817,9.29754h-27.599Z"/><polygon class="cls-2" points="20.445 35.951 20.445 26.694 29.589 35.951 33.135 35.951 22.206 24.889 50 24.889 39.012 35.951 42.569 35.951 51.555 26.903 51.555 35.951 54.078 35.951 54.078 22.365 17.922 22.365 17.922 35.951 20.445 35.951"/></svg>