<svg id="Layer_1" data-name="Layer 1" xmlns="http://www.w3.org/2000/svg" viewBox="0 0 68.56565 68.56565"><defs><style>.cls-1{fill:#fff;}.cls-2{fill:#43b391;}.cls-3,.cls-4{fill:#7cc9b0;}.cls-3{opacity:0.5;}</style></defs><title>GenePeeks_Iconography_primary</title><rect class="cls-1" x="11.04135" y="11.04118" width="46.48329" height="46.48329" transform="translate(-14.20036 34.28331) rotate(-45.00043)"/><path class="cls-2" d="M34.28281,2.12133l32.16153,32.1615L34.28281,66.44433,2.12131,34.28283l32.1615-32.1615m0-1.41418L0.7071,34.28283,34.28281,67.85851,67.85856,34.28283,34.28281,0.70714h0Z"/><path class="cls-3" d="M37.72158,41.53612c0.031-.03931.05933-0.08014,0.08984-0.11981a12.015,12.015,0,0,0,.73193-1.07477c0.04272-.07037.08667-0.13934,0.12793-0.21063a11.91937,11.91937,0,0,0,1.13306-2.65729c0.03442-.119.06177-0.24023,0.09277-0.36078q0.13586-.53256.2229-1.08252c0.02173-.137.04565-0.27246,0.06274-0.41095a10.9451,10.9451,0,0,0,0-2.95374c-0.01709-.13849-0.041-0.274-0.06274-0.41095q-0.08716-.55032-0.2229-1.08252c-0.031-.12054-0.05835-0.24176-0.09277-0.36078a11.91937,11.91937,0,0,0-1.13306-2.65729c-0.04126-.07129-0.08521-0.14026-0.12793-0.21063a12.015,12.015,0,0,0-.73193-1.07477c-0.03052-.03967-0.05884-0.08051-0.08984-0.11981a12.04478,12.04478,0,0,0-2.13086-2.10931c-0.01807-.01392-0.03638-0.0271-0.05469-0.04089a12,12,0,1,0,0,19.08765c0.01831-.01379.03662-0.027,0.05469-0.04089A12.04478,12.04478,0,0,0,37.72158,41.53612Z"/><path class="cls-4" d="M40.28283,26.1425a8,8,0,1,1-8,8,8.00909,8.00909,0,0,1,8-8m0-4a12,12,0,1,0,12,12,12,12,0,0,0-12-12h0Z"/></svg>