<svg id="Layer_1" data-name="Layer 1" xmlns="http://www.w3.org/2000/svg" viewBox="0 0 72 72"><defs><style>.cls-1{fill:#ffd456;}.cls-2{fill:#d9aa28;}</style></defs><title>GenePeeks_Iconography_secondary</title><path class="cls-1" d="M41.39862,44.66966a14.13443,14.13443,0,0,0,1.70786-1.45739A10.1659,10.1659,0,0,0,46.27927,36h-20.568V36a10.16251,10.16251,0,0,0,3.17234,7.214,15.28713,15.28713,0,0,0,6.60548,3.82743,11.64933,11.64933,0,0,1,4.96713,2.8622,7.08112,7.08112,0,0,1,1.962,3.41231h-12.841a6.20458,6.20458,0,0,1,.79348-1.94089H40.4953l-2.69576-2.33791H32.5259a11.77728,11.77728,0,0,1,2.0985-1.284A16.68814,16.68814,0,0,1,30.59657,45.81a14.04273,14.04273,0,0,0-1.7083,1.45739,10.15922,10.15922,0,0,0-3.173,7.21168v1.15848h-0.004v2.25841h3.74043V56.07176c0.00045-.01564.00469-0.03023,0.00469-0.046V55.6515H42.54777v0.37428l0.00056,0.00553v1.86463h3.74043V54.47905a10.15955,10.15955,0,0,0-3.1729-7.21168,15.28814,15.28814,0,0,0-6.605-3.82743,11.647,11.647,0,0,1-4.96769-2.8622,7.07916,7.07916,0,0,1-1.96184-3.41694H42.42284a6.15753,6.15753,0,0,1-.79415,1.94084h-10.131l2.69118,2.33791h5.2847a11.867,11.867,0,0,1-2.1032,1.28693A16.60989,16.60989,0,0,1,41.39862,44.66966Z"/><path class="cls-2" d="M46.27949,35.99768a10.16726,10.16726,0,0,0-3.173-7.214,15.28452,15.28452,0,0,0-6.60493-3.82743A11.64516,11.64516,0,0,1,31.53386,22.094a7.07233,7.07233,0,0,1-1.96129-3.41225H42.41346a6.25122,6.25122,0,0,1-.79359,1.94084H31.4952l2.69587,2.33791h5.27554a11.84211,11.84211,0,0,1-2.0985,1.284A16.70448,16.70448,0,0,1,41.401,26.19237a14.03432,14.03432,0,0,0,1.708-1.45739,10.16364,10.16364,0,0,0,3.17279-7.21224V16.36252h0.007V14.10406H42.54833v1.82424c-0.00034.01564-.00458,0.03023-0.00458,0.046v0.37428H29.45167v-2.2445H25.71124V17.521a10.15832,10.15832,0,0,0,3.17234,7.21163,15.28713,15.28713,0,0,0,6.60548,3.82743,11.64315,11.64315,0,0,1,4.96713,2.86226,7.08072,7.08072,0,0,1,1.962,3.4146h-12.841A6.27314,6.27314,0,0,1,30.3684,32.896H40.49776l-2.69185-2.33786H32.52177a11.53681,11.53681,0,0,1,2.10264-1.28631,16.66929,16.66929,0,0,1-4.02783-1.9438,14.09193,14.09193,0,0,0-1.7083,1.458A10.15262,10.15262,0,0,0,25.71124,36h20.568Z"/></svg>