<svg id="Layer_1" data-name="Layer 1" xmlns="http://www.w3.org/2000/svg" viewBox="0 0 72 72"><defs><style>.cls-1{fill:#6bbec3;}.cls-2{fill:#36969f;}</style></defs><title>GenePeeks_Iconography_secondary</title><polygon class="cls-1" points="51.172 39.459 51.172 47.205 44.465 51.076 37.759 47.205 37.759 39.459 40.366 37.954 31.635 37.954 34.242 39.459 34.242 47.205 27.535 51.076 20.828 47.205 20.828 39.459 23.435 37.954 17.311 37.954 17.311 49.236 27.535 55.137 36.001 50.252 44.465 55.137 54.689 49.236 54.689 37.954 48.565 37.954 51.172 39.459"/><path class="cls-2" d="M46.22361,32.5409V22.76582l-10.223-5.90323L25.77639,22.76524V32.5409l-8.46557,4.8874v0.52552h6.12463l4.09926-2.367L30.88848,37.523l0.74606,0.43078H40.3656l0.74649-.43106L44.465,35.58668l4.09955,2.36713h6.12463V37.42829Zm-3.51721.00021-3.35291,1.93614-3.35263,1.93592L32.64709,34.477,29.2936,32.54061V24.79634l6.707-3.87271,6.70582,3.87214v7.74534Z"/></svg>