<?xml version="1.0" encoding="UTF-8" standalone="no"?>
<svg
   xmlns:dc="http://purl.org/dc/elements/1.1/"
   xmlns:cc="http://creativecommons.org/ns#"
   xmlns:rdf="http://www.w3.org/1999/02/22-rdf-syntax-ns#"
   xmlns:svg="http://www.w3.org/2000/svg"
   xmlns="http://www.w3.org/2000/svg"
   height="59"
   width="257.60001"
   xml:space="preserve"
   viewBox="0 0 257.60001 59"
   y="0px"
   x="0px"
   id="Layer_1"
   version="1.1"><metadata
     id="metadata104"><rdf:RDF><cc:Work
         rdf:about=""><dc:format>image/svg+xml</dc:format><dc:type
           rdf:resource="http://purl.org/dc/dcmitype/StillImage" /><dc:title></dc:title></cc:Work></rdf:RDF></metadata><defs
     id="defs102" /><style
     id="style77"
     type="text/css">
	.st0{fill:#50949D;}
</style><g
     transform="translate(-29.5,-24.1)"
     id="g97"><path
       style="fill:#50949d"
       id="path79"
       d="m 50.2,44.4 c 1.1,1.6 1.6,3.4 1.6,5.6 0,5.5 -4.9,10.3 -10.6,10.3 -0.4,0 -0.9,-0.1 -1.7,-0.1 -0.2,0 -0.5,-0.1 -0.9,-0.1 -2.5,2.1 -3.5,3.3 -3.5,4.1 0,0.7 0.6,1 2.3,1 h 10.1 c 5,0 7.3,2 7.3,6.4 0,6.4 -6.5,11.5 -14.7,11.5 -5.7,0 -10.6,-3 -10.6,-6.5 0,-0.8 0.3,-1.7 0.8,-2.8 0.8,-1.5 1.6,-2.5 3.6,-4.7 -2.8,-0.8 -3.9,-1.7 -3.9,-3.2 0,-1.7 1.7,-3.8 5.3,-6.8 -3.4,-1.9 -5.2,-4.9 -5.2,-8.6 0,-6.1 4.5,-10.4 10.9,-10.4 2,0 3.1,0.2 5.8,1.1 H 51 l 4.9,-0.4 v 3.8 H 50.2 Z M 47.6,69.3 H 37.4 l -0.9,1.4 c -1.7,2.7 -2.3,3.8 -2.3,4.8 0,2 2.7,3.5 6.4,3.5 5.5,0 10.5,-3.2 10.5,-6.9 0,-1.9 -1.1,-2.8 -3.5,-2.8 z M 40.8,43.4 c -3.3,0 -6,3.1 -6,6.8 0,3.7 2.7,6.8 6.1,6.8 3.4,0 6.1,-2.9 6.1,-6.8 -0.1,-3.8 -2.8,-6.8 -6.2,-6.8 z"
       class="st0" /><path
       style="fill:#50949d"
       id="path81"
       d="m 64.4,53.9 c 0,6.6 3.4,10.6 8.9,10.6 2.4,0 4.1,-0.7 7.1,-2.7 l 1.8,3.5 c -4,2.5 -6.3,3.3 -9.8,3.3 C 64.8,68.6 59.7,62.8 59.7,54.3 59.7,45.7 64.8,40 72.5,40 78.9,40 83,44.5 83,51.3 v 2.6 z M 72.2,44 c -3.8,0 -6.4,2.3 -7.4,6.5 H 78 C 78,46.3 75.9,44 72.2,44 Z"
       class="st0" /><path
       style="fill:#50949d"
       id="path83"
       d="M 108.5,67.8 V 48.6 c 0,-1.8 -0.1,-2.4 -0.4,-3.2 -0.4,-0.9 -1.5,-1.4 -2.8,-1.4 -2.8,0 -5.7,2 -10.4,7.3 V 67.9 H 90.4 V 40.7 h 4.5 v 5.7 c 1.9,-2.1 2.4,-2.6 3.7,-3.7 2,-1.7 4.7,-2.7 7.3,-2.7 4.8,0 7.1,2.5 7.1,7.6 v 20.3 h -4.5 z"
       class="st0" /><path
       style="fill:#50949d"
       id="path85"
       d="m 125.2,53.9 c 0,6.6 3.4,10.6 8.9,10.6 2.4,0 4.1,-0.7 7.1,-2.7 l 1.8,3.5 c -4,2.5 -6.3,3.3 -9.8,3.3 -7.6,0 -12.7,-5.8 -12.7,-14.3 0,-8.6 5.1,-14.3 12.8,-14.3 6.4,0 10.5,4.5 10.5,11.3 v 2.6 z M 133,44 c -3.8,0 -6.4,2.3 -7.4,6.5 h 13.3 C 138.8,46.3 136.7,44 133,44 Z"
       class="st0" /><path
       style="fill:#50949d"
       id="path87"
       d="m 162.8,68.7 c -0.7,0 -1.5,-0.1 -2.2,-0.2 -1.7,-0.3 -2.3,-0.6 -3.7,-1.8 v 15.1 h -7.2 V 39.9 h 7.2 v 3.8 c 1.4,-1.8 2.1,-2.5 3.1,-3.2 1.4,-0.9 3,-1.4 4.8,-1.4 6.7,0 11.6,5.9 11.6,13.9 -0.1,8.9 -6,15.7 -13.6,15.7 z M 163.1,45 c -2.4,0 -4.4,1.4 -6.2,4.4 v 7.1 2.2 c 0,2 0.4,2.7 1.6,3.4 1,0.5 2.3,0.8 3.5,0.8 3.8,0 6.8,-4.1 6.8,-9.3 0,-5.1 -2.4,-8.6 -5.7,-8.6 z"
       class="st0" /><path
       style="fill:#50949d"
       id="path89"
       d="m 202.4,66.6 c -2.9,1.3 -5.9,2 -9.2,2 -8.3,0 -13.5,-5.5 -13.5,-14 0,-8.8 6,-15.5 14,-15.5 6.9,0 11.7,5.2 11.7,12.8 V 55 h -18.5 c 0.1,2.3 0.3,3.3 1,4.4 1.2,2 3.6,3.4 6.2,3.4 1.1,0 2.2,-0.1 3.3,-0.5 1.7,-0.5 2.8,-1 5.3,-2.6 l 2.6,5.5 c -1.3,0.7 -2.3,1.1 -2.9,1.4 z m -9.2,-22 c -3.2,0 -5.3,2.2 -5.9,5.9 h 10.9 c -0.2,-4.3 -1.7,-5.9 -5,-5.9 z"
       class="st0" /><path
       style="fill:#50949d"
       id="path91"
       d="m 230.4,66.6 c -2.9,1.3 -5.9,2 -9.2,2 -8.3,0 -13.5,-5.5 -13.5,-14 0,-8.8 6,-15.5 14,-15.5 6.9,0 11.7,5.2 11.7,12.8 V 55 H 215 c 0.1,2.3 0.3,3.3 1,4.4 1.2,2 3.6,3.4 6.2,3.4 1.1,0 2.2,-0.1 3.3,-0.5 1.7,-0.5 2.8,-1 5.3,-2.6 l 2.6,5.5 c -1.3,0.7 -2.3,1.1 -3,1.4 z m -9.1,-22 c -3.2,0 -5.3,2.2 -5.9,5.9 h 10.9 c -0.2,-4.3 -1.7,-5.9 -5,-5.9 z"
       class="st0" /><path
       style="fill:#50949d"
       id="path93"
       d="m 254.1,67.8 -8.7,-14.3 v 14.3 h -7.1 V 24.1 h 7.1 V 52 l 8.7,-12.1 h 8 l -10,12.8 10.1,15.1 z"
       class="st0" /><path
       style="fill:#50949d"
       id="path95"
       d="m 284.9,47.7 c -0.7,-0.5 -1.4,-0.9 -1.9,-1.2 -2,-1.2 -4.4,-1.9 -6.4,-1.9 -2.8,0 -4.6,1.1 -4.6,2.6 0,1.3 1,2 3.5,2.9 3.1,1.1 7.1,2.9 8.4,3.8 1.7,1.3 2.9,3.7 2.9,6.2 0,5.1 -4.4,8.5 -11.2,8.5 -1.4,0 -2.9,-0.2 -4.6,-0.5 -2.6,-0.5 -3.8,-1 -6.9,-2.6 l 2.3,-5.8 c 2.8,1.7 4,2.3 6,2.9 1.1,0.4 2.1,0.5 3.1,0.5 2.8,0 4.4,-0.9 4.4,-2.4 0,-1.3 -0.9,-2.2 -2.8,-2.9 l -4.8,-1.9 c -4.9,-1.9 -7.2,-4.5 -7.2,-8.2 0,-5.2 4.6,-8.8 11.3,-8.8 1.3,0 2.9,0.2 4.6,0.5 2.6,0.5 3.6,0.9 6.1,2.3 z"
       class="st0" /></g></svg>