<?xml version="1.0" encoding="utf-8"?>
<!-- Generator: Adobe Illustrator 19.2.1, SVG Export Plug-In . SVG Version: 6.00 Build 0)  -->
<svg version="1.1" id="Layer_1" xmlns="http://www.w3.org/2000/svg" xmlns:xlink="http://www.w3.org/1999/xlink" x="0px" y="0px"
	 viewBox="0 0 168.6 38.6" style="enable-background:new 0 0 168.6 38.6;" xml:space="preserve">
<style type="text/css">
	.st0{fill:#FFFFFF;}
	.st1{fill:none;}
	.st2{fill:url(#SVGID_1_);}
	.st3{fill:url(#SVGID_2_);}
	.st4{fill:url(#SVGID_3_);}
	.st5{fill:url(#SVGID_4_);}
	.st6{fill:url(#SVGID_5_);}
	.st7{fill:url(#SVGID_6_);}
	.st8{fill:url(#SVGID_7_);}
	.st9{fill:url(#SVGID_8_);}
	.st10{fill:url(#SVGID_9_);}
	.st11{fill:url(#SVGID_10_);}
	.st12{fill:url(#SVGID_11_);}
</style>
<path class="st0" d="M13.5,13.3c0.7,1.1,1.1,2.2,1.1,3.7c0,3.6-3.2,6.7-6.9,6.7c-0.2,0-0.6,0-1.1-0.1c-0.1,0-0.3,0-0.6,0
	c-1.6,1.4-2.3,2.2-2.3,2.7c0,0.5,0.4,0.6,1.5,0.6h6.6c3.3,0,4.8,1.3,4.8,4.2c0,4.2-4.3,7.5-9.6,7.5c-3.7,0-7-2-7-4.3
	c0-0.5,0.2-1.1,0.6-1.8c0.5-1,1-1.6,2.4-3.1c-1.8-0.5-2.6-1.1-2.6-2.1c0-1.1,1.1-2.5,3.5-4.4c-2.2-1.2-3.4-3.2-3.4-5.7
	c0-4,2.9-6.8,7.1-6.8c1.3,0,2,0.2,3.8,0.7H14l3.2-0.3v2.5H13.5z M11.8,29.6H5.1l-0.6,0.9c-1.1,1.8-1.5,2.5-1.5,3.1
	c0,1.3,1.8,2.3,4.2,2.3c3.6,0,6.9-2.1,6.9-4.5C14.1,30.2,13.4,29.6,11.8,29.6 M7.3,12.6c-2.2,0-3.9,2-3.9,4.4c0,2.4,1.8,4.4,4,4.4
	c2.2,0,4-1.9,4-4.4C11.4,14.6,9.6,12.6,7.3,12.6"/>
<path class="st0" d="M22.8,19.5c0,4.3,2.2,7,5.8,7c1.6,0,2.7-0.4,4.6-1.8l1.2,2.3c-2.6,1.6-4.1,2.2-6.4,2.2c-4.9,0-8.3-3.8-8.3-9.4
	c0-5.7,3.3-9.4,8.4-9.4c4.2,0,6.9,2.9,6.9,7.4v1.7H22.8z M27.9,13c-2.5,0-4.2,1.5-4.9,4.2h8.7C31.7,14.5,30.3,13,27.9,13"/>
<path class="st0" d="M51.7,28.6V16c0-1.2-0.1-1.6-0.3-2.1c-0.3-0.6-1-0.9-1.8-0.9c-1.8,0-3.7,1.3-6.8,4.8v10.9h-2.9V10.8h2.9v3.7
	c1.2-1.4,1.6-1.7,2.4-2.4c1.3-1.1,3.1-1.8,4.8-1.8c3.1,0,4.7,1.6,4.7,4.9v13.3H51.7z"/>
<path class="st0" d="M62.6,19.5c0,4.3,2.2,7,5.8,7c1.6,0,2.7-0.4,4.6-1.8l1.2,2.3c-2.6,1.6-4.1,2.2-6.4,2.2c-4.9,0-8.3-3.8-8.3-9.4
	c0-5.7,3.3-9.4,8.4-9.4c4.2,0,6.9,2.9,6.9,7.4v1.7H62.6z M67.7,13c-2.5,0-4.2,1.5-4.9,4.2h8.7C71.5,14.5,70.2,13,67.7,13"/>
<path class="st1" d="M83.3,22.6c0,1.3,0.2,1.8,1,2.2c0.6,0.3,1.5,0.5,2.3,0.5c2.3,0,4.1-2.2,4.4-5.2h-7.8v1V22.6z"/>
<g>
	<linearGradient id="SVGID_1_" gradientUnits="userSpaceOnUse" x1="77.6301" y1="28.9924" x2="170.6516" y2="28.9924">
		<stop  offset="0" style="stop-color:#36C3DC"/>
		<stop  offset="0.33" style="stop-color:#7CCAB1"/>
		<stop  offset="0.66" style="stop-color:#FFD457"/>
		<stop  offset="1" style="stop-color:#F27C9F"/>
	</linearGradient>
	<path class="st2" d="M86.7,25.4c-0.8,0-1.7-0.2-2.3-0.5c-0.8-0.4-1-0.9-1-2.2v-1.4v-1h-4.7v17.6h4.7v-9.9c0.9,0.8,1.3,1,2.4,1.2
		c0.5,0.1,1,0.1,1.5,0.1c4.6,0,8.3-3.8,8.8-9h-4.9C90.8,23.2,89,25.4,86.7,25.4z"/>
	<linearGradient id="SVGID_2_" gradientUnits="userSpaceOnUse" x1="77.6301" y1="24.672" x2="170.6516" y2="24.672">
		<stop  offset="0" style="stop-color:#36C3DC"/>
		<stop  offset="0.33" style="stop-color:#7CCAB1"/>
		<stop  offset="0.66" style="stop-color:#FFD457"/>
		<stop  offset="1" style="stop-color:#F27C9F"/>
	</linearGradient>
	<path class="st3" d="M107.1,29.1c2.1,0,4.1-0.4,6-1.3c0.4-0.2,1.1-0.5,2-1l-1.7-3.6c-1.7,1.1-2.4,1.4-3.5,1.7
		c-0.7,0.2-1.5,0.3-2.2,0.3c-1.7,0-3.3-0.9-4.1-2.2c-0.4-0.7-0.5-1.4-0.6-2.9h12.1v0H98.3C98.4,25.7,101.8,29.1,107.1,29.1z"/>
	<linearGradient id="SVGID_3_" gradientUnits="userSpaceOnUse" x1="77.6301" y1="24.672" x2="170.6516" y2="24.672">
		<stop  offset="0" style="stop-color:#36C3DC"/>
		<stop  offset="0.33" style="stop-color:#7CCAB1"/>
		<stop  offset="0.66" style="stop-color:#FFD457"/>
		<stop  offset="1" style="stop-color:#F27C9F"/>
	</linearGradient>
	<path class="st4" d="M125.5,29.1c2.1,0,4.1-0.4,6-1.3c0.4-0.2,1.1-0.5,2-1l-1.7-3.6c-1.7,1.1-2.4,1.4-3.5,1.7
		c-0.7,0.2-1.5,0.3-2.2,0.3c-1.7,0-3.3-0.9-4.1-2.2c-0.4-0.7-0.5-1.4-0.6-2.9h12.1v0h-16.8C116.7,25.7,120.1,29.1,125.5,29.1z"/>
	<linearGradient id="SVGID_4_" gradientUnits="userSpaceOnUse" x1="77.6301" y1="24.4165" x2="170.6516" y2="24.4165">
		<stop  offset="0" style="stop-color:#36C3DC"/>
		<stop  offset="0.33" style="stop-color:#7CCAB1"/>
		<stop  offset="0.66" style="stop-color:#FFD457"/>
		<stop  offset="1" style="stop-color:#F27C9F"/>
	</linearGradient>
	<rect x="136.6" y="20.2" class="st5" width="4.7" height="8.4"/>
	<linearGradient id="SVGID_5_" gradientUnits="userSpaceOnUse" x1="77.6301" y1="24.4165" x2="170.6516" y2="24.4165">
		<stop  offset="0" style="stop-color:#36C3DC"/>
		<stop  offset="0.33" style="stop-color:#7CCAB1"/>
		<stop  offset="0.66" style="stop-color:#FFD457"/>
		<stop  offset="1" style="stop-color:#F27C9F"/>
	</linearGradient>
	<polygon class="st6" points="147,28.6 152.3,28.6 146.6,20.2 141.9,20.2 	"/>
	<linearGradient id="SVGID_6_" gradientUnits="userSpaceOnUse" x1="77.6301" y1="24.6719" x2="170.6516" y2="24.6719">
		<stop  offset="0" style="stop-color:#36C3DC"/>
		<stop  offset="0.33" style="stop-color:#7CCAB1"/>
		<stop  offset="0.66" style="stop-color:#FFD457"/>
		<stop  offset="1" style="stop-color:#F27C9F"/>
	</linearGradient>
	<path class="st7" d="M158.9,20.9l3.1,1.2c1.3,0.5,1.8,1.1,1.8,1.9c0,1-1.1,1.6-2.9,1.6c-0.7,0-1.3-0.1-2-0.4
		c-1.3-0.4-2.1-0.8-3.9-1.9l-1.5,3.8c2,1,2.8,1.3,4.5,1.7c1.1,0.2,2.1,0.4,3,0.4c4.4,0,7.3-2.2,7.3-5.5c0-1.3-0.5-2.5-1.2-3.4h-9.7
		C157.9,20.4,158.3,20.7,158.9,20.9z"/>
</g>
<g>
	<linearGradient id="SVGID_7_" gradientUnits="userSpaceOnUse" x1="76.2967" y1="15.0287" x2="171.9727" y2="15.0287">
		<stop  offset="0" style="stop-color:#12A9CC"/>
		<stop  offset="0.33" style="stop-color:#44B492"/>
		<stop  offset="0.66" style="stop-color:#DAAB28"/>
		<stop  offset="1" style="stop-color:#EA4B72"/>
	</linearGradient>
	<path class="st8" d="M88.5,9.9c-1.2,0-2.2,0.3-3.1,0.9c-0.6,0.4-1.1,0.9-2,2.1v-2.5h-4.7v9.8h4.7v-3.7c1.1-1.9,2.5-2.9,4-2.9
		c2.2,0,3.8,2.3,3.8,5.6c0,0.3,0,0.6-0.1,0.9H96c0-0.4,0.1-0.8,0.1-1.2C96.1,13.7,92.9,9.9,88.5,9.9z"/>
	<linearGradient id="SVGID_8_" gradientUnits="userSpaceOnUse" x1="76.2967" y1="15.0287" x2="171.9727" y2="15.0287">
		<stop  offset="0" style="stop-color:#12A9CC"/>
		<stop  offset="0.33" style="stop-color:#44B492"/>
		<stop  offset="0.66" style="stop-color:#DAAB28"/>
		<stop  offset="1" style="stop-color:#EA4B72"/>
	</linearGradient>
	<path class="st9" d="M107.4,9.9c-5.2,0-9.2,4.4-9.2,10.1c0,0.1,0,0.1,0,0.2h16.8v-2C115.1,13.3,111.9,9.9,107.4,9.9z M103.2,17.3
		c0.4-2.5,1.8-3.9,3.9-3.9c2.2,0,3.1,1.1,3.3,3.9H103.2z"/>
	<linearGradient id="SVGID_9_" gradientUnits="userSpaceOnUse" x1="76.2967" y1="15.0287" x2="171.9727" y2="15.0287">
		<stop  offset="0" style="stop-color:#12A9CC"/>
		<stop  offset="0.33" style="stop-color:#44B492"/>
		<stop  offset="0.66" style="stop-color:#DAAB28"/>
		<stop  offset="1" style="stop-color:#EA4B72"/>
	</linearGradient>
	<path class="st10" d="M125.8,9.9c-5.2,0-9.2,4.4-9.2,10.1c0,0.1,0,0.1,0,0.2h16.8v-2C133.5,13.3,130.3,9.9,125.8,9.9z M121.6,17.3
		c0.4-2.5,1.8-3.9,3.9-3.9c2.2,0,3.1,1.1,3.3,3.9H121.6z"/>
	<linearGradient id="SVGID_10_" gradientUnits="userSpaceOnUse" x1="76.2967" y1="10.0989" x2="171.9727" y2="10.0989">
		<stop  offset="0" style="stop-color:#12A9CC"/>
		<stop  offset="0.33" style="stop-color:#44B492"/>
		<stop  offset="0.66" style="stop-color:#DAAB28"/>
		<stop  offset="1" style="stop-color:#EA4B72"/>
	</linearGradient>
	<polygon class="st11" points="152.2,10.4 147,10.4 141.3,18.3 141.3,0 136.6,0 136.6,20.2 141.3,20.2 141.3,19.2 141.9,20.2 
		146.6,20.2 145.7,18.8 	"/>
	<linearGradient id="SVGID_11_" gradientUnits="userSpaceOnUse" x1="76.2967" y1="14.9697" x2="171.9727" y2="14.9697">
		<stop  offset="0" style="stop-color:#12A9CC"/>
		<stop  offset="0.33" style="stop-color:#44B492"/>
		<stop  offset="0.66" style="stop-color:#DAAB28"/>
		<stop  offset="1" style="stop-color:#EA4B72"/>
	</linearGradient>
	<path class="st12" d="M166.5,19.6c-0.8-0.6-3.5-1.8-5.5-2.5c-1.7-0.6-2.3-1.1-2.3-1.9c0-1,1.2-1.7,3-1.7c1.3,0,2.9,0.5,4.2,1.3
		c0.4,0.2,0.8,0.5,1.3,0.8l1.5-3.8c-1.6-0.9-2.3-1.2-4-1.5c-1.1-0.2-2.2-0.4-3-0.4c-4.4,0-7.4,2.3-7.4,5.7c0,2,1.1,3.5,3.3,4.7h9.7
		C166.9,20,166.7,19.7,166.5,19.6z"/>
</g>
</svg>
