<?xml version="1.0" encoding="utf-8"?>
<!-- Generator: Adobe Illustrator 18.1.1, SVG Export Plug-In . SVG Version: 6.00 Build 0)  -->
<!DOCTYPE svg PUBLIC "-//W3C//DTD SVG 1.1//EN" "http://www.w3.org/Graphics/SVG/1.1/DTD/svg11.dtd">
<svg version="1.1" id="Layer_1" xmlns="http://www.w3.org/2000/svg" xmlns:xlink="http://www.w3.org/1999/xlink" x="0px" y="0px"
	 viewBox="642.6 768.3 396 396" enable-background="new 642.6 768.3 396 396" xml:space="preserve">
<g>
	<g>
		<path fill="#EE3524" d="M661.9,972.5c-4.9,11.3,0.4,24.7,11.7,30c11.3,4.9,25.1-0.4,30-11.7c4.9-11.3-0.4-25.1-11.7-30
			C680.1,955.4,666.7,960.7,661.9,972.5z"/>
		<path fill="#EE3524" d="M691,1081.4c-0.4,0-0.8-0.4-0.8-1.2c-0.8-9.3-1.2-13.8,0-20.7c1.2-8.5,5.3-21.1,9.7-31.2
			c5.3-11.7,12.6-22.3,21.5-30.4c0-12.6,2.4-24.7,7.7-36.5c4.5-10.1,10.9-21.5,16.2-28.4c4.5-5.7,7.3-8.1,15.4-14.2
			c0.4-0.4,0.8-0.4,1.2,0c0,0,0.4,0,0.4,0.4l11.7,13c0.4,0.4,0.4,0.8,0.4,0.8c0,0.4-0.4,0.8-0.4,0.8c-2.4,2-4.5,3.6-5.7,4.9
			l-1.2,1.2c-6.9,6.9-13.8,17-18.6,27.9c-2.4,5.7-4.5,11.3-5.3,16.6c20.3-8.9,42.9-8.9,64.4,0.4c21.5,9.3,37.7,26.3,45,48.2
			c2.4,7.3,4.1,15,4.1,23.1c0,0.4,0,0.8-0.4,0.8c-6.1,5.3-12.6,9.3-19.8,12.6c-20.7,9.3-44.2,9.7-65.6,0
			c-21.5-9.3-37.3-25.9-44.6-46.6c-3.2,4.5-5.7,9.3-8.5,15.4c-4.9,10.9-7.7,22.7-7.7,32.4v1.6c0,2,0,4.5,0.4,7.7
			c0,0.4,0,0.8-0.4,0.8c-0.4,0.4-0.4,0.4-0.8,0.4l-17.4,0.4C691.4,1081.8,691,1081.4,691,1081.4L691,1081.4z M742.9,1007.3
			c0.8,3.6,2.4,7.3,4.1,10.9c6.5,13.4,17.4,23.9,31.2,29.6c18.2,8.1,37.7,7.3,54.3-1.6c-4.9-18.2-17.4-32.8-36.1-40.9
			c-13.4-5.7-28.8-6.9-42.9-2.4C749.4,1004.1,746.1,1005.7,742.9,1007.3L742.9,1007.3z"/>
	</g>
	<g>
		<path fill="#EE3524" d="M785.8,923.8c-3.6,3.2-9.3,2.8-12.6-0.8s-2.8-9.3,0.8-12.6c3.6-3.2,9.3-2.8,12.6,0.8
			C789.9,914.9,789.5,920.6,785.8,923.8z"/>
		<path fill="#EE3524" d="M798.8,908.1c-2.4,2-6.1,2-8.5-0.4c-2-2.4-2-6.1,0.4-8.5c2.4-2,6.1-2,8.5,0.4
			C801.6,902,801.2,905.6,798.8,908.1z"/>
	</g>
</g>
<g>
	<g>
		<path fill="#569BBE" d="M968.5,850.9c-11.3-4.9-24.7,0.4-30,11.7c-4.9,11.3,0.4,24.7,11.7,30c11.3,4.9,24.7-0.4,30-11.7
			C985.1,869.6,979.8,855.8,968.5,850.9z"/>
		<path fill="#569BBE" d="M859.1,880.1c0-0.4,0.4-0.8,1.2-0.8c9.3-0.8,13.8-1.2,20.7,0c8.5,1.2,21.1,5.3,31.2,9.7
			c11.7,5.3,22.3,12.6,30.4,21.5c12.6,0,24.7,2.4,36.5,7.7c10.1,4.5,21.5,10.9,28.4,16.2c5.7,4.5,8.1,7.3,14.2,15.4
			c0.4,0.4,0.4,0.8,0,1.2c0,0,0,0.4-0.4,0.4l-13,11.7c-0.4,0.4-0.8,0.4-0.8,0.4c-0.4,0-0.8-0.4-0.8-0.4c-2-2.4-3.6-4.5-4.9-5.7
			l-0.8-1.2c-6.9-6.9-17-13.8-27.9-18.6c-5.7-2.4-11.3-4.5-16.6-5.3c8.9,20.3,8.9,42.9-0.4,64.4c-9.3,21.5-26.3,37.7-48.2,45
			c-7.3,2.4-15,4.1-23.1,4.1c-0.4,0-0.8,0-1.2-0.4c-5.3-6.1-9.3-12.6-12.6-19.8c-9.3-20.7-9.7-44.2,0-65.6
			c9.3-21.5,25.9-37.3,46.6-44.6c-4.5-3.2-9.3-6.1-15.4-8.5c-10.9-4.9-22.7-7.7-32.4-7.7h-1.6c-2,0-4.5,0-7.3,0.4
			c-0.4,0-0.8,0-0.8-0.4c-0.4-0.4-0.4-0.4-0.4-0.8l-0.4-17.4C859.1,880.5,859.1,880.5,859.1,880.1L859.1,880.1z M933.3,931.9
			c-3.6,0.8-7.3,2.4-10.9,4.1c-13.4,6.5-23.9,17.4-29.6,31.2c-8.1,18.2-7.3,37.7,1.6,54.3c18.2-4.9,32.8-17.4,40.9-36.1
			c5.7-13.4,6.9-28.8,2.4-42.9C936.5,938.8,934.9,935.2,933.3,931.9L933.3,931.9z"/>
	</g>
	<g>
		<path fill="#569BBE" d="M844.6,900.4c4.9,0,8.9-4.1,8.9-8.9c0-4.9-4.1-8.9-8.9-8.9c-4.9,0-8.9,4.1-8.9,8.9
			C835.6,896.7,839.7,900.8,844.6,900.4z"/>
		<circle fill="#569BBE" cx="824.3" cy="891.8" r="6.1"/>
	</g>
</g>
</svg>
