<?xml version="1.0" encoding="utf-8"?>
<!-- Generator: Adobe Illustrator 18.1.1, SVG Export Plug-In . SVG Version: 6.00 Build 0)  -->
<!DOCTYPE svg PUBLIC "-//W3C//DTD SVG 1.1//EN" "http://www.w3.org/Graphics/SVG/1.1/DTD/svg11.dtd">
<svg version="1.1" id="Layer_1" xmlns="http://www.w3.org/2000/svg" xmlns:xlink="http://www.w3.org/1999/xlink" x="0px" y="0px"
	 viewBox="0 0 355.5 145.5" enable-background="new 0 0 355.5 145.5" xml:space="preserve">
<g>
	<g>
		<path d="M42.4,82c1.4,2.1,2.1,4.3,2.1,7.2c0,7-6.2,13-13.4,13c-0.5,0-1.1-0.1-2.1-0.2c-0.2,0-0.6-0.1-1.1-0.1
			c-3.2,2.7-4.5,4.2-4.5,5.2c0,0.9,0.8,1.2,2.9,1.2H39c6.4,0,9.3,2.5,9.3,8.1c0,8.1-8.3,14.6-18.7,14.6c-7.2,0-13.5-3.8-13.5-8.3
			c0-1,0.4-2.2,1.1-3.6c1-1.9,2-3.2,4.6-6c-3.5-1-5-2.1-5-4.1c0-2.2,2.1-4.8,6.8-8.6c-4.3-2.4-6.6-6.2-6.6-11
			c0-7.8,5.7-13.2,13.8-13.2c2.5,0,4,0.3,7.3,1.4h5.3l6.3-0.5V82H42.4z M39,113.7H26.1l-1.1,1.8c-2.2,3.4-2.9,4.8-2.9,6.1
			c0,2.6,3.4,4.4,8.1,4.4c7,0,13.4-4.1,13.4-8.8C43.5,114.8,42.1,113.7,39,113.7z M30.4,80.6c-4.2,0-7.6,3.9-7.6,8.6
			c0,4.7,3.4,8.6,7.7,8.6c4.3,0,7.7-3.7,7.7-8.6C38.2,84.4,34.7,80.6,30.4,80.6z"/>
		<path d="M60.4,94c0,8.4,4.3,13.5,11.3,13.5c3.1,0,5.3-0.8,9-3.4l2.3,4.5c-5.1,3.2-8,4.2-12.5,4.2c-9.6,0-16.1-7.3-16.1-18.2
			c0-11,6.5-18.2,16.3-18.2C78.8,76.3,84,82,84,90.6V94H60.4z M70.3,81.5c-4.8,0-8.2,2.9-9.5,8.2h16.9C77.7,84.4,75,81.5,70.3,81.5z
			"/>
		<path d="M116.5,111.8V87.3c0-2.3-0.2-3.1-0.5-4c-0.5-1.1-1.9-1.8-3.5-1.8c-3.5,0-7.2,2.6-13.3,9.2v21.1h-5.7V77.2h5.7v7.2
			c2.4-2.7,3.1-3.4,4.7-4.7c2.6-2.2,6-3.4,9.2-3.4c6.1,0,9.1,3.1,9.1,9.6v25.9H116.5z"/>
		<path d="M137.7,94c0,8.4,4.3,13.5,11.3,13.5c3.1,0,5.3-0.8,9-3.4l2.3,4.5c-5.1,3.2-8,4.2-12.5,4.2c-9.6,0-16.1-7.3-16.1-18.2
			c0-11,6.5-18.2,16.3-18.2c8.1,0,13.4,5.7,13.4,14.3V94H137.7z M147.7,81.5c-4.8,0-8.2,2.9-9.5,8.2h16.9
			C155.1,84.4,152.4,81.5,147.7,81.5z"/>
	</g>
	<g>
		<path d="M185.5,112.8c-0.9,0-1.9-0.1-2.8-0.2c-2.1-0.4-2.9-0.8-4.7-2.3v19.2h-9.2V76.3h9.2v4.8c1.8-2.3,2.7-3.2,3.9-4
			c1.8-1.1,3.8-1.8,6.1-1.8c8.5,0,14.7,7.5,14.7,17.7C202.8,104.2,195.2,112.8,185.5,112.8z M185.9,82.7c-3.1,0-5.6,1.8-7.9,5.6v9.1
			v2.7c0,2.5,0.5,3.4,2,4.3c1.2,0.6,3,1.1,4.5,1.1c4.9,0,8.7-5.2,8.7-11.8C193.2,87.2,190.2,82.7,185.9,82.7z"/>
		<path d="M235.9,110.2c-3.7,1.7-7.6,2.5-11.7,2.5c-10.5,0-17.2-6.9-17.2-17.8c0-11.2,7.6-19.7,17.8-19.7c8.8,0,14.9,6.6,14.9,16.3
			v3.9h-23.5c0.2,3,0.4,4.2,1.2,5.6c1.5,2.6,4.6,4.3,7.9,4.3c1.4,0,2.7-0.2,4.2-0.6c2.1-0.6,3.5-1.3,6.8-3.4l3.4,6.9
			C238,109.2,236.7,109.8,235.9,110.2z M224.2,82.1c-4,0-6.8,2.7-7.6,7.6h13.9C230.3,84.3,228.5,82.1,224.2,82.1z"/>
		<path d="M271.6,110.2c-3.7,1.7-7.6,2.5-11.7,2.5c-10.5,0-17.2-6.9-17.2-17.8c0-11.2,7.6-19.7,17.8-19.7c8.8,0,14.9,6.6,14.9,16.3
			v3.9h-23.5c0.2,3,0.4,4.2,1.2,5.6c1.5,2.6,4.6,4.3,7.9,4.3c1.4,0,2.7-0.2,4.2-0.6c2.1-0.6,3.5-1.3,6.8-3.4l3.4,6.9
			C273.7,109.2,272.4,109.8,271.6,110.2z M259.9,82.1c-4,0-6.8,2.7-7.6,7.6h13.9C266,84.3,264.2,82.1,259.9,82.1z"/>
		<path d="M301.6,111.8l-11.1-18.2v18.2h-9.1V56.1h9.1v35.5l11.1-15.3h10.2l-12.7,16.3l12.9,19.2H301.6z"/>
		<path d="M340.8,86.1c-0.9-0.6-1.8-1.1-2.4-1.5c-2.5-1.5-5.6-2.4-8.2-2.4c-3.5,0-5.8,1.4-5.8,3.4c0,1.6,1.2,2.6,4.4,3.7
			c4,1.4,9.1,3.7,10.7,4.9c2.2,1.6,3.7,4.7,3.7,7.9c0,6.5-5.6,10.8-14.2,10.8c-1.8,0-3.7-0.2-5.8-0.7c-3.3-0.7-4.9-1.3-8.8-3.3
			l2.9-7.4c3.6,2.2,5,2.9,7.6,3.7c1.4,0.5,2.7,0.7,4,0.7c3.5,0,5.6-1.1,5.6-3.1c0-1.6-1.1-2.8-3.6-3.7l-6.1-2.4
			c-6.3-2.4-9.2-5.7-9.2-10.5c0-6.6,5.8-11.1,14.4-11.1c1.7,0,3.7,0.2,5.9,0.7c3.4,0.7,4.6,1.1,7.8,3L340.8,86.1z"/>
	</g>
</g>
<g>
	<g>
		<path fill="#EE3524" d="M163.4,46.2c-1.2,2.8,0.1,6.1,2.9,7.4c2.8,1.2,6.2-0.1,7.4-2.9c1.2-2.8-0.1-6.2-2.9-7.4
			C167.9,42,164.6,43.3,163.4,46.2z"/>
		<path fill="#EE3524" d="M170.6,73.1c-0.1,0-0.2-0.1-0.2-0.3c-0.2-2.3-0.3-3.4,0-5.1c0.3-2.1,1.3-5.2,2.4-7.7
			c1.3-2.9,3.1-5.5,5.3-7.5c0-3.1,0.6-6.1,1.9-9c1.1-2.5,2.7-5.3,4-7c1.1-1.4,1.8-2,3.8-3.5c0.1-0.1,0.2-0.1,0.3,0
			c0,0,0.1,0,0.1,0.1l2.9,3.2c0.1,0.1,0.1,0.2,0.1,0.2c0,0.1-0.1,0.2-0.1,0.2c-0.6,0.5-1.1,0.9-1.4,1.2l-0.3,0.3
			c-1.7,1.7-3.4,4.2-4.6,6.9c-0.6,1.4-1.1,2.8-1.3,4.1c5-2.2,10.6-2.2,15.9,0.1c5.3,2.3,9.3,6.5,11.1,11.9c0.6,1.8,1,3.7,1,5.7
			c0,0.1,0,0.2-0.1,0.2c-1.5,1.3-3.1,2.3-4.9,3.1c-5.1,2.3-10.9,2.4-16.2,0c-5.3-2.3-9.2-6.4-11-11.5c-0.8,1.1-1.4,2.3-2.1,3.8
			c-1.2,2.7-1.9,5.6-1.9,8l0,0.4c0,0.5,0,1.1,0.1,1.9c0,0.1,0,0.2-0.1,0.2c-0.1,0.1-0.1,0.1-0.2,0.1l-4.3,0.1
			C170.7,73.2,170.6,73.1,170.6,73.1L170.6,73.1z M183.4,54.8c0.2,0.9,0.6,1.8,1,2.7c1.6,3.3,4.3,5.9,7.7,7.3
			c4.5,2,9.3,1.8,13.4-0.4c-1.2-4.5-4.3-8.1-8.9-10.1c-3.3-1.4-7.1-1.7-10.6-0.6C185,54,184.2,54.4,183.4,54.8L183.4,54.8z"/>
	</g>
	<g>
		<path fill="#EE3524" d="M194,34.2c-0.9,0.8-2.3,0.7-3.1-0.2c-0.8-0.9-0.7-2.3,0.2-3.1c0.9-0.8,2.3-0.7,3.1,0.2
			C195,32,194.9,33.4,194,34.2z"/>
		<path fill="#EE3524" d="M197.2,30.3c-0.6,0.5-1.5,0.5-2.1-0.1c-0.5-0.6-0.5-1.5,0.1-2.1c0.6-0.5,1.5-0.5,2.1,0.1
			C197.9,28.8,197.8,29.7,197.2,30.3z"/>
	</g>
</g>
<g>
	<g>
		<path fill="#569BBE" d="M239.1,16.2c-2.8-1.2-6.1,0.1-7.4,2.9c-1.2,2.8,0.1,6.1,2.9,7.4c2.8,1.2,6.1-0.1,7.4-2.9
			C243.2,20.8,241.9,17.4,239.1,16.2z"/>
		<path fill="#569BBE" d="M212.1,23.4c0-0.1,0.1-0.2,0.3-0.2c2.3-0.2,3.4-0.3,5.1,0c2.1,0.3,5.2,1.3,7.7,2.4
			c2.9,1.3,5.5,3.1,7.5,5.3c3.1,0,6.1,0.6,9,1.9c2.5,1.1,5.3,2.7,7,4c1.4,1.1,2,1.8,3.5,3.8c0.1,0.1,0.1,0.2,0,0.3
			c0,0,0,0.1-0.1,0.1l-3.2,2.9c-0.1,0.1-0.2,0.1-0.2,0.1c-0.1,0-0.2-0.1-0.2-0.1c-0.5-0.6-0.9-1.1-1.2-1.4l-0.2-0.3
			c-1.7-1.7-4.2-3.4-6.9-4.6c-1.4-0.6-2.8-1.1-4.1-1.3c2.2,5,2.2,10.6-0.1,15.9c-2.3,5.3-6.5,9.3-11.9,11.1c-1.8,0.6-3.7,1-5.7,1
			c-0.1,0-0.2,0-0.3-0.1c-1.3-1.5-2.3-3.1-3.1-4.9c-2.3-5.1-2.4-10.9,0-16.2c2.3-5.3,6.4-9.2,11.5-11c-1.1-0.8-2.3-1.5-3.8-2.1
			c-2.7-1.2-5.6-1.9-8-1.9l-0.4,0c-0.5,0-1.1,0-1.8,0.1c-0.1,0-0.2,0-0.2-0.1c-0.1-0.1-0.1-0.1-0.1-0.2l-0.1-4.3
			C212.1,23.5,212.1,23.5,212.1,23.4L212.1,23.4z M230.4,36.2c-0.9,0.2-1.8,0.6-2.7,1c-3.3,1.6-5.9,4.3-7.3,7.7
			c-2,4.5-1.8,9.3,0.4,13.4c4.5-1.2,8.1-4.3,10.1-8.9c1.4-3.3,1.7-7.1,0.6-10.6C231.2,37.9,230.8,37,230.4,36.2L230.4,36.2z"/>
	</g>
	<g>
		<path fill="#569BBE" d="M208.5,28.4c1.2,0,2.2-1,2.2-2.2c0-1.2-1-2.2-2.2-2.2c-1.2,0-2.2,1-2.2,2.2
			C206.3,27.5,207.3,28.5,208.5,28.4z"/>
		<circle fill="#569BBE" cx="203.5" cy="26.3" r="1.5"/>
	</g>
</g>
</svg>
