<svg id="Layer_1" data-name="Layer 1" xmlns="http://www.w3.org/2000/svg" viewBox="0 0 277.56689 67.10938"><defs><style>.cls-1{fill:#09a1ba;}.cls-2{fill:#35c1dc;}</style></defs><title>previde</title><path class="cls-1" d="M20.522,12.88867a18.402,18.402,0,0,0-15.3374,7.9209h-.144V13.89648H0V67.10938H5.04053V46.37207h.144A18.49669,18.49669,0,0,0,20.522,54.2207c12.38477,0,21.16943-9.43359,21.16943-20.73828A20.66618,20.66618,0,0,0,20.522,12.88867Zm0,36.79492A15.82791,15.82791,0,0,1,4.75244,33.627,15.94919,15.94919,0,0,1,20.522,17.4248c8.64063,0,16.12939,6.26465,16.12939,16.27344A15.62969,15.62969,0,0,1,20.522,49.68359Z"/><path class="cls-1" d="M50.61523,13.89648h5.04053V19.585h.144c2.37646-5.54395,6.84082-6.4082,11.08887-6.69629V18.2168a12.12141,12.12141,0,0,0-8.49658,3.88867,12.89106,12.89106,0,0,0-2.73633,8.13672v23.042H50.61523Z"/><path class="cls-1" d="M109.52051,22.96973A20.4647,20.4647,0,0,0,91.95117,12.88867,20.82264,20.82264,0,0,0,71.50146,33.627a20.50519,20.50519,0,0,0,39.8916,6.76855h-5.32861c-1.80029,4.89551-6.9126,9.14453-14.11328,9.28809-7.70459,0-14.90527-6.55273-15.26514-14.25684h35.85889A20.73379,20.73379,0,0,0,109.52051,22.96973ZM76.686,30.89063a15.50838,15.50838,0,0,1,30.74658,0Z"/><path class="cls-2" d="M118.66064,13.32031h10.36914l9.64893,26.499h.21582l9.07275-26.499h10.51318L142.27881,53.28418H134.79Z"/><rect class="cls-2" x="166.90088" y="13.32031" width="9.57666" height="39.96387"/><path class="cls-2" d="M227.74414,53.28418h-8.78467V48.3877h-.144c-1.80029,2.87988-5.97656,6.19238-12.74512,6.19238a20.77884,20.77884,0,0,1-20.37793-21.24121,20.89157,20.89157,0,0,1,20.37793-21.38672c5.83252,0,9.28857,1.94434,12.09668,4.89648V0h9.57715Zm-20.666-7.48828c7.20068,0,11.80908-6.48047,11.80908-12.5293,0-6.55273-5.04053-12.5293-11.80908-12.5293-7.12842,0-11.80908,6.625-11.80908,12.24121C195.269,40.39551,200.81348,45.7959,207.07813,45.7959Z"/><path class="cls-2" d="M245.95605,37.58691c.43213,2.5918,4.17627,8.209,11.01709,8.209,4.24854,0,7.4165-1.80078,9.2168-5.11328H276.271a20.74709,20.74709,0,0,1-19.29785,13.89746,21.00544,21.00544,0,0,1-21.09766-21.16992c0-11.30469,8.7124-21.67383,21.02539-21.67383,12.67334,0,20.666,10.94531,20.666,21.02637a22.11732,22.11732,0,0,1-.57617,4.82422Zm21.81787-7.70508a10.71469,10.71469,0,0,0-10.80078-9.36035A11.5682,11.5682,0,0,0,245.668,29.88184Z"/></svg>