<?xml version="1.0" encoding="utf-8"?>
<!-- Generator: Adobe Illustrator 19.2.1, SVG Export Plug-In . SVG Version: 6.00 Build 0)  -->
<svg version="1.1" id="Layer_1" xmlns="http://www.w3.org/2000/svg" xmlns:xlink="http://www.w3.org/1999/xlink" x="0px" y="0px"
	 viewBox="0 0 481.1 512" style="enable-background:new 0 0 481.1 512;" xml:space="preserve">
<style type="text/css">
	.st0{fill:#FFFFFF;stroke:#ADC1D4;stroke-width:0.5;stroke-miterlimit:10;}
	.st1{opacity:0.4;}
	.st2{fill:#34C2DD;}
	.st3{opacity:0.15;}
	.st4{fill:#98A9BA;}
	.st5{fill:#7DC9AF;}
	.st6{fill:#FFD256;}
	.st7{fill:#AD8ABF;}
	.st8{opacity:0.15;fill:#ADC1D4;}
	.st9{fill:#9470B0;}
	.st10{fill:#05A9CC;}
	.st11{fill:#5561AB;}
	.st12{fill:#5975B9;}
	.st13{fill:#5379BC;}
	.st14{fill:#2E86C6;}
	.st15{fill:#3AC1CC;}
	.st16{fill:#25BDBD;}
	.st17{fill:#59C09E;}
	.st18{fill:#00A99D;}
	.st19{fill:#03858D;}
	.st20{fill:#43B391;}
	.st21{fill:#88D0C6;}
	.st22{fill:#69C6B9;}
	.st23{fill:#1B97CD;}
	.st24{fill:#5091CD;}
	.st25{fill:#668FCA;}
	.st26{fill:#6776B9;}
	.st27{fill:#8D91C6;}
	.st28{fill:#0EA2B1;}
	.st29{fill:#AE8BC0;}
	.st30{fill:#9671B1;}
	.st31{fill:#7B8FA2;}
	.st32{fill:none;}
	.st33{font-family:'Gotham-Bold';}
	.st34{font-size:10.2094px;}
	.st35{opacity:0.8;}
	.st36{fill:#00A8CB;}
	.st37{opacity:0.8;fill:#00A8CB;}
	.st38{opacity:0.6;fill:#00A8CB;}
	.st39{fill:#ADC1D4;}
	.st40{opacity:0.7;fill:#42B290;}
	.st41{opacity:0.7;}
	.st42{fill:#42B290;}
	.st43{fill:#AFC6DA;}
</style>
<path class="st0" d="M466.8,139.8h-101c-6.6,0-12-5.4-12-12v-4.3c0-6.6,5.4-12,12-12h101c6.6,0,12,5.4,12,12v4.3
	C478.8,134.4,473.4,139.8,466.8,139.8z"/>
<path class="st0" d="M105.2,139.8H14.6c-6.6,0-12-5.4-12-12v-4.3c0-6.6,5.4-12,12-12h90.6c6.6,0,12,5.4,12,12v4.3
	C117.2,134.4,111.8,139.8,105.2,139.8z"/>
<path class="st0" d="M328.6,67.3h-75.1c-6.6,0-12-5.4-12-12v-4.3c0-6.6,5.4-12,12-12h75.1c6.6,0,12,5.4,12,12v4.3
	C340.6,61.9,335.2,67.3,328.6,67.3z"/>
<path class="st0" d="M222.8,67.3h-75.1c-6.6,0-12-5.4-12-12v-4.3c0-6.6,5.4-12,12-12h75.1c6.6,0,12,5.4,12,12v4.3
	C234.8,61.9,229.4,67.3,222.8,67.3z"/>
<g transform="translate(-510 -500)" class="st1">
	<g>
		<circle class="st2" cx="589.6" cy="713.6" r="5.4"/>
		<g>
			<path class="st2" d="M584.2,732.8L584.2,732.8l-3.3,3.3c-1.1,1.1-1.1,2.8,0,3.8l4,4c0.8,0.8,2.1,0.8,2.9,0c0.8-0.8,0.8-2.1,0-2.9
				l-2.1-2.1l2.4-2.4h0L584.2,732.8z"/>
			<path class="st2" d="M591.1,736.6L591.1,736.6l2.4,2.4l-2.1,2.1c-0.8,0.8-0.8,2.1,0,2.9c0.8,0.8,2.1,0.8,2.9,0l4-4
				c1.1-1.1,1.1-2.8,0-3.8l-3.3-3.3v0L591.1,736.6z"/>
			<path class="st2" d="M601.8,727.7L595,721c-0.4-0.4-0.9-0.6-1.4-0.6h-8.1c-0.5,0-1.1,0.2-1.4,0.6l-6.7,6.7
				c-0.8,0.8-0.8,2.1,0,2.9c0.4,0.4,0.9,0.6,1.4,0.6s1-0.2,1.4-0.6l4-4v3.2H595v-3.2l4,4c0.4,0.4,0.9,0.6,1.4,0.6
				c0.5,0,1-0.2,1.4-0.6C602.6,729.8,602.6,728.5,601.8,727.7z"/>
		</g>
	</g>
</g>
<g transform="translate(-510 -500)" class="st3">
	<g>
		<circle class="st4" cx="621.4" cy="713.6" r="5.4"/>
		<g>
			<path class="st4" d="M616,732.8L616,732.8l-3.3,3.3c-1.1,1.1-1.1,2.8,0,3.8l4,4c0.8,0.8,2.1,0.8,2.9,0c0.8-0.8,0.8-2.1,0-2.9
				l-2.1-2.1l2.4-2.4h0L616,732.8z"/>
			<path class="st4" d="M623,736.6L623,736.6l2.4,2.4l-2.1,2.1c-0.8,0.8-0.8,2.1,0,2.9c0.8,0.8,2.1,0.8,2.9,0l4-4
				c1.1-1.1,1.1-2.8,0-3.8l-3.3-3.3v0L623,736.6z"/>
			<path class="st4" d="M633.7,727.7l-6.7-6.7c-0.4-0.4-0.9-0.6-1.4-0.6h-8.1c-0.5,0-1.1,0.2-1.4,0.6l-6.7,6.7
				c-0.8,0.8-0.8,2.1,0,2.9c0.4,0.4,0.9,0.6,1.4,0.6c0.5,0,1-0.2,1.4-0.6l4-4v3.2h10.8v-3.2l4,4c0.4,0.4,0.9,0.6,1.4,0.6
				s1-0.2,1.4-0.6C634.4,729.8,634.4,728.5,633.7,727.7z"/>
		</g>
	</g>
</g>
<g transform="translate(-510 -500)" class="st3">
	<g>
		<circle class="st4" cx="653.3" cy="713.6" r="5.4"/>
		<g>
			<path class="st4" d="M647.9,732.8L647.9,732.8l-3.3,3.3c-1.1,1.1-1.1,2.8,0,3.8l4,4c0.8,0.8,2.1,0.8,2.9,0c0.8-0.8,0.8-2.1,0-2.9
				l-2.1-2.1l2.4-2.4h0L647.9,732.8z"/>
			<path class="st4" d="M654.8,736.6L654.8,736.6l2.4,2.4l-2.1,2.1c-0.8,0.8-0.8,2.1,0,2.9c0.8,0.8,2.1,0.8,2.9,0l4-4
				c1.1-1.1,1.1-2.8,0-3.8l-3.3-3.3v0L654.8,736.6z"/>
			<path class="st4" d="M665.5,727.7l-6.7-6.7c-0.4-0.4-0.9-0.6-1.4-0.6h-8.1c-0.5,0-1.1,0.2-1.4,0.6l-6.7,6.7
				c-0.8,0.8-0.8,2.1,0,2.9c0.4,0.4,0.9,0.6,1.4,0.6s1-0.2,1.4-0.6l4-4v3.2h10.8v-3.2l4,4c0.4,0.4,0.9,0.6,1.4,0.6
				c0.5,0,1-0.2,1.4-0.6C666.3,729.8,666.3,728.5,665.5,727.7z"/>
		</g>
	</g>
</g>
<g transform="translate(-510 -500)" class="st3">
	<g>
		<circle class="st4" cx="685.2" cy="713.6" r="5.4"/>
		<g>
			<path class="st4" d="M679.8,732.8L679.8,732.8l-3.3,3.3c-1.1,1.1-1.1,2.8,0,3.8l4,4c0.8,0.8,2.1,0.8,2.9,0c0.8-0.8,0.8-2.1,0-2.9
				l-2.1-2.1l2.4-2.4h0L679.8,732.8z"/>
			<path class="st4" d="M686.7,736.6L686.7,736.6l2.4,2.4l-2.1,2.1c-0.8,0.8-0.8,2.1,0,2.9c0.8,0.8,2.1,0.8,2.9,0l4-4
				c1.1-1.1,1.1-2.8,0-3.8l-3.3-3.3v0L686.7,736.6z"/>
			<path class="st4" d="M697.4,727.7l-6.7-6.7c-0.4-0.4-0.9-0.6-1.4-0.6h-8.1c-0.5,0-1.1,0.2-1.4,0.6l-6.7,6.7
				c-0.8,0.8-0.8,2.1,0,2.9c0.4,0.4,0.9,0.6,1.4,0.6c0.5,0,1-0.2,1.4-0.6l4-4v3.2h10.8v-3.2l4,4c0.4,0.4,0.9,0.6,1.4,0.6
				s1-0.2,1.4-0.6C698.2,729.8,698.2,728.5,697.4,727.7z"/>
		</g>
	</g>
</g>
<g transform="translate(-510 -500)" class="st3">
	<g>
		<circle class="st4" cx="589.6" cy="754.6" r="5.4"/>
		<g>
			<path class="st4" d="M584.2,773.7L584.2,773.7l-3.3,3.3c-1.1,1.1-1.1,2.8,0,3.8l4,4c0.8,0.8,2.1,0.8,2.9,0c0.8-0.8,0.8-2.1,0-2.9
				l-2.1-2.1l2.4-2.4h0L584.2,773.7z"/>
			<path class="st4" d="M591.1,777.5L591.1,777.5l2.4,2.4l-2.1,2.1c-0.8,0.8-0.8,2.1,0,2.9c0.8,0.8,2.1,0.8,2.9,0l4-4
				c1.1-1.1,1.1-2.8,0-3.8l-3.3-3.3v0L591.1,777.5z"/>
			<path class="st4" d="M601.8,768.6l-6.7-6.7c-0.4-0.4-0.9-0.6-1.4-0.6h-8.1c-0.5,0-1.1,0.2-1.4,0.6l-6.7,6.7
				c-0.8,0.8-0.8,2.1,0,2.9c0.4,0.4,0.9,0.6,1.4,0.6s1-0.2,1.4-0.6l4-4v3.2H595v-3.2l4,4c0.4,0.4,0.9,0.6,1.4,0.6
				c0.5,0,1-0.2,1.4-0.6C602.6,770.7,602.6,769.4,601.8,768.6z"/>
		</g>
	</g>
</g>
<g transform="translate(-510 -500)" class="st3">
	<g>
		<circle class="st4" cx="621.4" cy="754.6" r="5.4"/>
		<g>
			<path class="st4" d="M616,773.7L616,773.7l-3.3,3.3c-1.1,1.1-1.1,2.8,0,3.8l4,4c0.8,0.8,2.1,0.8,2.9,0c0.8-0.8,0.8-2.1,0-2.9
				l-2.1-2.1l2.4-2.4h0L616,773.7z"/>
			<path class="st4" d="M623,777.5L623,777.5l2.4,2.4l-2.1,2.1c-0.8,0.8-0.8,2.1,0,2.9c0.8,0.8,2.1,0.8,2.9,0l4-4
				c1.1-1.1,1.1-2.8,0-3.8l-3.3-3.3v0L623,777.5z"/>
			<path class="st4" d="M633.7,768.6l-6.7-6.7c-0.4-0.4-0.9-0.6-1.4-0.6h-8.1c-0.5,0-1.1,0.2-1.4,0.6l-6.7,6.7
				c-0.8,0.8-0.8,2.1,0,2.9c0.4,0.4,0.9,0.6,1.4,0.6c0.5,0,1-0.2,1.4-0.6l4-4v3.2h10.8v-3.2l4,4c0.4,0.4,0.9,0.6,1.4,0.6
				s1-0.2,1.4-0.6C634.4,770.7,634.4,769.4,633.7,768.6z"/>
		</g>
	</g>
</g>
<g transform="translate(-510 -500)" class="st3">
	<g>
		<circle class="st4" cx="653.3" cy="754.6" r="5.4"/>
		<g>
			<path class="st4" d="M647.9,773.7L647.9,773.7l-3.3,3.3c-1.1,1.1-1.1,2.8,0,3.8l4,4c0.8,0.8,2.1,0.8,2.9,0c0.8-0.8,0.8-2.1,0-2.9
				l-2.1-2.1l2.4-2.4h0L647.9,773.7z"/>
			<path class="st4" d="M654.8,777.5L654.8,777.5l2.4,2.4l-2.1,2.1c-0.8,0.8-0.8,2.1,0,2.9c0.8,0.8,2.1,0.8,2.9,0l4-4
				c1.1-1.1,1.1-2.8,0-3.8l-3.3-3.3v0L654.8,777.5z"/>
			<path class="st4" d="M665.5,768.6l-6.7-6.7c-0.4-0.4-0.9-0.6-1.4-0.6h-8.1c-0.5,0-1.1,0.2-1.4,0.6l-6.7,6.7
				c-0.8,0.8-0.8,2.1,0,2.9c0.4,0.4,0.9,0.6,1.4,0.6s1-0.2,1.4-0.6l4-4v3.2h10.8v-3.2l4,4c0.4,0.4,0.9,0.6,1.4,0.6
				c0.5,0,1-0.2,1.4-0.6C666.3,770.7,666.3,769.4,665.5,768.6z"/>
		</g>
	</g>
</g>
<g transform="translate(-510 -500)" class="st3">
	<g>
		<circle class="st4" cx="685.2" cy="754.6" r="5.4"/>
		<g>
			<path class="st4" d="M679.8,773.7L679.8,773.7l-3.3,3.3c-1.1,1.1-1.1,2.8,0,3.8l4,4c0.8,0.8,2.1,0.8,2.9,0c0.8-0.8,0.8-2.1,0-2.9
				l-2.1-2.1l2.4-2.4h0L679.8,773.7z"/>
			<path class="st4" d="M686.7,777.5L686.7,777.5l2.4,2.4L687,782c-0.8,0.8-0.8,2.1,0,2.9c0.8,0.8,2.1,0.8,2.9,0l4-4
				c1.1-1.1,1.1-2.8,0-3.8l-3.3-3.3v0L686.7,777.5z"/>
			<path class="st4" d="M697.4,768.6l-6.7-6.7c-0.4-0.4-0.9-0.6-1.4-0.6h-8.1c-0.5,0-1.1,0.2-1.4,0.6l-6.7,6.7
				c-0.8,0.8-0.8,2.1,0,2.9c0.4,0.4,0.9,0.6,1.4,0.6c0.5,0,1-0.2,1.4-0.6l4-4v3.2h10.8v-3.2l4,4c0.4,0.4,0.9,0.6,1.4,0.6
				s1-0.2,1.4-0.6C698.2,770.7,698.2,769.4,697.4,768.6z"/>
		</g>
	</g>
</g>
<g transform="translate(-510 -500)" class="st3">
	<g>
		<circle class="st4" cx="589.6" cy="796" r="5.4"/>
		<g>
			<path class="st4" d="M584.2,815.2L584.2,815.2l-3.3,3.3c-1.1,1.1-1.1,2.8,0,3.8l4,4c0.8,0.8,2.1,0.8,2.9,0c0.8-0.8,0.8-2.1,0-2.9
				l-2.1-2.1l2.4-2.4h0L584.2,815.2z"/>
			<path class="st4" d="M591.1,818.9L591.1,818.9l2.4,2.4l-2.1,2.1c-0.8,0.8-0.8,2.1,0,2.9c0.8,0.8,2.1,0.8,2.9,0l4-4
				c1.1-1.1,1.1-2.8,0-3.8l-3.3-3.3v0L591.1,818.9z"/>
			<path class="st4" d="M601.8,810.1l-6.7-6.7c-0.4-0.4-0.9-0.6-1.4-0.6h-8.1c-0.5,0-1.1,0.2-1.4,0.6l-6.7,6.7
				c-0.8,0.8-0.8,2.1,0,2.9c0.4,0.4,0.9,0.6,1.4,0.6s1-0.2,1.4-0.6l4-4v3.2H595V809l4,4c0.4,0.4,0.9,0.6,1.4,0.6
				c0.5,0,1-0.2,1.4-0.6C602.6,812.1,602.6,810.9,601.8,810.1z"/>
		</g>
	</g>
</g>
<g transform="translate(-510 -500)" class="st3">
	<g>
		<circle class="st4" cx="621.4" cy="796" r="5.4"/>
		<g>
			<path class="st4" d="M616,815.2L616,815.2l-3.3,3.3c-1.1,1.1-1.1,2.8,0,3.8l4,4c0.8,0.8,2.1,0.8,2.9,0c0.8-0.8,0.8-2.1,0-2.9
				l-2.1-2.1l2.4-2.4h0L616,815.2z"/>
			<path class="st4" d="M623,818.9L623,818.9l2.4,2.4l-2.1,2.1c-0.8,0.8-0.8,2.1,0,2.9c0.8,0.8,2.1,0.8,2.9,0l4-4
				c1.1-1.1,1.1-2.8,0-3.8l-3.3-3.3v0L623,818.9z"/>
			<path class="st4" d="M633.7,810.1l-6.7-6.7c-0.4-0.4-0.9-0.6-1.4-0.6h-8.1c-0.5,0-1.1,0.2-1.4,0.6l-6.7,6.7
				c-0.8,0.8-0.8,2.1,0,2.9c0.4,0.4,0.9,0.6,1.4,0.6c0.5,0,1-0.2,1.4-0.6l4-4v3.2h10.8V809l4,4c0.4,0.4,0.9,0.6,1.4,0.6
				s1-0.2,1.4-0.6C634.4,812.1,634.4,810.9,633.7,810.1z"/>
		</g>
	</g>
</g>
<g transform="translate(-510 -500)" class="st1">
	<g>
		<circle class="st5" cx="653.3" cy="796" r="5.4"/>
		<g>
			<path class="st5" d="M647.9,815.2L647.9,815.2l-3.3,3.3c-1.1,1.1-1.1,2.8,0,3.8l4,4c0.8,0.8,2.1,0.8,2.9,0c0.8-0.8,0.8-2.1,0-2.9
				l-2.1-2.1l2.4-2.4h0L647.9,815.2z"/>
			<path class="st5" d="M654.8,818.9L654.8,818.9l2.4,2.4l-2.1,2.1c-0.8,0.8-0.8,2.1,0,2.9c0.8,0.8,2.1,0.8,2.9,0l4-4
				c1.1-1.1,1.1-2.8,0-3.8l-3.3-3.3v0L654.8,818.9z"/>
			<path class="st5" d="M665.5,810.1l-6.7-6.7c-0.4-0.4-0.9-0.6-1.4-0.6h-8.1c-0.5,0-1.1,0.2-1.4,0.6l-6.7,6.7
				c-0.8,0.8-0.8,2.1,0,2.9c0.4,0.4,0.9,0.6,1.4,0.6s1-0.2,1.4-0.6l4-4v3.2h10.8V809l4,4c0.4,0.4,0.9,0.6,1.4,0.6
				c0.5,0,1-0.2,1.4-0.6C666.3,812.1,666.3,810.9,665.5,810.1z"/>
		</g>
	</g>
</g>
<g transform="translate(-510 -500)" class="st3">
	<g>
		<circle class="st4" cx="685.2" cy="796" r="5.4"/>
		<g>
			<path class="st4" d="M679.8,815.2L679.8,815.2l-3.3,3.3c-1.1,1.1-1.1,2.8,0,3.8l4,4c0.8,0.8,2.1,0.8,2.9,0c0.8-0.8,0.8-2.1,0-2.9
				l-2.1-2.1l2.4-2.4h0L679.8,815.2z"/>
			<path class="st4" d="M686.7,818.9L686.7,818.9l2.4,2.4l-2.1,2.1c-0.8,0.8-0.8,2.1,0,2.9c0.8,0.8,2.1,0.8,2.9,0l4-4
				c1.1-1.1,1.1-2.8,0-3.8l-3.3-3.3v0L686.7,818.9z"/>
			<path class="st4" d="M697.4,810.1l-6.7-6.7c-0.4-0.4-0.9-0.6-1.4-0.6h-8.1c-0.5,0-1.1,0.2-1.4,0.6l-6.7,6.7
				c-0.8,0.8-0.8,2.1,0,2.9c0.4,0.4,0.9,0.6,1.4,0.6c0.5,0,1-0.2,1.4-0.6l4-4v3.2h10.8V809l4,4c0.4,0.4,0.9,0.6,1.4,0.6
				s1-0.2,1.4-0.6C698.2,812.1,698.2,810.9,697.4,810.1z"/>
		</g>
	</g>
</g>
<g transform="translate(-510 -500)" class="st3">
	<g>
		<circle class="st4" cx="717" cy="713.6" r="5.4"/>
		<g>
			<path class="st4" d="M711.6,732.8L711.6,732.8l-3.3,3.3c-1.1,1.1-1.1,2.8,0,3.8l4,4c0.8,0.8,2.1,0.8,2.9,0c0.8-0.8,0.8-2.1,0-2.9
				l-2.1-2.1l2.4-2.4h0L711.6,732.8z"/>
			<path class="st4" d="M718.6,736.6L718.6,736.6l2.4,2.4l-2.1,2.1c-0.8,0.8-0.8,2.1,0,2.9c0.8,0.8,2.1,0.8,2.9,0l4-4
				c1.1-1.1,1.1-2.8,0-3.8l-3.3-3.3v0L718.6,736.6z"/>
			<path class="st4" d="M729.3,727.7l-6.7-6.7c-0.4-0.4-0.9-0.6-1.4-0.6H713c-0.5,0-1.1,0.2-1.4,0.6l-6.7,6.7
				c-0.8,0.8-0.8,2.1,0,2.9c0.4,0.4,0.9,0.6,1.4,0.6s1-0.2,1.4-0.6l4-4v3.2h10.8v-3.2l4,4c0.4,0.4,0.9,0.6,1.4,0.6s1-0.2,1.4-0.6
				C730,729.8,730,728.5,729.3,727.7z"/>
		</g>
	</g>
</g>
<g transform="translate(-510 -500)" class="st3">
	<g>
		<circle class="st4" cx="748.9" cy="713.6" r="5.4"/>
		<g>
			<path class="st4" d="M743.5,732.8L743.5,732.8l-3.3,3.3c-1.1,1.1-1.1,2.8,0,3.8l4,4c0.8,0.8,2.1,0.8,2.9,0c0.8-0.8,0.8-2.1,0-2.9
				L745,739l2.4-2.4h0L743.5,732.8z"/>
			<path class="st4" d="M750.4,736.6L750.4,736.6l2.4,2.4l-2.1,2.1c-0.8,0.8-0.8,2.1,0,2.9c0.8,0.8,2.1,0.8,2.9,0l4-4
				c1.1-1.1,1.1-2.8,0-3.8l-3.3-3.3v0L750.4,736.6z"/>
			<path class="st4" d="M761.1,727.7l-6.7-6.7c-0.4-0.4-0.9-0.6-1.4-0.6h-8.1c-0.5,0-1.1,0.2-1.4,0.6l-6.7,6.7
				c-0.8,0.8-0.8,2.1,0,2.9c0.4,0.4,0.9,0.6,1.4,0.6s1-0.2,1.4-0.6l4-4v3.2h10.8v-3.2l4,4c0.4,0.4,0.9,0.6,1.4,0.6
				c0.5,0,1-0.2,1.4-0.6C761.9,729.8,761.9,728.5,761.1,727.7z"/>
		</g>
	</g>
</g>
<g transform="translate(-510 -500)" class="st3">
	<g>
		<circle class="st4" cx="780.8" cy="713.6" r="5.4"/>
		<g>
			<path class="st4" d="M775.4,732.8L775.4,732.8l-3.3,3.3c-1.1,1.1-1.1,2.8,0,3.8l4,4c0.8,0.8,2.1,0.8,2.9,0c0.8-0.8,0.8-2.1,0-2.9
				l-2.1-2.1l2.4-2.4h0L775.4,732.8z"/>
			<path class="st4" d="M782.3,736.6L782.3,736.6l2.4,2.4l-2.1,2.1c-0.8,0.8-0.8,2.1,0,2.9c0.8,0.8,2.1,0.8,2.9,0l4-4
				c1.1-1.1,1.1-2.8,0-3.8l-3.3-3.3v0L782.3,736.6z"/>
			<path class="st4" d="M793,727.7l-6.7-6.7c-0.4-0.4-0.9-0.6-1.4-0.6h-8.1c-0.5,0-1.1,0.2-1.4,0.6l-6.7,6.7c-0.8,0.8-0.8,2.1,0,2.9
				c0.4,0.4,0.9,0.6,1.4,0.6c0.5,0,1-0.2,1.4-0.6l4-4v3.2h10.8v-3.2l4,4c0.4,0.4,0.9,0.6,1.4,0.6s1-0.2,1.4-0.6
				C793.8,729.8,793.8,728.5,793,727.7z"/>
		</g>
	</g>
</g>
<g transform="translate(-510 -500)" class="st3">
	<g>
		<circle class="st4" cx="812.6" cy="713.6" r="5.4"/>
		<g>
			<path class="st4" d="M807.2,732.8L807.2,732.8l-3.3,3.3c-1.1,1.1-1.1,2.8,0,3.8l4,4c0.8,0.8,2.1,0.8,2.9,0c0.8-0.8,0.8-2.1,0-2.9
				l-2.1-2.1l2.4-2.4h0L807.2,732.8z"/>
			<path class="st4" d="M814.2,736.6L814.2,736.6l2.4,2.4l-2.1,2.1c-0.8,0.8-0.8,2.1,0,2.9c0.8,0.8,2.1,0.8,2.9,0l4-4
				c1.1-1.1,1.1-2.8,0-3.8l-3.3-3.3v0L814.2,736.6z"/>
			<path class="st4" d="M824.9,727.7l-6.7-6.7c-0.4-0.4-0.9-0.6-1.4-0.6h-8.1c-0.5,0-1.1,0.2-1.4,0.6l-6.7,6.7
				c-0.8,0.8-0.8,2.1,0,2.9c0.4,0.4,0.9,0.6,1.4,0.6s1-0.2,1.4-0.6l4-4v3.2H818v-3.2l4,4c0.4,0.4,0.9,0.6,1.4,0.6
				c0.5,0,1-0.2,1.4-0.6C825.6,729.8,825.6,728.5,824.9,727.7z"/>
		</g>
	</g>
</g>
<g transform="translate(-510 -500)" class="st3">
	<g>
		<circle class="st4" cx="844.5" cy="713.6" r="5.4"/>
		<g>
			<path class="st4" d="M839.1,732.8L839.1,732.8l-3.3,3.3c-1.1,1.1-1.1,2.8,0,3.8l4,4c0.8,0.8,2.1,0.8,2.9,0c0.8-0.8,0.8-2.1,0-2.9
				l-2.1-2.1l2.4-2.4h0L839.1,732.8z"/>
			<path class="st4" d="M846,736.6L846,736.6l2.4,2.4l-2.1,2.1c-0.8,0.8-0.8,2.1,0,2.9c0.8,0.8,2.1,0.8,2.9,0l4-4
				c1.1-1.1,1.1-2.8,0-3.8l-3.3-3.3v0L846,736.6z"/>
			<path class="st4" d="M856.7,727.7L850,721c-0.4-0.4-0.9-0.6-1.4-0.6h-8.1c-0.5,0-1.1,0.2-1.4,0.6l-6.7,6.7
				c-0.8,0.8-0.8,2.1,0,2.9c0.4,0.4,0.9,0.6,1.4,0.6c0.5,0,1-0.2,1.4-0.6l4-4v3.2h10.8v-3.2l4,4c0.4,0.4,0.9,0.6,1.4,0.6
				s1-0.2,1.4-0.6C857.5,729.8,857.5,728.5,856.7,727.7z"/>
		</g>
	</g>
</g>
<g transform="translate(-510 -500)" class="st3">
	<g>
		<circle class="st4" cx="876.4" cy="713.6" r="5.4"/>
		<g>
			<path class="st4" d="M871,732.8L871,732.8l-3.3,3.3c-1.1,1.1-1.1,2.8,0,3.8l4,4c0.8,0.8,2.1,0.8,2.9,0c0.8-0.8,0.8-2.1,0-2.9
				l-2.1-2.1l2.4-2.4h0L871,732.8z"/>
			<path class="st4" d="M877.9,736.6L877.9,736.6l2.4,2.4l-2.1,2.1c-0.8,0.8-0.8,2.1,0,2.9c0.8,0.8,2.1,0.8,2.9,0l4-4
				c1.1-1.1,1.1-2.8,0-3.8l-3.3-3.3v0L877.9,736.6z"/>
			<path class="st4" d="M888.6,727.7l-6.7-6.7c-0.4-0.4-0.9-0.6-1.4-0.6h-8.1c-0.5,0-1.1,0.2-1.4,0.6l-6.7,6.7
				c-0.8,0.8-0.8,2.1,0,2.9c0.4,0.4,0.9,0.6,1.4,0.6s1-0.2,1.4-0.6l4-4v3.2h10.8v-3.2l4,4c0.4,0.4,0.9,0.6,1.4,0.6s1-0.2,1.4-0.6
				C889.4,729.8,889.4,728.5,888.6,727.7z"/>
		</g>
	</g>
</g>
<g transform="translate(-510 -500)" class="st3">
	<g>
		<circle class="st4" cx="908.2" cy="713.6" r="5.4"/>
		<g>
			<path class="st4" d="M902.8,732.8L902.8,732.8l-3.3,3.3c-1.1,1.1-1.1,2.8,0,3.8l4,4c0.8,0.8,2.1,0.8,2.9,0c0.8-0.8,0.8-2.1,0-2.9
				l-2.1-2.1l2.4-2.4h0L902.8,732.8z"/>
			<path class="st4" d="M909.8,736.6L909.8,736.6l2.4,2.4l-2.1,2.1c-0.8,0.8-0.8,2.1,0,2.9c0.8,0.8,2.1,0.8,2.9,0l4-4
				c1.1-1.1,1.1-2.8,0-3.8l-3.3-3.3v0L909.8,736.6z"/>
			<path class="st4" d="M920.5,727.7l-6.7-6.7c-0.4-0.4-0.9-0.6-1.4-0.6h-8.1c-0.5,0-1.1,0.2-1.4,0.6l-6.7,6.7
				c-0.8,0.8-0.8,2.1,0,2.9c0.4,0.4,0.9,0.6,1.4,0.6s1-0.2,1.4-0.6l4-4v3.2h10.8v-3.2l4,4c0.4,0.4,0.9,0.6,1.4,0.6
				c0.5,0,1-0.2,1.4-0.6C921.3,729.8,921.3,728.5,920.5,727.7z"/>
		</g>
	</g>
</g>
<g transform="translate(-510 -500)" class="st3">
	<g>
		<circle class="st4" cx="717" cy="754.6" r="5.4"/>
		<g>
			<path class="st4" d="M711.6,773.7L711.6,773.7l-3.3,3.3c-1.1,1.1-1.1,2.8,0,3.8l4,4c0.8,0.8,2.1,0.8,2.9,0c0.8-0.8,0.8-2.1,0-2.9
				l-2.1-2.1l2.4-2.4h0L711.6,773.7z"/>
			<path class="st4" d="M718.6,777.5L718.6,777.5l2.4,2.4l-2.1,2.1c-0.8,0.8-0.8,2.1,0,2.9c0.8,0.8,2.1,0.8,2.9,0l4-4
				c1.1-1.1,1.1-2.8,0-3.8l-3.3-3.3v0L718.6,777.5z"/>
			<path class="st4" d="M729.3,768.6l-6.7-6.7c-0.4-0.4-0.9-0.6-1.4-0.6H713c-0.5,0-1.1,0.2-1.4,0.6l-6.7,6.7
				c-0.8,0.8-0.8,2.1,0,2.9c0.4,0.4,0.9,0.6,1.4,0.6s1-0.2,1.4-0.6l4-4v3.2h10.8v-3.2l4,4c0.4,0.4,0.9,0.6,1.4,0.6s1-0.2,1.4-0.6
				C730,770.7,730,769.4,729.3,768.6z"/>
		</g>
	</g>
</g>
<g transform="translate(-510 -500)" class="st3">
	<g>
		<circle class="st4" cx="748.9" cy="754.6" r="5.4"/>
		<g>
			<path class="st4" d="M743.5,773.7L743.5,773.7l-3.3,3.3c-1.1,1.1-1.1,2.8,0,3.8l4,4c0.8,0.8,2.1,0.8,2.9,0c0.8-0.8,0.8-2.1,0-2.9
				l-2.1-2.1l2.4-2.4h0L743.5,773.7z"/>
			<path class="st4" d="M750.4,777.5L750.4,777.5l2.4,2.4l-2.1,2.1c-0.8,0.8-0.8,2.1,0,2.9c0.8,0.8,2.1,0.8,2.9,0l4-4
				c1.1-1.1,1.1-2.8,0-3.8l-3.3-3.3v0L750.4,777.5z"/>
			<path class="st4" d="M761.1,768.6l-6.7-6.7c-0.4-0.4-0.9-0.6-1.4-0.6h-8.1c-0.5,0-1.1,0.2-1.4,0.6l-6.7,6.7
				c-0.8,0.8-0.8,2.1,0,2.9c0.4,0.4,0.9,0.6,1.4,0.6s1-0.2,1.4-0.6l4-4v3.2h10.8v-3.2l4,4c0.4,0.4,0.9,0.6,1.4,0.6
				c0.5,0,1-0.2,1.4-0.6C761.9,770.7,761.9,769.4,761.1,768.6z"/>
		</g>
	</g>
</g>
<g transform="translate(-510 -500)" class="st3">
	<g>
		<circle class="st4" cx="780.8" cy="754.6" r="5.4"/>
		<g>
			<path class="st4" d="M775.4,773.7L775.4,773.7l-3.3,3.3c-1.1,1.1-1.1,2.8,0,3.8l4,4c0.8,0.8,2.1,0.8,2.9,0c0.8-0.8,0.8-2.1,0-2.9
				l-2.1-2.1l2.4-2.4h0L775.4,773.7z"/>
			<path class="st4" d="M782.3,777.5L782.3,777.5l2.4,2.4l-2.1,2.1c-0.8,0.8-0.8,2.1,0,2.9c0.8,0.8,2.1,0.8,2.9,0l4-4
				c1.1-1.1,1.1-2.8,0-3.8l-3.3-3.3v0L782.3,777.5z"/>
			<path class="st4" d="M793,768.6l-6.7-6.7c-0.4-0.4-0.9-0.6-1.4-0.6h-8.1c-0.5,0-1.1,0.2-1.4,0.6l-6.7,6.7c-0.8,0.8-0.8,2.1,0,2.9
				c0.4,0.4,0.9,0.6,1.4,0.6c0.5,0,1-0.2,1.4-0.6l4-4v3.2h10.8v-3.2l4,4c0.4,0.4,0.9,0.6,1.4,0.6s1-0.2,1.4-0.6
				C793.8,770.7,793.8,769.4,793,768.6z"/>
		</g>
	</g>
</g>
<g transform="translate(-510 -500)" class="st3">
	<g>
		<circle class="st4" cx="812.6" cy="754.6" r="5.4"/>
		<g>
			<path class="st4" d="M807.2,773.7L807.2,773.7l-3.3,3.3c-1.1,1.1-1.1,2.8,0,3.8l4,4c0.8,0.8,2.1,0.8,2.9,0c0.8-0.8,0.8-2.1,0-2.9
				l-2.1-2.1l2.4-2.4h0L807.2,773.7z"/>
			<path class="st4" d="M814.2,777.5L814.2,777.5l2.4,2.4l-2.1,2.1c-0.8,0.8-0.8,2.1,0,2.9c0.8,0.8,2.1,0.8,2.9,0l4-4
				c1.1-1.1,1.1-2.8,0-3.8l-3.3-3.3v0L814.2,777.5z"/>
			<path class="st4" d="M824.9,768.6l-6.7-6.7c-0.4-0.4-0.9-0.6-1.4-0.6h-8.1c-0.5,0-1.1,0.2-1.4,0.6l-6.7,6.7
				c-0.8,0.8-0.8,2.1,0,2.9c0.4,0.4,0.9,0.6,1.4,0.6s1-0.2,1.4-0.6l4-4v3.2H818v-3.2l4,4c0.4,0.4,0.9,0.6,1.4,0.6
				c0.5,0,1-0.2,1.4-0.6C825.6,770.7,825.6,769.4,824.9,768.6z"/>
		</g>
	</g>
</g>
<g transform="translate(-510 -500)" class="st3">
	<g>
		<circle class="st4" cx="844.5" cy="754.6" r="5.4"/>
		<g>
			<path class="st4" d="M839.1,773.7L839.1,773.7l-3.3,3.3c-1.1,1.1-1.1,2.8,0,3.8l4,4c0.8,0.8,2.1,0.8,2.9,0c0.8-0.8,0.8-2.1,0-2.9
				l-2.1-2.1l2.4-2.4h0L839.1,773.7z"/>
			<path class="st4" d="M846,777.5L846,777.5l2.4,2.4l-2.1,2.1c-0.8,0.8-0.8,2.1,0,2.9c0.8,0.8,2.1,0.8,2.9,0l4-4
				c1.1-1.1,1.1-2.8,0-3.8l-3.3-3.3v0L846,777.5z"/>
			<path class="st4" d="M856.7,768.6l-6.7-6.7c-0.4-0.4-0.9-0.6-1.4-0.6h-8.1c-0.5,0-1.1,0.2-1.4,0.6l-6.7,6.7
				c-0.8,0.8-0.8,2.1,0,2.9c0.4,0.4,0.9,0.6,1.4,0.6c0.5,0,1-0.2,1.4-0.6l4-4v3.2h10.8v-3.2l4,4c0.4,0.4,0.9,0.6,1.4,0.6
				s1-0.2,1.4-0.6C857.5,770.7,857.5,769.4,856.7,768.6z"/>
		</g>
	</g>
</g>
<g transform="translate(-510 -500)" class="st1">
	<g>
		<circle class="st6" cx="876.4" cy="754.6" r="5.4"/>
		<g>
			<path class="st6" d="M871,773.7L871,773.7l-3.3,3.3c-1.1,1.1-1.1,2.8,0,3.8l4,4c0.8,0.8,2.1,0.8,2.9,0c0.8-0.8,0.8-2.1,0-2.9
				l-2.1-2.1l2.4-2.4h0L871,773.7z"/>
			<path class="st6" d="M877.9,777.5L877.9,777.5l2.4,2.4l-2.1,2.1c-0.8,0.8-0.8,2.1,0,2.9c0.8,0.8,2.1,0.8,2.9,0l4-4
				c1.1-1.1,1.1-2.8,0-3.8l-3.3-3.3v0L877.9,777.5z"/>
			<path class="st6" d="M888.6,768.6l-6.7-6.7c-0.4-0.4-0.9-0.6-1.4-0.6h-8.1c-0.5,0-1.1,0.2-1.4,0.6l-6.7,6.7
				c-0.8,0.8-0.8,2.1,0,2.9c0.4,0.4,0.9,0.6,1.4,0.6s1-0.2,1.4-0.6l4-4v3.2h10.8v-3.2l4,4c0.4,0.4,0.9,0.6,1.4,0.6s1-0.2,1.4-0.6
				C889.4,770.7,889.4,769.4,888.6,768.6z"/>
		</g>
	</g>
</g>
<g transform="translate(-510 -500)" class="st3">
	<g>
		<circle class="st4" cx="908.2" cy="754.6" r="5.4"/>
		<g>
			<path class="st4" d="M902.8,773.7L902.8,773.7l-3.3,3.3c-1.1,1.1-1.1,2.8,0,3.8l4,4c0.8,0.8,2.1,0.8,2.9,0c0.8-0.8,0.8-2.1,0-2.9
				l-2.1-2.1l2.4-2.4h0L902.8,773.7z"/>
			<path class="st4" d="M909.8,777.5L909.8,777.5l2.4,2.4L910,782c-0.8,0.8-0.8,2.1,0,2.9c0.8,0.8,2.1,0.8,2.9,0l4-4
				c1.1-1.1,1.1-2.8,0-3.8l-3.3-3.3v0L909.8,777.5z"/>
			<path class="st4" d="M920.5,768.6l-6.7-6.7c-0.4-0.4-0.9-0.6-1.4-0.6h-8.1c-0.5,0-1.1,0.2-1.4,0.6l-6.7,6.7
				c-0.8,0.8-0.8,2.1,0,2.9c0.4,0.4,0.9,0.6,1.4,0.6s1-0.2,1.4-0.6l4-4v3.2h10.8v-3.2l4,4c0.4,0.4,0.9,0.6,1.4,0.6
				c0.5,0,1-0.2,1.4-0.6C921.3,770.7,921.3,769.4,920.5,768.6z"/>
		</g>
	</g>
</g>
<g transform="translate(-510 -500)" class="st3">
	<g>
		<circle class="st4" cx="717" cy="796" r="5.4"/>
		<g>
			<path class="st4" d="M711.6,815.2L711.6,815.2l-3.3,3.3c-1.1,1.1-1.1,2.8,0,3.8l4,4c0.8,0.8,2.1,0.8,2.9,0c0.8-0.8,0.8-2.1,0-2.9
				l-2.1-2.1l2.4-2.4h0L711.6,815.2z"/>
			<path class="st4" d="M718.6,818.9L718.6,818.9l2.4,2.4l-2.1,2.1c-0.8,0.8-0.8,2.1,0,2.9c0.8,0.8,2.1,0.8,2.9,0l4-4
				c1.1-1.1,1.1-2.8,0-3.8l-3.3-3.3v0L718.6,818.9z"/>
			<path class="st4" d="M729.3,810.1l-6.7-6.7c-0.4-0.4-0.9-0.6-1.4-0.6H713c-0.5,0-1.1,0.2-1.4,0.6l-6.7,6.7
				c-0.8,0.8-0.8,2.1,0,2.9c0.4,0.4,0.9,0.6,1.4,0.6s1-0.2,1.4-0.6l4-4v3.2h10.8V809l4,4c0.4,0.4,0.9,0.6,1.4,0.6s1-0.2,1.4-0.6
				C730,812.1,730,810.9,729.3,810.1z"/>
		</g>
	</g>
</g>
<g transform="translate(-510 -500)" class="st3">
	<g>
		<circle class="st4" cx="748.9" cy="796" r="5.4"/>
		<g>
			<path class="st4" d="M743.5,815.2L743.5,815.2l-3.3,3.3c-1.1,1.1-1.1,2.8,0,3.8l4,4c0.8,0.8,2.1,0.8,2.9,0c0.8-0.8,0.8-2.1,0-2.9
				l-2.1-2.1l2.4-2.4h0L743.5,815.2z"/>
			<path class="st4" d="M750.4,818.9L750.4,818.9l2.4,2.4l-2.1,2.1c-0.8,0.8-0.8,2.1,0,2.9c0.8,0.8,2.1,0.8,2.9,0l4-4
				c1.1-1.1,1.1-2.8,0-3.8l-3.3-3.3v0L750.4,818.9z"/>
			<path class="st4" d="M761.1,810.1l-6.7-6.7c-0.4-0.4-0.9-0.6-1.4-0.6h-8.1c-0.5,0-1.1,0.2-1.4,0.6l-6.7,6.7
				c-0.8,0.8-0.8,2.1,0,2.9c0.4,0.4,0.9,0.6,1.4,0.6s1-0.2,1.4-0.6l4-4v3.2h10.8V809l4,4c0.4,0.4,0.9,0.6,1.4,0.6
				c0.5,0,1-0.2,1.4-0.6C761.9,812.1,761.9,810.9,761.1,810.1z"/>
		</g>
	</g>
</g>
<g transform="translate(-510 -500)" class="st3">
	<g>
		<circle class="st4" cx="780.8" cy="796" r="5.4"/>
		<g>
			<path class="st4" d="M775.4,815.2L775.4,815.2l-3.3,3.3c-1.1,1.1-1.1,2.8,0,3.8l4,4c0.8,0.8,2.1,0.8,2.9,0c0.8-0.8,0.8-2.1,0-2.9
				l-2.1-2.1l2.4-2.4h0L775.4,815.2z"/>
			<path class="st4" d="M782.3,818.9L782.3,818.9l2.4,2.4l-2.1,2.1c-0.8,0.8-0.8,2.1,0,2.9c0.8,0.8,2.1,0.8,2.9,0l4-4
				c1.1-1.1,1.1-2.8,0-3.8l-3.3-3.3v0L782.3,818.9z"/>
			<path class="st4" d="M793,810.1l-6.7-6.7c-0.4-0.4-0.9-0.6-1.4-0.6h-8.1c-0.5,0-1.1,0.2-1.4,0.6l-6.7,6.7c-0.8,0.8-0.8,2.1,0,2.9
				c0.4,0.4,0.9,0.6,1.4,0.6c0.5,0,1-0.2,1.4-0.6l4-4v3.2h10.8V809l4,4c0.4,0.4,0.9,0.6,1.4,0.6s1-0.2,1.4-0.6
				C793.8,812.1,793.8,810.9,793,810.1z"/>
		</g>
	</g>
</g>
<g transform="translate(-510 -500)" class="st3">
	<g>
		<circle class="st4" cx="812.6" cy="796" r="5.4"/>
		<g>
			<path class="st4" d="M807.2,815.2L807.2,815.2l-3.3,3.3c-1.1,1.1-1.1,2.8,0,3.8l4,4c0.8,0.8,2.1,0.8,2.9,0c0.8-0.8,0.8-2.1,0-2.9
				l-2.1-2.1l2.4-2.4h0L807.2,815.2z"/>
			<path class="st4" d="M814.2,818.9L814.2,818.9l2.4,2.4l-2.1,2.1c-0.8,0.8-0.8,2.1,0,2.9c0.8,0.8,2.1,0.8,2.9,0l4-4
				c1.1-1.1,1.1-2.8,0-3.8l-3.3-3.3v0L814.2,818.9z"/>
			<path class="st4" d="M824.9,810.1l-6.7-6.7c-0.4-0.4-0.9-0.6-1.4-0.6h-8.1c-0.5,0-1.1,0.2-1.4,0.6l-6.7,6.7
				c-0.8,0.8-0.8,2.1,0,2.9c0.4,0.4,0.9,0.6,1.4,0.6s1-0.2,1.4-0.6l4-4v3.2H818V809l4,4c0.4,0.4,0.9,0.6,1.4,0.6
				c0.5,0,1-0.2,1.4-0.6C825.6,812.1,825.6,810.9,824.9,810.1z"/>
		</g>
	</g>
</g>
<g transform="translate(-510 -500)" class="st3">
	<g>
		<circle class="st4" cx="844.5" cy="796" r="5.4"/>
		<g>
			<path class="st4" d="M839.1,815.2L839.1,815.2l-3.3,3.3c-1.1,1.1-1.1,2.8,0,3.8l4,4c0.8,0.8,2.1,0.8,2.9,0c0.8-0.8,0.8-2.1,0-2.9
				l-2.1-2.1l2.4-2.4h0L839.1,815.2z"/>
			<path class="st4" d="M846,818.9L846,818.9l2.4,2.4l-2.1,2.1c-0.8,0.8-0.8,2.1,0,2.9c0.8,0.8,2.1,0.8,2.9,0l4-4
				c1.1-1.1,1.1-2.8,0-3.8l-3.3-3.3v0L846,818.9z"/>
			<path class="st4" d="M856.7,810.1l-6.7-6.7c-0.4-0.4-0.9-0.6-1.4-0.6h-8.1c-0.5,0-1.1,0.2-1.4,0.6l-6.7,6.7
				c-0.8,0.8-0.8,2.1,0,2.9c0.4,0.4,0.9,0.6,1.4,0.6c0.5,0,1-0.2,1.4-0.6l4-4v3.2h10.8V809l4,4c0.4,0.4,0.9,0.6,1.4,0.6
				s1-0.2,1.4-0.6C857.5,812.1,857.5,810.9,856.7,810.1z"/>
		</g>
	</g>
</g>
<g transform="translate(-510 -500)" class="st3">
	<g>
		<circle class="st4" cx="876.4" cy="796" r="5.4"/>
		<g>
			<path class="st4" d="M871,815.2L871,815.2l-3.3,3.3c-1.1,1.1-1.1,2.8,0,3.8l4,4c0.8,0.8,2.1,0.8,2.9,0c0.8-0.8,0.8-2.1,0-2.9
				l-2.1-2.1l2.4-2.4h0L871,815.2z"/>
			<path class="st4" d="M877.9,818.9L877.9,818.9l2.4,2.4l-2.1,2.1c-0.8,0.8-0.8,2.1,0,2.9c0.8,0.8,2.1,0.8,2.9,0l4-4
				c1.1-1.1,1.1-2.8,0-3.8l-3.3-3.3v0L877.9,818.9z"/>
			<path class="st4" d="M888.6,810.1l-6.7-6.7c-0.4-0.4-0.9-0.6-1.4-0.6h-8.1c-0.5,0-1.1,0.2-1.4,0.6l-6.7,6.7
				c-0.8,0.8-0.8,2.1,0,2.9c0.4,0.4,0.9,0.6,1.4,0.6s1-0.2,1.4-0.6l4-4v3.2h10.8V809l4,4c0.4,0.4,0.9,0.6,1.4,0.6s1-0.2,1.4-0.6
				C889.4,812.1,889.4,810.9,888.6,810.1z"/>
		</g>
	</g>
</g>
<g transform="translate(-510 -500)" class="st1">
	<g>
		<circle class="st7" cx="908.2" cy="796" r="5.4"/>
		<g>
			<path class="st7" d="M902.8,815.2L902.8,815.2l-3.3,3.3c-1.1,1.1-1.1,2.8,0,3.8l4,4c0.8,0.8,2.1,0.8,2.9,0c0.8-0.8,0.8-2.1,0-2.9
				l-2.1-2.1l2.4-2.4h0L902.8,815.2z"/>
			<path class="st7" d="M909.8,818.9L909.8,818.9l2.4,2.4l-2.1,2.1c-0.8,0.8-0.8,2.1,0,2.9c0.8,0.8,2.1,0.8,2.9,0l4-4
				c1.1-1.1,1.1-2.8,0-3.8l-3.3-3.3v0L909.8,818.9z"/>
			<path class="st7" d="M920.5,810.1l-6.7-6.7c-0.4-0.4-0.9-0.6-1.4-0.6h-8.1c-0.5,0-1.1,0.2-1.4,0.6l-6.7,6.7
				c-0.8,0.8-0.8,2.1,0,2.9c0.4,0.4,0.9,0.6,1.4,0.6s1-0.2,1.4-0.6l4-4v3.2h10.8V809l4,4c0.4,0.4,0.9,0.6,1.4,0.6
				c0.5,0,1-0.2,1.4-0.6C921.3,812.1,921.3,810.9,920.5,810.1z"/>
		</g>
	</g>
</g>
<rect x="381.4" y="17.8" transform="matrix(0.7071 0.7071 -0.7071 0.7071 159.7364 -279.171)" class="st8" width="70.8" height="70.8"/>
<g>
	<circle class="st9" cx="215.5" cy="241.3" r="1.2"/>
	<circle class="st2" cx="213.8" cy="241.5" r="1.5"/>
	<circle class="st9" cx="211.8" cy="243.1" r="1.5"/>
	<circle class="st10" cx="212" cy="245" r="1.5"/>
	<circle class="st2" cx="209.6" cy="245.2" r="1.4"/>
	<circle class="st11" cx="210.4" cy="246.3" r="1.7"/>
	<circle class="st9" cx="209" cy="248.3" r="1.5"/>
	<circle class="st10" cx="208.2" cy="247.3" r="1.7"/>
	<circle class="st2" cx="206.6" cy="248.9" r="1.9"/>
	<circle class="st2" cx="206.3" cy="252" r="1.8"/>
	<circle class="st12" cx="204.3" cy="253.7" r="2.3"/>
	<circle class="st2" cx="202.5" cy="256" r="1.9"/>
	<circle class="st13" cx="204.4" cy="256.4" r="2.2"/>
	<circle class="st2" cx="202.2" cy="259.1" r="2.2"/>
	<circle class="st14" cx="203.3" cy="261.6" r="2.5"/>
	<circle class="st2" cx="202.9" cy="265" r="2.8"/>
	<circle class="st2" cx="203.1" cy="270.5" r="3"/>
	<circle class="st10" cx="205.3" cy="270.3" r="2.3"/>
	<circle class="st14" cx="204.1" cy="274.2" r="2.7"/>
	<circle class="st10" cx="207.9" cy="276.5" r="2.7"/>
	<circle class="st15" cx="207.8" cy="280" r="3.3"/>
	<circle class="st16" cx="210.5" cy="278.3" r="2.8"/>
	<circle class="st17" cx="216" cy="288.1" r="3.7"/>
	<circle class="st18" cx="213.8" cy="282.9" r="3.7"/>
	<circle class="st19" cx="217.9" cy="287" r="3.3"/>
	<circle class="st19" cx="226.7" cy="296.9" r="2.7"/>
	<circle class="st18" cx="224.9" cy="291.1" r="3.7"/>
	<circle class="st17" cx="225" cy="293.8" r="3.2"/>
	<circle class="st20" cx="230.1" cy="293.7" r="3.5"/>
	<circle class="st20" cx="218.5" cy="289.9" r="3.5"/>
	<circle class="st17" cx="222.3" cy="288" r="1.6"/>
	<circle class="st21" cx="215.9" cy="288.1" r="2.5"/>
	<circle class="st5" cx="221.5" cy="293.3" r="2.8"/>
	<circle class="st16" cx="211.5" cy="285.9" r="2.1"/>
	<circle class="st22" cx="210.5" cy="281.7" r="3.1"/>
	<circle class="st21" cx="208.9" cy="284.4" r="1.6"/>
	<circle class="st23" cx="204.4" cy="276.8" r="2.1"/>
	<circle class="st15" cx="207.1" cy="272.9" r="1.5"/>
	<circle class="st23" cx="201.4" cy="267.4" r="1.8"/>
	<circle class="st14" cx="204.6" cy="267.1" r="2"/>
	<circle class="st15" cx="201.3" cy="269.2" r="1.1"/>
	<circle class="st23" cx="201.4" cy="262" r="1.8"/>
	<circle class="st24" cx="204.7" cy="258.9" r="1.5"/>
	<circle class="st25" cx="206.1" cy="254.5" r="1.2"/>
	<circle class="st25" cx="204.6" cy="251.1" r="1.6"/>
	<circle class="st11" cx="208" cy="250.3" r="1.2"/>
	<circle class="st26" cx="208.3" cy="248.3" r="1"/>
	<circle class="st26" cx="210.8" cy="244" r="0.9"/>
	<circle class="st26" cx="213.7" cy="243.5" r="1.3"/>
	<circle class="st11" cx="214.6" cy="241.9" r="1"/>
	<circle class="st10" cx="216.2" cy="239" r="1"/>
	<circle class="st26" cx="217.8" cy="239.1" r="1"/>
	<circle class="st2" cx="217.8" cy="236.9" r="0.7"/>
	<circle class="st9" cx="220" cy="237.2" r="0.9"/>
	<circle class="st11" cx="220.2" cy="236.1" r="0.6"/>
	<circle class="st10" cx="222" cy="235.9" r="0.7"/>
	<circle class="st2" cx="221.3" cy="234.3" r="0.4"/>
	<circle class="st26" cx="223.2" cy="234.3" r="0.6"/>
	<circle class="st9" cx="223.5" cy="233.2" r="0.6"/>
	<circle class="st2" cx="225.5" cy="233.6" r="0.4"/>
	<circle class="st27" cx="226" cy="232.2" r="0.3"/>
	<circle class="st11" cx="228" cy="231.1" r="0.5"/>
	<circle class="st26" cx="229.4" cy="230.9" r="0.3"/>
	<circle class="st9" cx="262.5" cy="285.3" r="1.2"/>
	<circle class="st2" cx="264.2" cy="285.1" r="1.5"/>
	<circle class="st9" cx="266.2" cy="283.5" r="1.5"/>
	<circle class="st10" cx="266" cy="281.6" r="1.5"/>
	<circle class="st2" cx="268.5" cy="281.4" r="1.4"/>
	<circle class="st11" cx="267.6" cy="280.3" r="1.7"/>
	<circle class="st9" cx="269" cy="278.3" r="1.5"/>
	<circle class="st10" cx="269.8" cy="279.3" r="1.7"/>
	<circle class="st2" cx="271.4" cy="277.7" r="1.9"/>
	<circle class="st2" cx="271.7" cy="274.6" r="1.8"/>
	<circle class="st12" cx="273.7" cy="272.9" r="2.3"/>
	<circle class="st2" cx="275.5" cy="270.6" r="1.9"/>
	<circle class="st13" cx="273.7" cy="270.2" r="2.2"/>
	<circle class="st2" cx="275.8" cy="267.5" r="2.2"/>
	<circle class="st14" cx="274.7" cy="265" r="2.5"/>
	<circle class="st2" cx="275.1" cy="261.6" r="2.8"/>
	<circle class="st2" cx="274.9" cy="256.1" r="3"/>
	<circle class="st10" cx="272.7" cy="256.3" r="2.3"/>
	<circle class="st14" cx="273.9" cy="252.4" r="2.7"/>
	<circle class="st10" cx="270.1" cy="250.1" r="2.7"/>
	<circle class="st15" cx="270.2" cy="246.6" r="3.3"/>
	<circle class="st16" cx="267.5" cy="248.3" r="2.8"/>
	<circle class="st17" cx="262" cy="238.5" r="3.7"/>
	<circle class="st18" cx="264.2" cy="243.6" r="3.7"/>
	<circle class="st19" cx="260.1" cy="239.6" r="3.3"/>
	<circle class="st19" cx="251.3" cy="229.7" r="2.7"/>
	<circle class="st18" cx="253.1" cy="235.5" r="3.7"/>
	<circle class="st17" cx="242.7" cy="230.2" r="3"/>
	<circle class="st18" cx="247.5" cy="228.6" r="2.7"/>
	<circle class="st17" cx="253" cy="232.8" r="3.2"/>
	<circle class="st20" cx="247.9" cy="232.9" r="3.5"/>
	<circle class="st5" cx="245.1" cy="230.2" r="1.6"/>
	<circle class="st20" cx="259.5" cy="236.7" r="3.5"/>
	<circle class="st17" cx="255.7" cy="238.6" r="1.6"/>
	<circle class="st21" cx="262.1" cy="238.5" r="2.5"/>
	<circle class="st5" cx="256.5" cy="233.3" r="2.8"/>
	<circle class="st16" cx="266.5" cy="240.7" r="2.1"/>
	<circle class="st22" cx="267.5" cy="244.9" r="3.1"/>
	<circle class="st21" cx="269.1" cy="242.2" r="1.6"/>
	<circle class="st23" cx="273.6" cy="249.8" r="2.1"/>
	<circle class="st15" cx="270.9" cy="253.7" r="1.5"/>
	<circle class="st23" cx="276.6" cy="259.2" r="1.8"/>
	<circle class="st14" cx="273.4" cy="259.5" r="2"/>
	<circle class="st15" cx="276.7" cy="257.4" r="1.1"/>
	<circle class="st23" cx="276.6" cy="264.6" r="1.8"/>
	<circle class="st24" cx="273.3" cy="267.7" r="1.5"/>
	<circle class="st25" cx="271.9" cy="272.1" r="1.2"/>
	<circle class="st25" cx="273.5" cy="275.5" r="1.6"/>
	<circle class="st11" cx="270" cy="276.3" r="1.2"/>
	<circle class="st26" cx="269.7" cy="278.3" r="1"/>
	<circle class="st26" cx="267.2" cy="282.6" r="0.9"/>
	<circle class="st26" cx="264.3" cy="283.1" r="1.3"/>
	<circle class="st11" cx="263.4" cy="284.7" r="1"/>
	<circle class="st10" cx="261.8" cy="287.6" r="1"/>
	<circle class="st26" cx="260.2" cy="287.5" r="1"/>
	<circle class="st2" cx="260.2" cy="289.7" r="0.7"/>
	<circle class="st9" cx="258" cy="289.4" r="0.9"/>
	<circle class="st11" cx="257.8" cy="290.5" r="0.6"/>
	<circle class="st10" cx="256" cy="290.7" r="0.7"/>
	<circle class="st2" cx="256.7" cy="292.3" r="0.4"/>
	<circle class="st26" cx="254.9" cy="292.3" r="0.6"/>
	<circle class="st9" cx="254.5" cy="293.4" r="0.6"/>
	<circle class="st2" cx="252.5" cy="293" r="0.4"/>
	<circle class="st27" cx="252" cy="294.4" r="0.3"/>
	<circle class="st11" cx="250" cy="295.4" r="0.5"/>
	<circle class="st26" cx="248.6" cy="295.7" r="0.3"/>
	<circle class="st11" cx="206.9" cy="263.9" r="0.5"/>
	<circle class="st2" cx="213.2" cy="263.9" r="0.7"/>
	<circle class="st2" cx="216.2" cy="264" r="0.9"/>
	<circle class="st12" cx="216.6" cy="262.4" r="1.1"/>
	<circle class="st2" cx="219.1" cy="262.3" r="1.1"/>
	<circle class="st14" cx="219.9" cy="263.9" r="1.1"/>
	<circle class="st10" cx="223.4" cy="262.4" r="1.2"/>
	<circle class="st15" cx="228.5" cy="263.1" r="1.6"/>
	<circle class="st17" cx="236.2" cy="261.7" r="1.7"/>
	<circle class="st20" cx="237.9" cy="264.8" r="0.8"/>
	<circle class="st22" cx="229.3" cy="261.3" r="1.3"/>
	<circle class="st23" cx="226.6" cy="264.2" r="1.1"/>
	<circle class="st15" cx="225.8" cy="261.4" r="0.8"/>
	<circle class="st15" cx="222.5" cy="264.3" r="0.7"/>
	<circle class="st25" cx="215.1" cy="262.4" r="1"/>
	<circle class="st26" cx="208.4" cy="262.5" r="0.4"/>
	<circle class="st10" cx="210.4" cy="263.9" r="0.6"/>
	<circle class="st11" cx="209.9" cy="263.3" r="0.4"/>
	<circle class="st9" cx="211.7" cy="262.7" r="0.6"/>
	<circle class="st21" cx="232.4" cy="260.8" r="0.8"/>
	<circle class="st5" cx="233" cy="264.6" r="1.5"/>
	<circle class="st14" cx="221.2" cy="261.8" r="0.5"/>
	<circle class="st11" cx="270.7" cy="263.9" r="0.5"/>
	<circle class="st2" cx="264.4" cy="263.9" r="0.7"/>
	<circle class="st2" cx="261.5" cy="264" r="0.9"/>
	<circle class="st12" cx="261.1" cy="262.4" r="1.1"/>
	<circle class="st2" cx="258.6" cy="262.3" r="1.1"/>
	<circle class="st14" cx="257.7" cy="263.9" r="1.1"/>
	<circle class="st10" cx="254.2" cy="262.4" r="1.2"/>
	<circle class="st15" cx="249.2" cy="263.1" r="1.6"/>
	<circle class="st17" cx="242.1" cy="264" r="1.7"/>
	<circle class="st20" cx="244.1" cy="260.8" r="0.8"/>
	<circle class="st22" cx="248.4" cy="261.3" r="1.3"/>
	<circle class="st23" cx="251.1" cy="264.2" r="1.1"/>
	<circle class="st15" cx="251.8" cy="261.4" r="0.8"/>
	<circle class="st15" cx="255.1" cy="264.3" r="0.7"/>
	<circle class="st25" cx="262.5" cy="262.4" r="1"/>
	<circle class="st26" cx="269.3" cy="262.5" r="0.4"/>
	<circle class="st10" cx="267.3" cy="263.9" r="0.6"/>
	<circle class="st11" cx="267.7" cy="263.3" r="0.4"/>
	<circle class="st9" cx="266" cy="262.7" r="0.6"/>
	<circle class="st21" cx="245.9" cy="264.4" r="1.3"/>
	<circle class="st5" cx="240.3" cy="262.4" r="1.4"/>
	<circle class="st14" cx="256.5" cy="261.8" r="0.5"/>
	<circle class="st22" cx="241.8" cy="277.7" r="0.8"/>
	<circle class="st11" cx="264.5" cy="277.8" r="0.4"/>
	<circle class="st2" cx="260.8" cy="277.6" r="0.6"/>
	<circle class="st2" cx="257.6" cy="277.8" r="0.7"/>
	<circle class="st2" cx="255.3" cy="276.4" r="0.9"/>
	<circle class="st10" cx="251.7" cy="275.8" r="0.9"/>
	<circle class="st15" cx="248.6" cy="277.6" r="1.2"/>
	<circle class="st16" cx="242.9" cy="275.6" r="1"/>
	<circle class="st5" cx="239.6" cy="275.2" r="1.4"/>
	<circle class="st22" cx="247" cy="275.6" r="1"/>
	<circle class="st23" cx="249.7" cy="277.4" r="0.8"/>
	<circle class="st15" cx="249.9" cy="275.5" r="0.6"/>
	<circle class="st23" cx="253.1" cy="277.7" r="0.7"/>
	<circle class="st23" cx="254.3" cy="276.1" r="0.9"/>
	<circle class="st25" cx="256.1" cy="277.9" r="0.5"/>
	<circle class="st25" cx="258.1" cy="276.7" r="0.8"/>
	<circle class="st26" cx="259.1" cy="277.5" r="0.4"/>
	<circle class="st10" cx="262.6" cy="277.7" r="0.5"/>
	<circle class="st11" cx="263" cy="277.2" r="0.3"/>
	<circle class="st9" cx="261.8" cy="276.7" r="0.5"/>
	<circle class="st21" cx="244.9" cy="277.7" r="1"/>
	<circle class="st17" cx="239.3" cy="278" r="0.8"/>
	<g>
		<circle class="st28" cx="237.4" cy="277.4" r="0.5"/>
		<circle class="st11" cx="214.7" cy="277.8" r="0.4"/>
		<circle class="st2" cx="218.4" cy="277.6" r="0.6"/>
		<circle class="st2" cx="221.6" cy="277.8" r="0.7"/>
		<circle class="st2" cx="223.9" cy="276.4" r="0.9"/>
		<circle class="st10" cx="227.5" cy="275.8" r="0.9"/>
		<circle class="st15" cx="230.6" cy="277.6" r="1.2"/>
		<circle class="st16" cx="236.3" cy="275.6" r="1"/>
		<circle class="st22" cx="232.2" cy="275.6" r="1"/>
		<circle class="st23" cx="229.6" cy="277.4" r="0.8"/>
		<circle class="st15" cx="229.3" cy="275.5" r="0.6"/>
		<circle class="st23" cx="226.2" cy="277.7" r="0.7"/>
		<circle class="st23" cx="224.9" cy="276.1" r="0.9"/>
		<circle class="st25" cx="223.2" cy="277.9" r="0.5"/>
		<circle class="st25" cx="221.1" cy="276.7" r="0.8"/>
		<circle class="st26" cx="220.2" cy="277.5" r="0.4"/>
		<circle class="st10" cx="216.6" cy="277.7" r="0.5"/>
		<circle class="st11" cx="216.2" cy="277.2" r="0.3"/>
		<circle class="st9" cx="217.4" cy="276.7" r="0.5"/>
		<circle class="st21" cx="234.3" cy="277.7" r="1"/>
	</g>
	<circle class="st22" cx="239.7" cy="248.6" r="0.8"/>
	<circle class="st11" cx="262.4" cy="248.6" r="0.4"/>
	<circle class="st2" cx="258.7" cy="248.8" r="0.6"/>
	<circle class="st2" cx="255.5" cy="248.6" r="0.7"/>
	<circle class="st2" cx="253.2" cy="250" r="0.9"/>
	<circle class="st10" cx="249.6" cy="250.5" r="0.9"/>
	<circle class="st15" cx="246.5" cy="248.8" r="1.2"/>
	<circle class="st16" cx="240.8" cy="250.7" r="1"/>
	<circle class="st5" cx="237.5" cy="251.1" r="1.4"/>
	<circle class="st22" cx="244.9" cy="250.7" r="1"/>
	<circle class="st23" cx="247.6" cy="248.9" r="0.8"/>
	<circle class="st15" cx="247.8" cy="250.9" r="0.6"/>
	<circle class="st23" cx="251" cy="248.7" r="0.7"/>
	<circle class="st23" cx="252.2" cy="250.2" r="0.9"/>
	<circle class="st25" cx="254" cy="248.4" r="0.5"/>
	<circle class="st25" cx="256.1" cy="249.6" r="0.8"/>
	<circle class="st26" cx="257" cy="248.9" r="0.4"/>
	<circle class="st10" cx="260.5" cy="248.7" r="0.5"/>
	<circle class="st11" cx="260.9" cy="249.2" r="0.3"/>
	<circle class="st9" cx="259.7" cy="249.7" r="0.5"/>
	<circle class="st21" cx="242.8" cy="248.7" r="1"/>
	<circle class="st17" cx="237.2" cy="248.3" r="0.8"/>
	<g>
		<circle class="st28" cx="235.3" cy="249" r="0.5"/>
		<circle class="st11" cx="212.6" cy="248.6" r="0.4"/>
		<circle class="st2" cx="216.3" cy="248.8" r="0.6"/>
		<circle class="st2" cx="219.5" cy="248.6" r="0.7"/>
		<circle class="st2" cx="221.8" cy="250" r="0.9"/>
		<circle class="st10" cx="225.4" cy="250.5" r="0.9"/>
		<circle class="st15" cx="228.5" cy="248.8" r="1.2"/>
		<circle class="st16" cx="234.2" cy="250.7" r="1"/>
		<circle class="st22" cx="230.1" cy="250.7" r="1"/>
		<circle class="st23" cx="227.5" cy="248.9" r="0.8"/>
		<circle class="st15" cx="227.2" cy="250.9" r="0.6"/>
		<circle class="st23" cx="224.1" cy="248.7" r="0.7"/>
		<circle class="st23" cx="222.8" cy="250.2" r="0.9"/>
		<circle class="st25" cx="221.1" cy="248.4" r="0.5"/>
		<circle class="st25" cx="219" cy="249.6" r="0.8"/>
		<circle class="st26" cx="218.1" cy="248.9" r="0.4"/>
		<circle class="st10" cx="214.5" cy="248.7" r="0.5"/>
		<circle class="st11" cx="214.2" cy="249.2" r="0.3"/>
		<circle class="st9" cx="215.3" cy="249.7" r="0.5"/>
		<circle class="st21" cx="232.2" cy="248.7" r="1"/>
	</g>
	<circle class="st11" cx="206.9" cy="190.1" r="0.5"/>
	<circle class="st2" cx="213.2" cy="190.2" r="0.7"/>
	<circle class="st2" cx="216.2" cy="190.3" r="0.9"/>
	<circle class="st12" cx="216.6" cy="188.7" r="1.1"/>
	<circle class="st2" cx="219.1" cy="188.5" r="1.1"/>
	<circle class="st14" cx="219.9" cy="190.2" r="1.1"/>
	<circle class="st10" cx="223.4" cy="188.7" r="1.2"/>
	<circle class="st15" cx="228.5" cy="189.3" r="1.6"/>
	<circle class="st17" cx="236.2" cy="187.9" r="1.7"/>
	<circle class="st20" cx="237.9" cy="191.1" r="0.8"/>
	<circle class="st22" cx="229.3" cy="187.6" r="1.3"/>
	<circle class="st23" cx="226.6" cy="190.5" r="1.1"/>
	<circle class="st15" cx="225.8" cy="187.6" r="0.8"/>
	<circle class="st15" cx="222.5" cy="190.5" r="0.7"/>
	<circle class="st25" cx="215.1" cy="188.7" r="1"/>
	<circle class="st26" cx="208.4" cy="188.8" r="0.4"/>
	<circle class="st10" cx="210.4" cy="190.1" r="0.6"/>
	<circle class="st11" cx="209.9" cy="189.5" r="0.4"/>
	<circle class="st9" cx="211.7" cy="188.9" r="0.6"/>
	<circle class="st21" cx="232.4" cy="187" r="0.8"/>
	<circle class="st5" cx="233" cy="190.8" r="1.5"/>
	<circle class="st14" cx="221.2" cy="188" r="0.5"/>
	<circle class="st11" cx="270.7" cy="190.1" r="0.5"/>
	<circle class="st2" cx="264.4" cy="190.2" r="0.7"/>
	<circle class="st2" cx="261.5" cy="190.3" r="0.9"/>
	<circle class="st12" cx="261.1" cy="188.7" r="1.1"/>
	<circle class="st2" cx="258.6" cy="188.5" r="1.1"/>
	<circle class="st14" cx="257.7" cy="190.2" r="1.1"/>
	<circle class="st10" cx="254.2" cy="188.7" r="1.2"/>
	<circle class="st15" cx="249.2" cy="189.3" r="1.6"/>
	<circle class="st17" cx="242.1" cy="190.2" r="1.7"/>
	<circle class="st20" cx="244.1" cy="187" r="0.8"/>
	<circle class="st22" cx="248.4" cy="187.6" r="1.3"/>
	<circle class="st23" cx="251.1" cy="190.5" r="1.1"/>
	<circle class="st15" cx="251.8" cy="187.6" r="0.8"/>
	<circle class="st15" cx="255.1" cy="190.5" r="0.7"/>
	<circle class="st25" cx="262.5" cy="188.7" r="1"/>
	<circle class="st26" cx="269.3" cy="188.8" r="0.4"/>
	<circle class="st10" cx="267.3" cy="190.1" r="0.6"/>
	<circle class="st11" cx="267.7" cy="189.5" r="0.4"/>
	<circle class="st9" cx="266" cy="188.9" r="0.6"/>
	<circle class="st21" cx="245.9" cy="190.6" r="1.3"/>
	<circle class="st5" cx="240.3" cy="188.7" r="1.4"/>
	<circle class="st14" cx="256.5" cy="188" r="0.5"/>
	<circle class="st22" cx="241.8" cy="204" r="0.8"/>
	<circle class="st11" cx="264.5" cy="204" r="0.4"/>
	<circle class="st2" cx="260.8" cy="203.8" r="0.6"/>
	<circle class="st2" cx="257.6" cy="204" r="0.7"/>
	<circle class="st2" cx="255.3" cy="202.6" r="0.9"/>
	<circle class="st10" cx="251.7" cy="202.1" r="0.9"/>
	<circle class="st15" cx="248.6" cy="203.8" r="1.2"/>
	<circle class="st16" cx="242.9" cy="201.9" r="1"/>
	<circle class="st5" cx="239.6" cy="201.5" r="1.4"/>
	<circle class="st22" cx="247" cy="201.8" r="1"/>
	<circle class="st23" cx="249.7" cy="203.7" r="0.8"/>
	<circle class="st15" cx="249.9" cy="201.7" r="0.6"/>
	<circle class="st23" cx="253.1" cy="203.9" r="0.7"/>
	<circle class="st23" cx="254.3" cy="202.4" r="0.9"/>
	<circle class="st25" cx="256.1" cy="204.1" r="0.5"/>
	<circle class="st25" cx="258.1" cy="203" r="0.8"/>
	<circle class="st26" cx="259.1" cy="203.7" r="0.4"/>
	<circle class="st10" cx="262.6" cy="203.9" r="0.5"/>
	<circle class="st11" cx="263" cy="203.4" r="0.3"/>
	<circle class="st9" cx="261.8" cy="202.9" r="0.5"/>
	<circle class="st21" cx="244.9" cy="203.9" r="1"/>
	<circle class="st17" cx="239.3" cy="204.3" r="0.8"/>
	<g>
		<circle class="st28" cx="237.4" cy="203.6" r="0.5"/>
		<circle class="st11" cx="214.7" cy="204" r="0.4"/>
		<circle class="st2" cx="218.4" cy="203.8" r="0.6"/>
		<circle class="st2" cx="221.6" cy="204" r="0.7"/>
		<circle class="st2" cx="223.9" cy="202.6" r="0.9"/>
		<circle class="st10" cx="227.5" cy="202.1" r="0.9"/>
		<circle class="st15" cx="230.6" cy="203.8" r="1.2"/>
		<circle class="st16" cx="236.3" cy="201.9" r="1"/>
		<circle class="st22" cx="232.2" cy="201.8" r="1"/>
		<circle class="st23" cx="229.6" cy="203.7" r="0.8"/>
		<circle class="st15" cx="229.3" cy="201.7" r="0.6"/>
		<circle class="st23" cx="226.2" cy="203.9" r="0.7"/>
		<circle class="st23" cx="224.9" cy="202.4" r="0.9"/>
		<circle class="st25" cx="223.2" cy="204.1" r="0.5"/>
		<circle class="st25" cx="221.1" cy="203" r="0.8"/>
		<circle class="st26" cx="220.2" cy="203.7" r="0.4"/>
		<circle class="st10" cx="216.6" cy="203.9" r="0.5"/>
		<circle class="st11" cx="216.2" cy="203.4" r="0.3"/>
		<circle class="st9" cx="217.4" cy="202.9" r="0.5"/>
		<circle class="st21" cx="234.3" cy="203.9" r="1"/>
	</g>
	<circle class="st22" cx="239.7" cy="174.9" r="0.8"/>
	<circle class="st11" cx="262.4" cy="174.8" r="0.4"/>
	<circle class="st2" cx="258.7" cy="175" r="0.6"/>
	<circle class="st2" cx="255.5" cy="174.8" r="0.7"/>
	<circle class="st2" cx="253.2" cy="176.2" r="0.9"/>
	<circle class="st10" cx="249.6" cy="176.8" r="0.9"/>
	<circle class="st15" cx="246.5" cy="175" r="1.2"/>
	<circle class="st16" cx="240.8" cy="176.9" r="1"/>
	<circle class="st5" cx="237.5" cy="177.4" r="1.4"/>
	<circle class="st22" cx="244.9" cy="177" r="1"/>
	<circle class="st23" cx="247.6" cy="175.2" r="0.8"/>
	<circle class="st15" cx="247.8" cy="177.1" r="0.6"/>
	<circle class="st23" cx="251" cy="174.9" r="0.7"/>
	<circle class="st23" cx="252.2" cy="176.5" r="0.9"/>
	<circle class="st25" cx="254" cy="174.7" r="0.5"/>
	<circle class="st25" cx="256.1" cy="175.9" r="0.8"/>
	<circle class="st26" cx="257" cy="175.1" r="0.4"/>
	<circle class="st10" cx="260.5" cy="174.9" r="0.5"/>
	<circle class="st11" cx="260.9" cy="175.4" r="0.3"/>
	<circle class="st9" cx="259.7" cy="175.9" r="0.5"/>
	<circle class="st21" cx="242.8" cy="174.9" r="1"/>
	<circle class="st17" cx="237.2" cy="174.6" r="0.8"/>
	<g>
		<circle class="st28" cx="235.3" cy="175.2" r="0.5"/>
		<circle class="st11" cx="212.6" cy="174.8" r="0.4"/>
		<circle class="st2" cx="216.3" cy="175" r="0.6"/>
		<circle class="st2" cx="219.5" cy="174.8" r="0.7"/>
		<circle class="st2" cx="221.8" cy="176.2" r="0.9"/>
		<circle class="st10" cx="225.4" cy="176.8" r="0.9"/>
		<circle class="st15" cx="228.5" cy="175" r="1.2"/>
		<circle class="st16" cx="234.2" cy="176.9" r="1"/>
		<circle class="st22" cx="230.1" cy="177" r="1"/>
		<circle class="st23" cx="227.5" cy="175.2" r="0.8"/>
		<circle class="st15" cx="227.2" cy="177.1" r="0.6"/>
		<circle class="st23" cx="224.1" cy="174.9" r="0.7"/>
		<circle class="st23" cx="222.8" cy="176.5" r="0.9"/>
		<circle class="st25" cx="221.1" cy="174.7" r="0.5"/>
		<circle class="st25" cx="219" cy="175.9" r="0.8"/>
		<circle class="st26" cx="218.1" cy="175.1" r="0.4"/>
		<circle class="st10" cx="214.5" cy="174.9" r="0.5"/>
		<circle class="st11" cx="214.2" cy="175.4" r="0.3"/>
		<circle class="st9" cx="215.3" cy="175.9" r="0.5"/>
		<circle class="st21" cx="232.2" cy="174.9" r="1"/>
	</g>
	<circle class="st9" cx="215.5" cy="168.2" r="1.2"/>
	<circle class="st2" cx="213.8" cy="168.4" r="1.5"/>
	<circle class="st9" cx="211.8" cy="169.9" r="1.5"/>
	<circle class="st10" cx="212" cy="171.8" r="1.5"/>
	<circle class="st2" cx="209.6" cy="172" r="1.4"/>
	<circle class="st11" cx="210.4" cy="173.1" r="1.7"/>
	<circle class="st9" cx="209" cy="175.2" r="1.5"/>
	<circle class="st10" cx="208.2" cy="174.1" r="1.7"/>
	<circle class="st2" cx="206.6" cy="175.8" r="1.9"/>
	<circle class="st2" cx="206.3" cy="178.9" r="1.8"/>
	<circle class="st12" cx="204.3" cy="180.5" r="2.3"/>
	<circle class="st2" cx="202.5" cy="182.9" r="1.9"/>
	<circle class="st13" cx="204.4" cy="183.3" r="2.2"/>
	<circle class="st2" cx="202.2" cy="185.9" r="2.2"/>
	<circle class="st14" cx="203.3" cy="188.5" r="2.5"/>
	<circle class="st2" cx="202.9" cy="191.8" r="2.8"/>
	<circle class="st2" cx="203.1" cy="197.3" r="3"/>
	<circle class="st10" cx="205.3" cy="197.1" r="2.3"/>
	<circle class="st14" cx="204.1" cy="201.1" r="2.7"/>
	<circle class="st10" cx="207.9" cy="203.3" r="2.7"/>
	<circle class="st15" cx="207.8" cy="206.8" r="3.3"/>
	<circle class="st16" cx="210.5" cy="205.2" r="2.8"/>
	<circle class="st17" cx="216" cy="215" r="3.7"/>
	<circle class="st18" cx="213.8" cy="209.8" r="3.7"/>
	<circle class="st19" cx="217.9" cy="213.9" r="3.3"/>
	<circle class="st19" cx="226.7" cy="223.8" r="2.7"/>
	<circle class="st18" cx="224.9" cy="217.9" r="3.7"/>
	<circle class="st17" cx="225" cy="220.6" r="3.2"/>
	<circle class="st20" cx="230.1" cy="220.6" r="3.5"/>
	<circle class="st20" cx="218.5" cy="216.7" r="3.5"/>
	<circle class="st17" cx="222.3" cy="214.9" r="1.6"/>
	<circle class="st21" cx="215.9" cy="214.9" r="2.5"/>
	<circle class="st5" cx="221.5" cy="220.1" r="2.8"/>
	<circle class="st16" cx="211.5" cy="212.8" r="2.1"/>
	<circle class="st22" cx="210.5" cy="208.5" r="3.1"/>
	<circle class="st21" cx="208.9" cy="211.3" r="1.6"/>
	<circle class="st23" cx="204.4" cy="203.7" r="2.1"/>
	<circle class="st15" cx="207.1" cy="199.7" r="1.5"/>
	<circle class="st23" cx="201.4" cy="194.3" r="1.8"/>
	<circle class="st14" cx="204.6" cy="194" r="2"/>
	<circle class="st15" cx="201.3" cy="196.1" r="1.1"/>
	<circle class="st23" cx="201.4" cy="188.8" r="1.8"/>
	<circle class="st24" cx="204.7" cy="185.8" r="1.5"/>
	<circle class="st25" cx="206.1" cy="181.4" r="1.2"/>
	<circle class="st25" cx="204.6" cy="178" r="1.6"/>
	<circle class="st11" cx="208" cy="177.2" r="1.2"/>
	<circle class="st26" cx="208.3" cy="175.2" r="1"/>
	<circle class="st26" cx="210.8" cy="170.9" r="0.9"/>
	<circle class="st26" cx="213.7" cy="170.4" r="1.3"/>
	<circle class="st11" cx="214.6" cy="168.8" r="1"/>
	<circle class="st10" cx="216.2" cy="165.8" r="1"/>
	<circle class="st26" cx="217.8" cy="166" r="1"/>
	<circle class="st2" cx="217.8" cy="163.8" r="0.7"/>
	<circle class="st9" cx="220" cy="164.1" r="0.9"/>
	<circle class="st11" cx="220.2" cy="162.9" r="0.6"/>
	<circle class="st10" cx="222" cy="162.8" r="0.7"/>
	<circle class="st2" cx="221.3" cy="161.2" r="0.4"/>
	<circle class="st26" cx="223.2" cy="161.1" r="0.6"/>
	<circle class="st9" cx="223.5" cy="160.1" r="0.6"/>
	<circle class="st2" cx="225.5" cy="160.4" r="0.4"/>
	<circle class="st27" cx="226" cy="159.1" r="0.3"/>
	<circle class="st11" cx="228" cy="158" r="0.5"/>
	<circle class="st26" cx="229.4" cy="157.7" r="0.3"/>
	<circle class="st9" cx="262.5" cy="212.1" r="1.2"/>
	<circle class="st2" cx="264.2" cy="211.9" r="1.5"/>
	<circle class="st9" cx="266.2" cy="210.4" r="1.5"/>
	<circle class="st10" cx="266" cy="208.5" r="1.5"/>
	<circle class="st2" cx="268.5" cy="208.3" r="1.4"/>
	<circle class="st11" cx="267.6" cy="207.2" r="1.7"/>
	<circle class="st9" cx="269" cy="205.2" r="1.5"/>
	<circle class="st10" cx="269.8" cy="206.2" r="1.7"/>
	<circle class="st2" cx="271.4" cy="204.5" r="1.9"/>
	<circle class="st2" cx="271.7" cy="201.4" r="1.8"/>
	<circle class="st12" cx="273.7" cy="199.8" r="2.3"/>
	<circle class="st2" cx="275.5" cy="197.4" r="1.9"/>
	<circle class="st13" cx="273.7" cy="197" r="2.2"/>
	<circle class="st2" cx="275.8" cy="194.4" r="2.2"/>
	<circle class="st14" cx="274.7" cy="191.8" r="2.5"/>
	<circle class="st2" cx="275.1" cy="188.5" r="2.8"/>
	<circle class="st2" cx="274.9" cy="183" r="3"/>
	<circle class="st10" cx="272.7" cy="183.2" r="2.3"/>
	<circle class="st14" cx="273.9" cy="179.2" r="2.7"/>
	<circle class="st10" cx="270.1" cy="177" r="2.7"/>
	<circle class="st15" cx="270.2" cy="173.5" r="3.3"/>
	<circle class="st16" cx="267.5" cy="175.1" r="2.8"/>
	<circle class="st17" cx="262" cy="165.3" r="3.7"/>
	<circle class="st18" cx="264.2" cy="170.5" r="3.7"/>
	<circle class="st19" cx="260.1" cy="166.4" r="3.3"/>
	<circle class="st19" cx="251.3" cy="156.6" r="2.7"/>
	<circle class="st18" cx="253.1" cy="162.4" r="3.7"/>
	<circle class="st17" cx="242.7" cy="157" r="3"/>
	<circle class="st18" cx="247.5" cy="155.4" r="2.7"/>
	<circle class="st17" cx="253" cy="159.7" r="3.2"/>
	<circle class="st20" cx="247.9" cy="159.7" r="3.5"/>
	<circle class="st5" cx="245.1" cy="157" r="1.6"/>
	<circle class="st20" cx="259.5" cy="163.6" r="3.5"/>
	<circle class="st17" cx="255.7" cy="165.5" r="1.6"/>
	<circle class="st21" cx="262.1" cy="165.4" r="2.5"/>
	<circle class="st5" cx="256.5" cy="160.2" r="2.8"/>
	<circle class="st16" cx="266.5" cy="167.5" r="2.1"/>
	<circle class="st22" cx="267.5" cy="171.8" r="3.1"/>
	<circle class="st21" cx="269.1" cy="169" r="1.6"/>
	<circle class="st23" cx="273.6" cy="176.6" r="2.1"/>
	<circle class="st15" cx="270.9" cy="180.6" r="1.5"/>
	<circle class="st23" cx="276.6" cy="186.1" r="1.8"/>
	<circle class="st14" cx="273.4" cy="186.3" r="2"/>
	<circle class="st15" cx="276.7" cy="184.2" r="1.1"/>
	<circle class="st23" cx="276.6" cy="191.5" r="1.8"/>
	<circle class="st24" cx="273.3" cy="194.5" r="1.5"/>
	<circle class="st25" cx="271.9" cy="198.9" r="1.2"/>
	<circle class="st25" cx="273.5" cy="202.3" r="1.6"/>
	<circle class="st11" cx="270" cy="203.1" r="1.2"/>
	<circle class="st26" cx="269.7" cy="205.1" r="1"/>
	<circle class="st26" cx="267.2" cy="209.4" r="0.9"/>
	<circle class="st26" cx="264.3" cy="209.9" r="1.3"/>
	<circle class="st11" cx="263.4" cy="211.5" r="1"/>
	<circle class="st10" cx="261.8" cy="214.5" r="1"/>
	<circle class="st26" cx="260.2" cy="214.3" r="1"/>
	<circle class="st2" cx="260.2" cy="216.6" r="0.7"/>
	<circle class="st9" cx="258" cy="216.3" r="0.9"/>
	<circle class="st11" cx="257.8" cy="217.4" r="0.6"/>
	<circle class="st10" cx="256" cy="217.5" r="0.7"/>
	<circle class="st2" cx="256.7" cy="219.1" r="0.4"/>
	<circle class="st26" cx="254.9" cy="219.2" r="0.6"/>
	<circle class="st9" cx="254.5" cy="220.2" r="0.6"/>
	<circle class="st2" cx="252.5" cy="219.9" r="0.4"/>
	<circle class="st27" cx="252" cy="221.2" r="0.3"/>
	<circle class="st11" cx="250" cy="222.3" r="0.5"/>
	<circle class="st26" cx="248.6" cy="222.6" r="0.3"/>
	<circle class="st18" cx="237.9" cy="224.2" r="3.7"/>
	<circle class="st20" cx="235.1" cy="225.9" r="3.7"/>
	<circle class="st20" cx="242.8" cy="225.6" r="3.2"/>
	<circle class="st5" cx="238.6" cy="228.6" r="3.2"/>
	<circle class="st17" cx="235.3" cy="223.3" r="3"/>
	<circle class="st18" cx="230.5" cy="224.9" r="2.7"/>
	<circle class="st5" cx="233.1" cy="224.6" r="1.2"/>
	<circle class="st5" cx="239" cy="225.4" r="1.7"/>
	<circle class="st9" cx="215.5" cy="316.2" r="1.2"/>
	<circle class="st2" cx="213.8" cy="316.4" r="1.5"/>
	<circle class="st9" cx="222.2" cy="323.9" r="1.5"/>
	<circle class="st10" cx="209.6" cy="319.6" r="1.5"/>
	<circle class="st2" cx="217.6" cy="329.8" r="1.4"/>
	<circle class="st11" cx="211.4" cy="326" r="1.7"/>
	<circle class="st9" cx="209" cy="323.2" r="1.5"/>
	<circle class="st10" cx="203.5" cy="326.9" r="1.7"/>
	<circle class="st2" cx="206.6" cy="323.8" r="1.9"/>
	<circle class="st2" cx="206.3" cy="326.9" r="1.8"/>
	<circle class="st12" cx="208.7" cy="329.4" r="2.3"/>
	<circle class="st2" cx="202.5" cy="330.9" r="1.9"/>
	<circle class="st13" cx="214.8" cy="335.3" r="2.2"/>
	<circle class="st2" cx="217.9" cy="345.9" r="3"/>
	<circle class="st10" cx="200.9" cy="345.5" r="0.7"/>
	<circle class="st14" cx="205.2" cy="350.3" r="1.6"/>
	<circle class="st15" cx="209.5" cy="348.3" r="1.5"/>
	<circle class="st23" cx="242.9" cy="363.4" r="1.8"/>
	<circle class="st14" cx="207.5" cy="341.2" r="2"/>
	<circle class="st15" cx="244.1" cy="331.3" r="1.1"/>
	<circle class="st23" cx="201.4" cy="336.9" r="1.8"/>
	<circle class="st24" cx="204.7" cy="333.9" r="1.5"/>
	<circle class="st25" cx="212.5" cy="329.7" r="1.2"/>
	<circle class="st25" cx="208.5" cy="334.3" r="1.6"/>
	<circle class="st11" cx="219.7" cy="330.4" r="1.2"/>
	<circle class="st26" cx="217.1" cy="325.1" r="1"/>
	<circle class="st26" cx="215.4" cy="322.8" r="0.9"/>
	<circle class="st26" cx="213.7" cy="318.4" r="1.3"/>
	<circle class="st11" cx="222.4" cy="315.3" r="1"/>
	<circle class="st10" cx="216.2" cy="313.9" r="1"/>
	<circle class="st26" cx="218.9" cy="318" r="1"/>
	<circle class="st2" cx="217.8" cy="311.8" r="0.7"/>
	<circle class="st9" cx="219.9" cy="315.2" r="0.9"/>
	<circle class="st11" cx="220.2" cy="311" r="0.6"/>
	<circle class="st10" cx="222" cy="310.8" r="0.7"/>
	<circle class="st2" cx="221.3" cy="309.3" r="0.4"/>
	<circle class="st26" cx="223.2" cy="309.2" r="0.6"/>
	<circle class="st9" cx="223.5" cy="308.1" r="0.6"/>
	<circle class="st2" cx="225.5" cy="308.5" r="0.4"/>
	<circle class="st27" cx="226" cy="307.1" r="0.3"/>
	<circle class="st11" cx="228" cy="306.1" r="0.5"/>
	<circle class="st26" cx="229.4" cy="305.8" r="0.3"/>
	<circle class="st9" cx="226.4" cy="416.5" r="1.2"/>
	<circle class="st9" cx="238.6" cy="388" r="1.5"/>
	<circle class="st9" cx="253.1" cy="410" r="0.8"/>
	<circle class="st2" cx="261.8" cy="404.2" r="1.1"/>
	<circle class="st2" cx="263.5" cy="390.6" r="1.8"/>
	<circle class="st2" cx="273.6" cy="385.9" r="1.5"/>
	<circle class="st14" cx="272.3" cy="372.9" r="0.9"/>
	<circle class="st2" cx="255.9" cy="373" r="1.4"/>
	<circle class="st2" cx="271" cy="360.5" r="2.4"/>
	<circle class="st10" cx="277.3" cy="367" r="1.1"/>
	<circle class="st14" cx="259.2" cy="345" r="2.7"/>
	<circle class="st10" cx="273" cy="348.4" r="2.7"/>
	<circle class="st15" cx="267.3" cy="324.9" r="2.6"/>
	<circle class="st16" cx="276.8" cy="328.4" r="2.1"/>
	<circle class="st17" cx="262" cy="312.2" r="3.7"/>
	<circle class="st18" cx="268.8" cy="319.8" r="3.7"/>
	<circle class="st19" cx="252.6" cy="335.2" r="2.7"/>
	<circle class="st18" cx="251.8" cy="309.4" r="3.4"/>
	<circle class="st17" cx="242.7" cy="303.9" r="3"/>
	<circle class="st21" cx="249" cy="316.3" r="2.7"/>
	<circle class="st17" cx="237" cy="328.6" r="3.2"/>
	<circle class="st20" cx="244.7" cy="313.5" r="3.5"/>
	<circle class="st5" cx="245.1" cy="303.9" r="1.6"/>
	<circle class="st20" cx="255.4" cy="318.7" r="3.5"/>
	<circle class="st17" cx="255.7" cy="312.3" r="1.6"/>
	<circle class="st21" cx="259.9" cy="325.2" r="2.5"/>
	<circle class="st5" cx="246.5" cy="327.8" r="1.9"/>
	<circle class="st16" cx="255.6" cy="307.7" r="2.1"/>
	<circle class="st22" cx="280.1" cy="339.8" r="2.5"/>
	<circle class="st21" cx="245.6" cy="339.3" r="1.6"/>
	<circle class="st23" cx="280.5" cy="353.3" r="1.6"/>
	<circle class="st15" cx="257.6" cy="357.2" r="1.5"/>
	<circle class="st23" cx="263.5" cy="368" r="1.8"/>
	<circle class="st14" cx="229.7" cy="325.7" r="2"/>
	<circle class="st15" cx="248" cy="347.7" r="1.1"/>
	<circle class="st24" cx="263.9" cy="380.8" r="1.5"/>
	<circle class="st25" cx="243.1" cy="381.1" r="1.2"/>
	<circle class="st25" cx="253.7" cy="388.6" r="1.6"/>
	<circle class="st11" cx="265.7" cy="397.3" r="1.2"/>
	<circle class="st26" cx="250.6" cy="397.6" r="1"/>
	<circle class="st26" cx="250.6" cy="397.6" r="0.9"/>
	<circle class="st11" cx="240.7" cy="399.4" r="1"/>
	<circle class="st2" cx="208.3" cy="385.5" r="1.9"/>
	<circle class="st2" cx="225.9" cy="382.2" r="1.9"/>
	<circle class="st14" cx="208.6" cy="373.4" r="1.4"/>
	<circle class="st2" cx="218.1" cy="365" r="1"/>
	<circle class="st2" cx="208.8" cy="360" r="1.9"/>
	<circle class="st10" cx="202.9" cy="368" r="2"/>
	<circle class="st23" cx="200.8" cy="356.6" r="1.4"/>
	<circle class="st15" cx="223.8" cy="357.2" r="1.5"/>
	<circle class="st23" cx="212.8" cy="372.5" r="1.8"/>
	<circle class="st14" cx="230.5" cy="352.3" r="2"/>
	<circle class="st23" cx="232" cy="374.3" r="1.8"/>
	<circle class="st24" cx="217.5" cy="380.8" r="1.5"/>
	<circle class="st25" cx="212.2" cy="394.5" r="1.2"/>
	<circle class="st26" cx="230.8" cy="397.6" r="1"/>
	<circle class="st26" cx="227.4" cy="402.6" r="1.3"/>
	<circle class="st10" cx="240.7" cy="408.3" r="1"/>
	<circle class="st2" cx="247" cy="414.3" r="0.7"/>
	<circle class="st11" cx="233.3" cy="415.5" r="0.6"/>
	<circle class="st2" cx="231.9" cy="423.8" r="0.4"/>
	<circle class="st26" cx="240.9" cy="425.8" r="0.6"/>
	<circle class="st9" cx="218.4" cy="406.5" r="0.6"/>
	<circle class="st27" cx="236.6" cy="421.2" r="0.3"/>
	<circle class="st18" cx="239.9" cy="298.7" r="3.7"/>
	<circle class="st20" cx="234.3" cy="301.6" r="3.7"/>
	<circle class="st20" cx="250.2" cy="302.5" r="3.2"/>
	<circle class="st5" cx="240.1" cy="306.6" r="3.2"/>
	<circle class="st17" cx="235.3" cy="297" r="3"/>
	<circle class="st18" cx="230.5" cy="298.6" r="2.7"/>
	<circle class="st5" cx="233.1" cy="298.4" r="1.2"/>
	<circle class="st5" cx="236.6" cy="312.1" r="1.7"/>
	<circle class="st22" cx="266.7" cy="339.3" r="1.2"/>
	<circle class="st22" cx="262" cy="334.6" r="1.2"/>
	<circle class="st5" cx="270" cy="335.1" r="1.1"/>
	<circle class="st5" cx="252.9" cy="326.3" r="1.1"/>
	<circle class="st14" cx="246.1" cy="356.1" r="1.8"/>
	<circle class="st15" cx="240.7" cy="346.5" r="3.3"/>
	<circle class="st17" cx="224.9" cy="340.6" r="3.2"/>
	<circle class="st21" cx="228.2" cy="317" r="1.3"/>
	<circle class="st5" cx="235.2" cy="339" r="2.8"/>
	<circle class="st21" cx="225.6" cy="331.4" r="1.6"/>
	<circle class="st15" cx="235.8" cy="359.7" r="1.1"/>
	<circle class="st22" cx="239.7" cy="368.9" r="1.2"/>
	<circle class="st5" cx="240.7" cy="338.3" r="1.1"/>
	<circle class="st14" cx="236" cy="317.9" r="2"/>
	<circle class="st5" cx="266.2" cy="349.3" r="1.3"/>
	<circle class="st5" cx="231.5" cy="308" r="1.3"/>
	<circle class="st5" cx="216.2" cy="354.2" r="1.3"/>
	<circle class="st5" cx="255.5" cy="351.3" r="1.3"/>
	<circle class="st5" cx="266.3" cy="354" r="0.6"/>
	<circle class="st5" cx="251.2" cy="366.9" r="0.6"/>
	<circle class="st5" cx="244.1" cy="320.7" r="0.6"/>
	<circle class="st10" cx="227.4" cy="369.3" r="1.3"/>
	<circle class="st17" cx="254.5" cy="333.9" r="1.6"/>
	<circle class="st15" cx="269" cy="340.4" r="2"/>
	<circle class="st15" cx="256.1" cy="345.4" r="2"/>
	<circle class="st15" cx="238.4" cy="319" r="2"/>
	<circle class="st17" cx="236.2" cy="309.4" r="2"/>
	<circle class="st27" cx="249" cy="419.1" r="0.4"/>
	<circle class="st5" cx="211.1" cy="290" r="0.6"/>
	<circle class="st21" cx="229.7" cy="288.5" r="0.6"/>
	<circle class="st21" cx="227.5" cy="302.8" r="1.2"/>
	<circle class="st20" cx="224.9" cy="300.8" r="0.6"/>
	<circle class="st10" cx="199.9" cy="273.6" r="0.6"/>
	<circle class="st15" cx="210" cy="273.1" r="0.6"/>
	<circle class="st10" cx="209.2" cy="271.6" r="0.3"/>
	<circle class="st5" cx="212.8" cy="291.5" r="0.3"/>
	<circle class="st26" cx="201.5" cy="251.7" r="0.6"/>
	<circle class="st11" cx="213.2" cy="238.5" r="0.3"/>
	<circle class="st26" cx="221.5" cy="238.9" r="0.6"/>
	<circle class="st26" cx="231.7" cy="230.3" r="0.3"/>
	<circle class="st5" cx="267" cy="237.1" r="0.6"/>
	<circle class="st21" cx="248.4" cy="238.6" r="0.6"/>
	<circle class="st20" cx="253.2" cy="226.3" r="0.6"/>
	<circle class="st10" cx="278.2" cy="253.5" r="0.6"/>
	<circle class="st15" cx="268.1" cy="254" r="0.6"/>
	<circle class="st10" cx="268.9" cy="255.5" r="0.3"/>
	<circle class="st5" cx="265.3" cy="235.6" r="0.3"/>
	<circle class="st26" cx="276.6" cy="275.4" r="0.6"/>
	<circle class="st11" cx="264.9" cy="288.6" r="0.3"/>
	<circle class="st26" cx="256.6" cy="288.2" r="0.6"/>
	<circle class="st26" cx="246.4" cy="296.7" r="0.3"/>
	<circle class="st5" cx="267" cy="163.6" r="0.6"/>
	<circle class="st21" cx="248.4" cy="165.1" r="0.6"/>
	<circle class="st20" cx="253.2" cy="152.8" r="0.6"/>
	<circle class="st10" cx="278.2" cy="180.1" r="0.6"/>
	<circle class="st15" cx="268.1" cy="180.5" r="0.6"/>
	<circle class="st10" cx="268.9" cy="182" r="0.3"/>
	<circle class="st5" cx="265.3" cy="162.1" r="0.3"/>
	<circle class="st26" cx="276.6" cy="201.9" r="0.6"/>
	<circle class="st11" cx="264.9" cy="215.2" r="0.3"/>
	<circle class="st26" cx="256.6" cy="214.7" r="0.6"/>
	<circle class="st26" cx="246.4" cy="223.3" r="0.3"/>
	<circle class="st5" cx="211.1" cy="216.3" r="0.6"/>
	<circle class="st21" cx="229.7" cy="214.8" r="0.6"/>
	<circle class="st20" cx="224.9" cy="227" r="0.6"/>
	<circle class="st10" cx="199.9" cy="199.8" r="0.6"/>
	<circle class="st15" cx="210" cy="199.3" r="0.6"/>
	<circle class="st10" cx="209.2" cy="197.8" r="0.3"/>
	<circle class="st5" cx="212.8" cy="217.8" r="0.3"/>
	<circle class="st26" cx="201.5" cy="177.9" r="0.6"/>
	<circle class="st11" cx="213.2" cy="164.7" r="0.3"/>
	<circle class="st26" cx="221.5" cy="165.1" r="0.6"/>
	<circle class="st26" cx="231.7" cy="156.6" r="0.3"/>
	<circle class="st9" cx="225.8" cy="314.1" r="0.7"/>
	<circle class="st2" cx="228" cy="309.5" r="1"/>
	<circle class="st9" cx="230.2" cy="319" r="0.9"/>
	<circle class="st10" cx="222" cy="316.3" r="0.9"/>
	<circle class="st2" cx="233.5" cy="328.8" r="0.9"/>
	<circle class="st11" cx="239.7" cy="320.8" r="1.1"/>
	<circle class="st9" cx="215.5" cy="314.8" r="0.9"/>
	<circle class="st10" cx="218.2" cy="321" r="1.1"/>
	<circle class="st2" cx="213.1" cy="320" r="1.2"/>
	<circle class="st2" cx="219.9" cy="321" r="1.1"/>
	<circle class="st12" cx="218.6" cy="315.4" r="1.4"/>
	<circle class="st2" cx="214.1" cy="330.6" r="1.2"/>
	<circle class="st13" cx="225.4" cy="326.3" r="1.4"/>
	<circle class="st2" cx="227.4" cy="333.2" r="1.9"/>
	<circle class="st10" cx="197.3" cy="335.7" r="0.4"/>
	<circle class="st14" cx="219.3" cy="335.9" r="1"/>
	<circle class="st15" cx="222" cy="334.7" r="1"/>
	<circle class="st23" cx="255.4" cy="344.4" r="1.1"/>
	<circle class="st14" cx="220.7" cy="330.2" r="1.3"/>
	<circle class="st15" cx="247.1" cy="324.7" r="0.7"/>
	<circle class="st23" cx="203.9" cy="330.1" r="1.2"/>
	<circle class="st24" cx="210.2" cy="328.9" r="1"/>
	<circle class="st25" cx="223.9" cy="322.8" r="0.8"/>
	<circle class="st25" cx="221.3" cy="325.7" r="1"/>
	<circle class="st11" cx="228.5" cy="323.2" r="0.8"/>
	<circle class="st26" cx="223.5" cy="305.5" r="0.6"/>
	<circle class="st26" cx="225.7" cy="318.3" r="0.6"/>
	<circle class="st26" cx="224.7" cy="315.5" r="0.8"/>
	<circle class="st11" cx="230.3" cy="313.5" r="0.6"/>
	<circle class="st10" cx="222" cy="312.1" r="0.7"/>
	<circle class="st26" cx="228" cy="315.3" r="0.6"/>
	<circle class="st2" cx="227.3" cy="311.3" r="0.4"/>
	<circle class="st9" cx="231.2" cy="310.4" r="0.6"/>
	<circle class="st11" cx="225.3" cy="309.4" r="0.4"/>
	<circle class="st10" cx="219.8" cy="307.3" r="0.4"/>
	<circle class="st9" cx="232.8" cy="378.4" r="0.7"/>
	<circle class="st9" cx="252.6" cy="360.1" r="0.9"/>
	<circle class="st9" cx="264.9" cy="377.2" r="0.5"/>
	<circle class="st2" cx="270.5" cy="373.5" r="0.7"/>
	<circle class="st2" cx="268.6" cy="361.8" r="1.1"/>
	<circle class="st2" cx="275.1" cy="358.8" r="1"/>
	<circle class="st14" cx="282.2" cy="364.9" r="0.6"/>
	<circle class="st2" cx="263.7" cy="350.5" r="0.9"/>
	<circle class="st2" cx="267.7" cy="342.5" r="1.5"/>
	<circle class="st10" cx="277.4" cy="346.7" r="0.7"/>
	<circle class="st14" cx="256.8" cy="333.4" r="1.7"/>
	<circle class="st10" cx="269" cy="334.7" r="1.7"/>
	<circle class="st15" cx="262.6" cy="322.7" r="1.6"/>
	<circle class="st16" cx="268.7" cy="324.9" r="1.3"/>
	<circle class="st17" cx="259.2" cy="314.5" r="2.4"/>
	<circle class="st18" cx="263.6" cy="319.4" r="2.4"/>
	<circle class="st19" cx="256.2" cy="330.2" r="1.7"/>
	<circle class="st17" cx="243.2" cy="306.2" r="1.9"/>
	<circle class="st17" cx="242.6" cy="322.9" r="2.1"/>
	<circle class="st5" cx="244.8" cy="306.2" r="1.1"/>
	<circle class="st17" cx="255.2" cy="314.6" r="1"/>
	<circle class="st21" cx="257.9" cy="322.9" r="1.6"/>
	<circle class="st5" cx="245.7" cy="321.5" r="1.2"/>
	<circle class="st16" cx="262.1" cy="315.9" r="1.3"/>
	<circle class="st22" cx="270.8" cy="332.2" r="1.6"/>
	<circle class="st21" cx="248.2" cy="329.8" r="1"/>
	<circle class="st23" cx="273.8" cy="337.9" r="1"/>
	<circle class="st15" cx="252.8" cy="340.3" r="1"/>
	<circle class="st23" cx="268.6" cy="347.3" r="1.1"/>
	<circle class="st14" cx="234.1" cy="318.1" r="1.3"/>
	<circle class="st15" cx="249.7" cy="335.2" r="0.7"/>
	<circle class="st24" cx="268.9" cy="355.5" r="1"/>
	<circle class="st25" cx="255.5" cy="355.7" r="0.8"/>
	<circle class="st25" cx="262.3" cy="360.5" r="1"/>
	<circle class="st11" cx="270" cy="366.1" r="0.8"/>
	<circle class="st26" cx="260.3" cy="366.3" r="0.6"/>
	<circle class="st26" cx="260.3" cy="366.3" r="0.6"/>
	<circle class="st11" cx="254" cy="367.4" r="0.6"/>
	<circle class="st2" cx="212.2" cy="358.5" r="1.2"/>
	<circle class="st2" cx="229.3" cy="358.6" r="1.2"/>
	<circle class="st14" cx="212.4" cy="350.8" r="0.9"/>
	<circle class="st2" cx="227.5" cy="345.4" r="0.6"/>
	<circle class="st2" cx="221.5" cy="342.2" r="1.2"/>
	<circle class="st10" cx="208.8" cy="347.3" r="1.3"/>
	<circle class="st23" cx="216.4" cy="340" r="0.9"/>
	<circle class="st15" cx="231.2" cy="340.3" r="1"/>
	<circle class="st23" cx="215.1" cy="350.2" r="1.1"/>
	<circle class="st14" cx="235.5" cy="337.2" r="1.3"/>
	<circle class="st23" cx="227.4" cy="351.3" r="1.2"/>
	<circle class="st24" cx="218.1" cy="355.5" r="1"/>
	<circle class="st25" cx="208.7" cy="364.3" r="0.8"/>
	<circle class="st26" cx="220.7" cy="366.3" r="0.6"/>
	<circle class="st26" cx="219.1" cy="371.9" r="0.8"/>
	<circle class="st10" cx="254" cy="373.1" r="0.7"/>
	<circle class="st2" cx="246" cy="375.9" r="0.4"/>
	<circle class="st11" cx="208.2" cy="402.6" r="0.4"/>
	<circle class="st2" cx="219.5" cy="396.9" r="0.3"/>
	<circle class="st26" cx="259.7" cy="415.4" r="0.4"/>
	<circle class="st9" cx="202.6" cy="379.2" r="0.4"/>
	<circle class="st18" cx="241.5" cy="302.9" r="2.4"/>
	<circle class="st5" cx="241.6" cy="308" r="2.1"/>
	<circle class="st17" cx="238.5" cy="301.8" r="1.9"/>
	<circle class="st18" cx="235.5" cy="302.8" r="1.8"/>
	<circle class="st5" cx="278.5" cy="322.1" r="0.8"/>
	<circle class="st5" cx="239.4" cy="311.5" r="1.1"/>
	<circle class="st22" cx="286" cy="344.1" r="0.7"/>
	<circle class="st22" cx="262.2" cy="329.8" r="0.7"/>
	<circle class="st5" cx="264.4" cy="329.2" r="0.7"/>
	<circle class="st5" cx="263.9" cy="324" r="0.7"/>
	<circle class="st14" cx="245.4" cy="339.7" r="1.2"/>
	<circle class="st15" cx="245" cy="334.4" r="2.1"/>
	<circle class="st17" cx="231.8" cy="329.7" r="2.1"/>
	<circle class="st21" cx="234" cy="313.9" r="1.6"/>
	<circle class="st5" cx="241.4" cy="329.6" r="1.8"/>
	<circle class="st21" cx="232.3" cy="323.8" r="1"/>
	<circle class="st15" cx="238.9" cy="342" r="0.7"/>
	<circle class="st22" cx="253.4" cy="347.9" r="0.7"/>
	<circle class="st5" cx="271.5" cy="315.2" r="0.7"/>
	<circle class="st14" cx="239" cy="315.2" r="1.3"/>
	<circle class="st5" cx="264.6" cy="335.3" r="0.8"/>
	<circle class="st5" cx="226.3" cy="338.5" r="0.8"/>
	<circle class="st5" cx="254.5" cy="337.5" r="0.8"/>
	<circle class="st5" cx="258.2" cy="306.1" r="0.4"/>
	<circle class="st5" cx="260.7" cy="346.6" r="0.4"/>
	<circle class="st5" cx="244.1" cy="317" r="0.4"/>
	<circle class="st10" cx="224.4" cy="348.2" r="0.8"/>
	<circle class="st17" cx="257.4" cy="329.4" r="1"/>
	<circle class="st17" cx="235.5" cy="306.6" r="1.7"/>
	<circle class="st15" cx="263.7" cy="332.6" r="1.3"/>
	<circle class="st15" cx="262.6" cy="339.1" r="1.3"/>
	<circle class="st15" cx="240.5" cy="315.9" r="1.3"/>
	<circle class="st17" cx="239.1" cy="309.7" r="1.3"/>
	<circle class="st27" cx="253.6" cy="386" r="0.3"/>
	<circle class="st2" cx="233.7" cy="349.4" r="1.9"/>
	<circle class="st2" cx="233.8" cy="361.6" r="0.6"/>
	<circle class="st15" cx="237.5" cy="356.5" r="1"/>
	<circle class="st14" cx="241.7" cy="353.4" r="1.3"/>
	<circle class="st23" cx="233.7" cy="367.5" r="1.2"/>
	<circle class="st17" cx="238.1" cy="345.9" r="2.1"/>
	<circle class="st5" cx="232.6" cy="354.6" r="0.8"/>
	<circle class="st15" cx="285.7" cy="349" r="0.4"/>
	<circle class="st14" cx="250.2" cy="323.9" r="0.7"/>
	<circle class="st15" cx="250" cy="320.6" r="1.3"/>
	<circle class="st2" cx="279.9" cy="384.8" r="0.6"/>
	<circle class="st2" cx="196.4" cy="355.2" r="0.6"/>
</g>
<rect x="24.7" y="17.8" transform="matrix(0.7071 0.7071 -0.7071 0.7071 55.2562 -26.9335)" class="st8" width="70.8" height="70.8"/>
<path class="st29" d="M413.5,64.6h-5.3V68v3.4h5.3v5.3h6.7v-5.3h5.3V68v-3.4h-5.3v-4.1c0.3-0.1,0.7-0.2,1-0.3h-8.7
	c0.3,0.1,0.6,0.2,1,0.3V64.6z"/>
<path class="st30" d="M431.6,46.2c0-8.1-6.6-14.7-14.7-14.7c-8.1,0-14.7,6.6-14.7,14.7c0,6.6,4.4,12.2,10.4,14.1h8.7
	C427.2,58.4,431.6,52.8,431.6,46.2z M408.4,46.2c0-4.7,3.8-8.5,8.5-8.5c4.7,0,8.5,3.8,8.5,8.5c0,4.7-3.8,8.5-8.5,8.5
	C412.2,54.7,408.4,50.9,408.4,46.2z"/>
<g>
	<path class="st31" d="M257.6,55.9l0.6-0.8c0.6,0.4,1.2,0.7,1.8,0.7c0.5,0,0.9-0.2,0.9-0.6v0c0-0.4-0.6-0.6-1.2-0.8
		c-0.8-0.2-1.7-0.6-1.7-1.6v0c0-1,0.9-1.7,2-1.7c0.7,0,1.4,0.2,2,0.6l-0.5,0.9c-0.5-0.3-1.1-0.5-1.5-0.5c-0.5,0-0.8,0.2-0.8,0.5v0
		c0,0.4,0.6,0.6,1.2,0.8c0.8,0.3,1.7,0.6,1.7,1.6v0c0,1.2-0.9,1.7-2,1.7C259.1,56.8,258.2,56.5,257.6,55.9z"/>
	<path class="st31" d="M266.5,56.7l0-0.7c-0.4,0.4-0.9,0.8-1.8,0.8c-1,0-1.9-0.6-1.9-1.7v0c0-1.2,1-1.8,2.2-1.8
		c0.7,0,1.1,0.1,1.5,0.2v-0.1c0-0.8-0.5-1.2-1.3-1.2c-0.6,0-1.1,0.1-1.6,0.3l-0.3-1c0.6-0.3,1.2-0.4,2.1-0.4c1.6,0,2.4,0.9,2.4,2.3
		l0,3.2L266.5,56.7z M266.6,54.4c-0.3-0.1-0.8-0.2-1.3-0.2c-0.8,0-1.3,0.3-1.3,0.8v0c0,0.5,0.5,0.8,1.1,0.8c0.8,0,1.5-0.5,1.5-1.1
		L266.6,54.4z"/>
	<path class="st31" d="M269.4,49.1l1.3,0l0,7.6l-1.3,0L269.4,49.1z"/>
	<path class="st31" d="M272.3,49.2l1.3,0l0,1.2l-1.3,0L272.3,49.2z M272.3,51.2l1.3,0l0,5.5l-1.3,0L272.3,51.2z"/>
	<path class="st31" d="M274.7,51.3l1.3,0l1.5,4l1.5-4l1.3,0l-2.3,5.5l-1.1,0L274.7,51.3z"/>
	<path class="st31" d="M284.5,56.8l0-0.7c-0.4,0.4-0.9,0.8-1.8,0.8c-1,0-1.9-0.6-1.9-1.7v0c0-1.2,1-1.8,2.2-1.8
		c0.7,0,1.1,0.1,1.5,0.2v-0.1c0-0.8-0.5-1.2-1.3-1.2c-0.6,0-1.1,0.1-1.6,0.3l-0.3-1c0.6-0.3,1.2-0.4,2.1-0.4c1.6,0,2.4,0.9,2.4,2.3
		l0,3.2L284.5,56.8z M284.5,54.5c-0.3-0.1-0.8-0.2-1.3-0.2c-0.8,0-1.3,0.3-1.3,0.8v0c0,0.5,0.5,0.8,1.1,0.8c0.8,0,1.5-0.5,1.5-1.1
		L284.5,54.5z"/>
	<path class="st31" d="M289.9,56.1l0.6-0.8c0.6,0.4,1.2,0.7,1.8,0.7c0.5,0,0.9-0.2,0.9-0.6v0c0-0.4-0.6-0.6-1.2-0.8
		c-0.8-0.2-1.7-0.6-1.7-1.6v0c0-1,0.9-1.7,2-1.7c0.7,0,1.4,0.2,2,0.6l-0.5,0.9c-0.5-0.3-1.1-0.5-1.5-0.5c-0.5,0-0.8,0.2-0.8,0.5v0
		c0,0.4,0.6,0.6,1.2,0.8c0.8,0.3,1.7,0.6,1.7,1.6v0c0,1.2-0.9,1.7-2,1.7C291.4,56.9,290.6,56.6,289.9,56.1z"/>
	<path class="st31" d="M298.9,56.9l0-0.7c-0.4,0.4-0.9,0.8-1.8,0.8c-1,0-1.9-0.6-1.9-1.7v0c0-1.2,1-1.8,2.2-1.8
		c0.7,0,1.1,0.1,1.5,0.2v-0.1c0-0.8-0.5-1.2-1.3-1.2c-0.6,0-1.1,0.1-1.6,0.3l-0.3-1c0.6-0.3,1.2-0.5,2.1-0.4c1.6,0,2.4,0.9,2.4,2.3
		l0,3.2L298.9,56.9z M298.9,54.6c-0.3-0.1-0.8-0.2-1.3-0.2c-0.8,0-1.3,0.3-1.3,0.8v0c0,0.5,0.5,0.8,1.1,0.8c0.8,0,1.5-0.5,1.5-1.1
		L298.9,54.6z"/>
	<path class="st31" d="M301.6,51.4l1.3,0l0,0.8c0.4-0.5,0.8-0.9,1.7-0.9c0.8,0,1.3,0.4,1.6,1c0.4-0.6,1-1,1.9-1
		c1.2,0,1.9,0.8,1.9,2.1l0,3.5l-1.3,0l0-3.1c0-0.9-0.4-1.3-1.1-1.3c-0.7,0-1.2,0.5-1.2,1.4l0,3.1l-1.3,0l0-3.1
		c0-0.9-0.4-1.3-1.1-1.3c-0.7,0-1.2,0.5-1.2,1.4l0,3.1l-1.3,0L301.6,51.4z"/>
	<path class="st31" d="M311.5,51.5l1.3,0l0,0.9c0.4-0.6,1-1,1.9-1c1.3,0,2.5,1,2.5,2.9v0c0,1.8-1.3,2.8-2.6,2.8
		c-0.9,0-1.5-0.5-1.9-1l0,2.5l-1.3,0L311.5,51.5z M315.9,54.2L315.9,54.2c0-1.1-0.7-1.8-1.6-1.8c-0.9,0-1.6,0.7-1.6,1.7v0
		c0,1.1,0.7,1.8,1.6,1.8C315.1,56,315.8,55.3,315.9,54.2z"/>
	<path class="st31" d="M318.5,49.4l1.3,0l0,7.6l-1.3,0L318.5,49.4z"/>
	<path class="st31" d="M321.1,54.3L321.1,54.3c0-1.6,1.1-2.9,2.7-2.9c1.7,0,2.6,1.4,2.6,3c0,0.1,0,0.2,0,0.4l-4,0
		c0.1,0.9,0.8,1.4,1.6,1.4c0.6,0,1-0.2,1.5-0.6l0.7,0.7c-0.5,0.6-1.2,1-2.2,1C322.3,57.1,321.1,56,321.1,54.3z M325.1,53.9
		c-0.1-0.8-0.6-1.4-1.4-1.4c-0.8,0-1.3,0.6-1.4,1.4L325.1,53.9z"/>
</g>
<g>
	<ellipse transform="matrix(0.7071 -0.7071 0.7071 0.7071 -4.188 96.4685)" class="st10" cx="114.4" cy="53.3" rx="1.1" ry="1.1"/>
	<ellipse transform="matrix(0.7071 -0.7071 0.7071 0.7071 -3.1746 98.915)" class="st10" cx="117.8" cy="53.3" rx="1.1" ry="1.1"/>
	
		<ellipse transform="matrix(0.7071 -0.7071 0.7071 0.7071 -2.1613 101.3615)" class="st10" cx="121.3" cy="53.3" rx="1.1" ry="1.1"/>
	
		<ellipse transform="matrix(0.7071 -0.7071 0.7071 0.7071 -1.1479 103.8079)" class="st10" cx="124.7" cy="53.3" rx="1.1" ry="1.1"/>
	
		<ellipse transform="matrix(0.7071 -0.7071 0.7071 0.7071 -0.1346 106.2544)" class="st10" cx="128.2" cy="53.3" rx="1.1" ry="1.1"/>
</g>
<g>
	<ellipse transform="matrix(0.7071 -0.7071 0.7071 0.7071 64.3757 261.996)" class="st30" cx="348.4" cy="53.3" rx="1.1" ry="1.1"/>
	
		<ellipse transform="matrix(0.7071 -0.7071 0.7071 0.7071 65.3891 264.4425)" class="st30" cx="351.9" cy="53.3" rx="1.1" ry="1.1"/>
	
		<ellipse transform="matrix(0.7071 -0.7071 0.7071 0.7071 66.4025 266.8889)" class="st30" cx="355.4" cy="53.3" rx="1.1" ry="1.1"/>
	
		<ellipse transform="matrix(0.7071 -0.7071 0.7071 0.7071 67.4158 269.3354)" class="st30" cx="358.8" cy="53.3" rx="1.1" ry="1.1"/>
	
		<ellipse transform="matrix(0.7071 -0.7071 0.7071 0.7071 68.4292 271.7819)" class="st30" cx="362.3" cy="53.3" rx="1.1" ry="1.1"/>
</g>
<rect x="274.9" y="94.8" class="st32" width="35" height="20.8"/>
<text transform="matrix(1 0 0 1 275.7561 102.2065)"><tspan x="0" y="0" class="st30 st33 st34">digital </tspan><tspan x="6.6" y="11.8" class="st30 st33 st34">egg</tspan></text>
<g>
	<path class="st30" d="M258.9,100c-1.6,0-3,1.3-3,3c0,1.6,1.3,3,3,3c1.6,0,3-1.3,3-3C261.9,101.3,260.6,100,258.9,100z M258.9,104.7
		c-1,0-1.7-0.8-1.7-1.7c0-1,0.8-1.7,1.7-1.7s1.7,0.8,1.7,1.7C260.6,103.9,259.9,104.7,258.9,104.7z M269,103.6h-1.1
		c-0.1-1-0.3-1.9-0.7-2.7l1-0.6c0.3-0.2,0.4-0.6,0.2-0.9c-0.2-0.3-0.6-0.4-0.9-0.2l-1,0.6c-0.5-0.8-1.2-1.4-2-2l0.6-1
		c0.2-0.3,0.1-0.7-0.2-0.9c-0.3-0.2-0.7-0.1-0.9,0.2l-0.6,1c-0.8-0.4-1.7-0.6-2.7-0.7v-1.1c0-0.3-0.3-0.6-0.6-0.6
		c-0.3,0-0.6,0.3-0.6,0.6v1.1c-1,0.1-1.9,0.3-2.7,0.7l-0.6-1c-0.2-0.3-0.6-0.4-0.9-0.2c-0.3,0.2-0.4,0.6-0.2,0.9l0.6,1
		c-0.8,0.5-1.4,1.2-2,2l-1-0.6c-0.3-0.2-0.7-0.1-0.9,0.2c-0.2,0.3-0.1,0.7,0.2,0.9l1,0.6c-0.4,0.8-0.6,1.7-0.7,2.7h-1.1
		c-0.3,0-0.6,0.3-0.6,0.6c0,0.3,0.3,0.6,0.6,0.6h1.1c0.1,1,0.3,1.9,0.7,2.7l-1,0.6c-0.3,0.2-0.4,0.6-0.2,0.9
		c0.1,0.2,0.3,0.3,0.5,0.3c0.1,0,0.2,0,0.3-0.1l1-0.6c0.5,0.8,1.2,1.4,2,2l-0.6,1c-0.2,0.3-0.1,0.7,0.2,0.9c0.1,0.1,0.2,0.1,0.3,0.1
		c0.2,0,0.4-0.1,0.5-0.3l0.6-1c0.8,0.4,1.7,0.6,2.7,0.7v1.1c0,0.3,0.3,0.6,0.6,0.6c0.3,0,0.6-0.3,0.6-0.6v-1.1
		c1-0.1,1.9-0.3,2.7-0.7l0.6,1c0.1,0.2,0.3,0.3,0.5,0.3c0.1,0,0.2,0,0.3-0.1c0.3-0.2,0.4-0.6,0.2-0.9l-0.6-1c0.8-0.5,1.4-1.2,2-2
		l1,0.6c0.1,0.1,0.2,0.1,0.3,0.1c0.2,0,0.4-0.1,0.5-0.3c0.2-0.3,0.1-0.7-0.2-0.9l-1-0.6c0.4-0.8,0.6-1.7,0.7-2.7h1.1
		c0.3,0,0.6-0.3,0.6-0.6C269.6,103.8,269.3,103.6,269,103.6z M260.1,110.7c-3.6,0-6.5-2.9-6.5-6.5c0-3.6,2.9-6.5,6.5-6.5
		c3.6,0,6.5,2.9,6.5,6.5C266.6,107.8,263.7,110.7,260.1,110.7z"/>
</g>
<g class="st35">
	<path class="st36" d="M220,97.3c1.3-1.3,3.6-2.2,4.4-1.4c0.8,0.8-0.1,3.1-1.4,4.4c-0.7,0.7-1.4,1-2,1c-0.8,0-1.6,0.3-2.1,0.8
		c-0.8,0.8-1.7,0.8-2.2,0.9c-3.9,0.4,1.8,5.3-5.8,6.2c-2.5,0.3-3.5,2.9-3.6,3.4c0,0,0,0,0,0c0,0,0,0,0,0c0,0-0.1,0-0.1,0
		c0,0,0,0,0-0.1c0.1-0.2,0.9-3.4,3.5-3.8c7.5-1.3,0.3-5.9,6.4-6.7c1.3-0.2,2-1.3,2.1-2.7C219,98.8,219.3,98.1,220,97.3L220,97.3z"/>
</g>
<path class="st32" d="M50.8,52.6c-1.3,1.4-2.1,3.1-2.3,4.9h16.8c-0.2-1.9-1-3.7-2.5-5.1C59.5,49.2,54.1,49.3,50.8,52.6z"/>
<path class="st37" d="M50.8,51.3c3.2-3.4,8.6-3.5,12-0.2c1.5,1.4,2.3,3.2,2.5,5.1h6.3c-0.2-2.5-0.9-4.9-2.3-7l3.5-3.7l0.1,3.9
	l5.5,5.3l-0.8-19.3l-19.1,0.2l5.5,5.3l3.8,0l-3.5,3.6c-5.8-3.4-13.3-2.6-18.1,2.5c-2.5,2.6-3.8,5.9-4.1,9.2h6.3
	C48.8,54.4,49.5,52.7,50.8,51.3z"/>
<path class="st38" d="M46.7,67.8c5.9,5.6,15.2,5.4,20.8-0.4c3-3.1,4.3-7.2,4.1-11.2h-6.3c0.3,2.4-0.4,5-2.3,6.9
	c-3.2,3.4-8.6,3.5-12,0.2c-2-1.9-2.8-4.6-2.5-7.1h-6.3C42,60.4,43.5,64.7,46.7,67.8z"/>
<rect x="168" y="94.2" class="st32" width="34.6" height="22"/>
<text transform="matrix(1 0 0 1 168.6155 101.6167)" class="st35"><tspan x="0" y="0" class="st36 st33 st34">digital </tspan><tspan x="0.5" y="11.8" class="st36 st33 st34">sperm</tspan></text>
<g>
	<path class="st31" d="M151.2,55.9l0.6-0.8c0.6,0.4,1.2,0.7,1.8,0.7c0.5,0,0.9-0.2,0.9-0.6v0c0-0.4-0.6-0.6-1.2-0.8
		c-0.8-0.2-1.7-0.6-1.7-1.6v0c0-1,0.9-1.7,2-1.7c0.7,0,1.4,0.2,2,0.6l-0.5,0.9c-0.5-0.3-1.1-0.5-1.5-0.5c-0.5,0-0.8,0.2-0.8,0.5v0
		c0,0.4,0.6,0.6,1.2,0.8c0.8,0.3,1.7,0.6,1.7,1.6v0c0,1.2-0.9,1.7-2,1.7C152.8,56.8,151.9,56.5,151.2,55.9z"/>
	<path class="st31" d="M160.2,56.7l0-0.7c-0.4,0.4-0.9,0.8-1.8,0.8c-1,0-1.9-0.6-1.9-1.7v0c0-1.2,1-1.8,2.2-1.8
		c0.7,0,1.1,0.1,1.5,0.2v-0.1c0-0.8-0.5-1.2-1.3-1.2c-0.6,0-1.1,0.1-1.6,0.3l-0.3-1c0.6-0.3,1.2-0.4,2.1-0.4c1.6,0,2.4,0.9,2.4,2.3
		l0,3.2L160.2,56.7z M160.2,54.4c-0.3-0.1-0.8-0.2-1.3-0.2c-0.8,0-1.3,0.3-1.3,0.8v0c0,0.5,0.5,0.8,1.1,0.8c0.8,0,1.5-0.5,1.5-1.1
		L160.2,54.4z"/>
	<path class="st31" d="M163,49.1l1.3,0l0,7.6l-1.3,0L163,49.1z"/>
	<path class="st31" d="M166,49.2l1.3,0l0,1.2l-1.3,0L166,49.2z M166,51.2l1.3,0l0,5.5l-1.3,0L166,51.2z"/>
	<path class="st31" d="M168.4,51.3l1.3,0l1.5,4l1.5-4l1.3,0l-2.3,5.5l-1.1,0L168.4,51.3z"/>
	<path class="st31" d="M178.1,56.8l0-0.7c-0.4,0.4-0.9,0.8-1.8,0.8c-1,0-1.9-0.6-1.9-1.7v0c0-1.2,1-1.8,2.2-1.8
		c0.7,0,1.1,0.1,1.5,0.2v-0.1c0-0.8-0.5-1.2-1.3-1.2c-0.6,0-1.1,0.1-1.6,0.3l-0.3-1c0.6-0.3,1.2-0.4,2.1-0.4c1.6,0,2.4,0.9,2.4,2.3
		l0,3.2L178.1,56.8z M178.2,54.5c-0.3-0.1-0.8-0.2-1.3-0.2c-0.8,0-1.3,0.3-1.3,0.8v0c0,0.5,0.5,0.8,1.1,0.8c0.8,0,1.5-0.5,1.5-1.1
		L178.2,54.5z"/>
	<path class="st31" d="M183.5,56.1l0.6-0.8c0.6,0.4,1.2,0.7,1.8,0.7c0.5,0,0.9-0.2,0.9-0.6v0c0-0.4-0.6-0.6-1.2-0.8
		c-0.8-0.2-1.7-0.6-1.7-1.6v0c0-1,0.9-1.7,2-1.7c0.7,0,1.4,0.2,2,0.6l-0.5,0.9c-0.5-0.3-1.1-0.5-1.5-0.5c-0.5,0-0.8,0.2-0.8,0.5v0
		c0,0.4,0.6,0.6,1.2,0.8c0.8,0.3,1.7,0.6,1.7,1.6v0c0,1.2-0.9,1.7-2,1.7C185.1,56.9,184.2,56.6,183.5,56.1z"/>
	<path class="st31" d="M192.5,56.9l0-0.7c-0.4,0.4-0.9,0.8-1.8,0.8c-1,0-1.9-0.6-1.9-1.7v0c0-1.2,1-1.8,2.2-1.8
		c0.7,0,1.1,0.1,1.5,0.2v-0.1c0-0.8-0.5-1.2-1.3-1.2c-0.6,0-1.1,0.1-1.6,0.3l-0.3-1c0.6-0.3,1.2-0.5,2.1-0.4c1.6,0,2.4,0.9,2.4,2.3
		l0,3.2L192.5,56.9z M192.6,54.6c-0.3-0.1-0.8-0.2-1.3-0.2c-0.8,0-1.3,0.3-1.3,0.8v0c0,0.5,0.5,0.8,1.1,0.8c0.8,0,1.5-0.5,1.5-1.1
		L192.6,54.6z"/>
	<path class="st31" d="M195.3,51.4l1.3,0l0,0.8c0.4-0.5,0.8-0.9,1.7-0.9c0.8,0,1.3,0.4,1.6,1c0.4-0.6,1-1,1.9-1
		c1.2,0,1.9,0.8,1.9,2.1l0,3.5l-1.3,0l0-3.1c0-0.9-0.4-1.3-1.1-1.3c-0.7,0-1.2,0.5-1.2,1.4l0,3.1l-1.3,0l0-3.1
		c0-0.9-0.4-1.3-1.1-1.3c-0.7,0-1.2,0.5-1.2,1.4l0,3.1l-1.3,0L195.3,51.4z"/>
	<path class="st31" d="M205.1,51.5l1.3,0l0,0.9c0.4-0.6,1-1,1.9-1c1.3,0,2.5,1,2.5,2.9v0c0,1.8-1.3,2.8-2.6,2.8
		c-0.9,0-1.5-0.5-1.9-1l0,2.5l-1.3,0L205.1,51.5z M209.5,54.2L209.5,54.2c0-1.1-0.7-1.8-1.6-1.8c-0.9,0-1.6,0.7-1.6,1.7v0
		c0,1.1,0.7,1.8,1.6,1.8C208.8,56,209.5,55.3,209.5,54.2z"/>
	<path class="st31" d="M212.2,49.4l1.3,0l0,7.6l-1.3,0L212.2,49.4z"/>
	<path class="st31" d="M214.7,54.3L214.7,54.3c0-1.6,1.1-2.9,2.7-2.9c1.7,0,2.6,1.4,2.6,3c0,0.1,0,0.2,0,0.4l-4,0
		c0.1,0.9,0.8,1.4,1.6,1.4c0.6,0,1-0.2,1.5-0.6l0.7,0.7c-0.5,0.6-1.2,1-2.2,1C216,57.1,214.7,56,214.7,54.3z M218.8,53.9
		c-0.1-0.8-0.6-1.4-1.4-1.4c-0.8,0-1.3,0.6-1.4,1.4L218.8,53.9z"/>
</g>
<g>
	<ellipse transform="matrix(0.7071 -0.7071 0.7071 0.7071 3.1008 152.5566)" class="st10" cx="185.7" cy="72.5" rx="1.1" ry="1.1"/>
	<ellipse transform="matrix(0.7071 -0.7071 0.7071 0.7071 0.6544 153.57)" class="st10" cx="185.7" cy="76" rx="1.1" ry="1.1"/>
	
		<ellipse transform="matrix(0.7071 -0.7071 0.7071 0.7071 -1.7921 154.5834)" class="st10" cx="185.7" cy="79.5" rx="1.1" ry="1.1"/>
	
		<ellipse transform="matrix(0.7071 -0.7071 0.7071 0.7071 -4.2386 155.5967)" class="st10" cx="185.7" cy="82.9" rx="1.1" ry="1.1"/>
	<ellipse transform="matrix(0.7071 -0.7071 0.7071 0.7071 -6.685 156.6101)" class="st10" cx="185.7" cy="86.4" rx="1.1" ry="1.1"/>
</g>
<g>
	
		<ellipse transform="matrix(0.7071 -0.7071 0.7071 0.7071 34.2523 227.7629)" class="st30" cx="292.1" cy="72.5" rx="1.1" ry="1.1"/>
	<ellipse transform="matrix(0.7071 -0.7071 0.7071 0.7071 31.8058 228.7763)" class="st30" cx="292.1" cy="76" rx="1.1" ry="1.1"/>
	
		<ellipse transform="matrix(0.7071 -0.7071 0.7071 0.7071 29.3594 229.7896)" class="st30" cx="292.1" cy="79.5" rx="1.1" ry="1.1"/>
	<ellipse transform="matrix(0.7071 -0.7071 0.7071 0.7071 26.9129 230.803)" class="st30" cx="292.1" cy="82.9" rx="1.1" ry="1.1"/>
	
		<ellipse transform="matrix(0.7071 -0.7071 0.7071 0.7071 24.4664 231.8163)" class="st30" cx="292.1" cy="86.4" rx="1.1" ry="1.1"/>
</g>
<g>
	
		<ellipse transform="matrix(0.7071 -0.7071 0.7071 0.7071 -31.1171 166.7302)" class="st10" cx="185.7" cy="120.9" rx="1.1" ry="1.1"/>
	
		<ellipse transform="matrix(0.7071 -0.7071 0.7071 0.7071 -33.5636 167.7435)" class="st10" cx="185.7" cy="124.4" rx="1.1" ry="1.1"/>
	
		<ellipse transform="matrix(0.7071 -0.7071 0.7071 0.7071 -36.0101 168.7569)" class="st10" cx="185.7" cy="127.8" rx="1.1" ry="1.1"/>
	
		<ellipse transform="matrix(0.7071 -0.7071 0.7071 0.7071 -38.4565 169.7703)" class="st10" cx="185.7" cy="131.3" rx="1.1" ry="1.1"/>
	
		<ellipse transform="matrix(0.7071 -0.7071 0.7071 0.7071 -40.903 170.7836)" class="st10" cx="185.7" cy="134.8" rx="1.1" ry="1.1"/>
</g>
<g>
	
		<ellipse transform="matrix(0.7071 -0.7071 0.7071 0.7071 3.432452e-02 241.9365)" class="st30" cx="292.1" cy="120.9" rx="1.1" ry="1.1"/>
	
		<ellipse transform="matrix(0.7071 -0.7071 0.7071 0.7071 -2.4121 242.9498)" class="st30" cx="292.1" cy="124.4" rx="1.1" ry="1.1"/>
	
		<ellipse transform="matrix(0.7071 -0.7071 0.7071 0.7071 -4.8586 243.9632)" class="st30" cx="292.1" cy="127.8" rx="1.1" ry="1.1"/>
	
		<ellipse transform="matrix(0.7071 -0.7071 0.7071 0.7071 -7.3051 244.9765)" class="st30" cx="292.1" cy="131.3" rx="1.1" ry="1.1"/>
	
		<ellipse transform="matrix(0.7071 -0.7071 0.7071 0.7071 -9.7515 245.9899)" class="st30" cx="292.1" cy="134.8" rx="1.1" ry="1.1"/>
</g>
<text transform="matrix(1 0 0 1 17.1125 129.1523)" class="st31 st33 st34">male participant</text>
<text transform="matrix(1 0 0 1 369.22 129.1523)" class="st31 st33 st34">female participant</text>
<path class="st36" d="M185.3,9.4c-1.7,0-3.1-1.3-3.1-2.6V3.7l6.3,0v2.9C188.4,8,187,9.4,185.3,9.4z M191.6,1.9h-12.7v1.9h1.7v23.4
	c0,1.9,2.1,3.4,4.6,3.4c2.5,0,4.6-1.5,4.6-3.4V3.7h1.7L191.6,1.9L191.6,1.9z"/>
<path class="st30" d="M292,9.4c-1.7,0-3.1-1.3-3.1-2.6V3.7l6.3,0v2.9C295.2,8,293.8,9.4,292,9.4z M298.4,1.9h-12.7v1.9h1.7v23.4
	c0,1.9,2.1,3.4,4.6,3.4c2.5,0,4.6-1.5,4.6-3.4V3.7h1.7L298.4,1.9L298.4,1.9z"/>
<path class="st0" d="M329.5,284H147.6c-6.6,0-12-5.4-12-12v-4.3c0-6.6,5.4-12,12-12h181.9c6.6,0,12,5.4,12,12v4.3
	C341.5,278.6,336.1,284,329.5,284z"/>
<rect x="139.6" y="266.2" class="st32" width="198.8" height="9"/>
<text transform="matrix(1 0 0 1 152.05 273.6064)" class="st31 st33 st34">potential genomes of future child</text>
<path class="st0" d="M329.5,168.9H147.6c-6.6,0-12-5.4-12-12v-4.3c0-6.6,5.4-12,12-12h181.9c6.6,0,12,5.4,12,12v4.3
	C341.5,163.5,336.1,168.9,329.5,168.9z"/>
<text transform="matrix(1 0 0 1 172.697 158.6387)" class="st31 st33 st34">digital combination of dna</text>
<path class="st0" d="M329.5,391.7H147.6c-6.6,0-12-5.4-12-12v-4.3c0-6.6,5.4-12,12-12h181.9c6.6,0,12,5.4,12,12v4.3
	C341.5,386.3,336.1,391.7,329.5,391.7z"/>
<rect x="103.5" y="373.9" class="st32" width="269.5" height="12.2"/>
<text transform="matrix(1 0 0 1 172.5744 381.3193)" class="st31 st33 st34">future childs genetic risk</text>
<g class="st3">
	
		<rect x="204.2" y="415.7" transform="matrix(-0.7071 -0.7071 0.7071 -0.7071 87.8894 934.2699)" class="st39" width="66.5" height="66.5"/>
</g>
<g>
	<path class="st40" d="M225.2,432.3C225.2,432.2,225.2,432.2,225.2,432.3l25.1-0.1c0,0,0.1,0,0.1,0.1v32.6c0,0,0,0.1-0.1,0.1h-25.1
		c0,0-0.1,0-0.1-0.1V432.3z M237.8,429.8c0.4,0,0.8,0.4,0.8,0.8c0,0.4-0.4,0.8-0.8,0.8s-0.8-0.4-0.8-0.8
		C237,430.2,237.3,429.8,237.8,429.8z M237.8,466.4c-0.2,0-0.3-0.1-0.3-0.3c0-0.2,0.1-0.3,0.3-0.3s0.3,0.1,0.3,0.3
		C238.1,466.3,238,466.4,237.8,466.4z M224.8,467.6h25.9c1.2,0,2.1-0.9,2.1-2.1v-34.3c0-1.2-0.9-2.1-2.1-2.1h-25.9
		c-1.2,0-2.1,0.9-2.1,2.1v34.3C222.7,466.7,223.7,467.6,224.8,467.6z"/>
	<g class="st41">
		<g>
			<polygon class="st42" points="241.7,456.2 243.9,456.2 243.9,458.4 245.5,458.4 245.5,456.2 247.7,456.2 247.7,454.7 
				245.5,454.7 245.5,452.4 243.9,452.4 243.9,454.7 241.7,454.7 			"/>
			<polygon class="st42" points="241.7,442.2 243.9,442.2 243.9,444.4 245.5,444.4 245.5,442.2 247.7,442.2 247.7,440.6 
				245.5,440.6 245.5,438.4 243.9,438.4 243.9,440.6 241.7,440.6 			"/>
			<rect x="241.7" y="447.7" class="st42" width="6" height="1.5"/>
		</g>
		<rect x="227.9" y="456.9" class="st42" width="9.7" height="1.5"/>
		<rect x="227.9" y="452.3" class="st42" width="9.7" height="1.5"/>
		<rect x="227.9" y="447.7" class="st42" width="9.7" height="1.5"/>
		<rect x="227.9" y="443.1" class="st42" width="9.7" height="1.5"/>
		<rect x="227.9" y="438.5" class="st42" width="9.7" height="1.5"/>
	</g>
</g>
<path class="st0" d="M274.8,509.9h-75.1c-6.6,0-12-5.4-12-12v-4.3c0-6.6,5.4-12,12-12h75.1c6.6,0,12,5.4,12,12v4.3
	C286.8,504.5,281.4,509.9,274.8,509.9z"/>
<text transform="matrix(1 0 0 1 221.2532 499.6875)" class="st31 st33 st34">report</text>
<polygon class="st43" points="248.9,481.9 226.6,481.9 237.8,470.7 "/>
</svg>
