<svg id="Layer_1" data-name="Layer 1" xmlns="http://www.w3.org/2000/svg" viewBox="0 0 72 72"><defs><style>.cls-1{fill:#6bbec3;}.cls-2{fill:#36969f;}</style></defs><title>GenePeeks_Iconography_secondary</title><path class="cls-1" d="M25.58753,36a10.4567,10.4567,0,0,0,.171,1.87091l-1.57672.6106a1.98388,1.98388,0,0,0-.487-0.43323,2.27871,2.27871,0,0,0-1.46057-.32538,1.77865,1.77865,0,0,0-1.29065.77887,1.85318,1.85318,0,0,0-.30359.74506,2.26236,2.26236,0,0,0,.05786.85474,1.88591,1.88591,0,0,0,1.01025,1.262,1.75506,1.75506,0,0,0,1.49707.03424,2.34107,2.34107,0,0,0,1.1153-1.01392,1.87115,1.87115,0,0,0,.19177-0.54187l1.58771-.61487a10.392,10.392,0,0,0,1.93829,3.48022L26.92957,44.0245a2.00807,2.00807,0,0,0-.57568-0.092,2.20011,2.20011,0,0,0-1.41193.43921,1.85141,1.85141,0,0,0-.741,1.33234,2.01131,2.01131,0,0,0,2.095,2.095,1.85157,1.85157,0,0,0,1.33234-.74091,2.20349,2.20349,0,0,0,.43921-1.41193,1.96243,1.96243,0,0,0-.119-0.67444L29.007,43.71444a10.4102,10.4102,0,0,0,3.3891,2.05682l-0.34082,1.7406a1.88568,1.88568,0,0,0-.43915.16772,2.34979,2.34979,0,0,0-1.01392,1.1153,1.77463,1.77463,0,0,0,.03241,1.49707,1.89445,1.89445,0,0,0,1.26379,1.01025,2.26759,2.26759,0,0,0,.8548.05786,1.86428,1.86428,0,0,0,.74506-0.30359,1.78808,1.78808,0,0,0,.77887-1.29071,2.28112,2.28112,0,0,0-.32538-1.46051,1.93909,1.93909,0,0,0-.44977-0.50256c-0.02435-.02094-0.05249-0.03467-0.0777-0.054l0.31055-1.58624a10.39449,10.39449,0,0,0,4.48615.01025l0.38562,1.55438c-0.03564.02612-.07477,0.04633-0.10852,0.07562a1.96947,1.96947,0,0,0-.44983.50256,2.2788,2.2788,0,0,0-.32532,1.46051,1.779,1.779,0,0,0,.77887,1.29071,1.86428,1.86428,0,0,0,.74506.30359,2.26484,2.26484,0,0,0,.85474-0.05786,1.88608,1.88608,0,0,0,1.262-1.01025,1.75488,1.75488,0,0,0,.03424-1.49707,2.33169,2.33169,0,0,0-1.014-1.1153,1.89461,1.89461,0,0,0-.39819-0.15814l-0.42975-1.7326a10.41893,10.41893,0,0,0,3.85992-2.48193l0.82428,1.32416a1.72613,1.72613,0,0,0-.30768,1.01508,2.20349,2.20349,0,0,0,.43921,1.41193,1.85977,1.85977,0,0,0,1.33234.74274,2.01185,2.01185,0,0,0,2.095-2.095,1.85142,1.85142,0,0,0-.74091-1.33417,2.20339,2.20339,0,0,0-1.41193-.43921c-0.06665.00073-.12982,0.011-0.19452,0.01727l-1.088-1.74768A10.37265,10.37265,0,0,0,46.009,38.86861l1.4447,0.6535a1.83721,1.83721,0,0,0,.22589.85992,2.344,2.344,0,0,0,1.1153,1.01581,1.768,1.768,0,0,0,1.49707-.03424,1.8903,1.8903,0,0,0,1.01025-1.26385,2.2654,2.2654,0,0,0,.05786-0.85474,1.85344,1.85344,0,0,0-.30359-0.74512,1.788,1.788,0,0,0-1.29071-.77881,2.28166,2.28166,0,0,0-1.46051.32532,1.70642,1.70642,0,0,0-.27881.21075L46.306,37.479A10.48569,10.48569,0,0,0,46.41248,36h-20.825Z"/><path class="cls-2" d="M46.29951,34.46944l1.753-.7063a1.72894,1.72894,0,0,0,.25275.19049,2.27889,2.27889,0,0,0,1.46051.32532,1.8,1.8,0,0,0,1.29071-.777,1.86428,1.86428,0,0,0,.30359-0.74506,2.263,2.263,0,0,0-.05786-0.85474,1.88533,1.88533,0,0,0-1.01025-1.26385,1.75466,1.75466,0,0,0-1.49707-.03424,2.34091,2.34091,0,0,0-1.1153,1.014,1.83622,1.83622,0,0,0-.22736.89087l-1.45361.58575a10.3917,10.3917,0,0,0-2.24121-4.038l1.13684-1.14642a1.89153,1.89153,0,0,0,.75189.15729,2.20332,2.20332,0,0,0,1.41193-.43915,1.85984,1.85984,0,0,0,.7428-1.33234,2.01194,2.01194,0,0,0-2.095-2.095,1.85146,1.85146,0,0,0-1.33417.74084,2.20366,2.20366,0,0,0-.43921,1.412,2.06429,2.06429,0,0,0,.06775.48657l-1.23633,1.24664a10.39122,10.39122,0,0,0-3.626-2.0174l0.57959-1.53278a1.86171,1.86171,0,0,0,.66455-0.21649,2.344,2.344,0,0,0,1.01581-1.1153,1.76812,1.76812,0,0,0-.03424-1.49713,1.89022,1.89022,0,0,0-1.26385-1.01019A2.26416,2.26416,0,0,0,39.245,20.64a1.85231,1.85231,0,0,0-.74506.30359,1.78438,1.78438,0,0,0-.77887,1.29065,2.28148,2.28148,0,0,0,.32532,1.46051,1.85066,1.85066,0,0,0,.35132.40985L37.77845,25.742a10.337,10.337,0,0,0-3.70776.02692l-0.52734-1.60907a1.91737,1.91737,0,0,0,.41028-0.46509,2.27871,2.27871,0,0,0,.32532-1.46051,1.79388,1.79388,0,0,0-.777-1.29065A1.86331,1.86331,0,0,0,32.75684,20.64a2.26181,2.26181,0,0,0-.85474.05786A1.88509,1.88509,0,0,0,30.63825,21.708a1.7552,1.7552,0,0,0-.03424,1.49713,2.34061,2.34061,0,0,0,1.014,1.1153,1.86785,1.86785,0,0,0,.58252.20129l0.52271,1.595a10.40763,10.40763,0,0,0-3.98511,2.4245L27.85487,27.213a1.81953,1.81953,0,0,0,.21271-0.85907,2.20038,2.20038,0,0,0-.43921-1.412,1.85129,1.85129,0,0,0-1.33234-.74084,2.01122,2.01122,0,0,0-2.095,2.095,1.85153,1.85153,0,0,0,.741,1.33234,2.20332,2.20332,0,0,0,1.41193.43915,2.16168,2.16168,0,0,0,.37616-0.0376l1.05127,1.58093a10.39116,10.39116,0,0,0-1.54651,2.7699L24.492,32.07149a1.882,1.882,0,0,0-.17151-0.45538,2.35007,2.35007,0,0,0-1.1153-1.01392,1.76776,1.76776,0,0,0-1.49707.03424,1.89428,1.89428,0,0,0-1.01025,1.26385,2.2528,2.2528,0,0,0-.05786.85291,1.86428,1.86428,0,0,0,.30359.74506,1.78443,1.78443,0,0,0,1.29065.77881,2.28137,2.28137,0,0,0,1.46057-.32532,1.96822,1.96822,0,0,0,.50256-0.44983c0.01758-.02039.02887-0.04413,0.04529-0.06512l1.59827,0.28357A10.44069,10.44069,0,0,0,25.58753,36h20.825A10.485,10.485,0,0,0,46.29951,34.46944Z"/></svg>