<svg id="Layer_1" data-name="Layer 1" xmlns="http://www.w3.org/2000/svg" viewBox="0 0 72 72"><defs><style>.cls-1{fill:none;}.cls-2{fill:#d9aa28;}.cls-3{fill:#ffd456;}</style></defs><title>GenePeeks_Iconography_secondary</title><path class="cls-1" d="M27.92378,33.99853a7.113,7.113,0,0,0-1.92417,4.13886H40.201A7.11225,7.11225,0,0,0,38.07956,33.795,7.1907,7.1907,0,0,0,27.92378,33.99853Z"/><path class="cls-2" d="M27.92378,33.99853a7.1907,7.1907,0,0,1,10.15578-.2035A7.11225,7.11225,0,0,1,40.201,38.13739h5.34383A12.49057,12.49057,0,0,0,43.577,32.19613l2.9982-3.12077,0.10508,3.31589,4.69249,4.50807-0.68343-16.355-16.17437.15949L39.20736,25.212l3.18241-.02674L39.4569,28.23808A12.463,12.463,0,0,0,20.655,38.13739h5.34456A7.113,7.113,0,0,1,27.92378,33.99853Z"/><path class="cls-3" d="M24.45252,47.97932a12.47065,12.47065,0,0,0,21.09234-9.84193H40.201a7.15426,7.15426,0,1,1-14.20142,0H20.655A12.461,12.461,0,0,0,24.45252,47.97932Z"/></svg>