<svg id="Layer_1" data-name="Layer 1" xmlns="http://www.w3.org/2000/svg" viewBox="0 0 68.56565 68.56565"><defs><style>.cls-1{fill:#fff;}.cls-2{fill:#36969f;}.cls-3,.cls-4{fill:#6bbec3;}.cls-3{opacity:0.5;}</style></defs><title>GenePeeks_Iconography_primary</title><rect class="cls-1" x="11.04132" y="11.04118" width="46.48329" height="46.48329" transform="translate(-14.20037 34.28328) rotate(-45.00043)"/><path class="cls-2" d="M34.28283,2.12133l32.16148,32.1615L34.28283,66.44433,2.12134,34.28283,34.28283,2.12133m0-1.41425L0.70711,34.28283,34.28283,67.85851,67.85854,34.28283,34.28283,0.70708h0Z"/><polygon class="cls-3" points="39.154 32.928 44.264 29.771 43 27.705 38.108 30.728 39.154 32.928"/><polygon class="cls-3" points="28.549 32.144 23.534 27.408 25.131 25.587 29.937 30.134 28.549 32.144"/><rect class="cls-3" x="32.50946" y="39.28972" width="2.41897" height="6.39502"/><circle class="cls-4" cx="46.70538" cy="26.92263" r="4.04464"/><circle class="cls-4" cx="22.39296" cy="24.86856" r="3.28274"/><circle class="cls-4" cx="33.7043" cy="48.9369" r="4.13131"/><circle class="cls-4" cx="33.7043" cy="34.08531" r="6.13597"/></svg>