<svg id="Layer_1" data-name="Layer 1" xmlns="http://www.w3.org/2000/svg" viewBox="0 0 68.56565 68.56565"><defs><style>.cls-1{fill:#fff;stroke:#9470b0;stroke-miterlimit:10;}.cls-2,.cls-3{fill:#ad8abf;}.cls-3{fill-rule:evenodd;opacity:0.5;}</style></defs><title>GenePeeks_Iconography_primary</title><rect class="cls-1" x="10.54121" y="10.54121" width="47.48324" height="47.48324" transform="translate(34.28283 -14.20041) rotate(45)"/><path class="cls-2" d="M23.49093,25.28938h21.5838v14.3892H23.49093V25.28938ZM48.672,43.27627V21.69247H19.89363v21.5838H32.484v1.79846H27.08823v1.79846h14.3892V45.07472H36.08167V43.27627H48.672Z"/><path class="cls-3" d="M38.97455,26.906L40.8851,28.5085a0.17771,0.17771,0,0,1,.02138.25156l-7.78591,9.27981a0.182,0.182,0,0,1-.25536.02138L27.6811,33.71138a0.17885,0.17885,0,0,1-.02233-0.25251l1.60246-1.9096a0.17877,0.17877,0,0,1,.25251-0.02138l3.13911,2.63434L38.723,26.92838A0.17781,0.17781,0,0,1,38.97455,26.906Z"/></svg>