<svg id="Layer_1" data-name="Layer 1" xmlns="http://www.w3.org/2000/svg" viewBox="0 0 72 72"><defs><style>.cls-1{fill:#f48a84;}.cls-2{fill:#ef6e62;}</style></defs><title>GenePeeks_Iconography_secondary</title><path class="cls-1" d="M36.97722,35.79388L36.97978,35.806l-0.00269,2.137c-0.02051,19.08472-.02051,19.10791-0.01782,19.13641,0.10352,2.05414,1.25427,3.33154,3.00793,3.33148,1.74121,0,2.89392-1.26953,3.00537-3.30835,0.00525-.075.00781-20.11,0.00256-20.22412-0.04907-1.355-1.635-2.65564-3.7489-3.35272,0.25134-.08289.4939-0.17554,0.72852-0.2746l-2.97754.00006v2.54272Z"/><path class="cls-1" d="M35.04167,57.07678c0-.02588.00269-0.04907-0.01782-19.13373l-0.00049-.37158h0v-0.017L35.02116,35.806l0.0022-.01V33.25116l-2.67187.00006c0.19946,0.07391.40283,0.14417,0.61279,0.20691-2.21069.6792-3.8894,2.01837-3.93848,3.41254-0.00537.11407-.00269,20.15186,0.00269,20.22412,0.11133,2.04419,1.26416,3.31366,3.00525,3.3136C33.78544,60.40839,34.93828,59.13354,35.04167,57.07678Z"/><path class="cls-2" d="M36.95915,14.94183c0,0.02588-.00269.0332,0.00806,6.179l0.01257,10.11737-0.00256.012v2.001l2.97754-.00006c1.73938-.73431,2.97705-1.8866,3.02039-3.07825,0.00256-.08557,0-15.19531-0.00269-15.24969-0.11145-2.04419-1.26428-3.3136-3.00537-3.3136C38.21538,11.60956,37.06267,12.88708,36.95915,14.94183Z"/><path class="cls-2" d="M35.02336,31.25781c-0.00024-.0072-0.00488-0.01514-0.00488-0.02228l0.01318-10.12006c0.00732-6.14771.00732-6.15839,0.00732-6.18689-0.10352-2.05475-1.25366-3.33948-3.00806-3.33948-1.741.00006-2.8938,1.25165-3.00525,3.29315-0.00269.05707-.00525,15.13293-0.00256,15.21582,0.04675,1.26178,1.4281,2.449,3.32837,3.15314l2.67188-.00006V31.25781Z"/></svg>