<svg id="Layer_1" data-name="Layer 1" xmlns="http://www.w3.org/2000/svg" viewBox="0 0 72 72"><defs><style>.cls-1{fill:#7cc9b0;}.cls-2{fill:#43b391;}</style></defs><title>GenePeeks_Iconography_secondary</title><path class="cls-1" d="M45.17626,40.5243V39.1419A3.4343,3.4343,0,0,0,41.746,35.71163H37.02039V34.8344a9.31929,9.31929,0,0,0-3.86344-17.66359c-0.095-.00335-0.18708-0.0046-0.27874-0.0046H32.877A9.3098,9.3098,0,0,0,28.3468,34.61048v1.10115H23.81873a3.43323,3.43323,0,0,0-3.429,3.43026v9.06659c0,4.03964,4.749,6.54914,12.39222,6.54914a21.48686,21.48686,0,0,0,7.56742-1.2242A7.09921,7.09921,0,0,0,44.4317,54.8338c0.05232,0,.10589-0.00084.15946-0.00125a7.17576,7.17576,0,0,0,7.01747-7.328A7.2197,7.2197,0,0,0,45.17626,40.5243ZM44.56269,53.55854c-0.04353.00125-.08705,0.00125-0.13058,0.00125a5.89685,5.89685,0,0,1-.53028-11.76987c0.13435-.01256.26911-0.02595,0.406-0.02972q0.06529-.00125.13058-0.00125c0.03348,0,.067.00418,0.10045,0.005a6.02641,6.02641,0,0,1,.637.04562A5.89835,5.89835,0,0,1,44.56269,53.55854Z"/><path class="cls-1" d="M47.0249,47.02279h-1.952V45.0691a0.62848,0.62848,0,0,0-.53362-0.61607,0.573,0.573,0,0,0-.10338-0.02093,0.62661,0.62661,0,0,0-.53362.30887,0.6183,0.6183,0,0,0-.103.32771v1.95369H41.8456a0.63679,0.63679,0,0,0,0,1.27359h1.95369v1.95286a0.57891,0.57891,0,0,0,.02595.13016,0.62124,0.62124,0,0,0,.44448.47335,0.61039,0.61039,0,0,0,.16616.03348,0.63669,0.63669,0,0,0,.637-0.63658V48.29637h1.95243A0.63679,0.63679,0,1,0,47.0249,47.02279Z"/><path class="cls-2" d="M45.17631,40.16743V39.14192a3.43442,3.43442,0,0,0-3.43038-3.4303H37.02039V34.83437a9.31925,9.31925,0,0,0-3.86346-17.66355c-0.095-.00335-0.18717-0.00457-0.27871-0.00457H32.87707a9.30978,9.30978,0,0,0-4.53022,17.44424v1.10114h-4.5281a3.43325,3.43325,0,0,0-3.42907,3.4303v1.02551H45.17631Z"/></svg>