<svg id="Layer_1" data-name="Layer 1" xmlns="http://www.w3.org/2000/svg" viewBox="0 0 68.56565 68.56565"><defs><style>.cls-1{fill:#fff;stroke:#e94a72;stroke-miterlimit:10;}.cls-2,.cls-3{fill:#f17c9e;}.cls-3{opacity:0.5;}</style></defs><title>GenePeeks_Iconography_primary</title><rect class="cls-1" x="10.54121" y="10.54121" width="47.48324" height="47.48324" transform="translate(34.28283 -14.20041) rotate(45)"/><polygon class="cls-2" points="50.248 31.001 46.212 31.001 46.212 26.964 43.521 26.964 43.521 31.001 39.484 31.001 39.484 33.692 43.521 33.692 43.521 37.729 46.212 37.729 46.212 33.692 50.248 33.692 50.248 31.001"/><path class="cls-2" d="M32.5746,27.52672A2.73914,2.73914,0,0,1,29.729,25.155V22.37756l5.6898,0.03914v2.65966A2.79786,2.79786,0,0,1,32.5746,27.52672Zm5.74384-6.8243H26.83076v1.68727h1.57781V43.57628c0,1.71186,1.86843,3.10539,4.166,3.10539,2.29622,0,4.165-1.39353,4.165-3.10539V22.38969h1.57746V20.70242h0.00138Z"/><path class="cls-3" d="M22.574,29.33048a2.03,2.03,0,0,1-2.10888-1.7577V25.51442l4.21674,0.029v1.97108A2.07351,2.07351,0,0,1,22.574,29.33048ZM26.83076,24.273H18.31719V25.5234h1.16932V41.22489c0,1.26867,1.3847,2.30142,3.08747,2.30142,1.70174,0,3.0867-1.03275,3.0867-2.30142V25.5234h1.16906V24.273h0.001Z"/></svg>