<?xml version="1.0" encoding="utf-8"?>
<!-- Generator: Adobe Illustrator 19.2.1, SVG Export Plug-In . SVG Version: 6.00 Build 0)  -->
<svg version="1.1" id="Layer_1" xmlns="http://www.w3.org/2000/svg" xmlns:xlink="http://www.w3.org/1999/xlink" x="0px" y="0px"
	 viewBox="0 0 68.6 68.6" style="enable-background:new 0 0 68.6 68.6;" xml:space="preserve">
<metadata><?xpacket begin="﻿" id="W5M0MpCehiHzreSzNTczkc9d"?>
<x:xmpmeta xmlns:x="adobe:ns:meta/" x:xmptk="Adobe XMP Core 5.6-c111 79.158366, 2015/09/25-01:12:00        ">
   <rdf:RDF xmlns:rdf="http://www.w3.org/1999/02/22-rdf-syntax-ns#">
      <rdf:Description rdf:about=""/>
   </rdf:RDF>
</x:xmpmeta>
                                                                                                    
                                                                                                    
                                                                                                    
                                                                                                    
                                                                                                    
                                                                                                    
                                                                                                    
                                                                                                    
                                                                                                    
                                                                                                    
                                                                                                    
                                                                                                    
                                                                                                    
                                                                                                    
                                                                                                    
                                                                                                    
                                                                                                    
                                                                                                    
                                                                                                    
                                                                                                    
                           
<?xpacket end="w"?></metadata>
<style type="text/css">
	.st0{fill:#FFFFFF;stroke:#37969F;stroke-miterlimit:10;}
	.st1{fill:#6CBEC4;}
	.st2{opacity:0.5;fill:#6CBEC4;}
</style>
<g>
	<g>
		
			<rect x="10.5" y="10.5" transform="matrix(0.7071 0.7071 -0.7071 0.7071 34.2828 -14.2004)" class="st0" width="47.5" height="47.5"/>
	</g>
	<g>
		<path class="st1" d="M40.1,37.2c0-5.1-5.3-9.2-11.7-9.2c-1.8,0-3.4,0.3-4.9,0.9c2.2-3.8,7.2-6.5,13-6.5c7.8,0,14.1,4.8,14.1,10.8
			c0,3-1.6,5.7-4.2,7.7l1,5l-4.6-3c-1.9,0.7-4,1.1-6.3,1.1c0,0-0.1,0-0.1,0C38.6,42.3,40.1,39.9,40.1,37.2z"/>
		<path class="st2" d="M18.1,37.2c0-4.1,4.5-7.5,10.1-7.5s10.1,3.4,10.1,7.5c0,4.1-4.5,7.5-10.1,7.5c-1.3,0-2.5-0.2-3.7-0.5
			l-3.2,1.9l0.5-3.2C19.4,41.6,18.1,39.5,18.1,37.2z"/>
	</g>
</g>
</svg>
