<?xml version="1.0" encoding="utf-8"?>
<!-- Generator: Adobe Illustrator 19.2.1, SVG Export Plug-In . SVG Version: 6.00 Build 0)  -->
<svg version="1.1" id="Layer_1" xmlns="http://www.w3.org/2000/svg" xmlns:xlink="http://www.w3.org/1999/xlink" x="0px" y="0px"
	 viewBox="0 0 68.6 68.6" style="enable-background:new 0 0 68.6 68.6;" xml:space="preserve">
<metadata><?xpacket begin="﻿" id="W5M0MpCehiHzreSzNTczkc9d"?>
<x:xmpmeta xmlns:x="adobe:ns:meta/" x:xmptk="Adobe XMP Core 5.6-c111 79.158366, 2015/09/25-01:12:00        ">
   <rdf:RDF xmlns:rdf="http://www.w3.org/1999/02/22-rdf-syntax-ns#">
      <rdf:Description rdf:about=""/>
   </rdf:RDF>
</x:xmpmeta>
                                                                                                    
                                                                                                    
                                                                                                    
                                                                                                    
                                                                                                    
                                                                                                    
                                                                                                    
                                                                                                    
                                                                                                    
                                                                                                    
                                                                                                    
                                                                                                    
                                                                                                    
                                                                                                    
                                                                                                    
                                                                                                    
                                                                                                    
                                                                                                    
                                                                                                    
                                                                                                    
                           
<?xpacket end="w"?></metadata>
<style type="text/css">
	.st0{fill:#FFFFFF;stroke:#37969F;stroke-miterlimit:10;}
	.st1{opacity:0.9;}
	.st2{fill:#6CBEC4;}
	.st3{opacity:0.5;fill:#34C2DD;}
</style>
<g>
	<g>
		
			<rect x="10.5" y="10.5" transform="matrix(0.7071 0.7071 -0.7071 0.7071 34.2828 -14.2004)" class="st0" width="47.5" height="47.5"/>
	</g>
	<g class="st1">
		<g>
			<path class="st2" d="M29.5,26.6c-0.5,0.4-1,0.8-1.5,1.3c-1.8,1.8-2.8,4-2.8,6.3c0,2.3,1,4.5,2.8,6.3c1.5,1.5,3.6,2.7,5.8,3.4
				c1.6,0.5,3.2,1.4,4.4,2.5c0.6,0.6,1.3,1.5,1.6,2.7h3.4c-0.3-1.8-1.2-3.5-2.7-5c-1.5-1.5-3.6-2.7-5.8-3.4
				c-1.6-0.5-3.2-1.4-4.4-2.5c-0.7-0.7-1.4-1.7-1.7-3h11.3c-0.1,0.6-0.4,1.2-0.7,1.7h-8.9c0.2,0.3,0.4,0.5,0.6,0.7
				c0.5,0.5,1.1,1,1.7,1.3h4.6c-0.6,0.4-1.2,0.8-1.8,1.1c1.3,0.4,2.5,1,3.5,1.7c0.5-0.4,1-0.8,1.5-1.3c1.8-1.8,2.8-4,2.8-6.3
				c0-2.3-1-4.5-2.8-6.3c-1.5-1.5-3.6-2.7-5.8-3.4c-1.6-0.5-3.2-1.4-4.4-2.5c-0.6-0.6-1.3-1.5-1.6-2.6h-3.4c0.3,1.8,1.2,3.5,2.7,4.9
				c1.5,1.5,3.6,2.7,5.8,3.4c1.6,0.5,3.2,1.4,4.4,2.5c0.7,0.7,1.4,1.7,1.7,3H28.6c0.1-0.6,0.4-1.2,0.7-1.7h8.9
				c-0.2-0.3-0.4-0.5-0.6-0.7c-0.5-0.5-1.1-0.9-1.7-1.3h-4.6c0.6-0.4,1.2-0.8,1.8-1.1C31.8,27.9,30.6,27.4,29.5,26.6z"/>
		</g>
	</g>
	<path class="st3" d="M39,25.6c0.5-0.4,1-0.8,1.5-1.3c1.5-1.5,2.3-3.1,2.7-4.9h-3.4c-0.1,0.5-0.3,0.9-0.6,1.3h-8.9
		c0.2,0.3,0.4,0.5,0.6,0.7c0.5,0.5,1.1,1,1.7,1.3h4.6c-0.6,0.4-1.2,0.8-1.8,1.1C36.7,24.4,37.9,24.9,39,25.6z"/>
	<path class="st3" d="M29.5,42.8c-0.5,0.4-1,0.8-1.5,1.3c-1.5,1.5-2.4,3.2-2.7,5h3.4c0.1-0.5,0.3-1,0.6-1.4h8.9
		c-0.2-0.3-0.4-0.5-0.6-0.7c-0.5-0.5-1.1-1-1.7-1.3h-4.6c0.6-0.4,1.2-0.8,1.8-1.1C31.8,44.1,30.6,43.6,29.5,42.8z"/>
</g>
</svg>
