<?xml version="1.0" encoding="utf-8"?>
<!-- Generator: Adobe Illustrator 19.2.1, SVG Export Plug-In . SVG Version: 6.00 Build 0)  -->
<svg version="1.1" id="Layer_1" xmlns="http://www.w3.org/2000/svg" xmlns:xlink="http://www.w3.org/1999/xlink" x="0px" y="0px"
	 viewBox="0 0 68.6 68.6" style="enable-background:new 0 0 68.6 68.6;" xml:space="preserve">
<metadata><?xpacket begin="﻿" id="W5M0MpCehiHzreSzNTczkc9d"?>
<x:xmpmeta xmlns:x="adobe:ns:meta/" x:xmptk="Adobe XMP Core 5.6-c111 79.158366, 2015/09/25-01:12:00        ">
   <rdf:RDF xmlns:rdf="http://www.w3.org/1999/02/22-rdf-syntax-ns#">
      <rdf:Description rdf:about=""/>
   </rdf:RDF>
</x:xmpmeta>
                                                                                                    
                                                                                                    
                                                                                                    
                                                                                                    
                                                                                                    
                                                                                                    
                                                                                                    
                                                                                                    
                                                                                                    
                                                                                                    
                                                                                                    
                                                                                                    
                                                                                                    
                                                                                                    
                                                                                                    
                                                                                                    
                                                                                                    
                                                                                                    
                                                                                                    
                                                                                                    
                           
<?xpacket end="w"?></metadata>
<style type="text/css">
	.st0{fill:#FFFFFF;stroke:#37969F;stroke-miterlimit:10;}
	.st1{fill:#6CBEC4;}
	.st2{opacity:0.5;fill:#6CBEC4;}
</style>
<g>
	<g>
		
			<rect x="10.5" y="10.5" transform="matrix(0.7071 0.7071 -0.7071 0.7071 34.2828 -14.2004)" class="st0" width="47.5" height="47.5"/>
	</g>
</g>
<g>
	<polygon class="st1" points="50.2,31.6 46.2,31.6 46.2,27.6 43.5,27.6 43.5,31.6 39.5,31.6 39.5,34.3 43.5,34.3 43.5,38.3 
		46.2,38.3 46.2,34.3 50.2,34.3 	"/>
	<path class="st1" d="M32.6,28.1c-1.6,0-2.8-1.2-2.8-2.4V23l5.7,0v2.7C35.4,26.8,34.1,28.1,32.6,28.1z M38.3,21.3H26.8V23h1.6v21.2
		c0,1.7,1.9,3.1,4.2,3.1c2.3,0,4.2-1.4,4.2-3.1V23h1.6L38.3,21.3L38.3,21.3z"/>
	<path class="st2" d="M22.6,29.9c-1.2,0-2.1-0.9-2.1-1.8v-2.1l4.2,0v2C24.7,29,23.7,29.9,22.6,29.9z M26.8,24.9h-8.5v1.3h1.2v15.7
		c0,1.3,1.4,2.3,3.1,2.3c1.7,0,3.1-1,3.1-2.3V26.1h1.2L26.8,24.9L26.8,24.9z"/>
</g>
</svg>
