<?xml version="1.0" encoding="utf-8"?>
<!-- Generator: Adobe Illustrator 19.2.1, SVG Export Plug-In . SVG Version: 6.00 Build 0)  -->
<svg version="1.1" id="Layer_1" xmlns="http://www.w3.org/2000/svg" xmlns:xlink="http://www.w3.org/1999/xlink" x="0px" y="0px"
	 viewBox="0 0 68.6 68.6" style="enable-background:new 0 0 68.6 68.6;" xml:space="preserve">
<metadata><?xpacket begin="﻿" id="W5M0MpCehiHzreSzNTczkc9d"?>
<x:xmpmeta xmlns:x="adobe:ns:meta/" x:xmptk="Adobe XMP Core 5.6-c111 79.158366, 2015/09/25-01:12:00        ">
   <rdf:RDF xmlns:rdf="http://www.w3.org/1999/02/22-rdf-syntax-ns#">
      <rdf:Description rdf:about=""/>
   </rdf:RDF>
</x:xmpmeta>
                                                                                                    
                                                                                                    
                                                                                                    
                                                                                                    
                                                                                                    
                                                                                                    
                                                                                                    
                                                                                                    
                                                                                                    
                                                                                                    
                                                                                                    
                                                                                                    
                                                                                                    
                                                                                                    
                                                                                                    
                                                                                                    
                                                                                                    
                                                                                                    
                                                                                                    
                                                                                                    
                           
<?xpacket end="w"?></metadata>
<style type="text/css">
	.st0{fill:#FFFFFF;stroke:#37969F;stroke-miterlimit:10;}
	.st1{fill:#FFFFFF;}
	.st2{fill:#37969F;}
	.st3{opacity:0.5;fill:#6CBEC4;}
	.st4{fill:#6CBEC4;}
</style>
<g>
	<g>
		
			<rect x="10.5" y="10.5" transform="matrix(0.7071 0.7071 -0.7071 0.7071 34.2828 -14.2004)" class="st0" width="47.5" height="47.5"/>
	</g>
	<g>
		<rect x="11" y="11" transform="matrix(0.7071 -0.7071 0.7071 0.7071 -14.2004 34.2827)" class="st1" width="46.5" height="46.5"/>
		<path class="st2" d="M34.3,2.1l32.2,32.2L34.3,66.4L2.1,34.3L34.3,2.1 M34.3,0.7L0.7,34.3l33.6,33.6l33.6-33.6L34.3,0.7L34.3,0.7z
			"/>
	</g>
	<path class="st3" d="M37.7,41.5c0,0,0.1-0.1,0.1-0.1c0.3-0.3,0.5-0.7,0.7-1.1c0-0.1,0.1-0.1,0.1-0.2c0.5-0.8,0.9-1.7,1.1-2.7
		c0-0.1,0.1-0.2,0.1-0.4c0.1-0.4,0.2-0.7,0.2-1.1c0-0.1,0-0.3,0.1-0.4c0.1-0.5,0.1-1,0.1-1.5s0-1-0.1-1.5c0-0.1,0-0.3-0.1-0.4
		c-0.1-0.4-0.1-0.7-0.2-1.1c0-0.1-0.1-0.2-0.1-0.4c-0.3-0.9-0.7-1.8-1.1-2.7c0-0.1-0.1-0.1-0.1-0.2c-0.2-0.4-0.5-0.7-0.7-1.1
		c0,0-0.1-0.1-0.1-0.1c-0.6-0.8-1.3-1.5-2.1-2.1c0,0,0,0-0.1,0c-2-1.5-4.5-2.5-7.3-2.5c-6.6,0-12,5.4-12,12s5.4,12,12,12
		c2.7,0,5.2-0.9,7.3-2.5c0,0,0,0,0.1,0C36.4,43,37.1,42.3,37.7,41.5z"/>
	<path class="st4" d="M40.3,26.1c4.4,0,8,3.6,8,8s-3.6,8-8,8s-8-3.6-8-8S35.9,26.1,40.3,26.1 M40.3,22.1c-6.6,0-12,5.4-12,12
		s5.4,12,12,12c6.6,0,12-5.4,12-12S46.9,22.1,40.3,22.1L40.3,22.1z"/>
</g>
</svg>
