<svg xmlns="http://www.w3.org/2000/svg" viewBox="0 0 327.3 199.55"><defs><style>.cls-1{fill:#afc2d5;}</style></defs><title>60_Minutes</title><g id="Page_1" data-name="Page 1"><g id="Layer_1" data-name="Layer 1"><path class="cls-1" d="M167.27,121.89H150.42c-.14-5.69-.43-11.14-.91-13.35a14.3,14.3,0,0,0-3-6.15c-2.5-3-7.09-5-13.69-5.94S112.63,95,94.87,95C79,95,67,95.4,58.9,96.24s-13.63,2.19-16.53,4.06a15.23,15.23,0,0,0-6.46,9.61c-1.07,4.3-1.58,13.35-1.58,24.2,0,7.9.14,13.87.39,17.93a40.45,40.45,0,0,1,6.84-7.47,25.78,25.78,0,0,1,8-3.88q10.79-3.47,41.23-3.45,33.74,0,46.32,1.25c8.39.85,14.67,2.53,18.88,5.12a25.72,25.72,0,0,1,10.88,13.63c2,5.66,3,12.49,3,20.56,0,12.13-2.07,21.7-6.18,28.64-3.9,6.69-10.84,11.1-20.85,13.3S114.6,223,88.21,223q-32.37,0-44-2.21c-7.79-1.46-14-4.59-18.56-9.46-4.39-4.66-7.12-10.64-8.28-17.89S15.63,171,15.63,147.72q0-26.36,1.65-36.82c1.09-7,3.37-12.52,6.77-16.65q7-8.43,21.23-11.38t48.08-3q28.37,0,40,1.25c7.75.85,13.93,2.53,18.53,5.12A27.94,27.94,0,0,1,163.66,98c2.42,4.77,3.61,11.1,3.61,18.93v5Zm93.46-26.72q-25,0-36.33,1.55c-7.57,1.07-12.63,2.87-15.18,5.44q-4.46,4.75-6,21.26-1.33,14.74-1.34,30.9,0,39.13,6.72,46.25,7.48,8.11,53.38,8.09c18.36,0,32-.59,41-1.77s14.75-3.16,17.37-5.89q7.37-7.67,7.36-45.58,0-23.18-1.59-35.91c-1.1-8.46-2.76-14.05-5-16.7-3-3.46-9.8-5.59-20.24-6.48q-13.05-1.16-40.08-1.18ZM260.17,80q40.28,0,56.26,3.36,13.94,3,20.32,14.67c2.28,4,3.88,9.87,4.8,17.46s1.39,18.6,1.39,33.05q0,28.92-2.79,45.39c-2,11.66-6.91,19.46-14.77,23.36q-6.74,3.49-21.92,5t-41,1.57q-34.92,0-51-4.08-19.91-5.26-23-28.62-1.89-13.84-1.91-38.88,0-28.22,3.1-44,3.78-19.58,20.73-24.32,14.34-4,49.76-4Zm-159.65,72.8q-27.91,0-40.74,1.19c-8.54.82-14.3,2.23-17.22,4.23-5.62,3.94-8.43,10.92-8.43,21q0,18.88,10.11,23.69,9.82,4.57,48.29,4.57,43.18,0,51.81-5.64,7.63-5,7.61-23.39c0-5.79-.61-10.36-1.82-13.63a14.21,14.21,0,0,0-5.91-7.46c-2.49-1.6-7-2.75-13.66-3.42s-16.62-1.08-30-1.15Z" transform="translate(-15.63 -79.88)"/><path class="cls-1" d="M150.7,278.95H135.56l-20.31-29.14v29.14H104.92V238.89h15.31l20.17,29.38V238.89h10.3v40.06Zm-120,0H20.58V238.89H35.92l12.14,25,12.34-25H75.54v40.06H65.48V250.4L51.42,278.95H44.63L30.69,250.4v28.54Zm267.66-13.32,10,0v.73a4,4,0,0,0,.92,3.06c.61.52,1.89.79,3.85.79h12.77a3.8,3.8,0,0,0,2.69-.77,3.34,3.34,0,0,0,.81-2.53,3.22,3.22,0,0,0-.93-2.59q-.93-.77-4-1l-16-.43q-6-.21-8.11-2.75t-2.11-9.2a23.87,23.87,0,0,1,.56-5.68,9.16,9.16,0,0,1,1.79-3.71,7.93,7.93,0,0,1,3.8-2.37,29.51,29.51,0,0,1,7.64-.7h15.53c7.22,0,10.85,1.21,10.85,8.63,0,.25,0,2.62,0,2.92s0,.75-.08,1.4h-9.8v-.17a4.57,4.57,0,0,0-.84-3,3.11,3.11,0,0,0-2.52-1H313.51q-2.93,0-3.87.7a2.88,2.88,0,0,0-.94,2.45,3.21,3.21,0,0,0,.85,2.49,5.6,5.6,0,0,0,3.14,1l16.73.32q5.73.19,8.06,3.09t2.34,9.93a19.05,19.05,0,0,1-.86,6.46,9,9,0,0,1-2.89,3.9,8.8,8.8,0,0,1-3.65,1.47,37.93,37.93,0,0,1-6.66.44H312.19q-8.34,0-11.16-2.25t-2.82-8.38c0-.24,0-.62,0-1.17s.05-1.21.1-2Zm-8.32-17H263.55v6.46h24.93v7.66H263.55v6.49h26.89v9.69H253.2V238.89H290v9.76Zm-194.8,30.3H85V238.89H95.23v40.06Zm137.17,0H221.93V248.7H208v-9.82h38.4v9.82h-14v30.24Zm-72.73-40.06h10.55v23.76q0,4.06,1.52,5.45t6.61,1.39h4.73c2.83,0,4.72-.49,5.68-1.47s1.44-2.76,1.44-5.36V238.89h10.57v27.55q0,7.08-3.14,10t-10.84,3H175.53q-9.06,0-12.46-2.83t-3.4-10.17V238.89Z" transform="translate(-15.63 -79.88)"/></g></g></svg>