<svg xmlns="http://www.w3.org/2000/svg" viewBox="0 0 353.06 244.15"><defs><style>.cls-1{fill:#afc2d5;}</style></defs><title>bbc news</title><g id="svg2"><g id="layer1"><g id="g2408"><g id="g2410"><path id="path2418" class="cls-1" d="M98.42,234.14h8.92v65.57H99.26l-43.84-50.5v50.5H46.6V234.14h7.6l44.22,50.93Z" transform="translate(-3.71 -56.31)"/><path id="path2420" class="cls-1" d="M124.26,234.14h37.18v8.35H133.64v20h26.85v8.4H133.64v20.37h28.68v8.35H124.26Z" transform="translate(-3.71 -56.31)"/><path id="path2422" class="cls-1" d="M261.62,234.14H271L244.47,300h-2.06L221,246.67,199.31,300h-2l-26.43-65.86h9.46l18.07,45.2,18.19-45.2h8.88l18.28,45.2Z" transform="translate(-3.71 -56.31)"/><path id="path2424" class="cls-1" d="M296.42,272.24l-7.13-4.34q-6.71-4.1-9.55-8.06a15.29,15.29,0,0,1-2.84-9.13,16.11,16.11,0,0,1,5.38-12.58q5.37-4.84,14-4.84a26.45,26.45,0,0,1,15.07,4.61v10.66q-7.09-6.82-15.26-6.82a12.63,12.63,0,0,0-7.56,2.13,6.46,6.46,0,0,0-3,5.45,8.39,8.39,0,0,0,2.18,5.52,27.29,27.29,0,0,0,7,5.4l7.17,4.24q12,7.17,12,18.24a16.73,16.73,0,0,1-5.28,12.81q-5.28,4.93-13.73,4.93a28.83,28.83,0,0,1-17.69-6V282.57q7.6,9.64,17.6,9.64a11.06,11.06,0,0,0,7.35-2.46,7.69,7.69,0,0,0,2.93-6.15q0-6-8.64-11.36" transform="translate(-3.71 -56.31)"/><path id="path2426" class="cls-1" d="M94.47,144.81h9.36L77.32,210.66H75.26L53.82,157.34,32.16,210.66h-2L3.71,144.81h9.46L31.24,190l18.19-45.21h8.88L76.59,190Z" transform="translate(-3.71 -56.31)"/><path id="path2428" class="cls-1" d="M140.78,152.79q-11.26,0-18.5,7t-7.25,18a23.56,23.56,0,0,0,7.27,17.65q7.27,7,18.2,7a25.15,25.15,0,0,0,18.31-7.18,24,24,0,0,0,7.34-17.88,23.45,23.45,0,0,0-7.34-17.53,24.93,24.93,0,0,0-18-7.11m-.38-8.92q15.2,0,25.31,9.62t10.11,24.12q0,14.51-10.2,24t-25.73,9.5q-14.82,0-24.69-9.5t-9.88-23.82q0-14.69,9.94-24.31t25.15-9.62" transform="translate(-3.71 -56.31)"/><path id="path2430" class="cls-1" d="M198.89,152.79h-2.81v20.7h3.57q7.13,0,9.79-1.22a9.17,9.17,0,0,0,4.13-3.68A10.69,10.69,0,0,0,215,163a10,10,0,0,0-1.64-5.61,8.77,8.77,0,0,0-4.62-3.54q-3-1-9.88-1m-12.2,57.59V144.81h16.43q10,0,15.8,4.93t5.84,13.33a16.39,16.39,0,0,1-11.08,16.15,29,29,0,0,1,6.15,5.64,113,113,0,0,1,8.45,12.43q3.43,5.59,5.49,8.4l3.47,4.7H226.07l-2.86-4.32c-.1-.16-.28-.43-.56-.8l-1.83-2.58-2.91-4.79-3.14-5.12a51,51,0,0,0-5.32-6.43,20.44,20.44,0,0,0-4.37-3.44q-2-1-6.56-1.05h-2.44v28.54Z" transform="translate(-3.71 -56.31)"/><path id="path2432" class="cls-1" d="M246.4,144.81h9.39v57h29.52v8.54H246.4Z" transform="translate(-3.71 -56.31)"/><path id="path2434" class="cls-1" d="M317.62,153.17H305.89v48.77h12a48,48,0,0,0,10.94-1,25.87,25.87,0,0,0,6.5-2.44,22.34,22.34,0,0,0,4.76-3.64q6.95-7,6.95-17.79,0-10.56-7.13-17.22a22.76,22.76,0,0,0-6-4.09,25.37,25.37,0,0,0-6.46-2.11,65.81,65.81,0,0,0-9.81-.52M296.5,210.29V144.81h22.11q13.38,0,21.17,4a30.26,30.26,0,0,1,12.39,11.8,32.82,32.82,0,0,1,4.6,17A32.15,32.15,0,0,1,347,200.76a31.67,31.67,0,0,1-11.13,7.09,33.09,33.09,0,0,1-6.81,1.95,90.93,90.93,0,0,1-11.83.49Z" transform="translate(-3.71 -56.31)"/><path id="path2436" class="cls-1" d="M188.88,94.53a5,5,0,0,1-1.69,3.92c-1.25,1.1-3.42,1.94-7,1.94H173V88.8h6.9c3.22,0,5.5.65,6.93,1.67a4.74,4.74,0,0,1,2.08,4.06" transform="translate(-3.71 -56.31)"/><path id="path2438" class="cls-1" d="M183,80.66a5,5,0,0,0,2-4.39,4.48,4.48,0,0,0-1.42-3.52c-1-.9-2.75-1.54-5.54-1.54H173v11h3.51c3,0,5.21-.54,6.56-1.52" transform="translate(-3.71 -56.31)"/><path id="path2440" class="cls-1" d="M196.67,95.38c0-5.35-3.55-9.42-9.25-11a10.44,10.44,0,0,0,3.65-2.92,9.2,9.2,0,0,0,1.75-5.75A10.24,10.24,0,0,0,189.41,68c-2.33-2.11-5.87-3.47-10.71-3.47H165.36V107H181c5.59,0,9.51-1.52,12-3.76a10.46,10.46,0,0,0,3.61-7.87m14.88,19.86H148.93V56.31h62.62Z" transform="translate(-3.71 -56.31)"/><path id="path2442" class="cls-1" d="M110.88,80.66a5,5,0,0,0,2-4.39,4.47,4.47,0,0,0-1.42-3.52c-1-.9-2.75-1.54-5.54-1.54h-5.1v11h3.51c3,0,5.21-.54,6.56-1.52" transform="translate(-3.71 -56.31)"/><path id="path2444" class="cls-1" d="M114.65,90.47c-1.43-1-3.72-1.67-6.93-1.67h-6.9v11.58H108c3.59,0,5.75-.84,7-1.94a5,5,0,0,0,1.69-3.92,4.74,4.74,0,0,0-2.08-4.06" transform="translate(-3.71 -56.31)"/><path id="path2446" class="cls-1" d="M124.52,95.38c0-5.35-3.55-9.42-9.25-11a10.43,10.43,0,0,0,3.64-2.92,9.21,9.21,0,0,0,1.76-5.75A10.27,10.27,0,0,0,117.26,68c-2.33-2.11-5.87-3.47-10.7-3.47H93.21V107h15.66c5.59,0,9.51-1.52,12-3.76a10.47,10.47,0,0,0,3.61-7.87m14.88,19.86H76.79V56.31H139.4Z" transform="translate(-3.71 -56.31)"/><path id="path2448" class="cls-1" d="M271.26,95.65l-1,.61a29.22,29.22,0,0,1-14.91,4.55c-10.25,0-17-6.12-17-15,0-8.65,7.06-15.06,16.77-15.08,4.95,0,9.43,1.28,14.75,4.2l1,.54v-7.9l-.42-.16c-6-2.37-10.65-3.42-15.24-3.42a26,26,0,0,0-17.65,6.32,21.3,21.3,0,0,0-7,16,20.76,20.76,0,0,0,5.83,13.94c4,4.18,10.06,7.23,18.42,7.22h0a34.28,34.28,0,0,0,16.1-3.69l.37-.18Zm12.43,19.58H221.08V56.31h62.61Z" transform="translate(-3.71 -56.31)"/></g></g></g></g></svg>