<svg id="Layer_1" data-name="Layer 1" xmlns="http://www.w3.org/2000/svg" viewBox="0 0 341.43 205.77"><defs><style>.cls-1{fill:#afc2d5;}</style></defs><title>cbs this morning</title><path class="cls-1" d="M189.24,99.36a25.76,25.76,0,0,0-9.88-7.8A29.45,29.45,0,0,0,167,88.82a33.14,33.14,0,0,0-14.11,2.93,32.48,32.48,0,0,0-10.8,8,36.46,36.46,0,0,0-7,11.9,42.65,42.65,0,0,0-2.47,14.63A40.38,40.38,0,0,0,135,140.07a34.47,34.47,0,0,0,6.76,11.45,31.65,31.65,0,0,0,10.8,7.8A34.87,34.87,0,0,0,167,162.18a28.69,28.69,0,0,0,13.92-3.25,29.88,29.88,0,0,0,10.15-9.1l10.54,7.93a42.16,42.16,0,0,1-3.64,4.1,36.57,36.57,0,0,1-6.89,5.33,48.85,48.85,0,0,1-10.34,4.68,44.22,44.22,0,0,1-14,2,45.45,45.45,0,0,1-19.7-4.16,47.42,47.42,0,0,1-24.39-26.21,45.06,45.06,0,0,1-3.25-16.67,57,57,0,0,1,3.51-20.26A46.62,46.62,0,0,1,132.72,91a43.91,43.91,0,0,1,15.15-10.21,50.8,50.8,0,0,1,19.51-3.64,47.79,47.79,0,0,1,17.88,3.51,33.39,33.39,0,0,1,14.37,10.8Z" transform="translate(-9.28 -77.12)"/><path class="cls-1" d="M214.93,79.46h32A41.37,41.37,0,0,1,258,80.89a26.24,26.24,0,0,1,8.85,4.23,19.74,19.74,0,0,1,5.85,7.15,22.86,22.86,0,0,1,2.15,10.21q0,7.93-4.42,12.94A25.79,25.79,0,0,1,259,122.77V123a19.47,19.47,0,0,1,7.8,2.15,21.33,21.33,0,0,1,6.31,4.94,23.86,23.86,0,0,1,5.79,15.8,23,23,0,0,1-2.54,11,23.67,23.67,0,0,1-7,8,32.28,32.28,0,0,1-10.28,4.94,45.27,45.27,0,0,1-12.62,1.69H214.93Zm12.49,38.24h17a29.62,29.62,0,0,0,6.63-.72,14.87,14.87,0,0,0,5.46-2.41,12.2,12.2,0,0,0,3.71-4.29,13.57,13.57,0,0,0,1.37-6.37,14,14,0,0,0-3.51-9.49q-3.51-4-11.06-4H227.42Zm0,42.92h18.34a37.93,37.93,0,0,0,6.31-.59,18.86,18.86,0,0,0,6.44-2.34,16,16,0,0,0,5.07-4.75,13.64,13.64,0,0,0,2.08-7.93q0-8.19-5.33-12.29t-14.44-4.1H227.42Z" transform="translate(-9.28 -77.12)"/><path class="cls-1" d="M299.6,152.29a20.51,20.51,0,0,0,8.65,7.48,25.85,25.85,0,0,0,10.86,2.41,22.11,22.11,0,0,0,6.37-1,19.37,19.37,0,0,0,5.92-2.93,16,16,0,0,0,4.36-4.81,12.8,12.8,0,0,0,1.69-6.63q0-5.33-3.38-8.13a29.28,29.28,0,0,0-8.39-4.68q-5-1.88-10.93-3.64a44.37,44.37,0,0,1-10.93-4.88,26.7,26.7,0,0,1-8.39-8.39q-3.38-5.27-3.38-14.24A24.55,24.55,0,0,1,299.34,86,30.5,30.5,0,0,1,309,79.65a36.06,36.06,0,0,1,14.24-2.54,49.75,49.75,0,0,1,14.44,2.08,24.82,24.82,0,0,1,12.1,8.45l-10.14,9.23A16.86,16.86,0,0,0,333,91a21,21,0,0,0-9.75-2.21,23.64,23.64,0,0,0-8.65,1.37,15.51,15.51,0,0,0-5.53,3.51,12.39,12.39,0,0,0-2.93,4.62,14.12,14.12,0,0,0-.85,4.55q0,5.85,3.38,9a26.25,26.25,0,0,0,8.39,5.07A100.88,100.88,0,0,0,328,120.43a46.82,46.82,0,0,1,10.93,4.36,25.45,25.45,0,0,1,8.39,7.54q3.38,4.75,3.38,13.07a27.51,27.51,0,0,1-2.54,12,26.55,26.55,0,0,1-6.83,9,30.28,30.28,0,0,1-10.15,5.59,39.24,39.24,0,0,1-12.49,2,45.4,45.4,0,0,1-16.78-3.12,27.57,27.57,0,0,1-12.62-9.62Z" transform="translate(-9.28 -77.12)"/><path class="cls-1" d="M225.17,220.79h-4V185.46h-13v-3.63h30v3.63h-13Z" transform="translate(-9.28 -77.12)"/><path class="cls-1" d="M254.51,181.83h4v16.89h21.24V181.83h4v39h-4V202.36H258.48v18.44h-4Z" transform="translate(-9.28 -77.12)"/><path class="cls-1" d="M306.93,220.79h-4v-39h4Z" transform="translate(-9.28 -77.12)"/><path class="cls-1" d="M344.93,188.27a8.55,8.55,0,0,0-7.54-3.8,11.25,11.25,0,0,0-3,.41,8.34,8.34,0,0,0-2.67,1.27,6.32,6.32,0,0,0-1.9,2.2,6.65,6.65,0,0,0-.72,3.16,5.48,5.48,0,0,0,1.49,4.1,11.74,11.74,0,0,0,3.69,2.39,40.71,40.71,0,0,0,4.82,1.68,22.14,22.14,0,0,1,4.82,2,11.49,11.49,0,0,1,3.69,3.27,9.25,9.25,0,0,1,1.49,5.56,10,10,0,0,1-1.13,4.76,11,11,0,0,1-3,3.55,14,14,0,0,1-4.13,2.2,14.31,14.31,0,0,1-4.59.77,17.42,17.42,0,0,1-6.8-1.35A12.93,12.93,0,0,1,324,216l3.63-2.59a9.44,9.44,0,0,0,3.51,3.44,10.49,10.49,0,0,0,5.32,1.29,9.78,9.78,0,0,0,3-.47,8.52,8.52,0,0,0,2.66-1.38,7.62,7.62,0,0,0,1.95-2.23,5.91,5.91,0,0,0,.77-3,6.22,6.22,0,0,0-.85-3.38,7.37,7.37,0,0,0-2.26-2.26,14.29,14.29,0,0,0-3.19-1.51q-1.79-.6-3.69-1.21t-3.69-1.38a12.69,12.69,0,0,1-3.19-2,8.74,8.74,0,0,1-2.26-3,10.39,10.39,0,0,1-.85-4.49,10.59,10.59,0,0,1,1.07-4.9,10.16,10.16,0,0,1,2.86-3.47,12.18,12.18,0,0,1,4-2,17.18,17.18,0,0,1,10.62.39,13,13,0,0,1,5,3.69Z" transform="translate(-9.28 -77.12)"/><path class="cls-1" d="M11,232H21l15.76,37.54H37L52.64,232h10v49.59H55.94V240.86H55.8L39.06,281.62H34.57L17.83,240.86h-.14v40.76H11Z" transform="translate(-9.28 -77.12)"/><path class="cls-1" d="M97.68,282.88a26.73,26.73,0,0,1-10.44-2,24.28,24.28,0,0,1-8.16-5.5,25.38,25.38,0,0,1-5.32-8.26,28.48,28.48,0,0,1,0-20.59,25.41,25.41,0,0,1,5.32-8.26,24.3,24.3,0,0,1,8.16-5.5,28.28,28.28,0,0,1,20.87,0,24.32,24.32,0,0,1,8.16,5.5,25.44,25.44,0,0,1,5.32,8.26,28.48,28.48,0,0,1,0,20.59,25.42,25.42,0,0,1-5.32,8.26,24.3,24.3,0,0,1-8.16,5.5A26.73,26.73,0,0,1,97.68,282.88Zm0-6.3a18,18,0,0,0,13.59-5.81A18.69,18.69,0,0,0,115,264.5a22.76,22.76,0,0,0,0-15.34,18.71,18.71,0,0,0-3.78-6.27,18.57,18.57,0,0,0-27.18,0,18.67,18.67,0,0,0-3.78,6.27,22.76,22.76,0,0,0,0,15.34,18.65,18.65,0,0,0,3.78,6.27,18,18,0,0,0,13.59,5.81Z" transform="translate(-9.28 -77.12)"/><path class="cls-1" d="M133.19,232h17.44a20.4,20.4,0,0,1,7.84,1.3,13.35,13.35,0,0,1,4.87,3.29,11.22,11.22,0,0,1,2.49,4.48,17.71,17.71,0,0,1,.7,4.8,12.78,12.78,0,0,1-.84,4.59,13,13,0,0,1-2.42,4,13.8,13.8,0,0,1-3.85,3,13.39,13.39,0,0,1-5.08,1.51l14.08,22.62H160l-12.61-21.85h-7.49v21.85h-6.72Zm6.72,21.85h8.82a24,24,0,0,0,3.89-.32,10.45,10.45,0,0,0,3.43-1.16,6.33,6.33,0,0,0,2.42-2.42,9.67,9.67,0,0,0,0-8.19,6.33,6.33,0,0,0-2.42-2.42,10.44,10.44,0,0,0-3.43-1.16,24.06,24.06,0,0,0-3.89-.32h-8.82Z" transform="translate(-9.28 -77.12)"/><path class="cls-1" d="M176,232h8.83l27.32,40.76h.14V232H219v49.59h-8.54l-27.6-40.76h-.14v40.76H176Z" transform="translate(-9.28 -77.12)"/><path class="cls-1" d="M231.73,232h6.72v49.59h-6.72Z" transform="translate(-9.28 -77.12)"/><path class="cls-1" d="M251.2,232H260l27.32,40.76h.14V232h6.72v49.59h-8.54l-27.6-40.76h-.14v40.76H251.2Z" transform="translate(-9.28 -77.12)"/><path class="cls-1" d="M349.19,253.89v24.44a22.6,22.6,0,0,1-4.13,2,44,44,0,0,1-4.8,1.44,40.94,40.94,0,0,1-5,.88,44.38,44.38,0,0,1-4.8.28,28.48,28.48,0,0,1-11.24-2.1,24.11,24.11,0,0,1-13.52-14,28,28,0,0,1-1.79-10,27.19,27.19,0,0,1,1.93-10.3,25.41,25.41,0,0,1,5.32-8.26,24.3,24.3,0,0,1,8.16-5.5,26.73,26.73,0,0,1,10.44-2,30.91,30.91,0,0,1,11.21,1.72,20.63,20.63,0,0,1,7.28,4.73l-4.76,5.11a17.63,17.63,0,0,0-6.51-4.1,22.46,22.46,0,0,0-7.21-1.16,18,18,0,0,0-13.59,5.81,18.67,18.67,0,0,0-3.78,6.27,22,22,0,0,0-1.33,7.67,20.48,20.48,0,0,0,1.47,7.81,19.34,19.34,0,0,0,4.06,6.27,18.71,18.71,0,0,0,6.09,4.17,19.1,19.1,0,0,0,7.63,1.51,33,33,0,0,0,6.76-.67,19,19,0,0,0,5.43-1.93v-13.8h-11v-6.3Z" transform="translate(-9.28 -77.12)"/><path class="cls-1" d="M58.27,78.35a49,49,0,1,0,49,49A49,49,0,0,0,58.27,78.35ZM57.72,154C27.3,154,14.9,127.23,14.9,127.23S28,100.62,57.72,100.62s43.91,26.61,43.91,26.61S88.14,154,57.72,154Z" transform="translate(-9.28 -77.12)"/><circle class="cls-1" cx="48.98" cy="50.21" r="23.58"/></svg>