<svg id="Layer_1" data-name="Layer 1" xmlns="http://www.w3.org/2000/svg" viewBox="0 0 343.17 167.49"><defs><style>.cls-1{fill:#afc2d5;}</style></defs><title>MIT logo</title><path class="cls-1" d="M68,96.25q0,23.34,0,46.69c0,.37,0,.74,0,1.16H57.33V109.29l-.06,0-8.33,34.87H39.58L31.26,109v35.06H20.6c0-.28-.06-.56-.06-.83q0-23.13,0-46.26c0-.26,0-.51.06-.77H36.91a2.88,2.88,0,0,1,.15.4L43.27,125c.3,1.37.61,2.74.92,4.1.2-.11.26-.2.28-.3q2.15-10,4.31-20,1.36-6.28,2.73-12.55Z" transform="translate(-8.42 -96.25)"/><path class="cls-1" d="M76.4,263.46a43.08,43.08,0,0,1-4.43-.95c-6.44-2.07-10-6.67-11.14-13.2a23.18,23.18,0,0,1,2.24-15.24,15.45,15.45,0,0,1,12-8.18,20.86,20.86,0,0,1,10.16.76c5.08,1.79,8.15,5.51,9.87,10.46a26.68,26.68,0,0,1,1.4,8.94c0,.16,0,.33,0,.55H71.3A8,8,0,0,0,76,254.85c4.56,1.87,9.28-.27,12.22-5.7l7.85,4.05a20.08,20.08,0,0,1-11.67,9.39c-1.33.39-2.73.59-4.09.87Zm9.23-23.4a6.86,6.86,0,0,0-7.19-7c-3.75.12-7.37,3.64-7.13,7Z" transform="translate(-8.42 -96.25)"/><path class="cls-1" d="M163.26,263.46c-1.31-.27-2.65-.45-3.92-.82a15.22,15.22,0,0,1-11-11.08,23.32,23.32,0,0,1,1.44-17c2.5-5.11,6.77-7.91,12.34-8.73a21.28,21.28,0,0,1,9.43.55c5.1,1.56,8.36,5.07,10.25,10a27.35,27.35,0,0,1,1.68,9.31c0,.28,0,.56,0,.91H158.21a8,8,0,0,0,5,8.29c4.6,1.71,8.66-.22,12-5.75l7.91,4.08c-.92,1.21-1.72,2.42-2.67,3.5A19.16,19.16,0,0,1,168,263.31a4,4,0,0,0-.57.15Zm9.29-23.41a6.75,6.75,0,0,0-6.6-7,7.54,7.54,0,0,0-7.74,7Z" transform="translate(-8.42 -96.25)"/><path class="cls-1" d="M351.58,168.18c-.63,1.8-1.28,3.58-1.87,5.39q-5.51,16.81-11,33.62a14.45,14.45,0,0,1-3.24,5.68,7.92,7.92,0,0,1-5.75,2.48c-3.29.07-6.58,0-9.87,0a2.89,2.89,0,0,1-.38-.06V207c1.61,0,3.17,0,4.74,0a12.46,12.46,0,0,0,2.55-.21,2.27,2.27,0,0,0,1.88-3c-.67-2.63-1.46-5.22-2.26-7.81q-4.2-13.63-8.43-27.25c-.08-.27-.14-.54-.24-.9.3,0,.53-.07.77-.07,3.18,0,6.35,0,9.53,0,.59,0,.83.15,1,.76q2.67,11.74,5.4,23.46c.05.24.13.47.27.94l5.79-25.14h11.14Z" transform="translate(-8.42 -96.25)"/><path class="cls-1" d="M8.42,155.31c.31,0,.63-.06.94-.06H44.13c-.13.61-.24,1.12-.35,1.64-.53,2.34-1.07,4.68-1.57,7-.13.6-.41.75-1,.74-2.92,0-5.84,0-8.75,0H31.38v38.5H20.51v-38.5H9.44c-.34,0-.68,0-1-.06Z" transform="translate(-8.42 -96.25)"/><path class="cls-1" d="M123.26,96.25v9.41h-12v38.44H100.48V105.72H88.41V96.25Z" transform="translate(-8.42 -96.25)"/><path class="cls-1" d="M85.32,96.25c0,.37,0,.74,0,1.11q0,22.78,0,45.57v1.16H74.91a4.45,4.45,0,0,1-.07-.56q0-23.64,0-47.28Z" transform="translate(-8.42 -96.25)"/><path class="cls-1" d="M281.25,203.93H292a.91.91,0,0,1,.1.25c.15,3.07,2.14,4.45,5,4.69a13.56,13.56,0,0,0,3.33-.08,4.53,4.53,0,0,0,4.21-4.55c.14-1.68,0-3.37.06-5.06a4.7,4.7,0,0,0-.07-.53l-1.37.83a15,15,0,0,1-17.76-1.67,13.94,13.94,0,0,1-4.11-7.57,23.42,23.42,0,0,1,.91-14.07c4.16-10.21,15.11-10.54,20.68-6.94.74.48,1.42,1.05,2.25,1.68v-3H315V169q0,16.69,0,33.39c0,6.87-3.21,11.08-9.92,12.7a29.6,29.6,0,0,1-15.35-.2,12.21,12.21,0,0,1-6.35-4A10.51,10.51,0,0,1,281.25,203.93Zm23.54-18.63c-.16-1.82-.26-3.3-.43-4.78a7.18,7.18,0,0,0-.42-1.57,5.61,5.61,0,0,0-5.22-3.91c-2.71-.18-4.91.65-6,3.25a16,16,0,0,0-.34,11.56c.82,2.61,2.86,3.81,5.87,3.79s4.93-1.28,5.73-3.87A36.47,36.47,0,0,0,304.79,185.3Z" transform="translate(-8.42 -96.25)"/><path class="cls-1" d="M225.46,226.75h10.7c-.57,1.95-1.12,3.83-1.68,5.72q-4.27,14.41-8.53,28.83c-.18.62-.41.87-1.09.86q-4.8-.05-9.61,0c-.63,0-.88-.17-1-.81q-2.35-10.89-4.77-21.76a.87.87,0,0,0-.31-.52q-.63,2.82-1.26,5.63c-1.23,5.55-2.47,11.09-3.67,16.65-.14.63-.38.83-1,.82-3.29,0-6.58,0-9.87,0-.49,0-.76-.11-.91-.64q-4.61-17.08-9.25-34.15c-.05-.19-.08-.38-.13-.61h10.88L198.75,251h.18l5.2-24.26H215.2l4.74,24.44.18,0Z" transform="translate(-8.42 -96.25)"/><path class="cls-1" d="M121.89,171.33c.63-.56,1.14-1,1.69-1.48a12.93,12.93,0,0,1,13.77-2c3.45,1.44,5,4.42,5.63,8a19.8,19.8,0,0,1,.25,3.24c0,7.72,0,15.44,0,23.17,0,.28,0,.56,0,.89H132.86c0-.35,0-.71,0-1.06,0-6.32,0-12.64,0-19a16.66,16.66,0,0,0-.61-4.21,4.22,4.22,0,0,0-4.19-3.19c-2.23-.14-4.08.47-5.14,2.62a12.26,12.26,0,0,0-1,5.51q0,9.1,0,18.19c0,.34,0,.68,0,1.09H111.42V155.31c.31,0,.58-.05.86-.05,2.89,0,5.78,0,8.67,0,.7,0,.92.19.92.91,0,4.72,0,9.44,0,14.16C121.85,170.6,121.87,170.9,121.89,171.33Z" transform="translate(-8.42 -96.25)"/><path class="cls-1" d="M203.31,204.36a22.68,22.68,0,0,1-9.65-2.15,15.68,15.68,0,0,1-8.6-10.34,22.14,22.14,0,0,1,.34-13.75c2.45-6.74,7.4-10.38,14.41-11.29a24.13,24.13,0,0,1,10.11.74c6.89,2.06,10.74,6.86,12,13.8a21.69,21.69,0,0,1-1.08,12.23c-2.37,5.89-6.92,9.13-13.06,10.26C206.33,204.14,204.81,204.2,203.31,204.36Zm8.58-18.8a45.5,45.5,0,0,0-1-5.11c-1.07-3.56-3.75-5.4-7.69-5.51a7.52,7.52,0,0,0-7.54,5,14.73,14.73,0,0,0,.14,11.28c1.35,3.24,4,4.68,7.4,4.71a7.46,7.46,0,0,0,7.2-4.34A15.37,15.37,0,0,0,211.89,185.56Z" transform="translate(-8.42 -96.25)"/><path class="cls-1" d="M259.13,204.2a20.33,20.33,0,0,1-9.17-1.78,15.43,15.43,0,0,1-8.52-9,21.92,21.92,0,0,1-.07-15.45c2.44-6.58,7.35-10.15,14.21-11.08a24.34,24.34,0,0,1,10.36.77,16,16,0,0,1,11.15,10.82,22.12,22.12,0,0,1,.23,13.51c-2,6.82-6.78,10.63-13.66,11.94a19.61,19.61,0,0,1-2.29.31C260.62,204.24,259.88,204.2,259.13,204.2Zm-8.61-18.9c.15,1.21.23,2.45.47,3.64.91,4.46,3.78,6.89,8.14,7,4,.09,7-2.38,8-6.69a15.89,15.89,0,0,0-.48-9.2,7.27,7.27,0,0,0-6.37-5c-3.35-.44-6.11.54-8,3.45A13,13,0,0,0,250.52,185.3Z" transform="translate(-8.42 -96.25)"/><path class="cls-1" d="M73.26,187.65H48a8,8,0,0,0,5.49,8.43c3.45,1.05,8.82.19,11.52-5.93l3.92,2L73,194.31c-1.3,1.58-2.42,3.18-3.78,4.53A19.49,19.49,0,0,1,54,204.45a18.9,18.9,0,0,1-8.15-2.08,15.2,15.2,0,0,1-7.82-10,23.7,23.7,0,0,1,1.25-16.25c2.56-5.61,7.08-8.57,13.11-9.34a22.07,22.07,0,0,1,7.67.31,15,15,0,0,1,10.09,7.34C72.52,178.49,73.23,182.9,73.26,187.65Zm-10.88-6.59c-.17-4.34-3.13-7.05-7.46-6.91-3.56.12-7,3.53-6.88,6.91Z" transform="translate(-8.42 -96.25)"/><path class="cls-1" d="M159.37,203.16H149V167.78h10.51v3c.59-.51,1-.92,1.47-1.26a14.2,14.2,0,0,1,10-2.57,15.19,15.19,0,0,1,2.95.5c3.81,1.07,6.16,4,6.53,8.23.09,1.05.14,2.11.15,3.17q0,11.63,0,23.26v1.07H170.07V202q0-9.7,0-19.4c0-.77,0-1.54-.07-2.31-.19-3.74-2.49-5.58-6.2-5a4.32,4.32,0,0,0-4,3.59,20.89,20.89,0,0,0-.44,4.08c0,6.35,0,12.7,0,19.05Z" transform="translate(-8.42 -96.25)"/><path class="cls-1" d="M101.1,190.76l7.88,4.08c-2.81,4.76-6.67,8-12.08,9.09a17.53,17.53,0,0,1-16.07-4.31A16,16,0,0,1,76,190.35a23.84,23.84,0,0,1,1-13c2.3-5.94,6.8-9.25,13-10.34a17.44,17.44,0,0,1,13.42,2.71,18.32,18.32,0,0,1,5.16,5.55l-7.68,4.39c-.5-.76-.94-1.54-1.49-2.22a6.69,6.69,0,0,0-6.76-2.58,6.05,6.05,0,0,0-4.35,3.2,14.32,14.32,0,0,0-.39,13.88A6.67,6.67,0,0,0,94.48,196c3.09-.11,5.06-1.84,6.3-4.54C100.87,191.29,101,191.08,101.1,190.76Z" transform="translate(-8.42 -96.25)"/><path class="cls-1" d="M113.21,250.58l5.8-23.83h10.74c-.65,2-1.28,4-1.92,6q-4.63,14.3-9.25,28.6a1,1,0,0,1-1.14.84c-3.12,0-6.23,0-9.35,0-.51,0-.81-.07-1-.65Q101.57,244.44,96,227.39c-.06-.19-.1-.38-.17-.68h2.25c2.63,0,5.26,0,7.89,0,.77,0,1,.27,1.18,1q2.88,11.06,5.81,22.11C113,250,113.08,250.17,113.21,250.58Z" transform="translate(-8.42 -96.25)"/><path class="cls-1" d="M226,203.12V155.31h10.35v47.81Z" transform="translate(-8.42 -96.25)"/><path class="cls-1" d="M143.12,226.77v35.32H132.86c0-.35,0-.66,0-1q0-16.64,0-33.28c0-.85.19-1.12,1.08-1.1,2.77.06,5.55,0,8.32,0Z" transform="translate(-8.42 -96.25)"/><path class="cls-1" d="M143.12,210.7v9.24H132.88V210.7Z" transform="translate(-8.42 -96.25)"/><path class="cls-1" d="M47.24,244.64c.75-.37,1.44-.7,2.12-1A12.27,12.27,0,0,0,56,235.75a17.69,17.69,0,0,0,.4-6.81,13.24,13.24,0,0,0-7.26-10.76,20.9,20.9,0,0,0-9.57-2.34c-7-.1-14,0-21-.05a2.4,2.4,0,0,0-.41.07v47.81H28.94v-17c2.23,0,4.37,0,6.5,0a1.19,1.19,0,0,1,1.25.76c2.75,5.2,5.53,10.39,8.28,15.59a1.21,1.21,0,0,0,1.25.75c3.52,0,7,0,10.55,0,.27,0,.54,0,.94-.05Zm-5.8-7.92a8.89,8.89,0,0,1-2.91.64c-3.17.08-6.35,0-9.53,0a3.69,3.69,0,0,1-.46-.06v-13h1.23c2.89,0,5.78,0,8.67,0a11.33,11.33,0,0,1,2.13.21,5.53,5.53,0,0,1,4.84,5.13A6.63,6.63,0,0,1,41.44,236.73Z" transform="translate(-8.42 -96.25)"/></svg>