<svg id="Layer_1" data-name="Layer 1" xmlns="http://www.w3.org/2000/svg" viewBox="0 0 68.56565 68.56565"><defs><style>.cls-1{fill:#fff;}.cls-2{fill:#0fa8cc;}.cls-3{opacity:0.9;}.cls-4,.cls-5{fill:#35c1dc;}.cls-5{opacity:0.5;}</style></defs><title>GenePeeks_Iconography_primary</title><rect class="cls-1" x="11.04115" y="11.04102" width="46.48329" height="46.48329" transform="translate(-14.2003 34.2824) rotate(-44.99957)"/><path class="cls-2" d="M34.28283,2.12129l32.1615,32.1615L34.28283,66.44441,2.12133,34.28279l32.1615-32.1615m0-1.41418L0.70712,34.28279,34.28283,67.85859,67.85854,34.28279,34.28283,0.7071h0Z"/><g class="cls-3"><path class="cls-4" d="M29.50044,26.64389a12.35547,12.35547,0,0,0-1.49778,1.27824,8.57758,8.57758,0,0,0-.00411,12.64905,13.40321,13.40321,0,0,0,5.79116,3.35552A10.21361,10.21361,0,0,1,38.14442,46.436a6.35994,6.35994,0,0,1,1.64129,2.69818h3.35508a9.1905,9.1905,0,0,0-2.66463-5.0094,13.40319,13.40319,0,0,0-5.79067-3.35552A10.2113,10.2113,0,0,1,30.3302,38.26a6.207,6.207,0,0,1-1.71986-2.99565H39.86849a5.39834,5.39834,0,0,1-.69623,1.70154H30.29033a6.64725,6.64725,0,0,0,.61786.71617A8.5564,8.5564,0,0,0,32.6497,39.0155h4.63322A10.40386,10.40386,0,0,1,35.439,40.14376a14.56545,14.56545,0,0,1,3.53161,1.7036,12.39173,12.39173,0,0,0,1.49729-1.2777,8.58125,8.58125,0,0,0,0-12.64959,13.40036,13.40036,0,0,0-5.79067-3.35552,10.21054,10.21054,0,0,1-4.3552-2.50936,6.3898,6.3898,0,0,1-1.621-2.62378H25.34578a9.2095,9.2095,0,0,0,2.65277,4.93706A13.40321,13.40321,0,0,0,33.78971,27.724a10.20819,10.20819,0,0,1,4.35471,2.50936,6.20925,6.20925,0,0,1,1.72006,2.99359H28.60661a5.50207,5.50207,0,0,1,.69369-1.70159h8.88046a6.76259,6.76259,0,0,0-.61786-0.71612,8.61851,8.61851,0,0,0-1.742-1.33349H31.18817A10.11772,10.11772,0,0,1,33.03156,28.348,14.61164,14.61164,0,0,1,29.50044,26.64389Z"/></g><path class="cls-5" d="M38.97261,25.64823A12.304,12.304,0,0,0,40.47,24.37053a9.21479,9.21479,0,0,0,2.65336-4.93911H39.744a5.68832,5.68832,0,0,1-.57936,1.33378H30.28827a6.42884,6.42884,0,0,0,.6158.71205,8.635,8.635,0,0,0,1.74768,1.3376h4.625A10.3785,10.3785,0,0,1,35.437,23.94051,14.6449,14.6449,0,0,1,38.97261,25.64823Z"/><path class="cls-5" d="M29.50044,42.84708a12.31233,12.31233,0,0,0-1.49778,1.2777,9.19,9.19,0,0,0-2.66473,5.0094h3.36125a5.59061,5.59061,0,0,1,.60317-1.40819h8.87635a6.53833,6.53833,0,0,0-.6158-0.71205,8.57811,8.57811,0,0,0-1.74768-1.3376H31.19179a10.32869,10.32869,0,0,1,1.83977-1.12566A14.62815,14.62815,0,0,1,29.50044,42.84708Z"/></svg>