<svg id="Layer_1" data-name="Layer 1" xmlns="http://www.w3.org/2000/svg" viewBox="0 0 68.56565 68.56565"><defs><style>.cls-1{fill:#fff;}.cls-2{fill:#ef6e62;}.cls-3,.cls-4{fill:#f48a84;}.cls-4{opacity:0.5;}</style></defs><title>GenePeeks_Iconography_primary</title><rect class="cls-1" x="11.04099" y="11.04109" width="46.48347" height="46.48347" transform="translate(-14.20044 34.28311) rotate(-45.00043)"/><path class="cls-2" d="M34.28284,2.12133l32.16144,32.1615L34.28284,66.44433,2.12134,34.28283l32.1615-32.1615m0-1.41418L0.7071,34.28283,34.28284,67.85851,67.85853,34.28283,34.28284,0.70714h0Z"/><path class="cls-3" d="M40.06774,37.23835c0-5.05742-5.26694-9.17309-11.74-9.17309a14.40516,14.40516,0,0,0-4.94294.85709c2.17037-3.84048,7.16213-6.52536,12.97382-6.52536,7.80106,0,14.12424,4.83624,14.12424,10.80173a9.72486,9.72486,0,0,1-4.22194,7.7l1.03075,5.01206-4.64746-3.04085a17.66544,17.66544,0,0,1-6.28387,1.13054c-0.03542,0-.06955-0.00346-0.105-0.00346A8.4039,8.4039,0,0,0,40.06774,37.23835Z"/><path class="cls-4" d="M18.08283,37.23835c0-4.14245,4.52088-7.51421,10.07942-7.51421S38.2434,33.0959,38.2434,37.23835c0,4.14288-4.52261,7.51464-10.08115,7.51464a13.00974,13.00974,0,0,1-3.69058-.52834l-3.22315,1.944,0.47779-3.16742A6.91582,6.91582,0,0,1,18.08283,37.23835Z"/></svg>