<?xml version="1.0" encoding="utf-8"?>
<!-- Generator: Adobe Illustrator 19.2.1, SVG Export Plug-In . SVG Version: 6.00 Build 0)  -->
<svg version="1.1" id="Layer_1" xmlns="http://www.w3.org/2000/svg" xmlns:xlink="http://www.w3.org/1999/xlink" x="0px" y="0px"
	 viewBox="0 0 168.6 38.6" style="enable-background:new 0 0 168.6 38.6;" xml:space="preserve">
<style type="text/css">
	.st0{fill:none;}
</style>
<title>Genepeeks_logo_rev2 RGB</title>
<metadata><?xpacket begin="﻿" id="W5M0MpCehiHzreSzNTczkc9d"?>
<x:xmpmeta xmlns:x="adobe:ns:meta/" x:xmptk="Adobe XMP Core 5.6-c111 79.158366, 2015/09/25-01:12:00        ">
   <rdf:RDF xmlns:rdf="http://www.w3.org/1999/02/22-rdf-syntax-ns#">
      <rdf:Description rdf:about=""
            xmlns:dc="http://purl.org/dc/elements/1.1/">
         <dc:title>
            <rdf:Alt>
               <rdf:li xml:lang="x-default">Genepeeks_logo_rev2 RGB</rdf:li>
            </rdf:Alt>
         </dc:title>
      </rdf:Description>
   </rdf:RDF>
</x:xmpmeta>
                                                                                                    
                                                                                                    
                                                                                                    
                                                                                                    
                                                                                                    
                                                                                                    
                                                                                                    
                                                                                                    
                                                                                                    
                                                                                                    
                                                                                                    
                                                                                                    
                                                                                                    
                                                                                                    
                                                                                                    
                                                                                                    
                                                                                                    
                                                                                                    
                                                                                                    
                                                                                                    
                           
<?xpacket end="w"?></metadata>
<path d="M13.5,13.3c0.7,1.1,1.1,2.4,1.1,3.7c-0.1,3.7-3.2,6.7-6.9,6.7c-0.2,0-0.6,0-1.1-0.1c-0.1,0-0.3,0-0.6,0
	c-1.6,1.4-2.3,2.1-2.3,2.6s0.4,0.6,1.5,0.6h6.6c3.3,0,4.8,1.3,4.8,4.2c0,4.2-4.3,7.5-9.6,7.5c-3.7,0-7-2-7-4.3
	c0-0.6,0.2-1.3,0.6-1.8C1.2,31.3,2,30.2,3,29.3c-1.8-0.5-2.5-1.1-2.5-2.1s1.1-2.5,3.5-4.4c-2.1-1.1-3.4-3.3-3.4-5.7
	c0-4,3-6.8,7.1-6.8c1.3,0,2.6,0.3,3.8,0.8H14l3.2-0.3v2.5C17.2,13.3,13.5,13.3,13.5,13.3z M11.8,29.6H5.2l-0.6,0.9
	c-1.1,1.8-1.5,2.5-1.5,3.1c0,1.3,1.8,2.3,4.2,2.3c3.6,0,6.9-2.1,6.9-4.5C14.1,30.2,13.3,29.6,11.8,29.6 M7.3,12.6
	c-2.3,0.2-4,2.1-3.9,4.4c-0.1,2.3,1.7,4.3,4,4.4c2.3-0.1,4.1-2,4-4.3c0-0.1,0-0.1,0-0.2C11.5,14.6,9.7,12.7,7.3,12.6
	C7.3,12.6,7.4,12.6,7.3,12.6"/>
<path d="M22.8,19.5c0,4.3,2.2,7,5.8,7c1.6,0,2.7-0.4,4.6-1.8l1.2,2.3c-2.6,1.6-4.1,2.2-6.4,2.2c-4.9,0-8.3-3.8-8.3-9.4
	s3.3-9.4,8.4-9.4c4.2,0,6.9,2.9,6.9,7.4v1.7L22.8,19.5L22.8,19.5z M27.9,13c-2.5,0-4.2,1.5-4.9,4.2h8.7C31.7,14.5,30.3,13,27.9,13"
	/>
<path d="M51.7,28.6V16c0.1-0.7,0-1.4-0.3-2.1c-0.4-0.6-1.1-1-1.8-0.9c-1.8,0-3.7,1.3-6.8,4.8v10.9h-2.9V10.8h3v3.7
	c0.7-0.9,1.5-1.7,2.4-2.4c1.3-1.1,3-1.7,4.8-1.8c3.1,0,4.7,1.6,4.7,4.9v13.3h-3.1C51.7,28.5,51.7,28.6,51.7,28.6z"/>
<path d="M62.6,19.5c0,4.3,2.2,7,5.8,7c1.6,0,2.7-0.4,4.6-1.8l1.2,2.3c-2.6,1.6-4.1,2.2-6.4,2.2c-5,0-8.3-3.8-8.3-9.4
	s3.3-9.4,8.4-9.4c4.2,0,6.9,2.9,6.9,7.4v1.7L62.6,19.5L62.6,19.5z M67.7,13c-2.5,0-4.2,1.5-4.9,4.2h8.7C71.6,14.5,70.1,13,67.7,13"
	/>
<g>
	<path class="st0" d="M125.5,13.4c-2.1,0-3.5,1.4-3.9,3.9h7.2C128.6,14.5,127.6,13.4,125.5,13.4z"/>
	<path class="st0" d="M107.1,13.4c-2.1,0-3.5,1.4-3.9,3.9h7.2C110.2,14.5,109.2,13.4,107.1,13.4z"/>
	<path class="st0" d="M87.4,13.6c-1.5,0-2.9,1-4,2.9v3.6v0.1v2.3c0,1.3,0.2,1.8,1,2.2c0.7,0.3,1.5,0.5,2.3,0.5
		c2.3,0,4.1-2.2,4.4-5.1h0c0.1-0.3,0.1-0.6,0.1-0.9C91.2,15.9,89.6,13.6,87.4,13.6z"/>
	<path d="M167.3,20.2c-0.3-0.3-0.6-0.5-0.8-0.6c-1.7-1-3.6-1.9-5.5-2.6c-1.6-0.6-2.3-1.1-2.3-1.9c0-1,1.2-1.7,3-1.7
		c1.5,0,2.9,0.5,4.2,1.3c0.4,0.2,0.8,0.5,1.3,0.8l1.5-3.8c-1.2-0.8-2.6-1.3-4-1.5c-1-0.2-2-0.3-3-0.4c-4.4,0-7.4,2.3-7.4,5.7
		c0,2,1.1,3.5,3.3,4.7c0.5,0.1,1,0.4,1.5,0.6l3.1,1.2c1.3,0.5,1.9,1.1,1.9,1.9c0,1-1.1,1.6-2.9,1.6c-0.7,0-1.4-0.1-2-0.4
		c-1.4-0.4-2.8-1.1-4-1.9l-1.5,3.8c1.4,0.8,2.9,1.4,4.5,1.7c1,0.2,2,0.3,3,0.4c4.4,0,7.3-2.2,7.3-5.5
		C168.5,22.4,168.1,21.2,167.3,20.2L167.3,20.2z"/>
	<path d="M88.5,9.9c-1.1,0-2.2,0.3-3.1,0.9c-0.8,0.6-1.5,1.3-2,2.1v-2.5h-4.7v9.7v0.1v17.5h4.7v-9.9c0.6,0.7,1.5,1.1,2.4,1.2
		c0.5,0.1,1,0.1,1.4,0.1c4.6,0,8.3-3.8,8.8-9c0-0.4,0.1-0.8,0.1-1.2C96.1,13.7,92.9,9.9,88.5,9.9z M91.1,20.1
		c-0.3,2.9-2.1,5.1-4.4,5.1c-0.8,0-1.6-0.2-2.3-0.5c-0.8-0.4-1-0.9-1-2.2v-2.3v-0.1v-3.6c1.1-1.9,2.5-2.9,4-2.9
		c2.2,0,3.8,2.3,3.8,5.6C91.2,19.5,91.2,19.8,91.1,20.1L91.1,20.1z"/>
	<path d="M107.4,9.9c-5.2,0-9.2,4.4-9.2,10.1c0,0.1,0,0.1,0,0.2c0.1,5.6,3.5,9,8.8,9c2.1,0,4.1-0.4,6-1.3c0.4-0.2,1.1-0.5,2-1
		l-1.7-3.6c-1.1,0.8-2.2,1.3-3.5,1.7c-0.7,0.2-1.4,0.3-2.2,0.3c-1.7,0-3.2-0.8-4.1-2.2c-0.5-0.9-0.7-1.9-0.6-2.9H115v-2
		C115.1,13.3,111.9,9.9,107.4,9.9z M103.2,17.3c0.4-2.5,1.8-3.9,3.9-3.9c2.1,0,3.1,1.1,3.3,3.9H103.2z"/>
	<path d="M125.8,9.9c-5.2,0-9.2,4.4-9.2,10.1c0,0.1,0,0.1,0,0.2c0.1,5.6,3.4,9,8.8,9c2.1,0,4.1-0.4,6-1.3c0.4-0.2,1.1-0.5,2-1
		l-1.7-3.6c-1.1,0.8-2.2,1.3-3.5,1.7c-0.7,0.2-1.4,0.3-2.2,0.3c-1.7,0-3.2-0.8-4.1-2.2c-0.5-0.9-0.7-1.9-0.6-2.9h12.1v-2
		C133.5,13.3,130.3,9.9,125.8,9.9z M121.6,17.3c0.4-2.5,1.8-3.9,3.9-3.9s3.1,1.1,3.3,3.9H121.6z"/>
	<polygon points="145.7,18.8 152.2,10.4 147,10.4 141.3,18.3 141.3,0 136.6,0 136.6,20.2 136.6,28.6 141.3,28.6 141.3,20.2 
		141.3,19.2 141.9,20.2 147,28.6 152.3,28.6 146.6,20.2 	"/>
</g>
</svg>
