<?xml version="1.0" encoding="utf-8"?>
<!-- Generator: Adobe Illustrator 19.2.1, SVG Export Plug-In . SVG Version: 6.00 Build 0)  -->
<svg version="1.1" id="Layer_1" xmlns="http://www.w3.org/2000/svg" xmlns:xlink="http://www.w3.org/1999/xlink" x="0px" y="0px"
	 viewBox="0 0 72 72" style="enable-background:new 0 0 72 72;" xml:space="preserve">
<title>GenePeeks_Iconography_secondary</title>
<metadata><?xpacket begin="﻿" id="W5M0MpCehiHzreSzNTczkc9d"?>
<x:xmpmeta xmlns:x="adobe:ns:meta/" x:xmptk="Adobe XMP Core 5.6-c111 79.158366, 2015/09/25-01:12:00        ">
   <rdf:RDF xmlns:rdf="http://www.w3.org/1999/02/22-rdf-syntax-ns#">
      <rdf:Description rdf:about=""
            xmlns:dc="http://purl.org/dc/elements/1.1/">
         <dc:title>
            <rdf:Alt>
               <rdf:li xml:lang="x-default">GenePeeks_Iconography_secondary</rdf:li>
            </rdf:Alt>
         </dc:title>
      </rdf:Description>
   </rdf:RDF>
</x:xmpmeta>
                                                                                                    
                                                                                                    
                                                                                                    
                                                                                                    
                                                                                                    
                                                                                                    
                                                                                                    
                                                                                                    
                                                                                                    
                                                                                                    
                                                                                                    
                                                                                                    
                                                                                                    
                                                                                                    
                                                                                                    
                                                                                                    
                                                                                                    
                                                                                                    
                                                                                                    
                                                                                                    
                           
<?xpacket end="w"?></metadata>
<path d="M51.6,36.1v9.3l-9.1-9.3l0.1-0.1H39l-1.8,1.8c-0.3,0.3-0.7,0.4-1.1,0.4l0,0c-0.4,0-0.8-0.1-1.1-0.4l-1.9-1.7h-3.5l0,0
	l-9.1,9.3v-9.3H18v13.7h36.2V36.1H51.6L51.6,36.1z M22.2,47.2l9.2-9.4l1.7,1.8c0.8,0.8,1.8,1.2,2.9,1.2l0,0c1.1,0,2.1-0.4,2.9-1.2
	l1.7-1.7l9.1,9.3L22.2,47.2L22.2,47.2z"/>
<polygon points="20.5,36.1 20.5,26.8 29.6,36.1 33.1,36.1 22.2,24.9 50,24.9 39,36 42.6,36 51.6,26.9 51.6,36.1 54.2,36.1 
	54.2,22.4 18,22.5 18,36.1 "/>
</svg>
