<?xml version="1.0" encoding="utf-8"?>
<!-- Generator: Adobe Illustrator 19.2.1, SVG Export Plug-In . SVG Version: 6.00 Build 0)  -->
<svg version="1.1" id="Layer_1" xmlns="http://www.w3.org/2000/svg" xmlns:xlink="http://www.w3.org/1999/xlink" x="0px" y="0px"
	 viewBox="0 0 72 72" style="enable-background:new 0 0 72 72;" xml:space="preserve">
<title>GenePeeks_Iconography_secondary</title>
<metadata><?xpacket begin="﻿" id="W5M0MpCehiHzreSzNTczkc9d"?>
<x:xmpmeta xmlns:x="adobe:ns:meta/" x:xmptk="Adobe XMP Core 5.6-c111 79.158366, 2015/09/25-01:12:00        ">
   <rdf:RDF xmlns:rdf="http://www.w3.org/1999/02/22-rdf-syntax-ns#">
      <rdf:Description rdf:about=""
            xmlns:dc="http://purl.org/dc/elements/1.1/">
         <dc:title>
            <rdf:Alt>
               <rdf:li xml:lang="x-default">GenePeeks_Iconography_secondary</rdf:li>
            </rdf:Alt>
         </dc:title>
      </rdf:Description>
   </rdf:RDF>
</x:xmpmeta>
                                                                                                    
                                                                                                    
                                                                                                    
                                                                                                    
                                                                                                    
                                                                                                    
                                                                                                    
                                                                                                    
                                                                                                    
                                                                                                    
                                                                                                    
                                                                                                    
                                                                                                    
                                                                                                    
                                                                                                    
                                                                                                    
                                                                                                    
                                                                                                    
                                                                                                    
                                                                                                    
                           
<?xpacket end="w"?></metadata>
<path d="M45.2,40.5v-1.4c0-1.9-1.5-3.4-3.4-3.4H37v-0.9c4.6-2.3,6.5-7.9,4.2-12.5c-1.5-3.1-4.6-5.1-8.1-5.2c-0.1,0-0.2,0-0.3,0l0,0
	c-5.1,0-9.3,4.2-9.3,9.3c0,3.4,1.8,6.5,4.8,8.1v1.1h-4.5c-1.9,0-3.4,1.5-3.4,3.4v9.1c0,4,4.7,6.5,12.4,6.5c2.6,0,5.1-0.4,7.6-1.2
	c1.2,0.8,2.6,1.3,4.1,1.3c0.1,0,0.1,0,0.2,0c4-0.1,7.1-3.4,7-7.3C51.5,43.9,48.8,40.9,45.2,40.5z M44.6,53.6L44.6,53.6
	c-3.4,0-6-2.6-6-5.9c0-3.1,2.3-5.6,5.4-5.9c0.1,0,0.3,0,0.4,0h0.1h0.1c0.2,0,0.4,0,0.6,0c3.2,0.4,5.5,3.4,5.1,6.6
	C49.9,51.3,47.5,53.5,44.6,53.6z"/>
<path d="M47,47h-2v-2c0-0.3-0.2-0.6-0.5-0.6h-0.1c-0.2,0-0.4,0.1-0.5,0.3c-0.1,0.1-0.1,0.2-0.1,0.3v2h-2c-0.4,0-0.6,0.3-0.6,0.6
	s0.3,0.6,0.6,0.6h2v2v0.1c0,0.2,0.2,0.4,0.4,0.5c0.1,0,0.1,0,0.2,0c0.4,0,0.6-0.3,0.6-0.6l0,0v-2h2c0.4,0,0.6-0.3,0.6-0.6
	S47.4,47,47,47L47,47z"/>
<path d="M45.2,40.2v-1c0-1.9-1.5-3.4-3.4-3.4H37v-0.9c4.6-2.3,6.5-7.9,4.2-12.5c-1.5-3.1-4.6-5.1-8.1-5.2c-0.1,0-0.2,0-0.3,0l0,0
	c-5.1,0-9.3,4.2-9.3,9.3c0,3.4,1.8,6.5,4.8,8.1v1.1h-4.5c-1.9,0-3.4,1.5-3.4,3.4v1C20.4,40.2,45.2,40.2,45.2,40.2z"/>
</svg>
