<svg id="Layer_1" data-name="Layer 1" xmlns="http://www.w3.org/2000/svg" viewBox="0 0 72 72"><defs><style>.cls-1{fill:#36969f;}.cls-2{fill:#6bbec3;}</style></defs><title>GenePeeks_Iconography_secondary</title><path class="cls-1" d="M21.73838,32.378l5.91693,3.416h3.55652a1.18923,1.18923,0,0,0-.5929-1.02771l-6.66821-3.84961L27.259,25.18633l6.66748,3.84961a1.18573,1.18573,0,0,0,1.77863-1.02771v-7.6991h6.619v7.6991a1.18539,1.18539,0,0,0,1.77826,1.02771l6.66711-3.84961,3.30908,5.73035-6.66748,3.84961a1.18986,1.18986,0,0,0-.59247,1.02771h3.55695l5.91693-3.416a1.187,1.187,0,0,0,.43359-1.61938l-4.49567-7.78564a1.18476,1.18476,0,0,0-1.61938-.43372L44.6945,25.95512V19.12334a1.18521,1.18521,0,0,0-1.18536-1.18579H34.51939A1.18553,1.18553,0,0,0,33.334,19.12334v6.83154l-5.91577-3.416a1.1867,1.1867,0,0,0-1.61981.43408l-4.49365,7.78564A1.18625,1.18625,0,0,0,21.73838,32.378Z"/><path class="cls-2" d="M56.29209,39.20989L50.37559,35.794H46.81864a1.18368,1.18368,0,0,0,.59247,1.02563l6.6687,3.84924L50.7703,46.40154,44.102,42.552a1.18536,1.18536,0,0,0-1.77826,1.02563v7.70117H35.70512V43.57964a1.18573,1.18573,0,0,0-1.77863-1.02527L27.25944,46.404l-3.30951-5.73279,6.669-3.85156a1.18306,1.18306,0,0,0,.5929-1.02563H27.65531L21.738,39.20989a1.18649,1.18649,0,0,0-.43445,1.61951l4.4953,7.78564a1.19263,1.19263,0,0,0,.72034.554,1.20714,1.20714,0,0,0,.899-0.12036L33.334,45.63481v6.82983a1.18553,1.18553,0,0,0,1.18536,1.18579h8.98975a1.18576,1.18576,0,0,0,1.18579-1.18628V45.63078l5.9165,3.41589A1.188,1.188,0,0,0,52.232,48.6126l4.49371-7.783A1.18629,1.18629,0,0,0,56.29209,39.20989Z"/></svg>