<svg id="Layer_1" data-name="Layer 1" xmlns="http://www.w3.org/2000/svg" viewBox="0 0 72 72"><defs><style>.cls-1{fill:#0fa8cc;}.cls-2{fill:#35c1dc;}</style></defs><title>GenePeeks_Iconography_secondary</title><path class="cls-1" d="M19.54608,32.79L25.463,36.206h3.55652a1.18923,1.18923,0,0,0-.5929-1.02771l-6.66821-3.84961,3.30829-5.73035L31.73419,29.448a1.18573,1.18573,0,0,0,1.77863-1.02771v-7.6991h6.619v7.6991A1.18539,1.18539,0,0,0,41.91009,29.448l6.66711-3.84961,3.30908,5.73035L45.21881,35.1783a1.18986,1.18986,0,0,0-.59247,1.02771h3.55695l5.91693-3.416a1.187,1.187,0,0,0,.43359-1.61938L50.03815,23.385a1.18476,1.18476,0,0,0-1.61938-.43372L42.5022,26.36714V19.53535a1.18521,1.18521,0,0,0-1.18536-1.18579H32.32709a1.18553,1.18553,0,0,0-1.18536,1.18579V26.3669l-5.91577-3.416a1.1867,1.1867,0,0,0-1.61981.43408l-4.49365,7.78564A1.18625,1.18625,0,0,0,19.54608,32.79Z"/><path class="cls-2" d="M54.09979,39.6219L48.18329,36.206H44.62634a1.18368,1.18368,0,0,0,.59247,1.02563l6.6687,3.84924L48.578,46.81355l-6.66827-3.84949a1.18536,1.18536,0,0,0-1.77826,1.02563v7.70117H33.51282V43.99165a1.18573,1.18573,0,0,0-1.77863-1.02527L25.06714,46.816l-3.30951-5.73279,6.669-3.85156a1.18306,1.18306,0,0,0,.5929-1.02563H25.463l-5.9173,3.41589a1.18649,1.18649,0,0,0-.43445,1.61951l4.4953,7.78564a1.19263,1.19263,0,0,0,.72034.554,1.20714,1.20714,0,0,0,.899-0.12036l5.91577-3.41382v6.82983a1.18553,1.18553,0,0,0,1.18536,1.18579h8.98975a1.18576,1.18576,0,0,0,1.18579-1.18628V46.0428l5.9165,3.41589a1.188,1.188,0,0,0,1.62061-.43408l4.49371-7.783A1.18629,1.18629,0,0,0,54.09979,39.6219Z"/></svg>