<svg id="Layer_1" data-name="Layer 1" xmlns="http://www.w3.org/2000/svg" viewBox="0 0 72 72"><defs><style>.cls-1{fill:#e94a72;}.cls-2{fill:#f17c9e;}</style></defs><title>GenePeeks_Iconography_secondary</title><path class="cls-1" d="M19.68147,32.584L25.5984,36h3.55652a1.18923,1.18923,0,0,0-.5929-1.02771l-6.66821-3.84961,3.30829-5.73035,6.66748,3.84961a1.18573,1.18573,0,0,0,1.77863-1.02771v-7.6991h6.619v7.6991a1.18539,1.18539,0,0,0,1.77826,1.02771l6.66711-3.84961,3.30908,5.73035L45.3542,34.97229A1.18986,1.18986,0,0,0,44.76173,36h3.55695l5.91693-3.416a1.187,1.187,0,0,0,.43359-1.61938L50.17353,23.179a1.18476,1.18476,0,0,0-1.61938-.43372l-5.91656,3.41589V19.32935a1.18521,1.18521,0,0,0-1.18536-1.18579H32.46248a1.18553,1.18553,0,0,0-1.18536,1.18579v6.83154l-5.91577-3.416a1.1867,1.1867,0,0,0-1.61981.43408L19.24788,30.9646A1.18625,1.18625,0,0,0,19.68147,32.584Z"/><path class="cls-2" d="M54.23518,39.41589L48.31868,36H44.76173a1.18368,1.18368,0,0,0,.59247,1.02563l6.6687,3.84924-3.30951,5.73267-6.66827-3.84949a1.18536,1.18536,0,0,0-1.77826,1.02563v7.70117H33.64821V43.78564a1.18573,1.18573,0,0,0-1.77863-1.02527L25.20253,46.61,21.893,40.8772l6.669-3.85156A1.18306,1.18306,0,0,0,29.15492,36H25.5984l-5.9173,3.41589a1.18649,1.18649,0,0,0-.43445,1.61951L23.742,48.821a1.19263,1.19263,0,0,0,.72034.554,1.20714,1.20714,0,0,0,.899-0.12036l5.91577-3.41382v6.82983a1.18553,1.18553,0,0,0,1.18536,1.18579h8.98975A1.18576,1.18576,0,0,0,42.638,52.67017V45.83679l5.9165,3.41589a1.188,1.188,0,0,0,1.62061-.43408l4.49371-7.783A1.18629,1.18629,0,0,0,54.23518,39.41589Z"/></svg>