<svg id="Layer_1" data-name="Layer 1" xmlns="http://www.w3.org/2000/svg" viewBox="0 0 68.56565 68.56565"><defs><style>.cls-1{fill:#fff;}.cls-2{fill:#ef6e62;}.cls-3,.cls-4{fill:#f48a84;}.cls-3{opacity:0.5;}</style></defs><title>GenePeeks_Iconography_primary</title><rect class="cls-1" x="11.04099" y="11.04093" width="46.48347" height="46.48347" transform="translate(-14.20033 34.28234) rotate(-44.99957)"/><path class="cls-2" d="M34.28278,2.12129L66.44434,34.28291,34.28278,66.44441,2.12134,34.28291,34.28278,2.12129m0-1.41418L0.7071,34.28291,34.28278,67.85859,67.85859,34.28291,34.28278,0.7071h0Z"/><polygon class="cls-3" points="29.002 25.986 41.027 25.986 41.027 42.58 29.002 42.58 29.002 46.026 45.163 46.026 45.163 22.54 29.002 22.54 29.002 25.986"/><polygon class="cls-4" points="29.044 28.598 29.044 31.668 21.402 31.668 21.402 36.898 29.044 36.898 29.044 39.968 37.368 34.283 29.044 28.598"/></svg>