<svg id="Layer_1" data-name="Layer 1" xmlns="http://www.w3.org/2000/svg" viewBox="0 0 68.56565 68.56565"><defs><style>.cls-1{fill:#fff;}.cls-2{fill:#e94a72;}.cls-3,.cls-4{fill:#f17c9e;}.cls-3{opacity:0.5;}</style></defs><title>GenePeeks_Iconography_primary</title><rect class="cls-1" x="11.04111" y="11.04102" width="46.48329" height="46.48329" transform="translate(-14.20032 34.28237) rotate(-44.99957)"/><path class="cls-2" d="M34.28276,2.12129L66.44432,34.28291,34.28276,66.44441,2.12132,34.28291,34.28276,2.12129m0-1.41418L0.70708,34.28291,34.28276,67.85859,67.85857,34.28291,34.28276,0.7071h0Z"/><polygon class="cls-3" points="29.002 25.986 41.027 25.986 41.027 42.58 29.002 42.58 29.002 46.026 45.163 46.026 45.163 22.54 29.002 22.54 29.002 25.986"/><polygon class="cls-4" points="29.044 28.598 29.044 31.668 21.402 31.668 21.402 36.898 29.044 36.898 29.044 39.968 37.368 34.283 29.044 28.598"/></svg>