<svg id="Layer_1" data-name="Layer 1" xmlns="http://www.w3.org/2000/svg" viewBox="0 0 68.56565 68.56565"><defs><style>.cls-1{fill:#fff;}.cls-2{fill:#9470b0;}.cls-3,.cls-4{fill:#ad8abf;}.cls-3{opacity:0.5;}</style></defs><title>GenePeeks_Iconography_primary</title><rect class="cls-1" x="11.04124" y="11.04102" width="46.48329" height="46.48329" transform="translate(-14.20028 34.28246) rotate(-44.99957)"/><path class="cls-2" d="M34.28277,2.12129L66.44436,34.28291,34.28277,66.44441,2.1213,34.28291,34.28277,2.12129m0-1.41418L0.70708,34.28291,34.28277,67.85859,67.85857,34.28291,34.28277,0.7071h0Z"/><polygon class="cls-3" points="29.002 25.986 41.027 25.986 41.027 42.58 29.002 42.58 29.002 46.026 45.163 46.026 45.163 22.54 29.002 22.54 29.002 25.986"/><polygon class="cls-4" points="29.044 28.598 29.044 31.668 21.402 31.668 21.402 36.898 29.044 36.898 29.044 39.968 37.368 34.283 29.044 28.598"/></svg>